<?xml version="1.0" encoding="UTF-8" standalone="no"?>
<!-- Created with Inkscape (http://www.inkscape.org/) -->

<svg
   xmlns:dc="http://purl.org/dc/elements/1.1/"
   xmlns:cc="http://creativecommons.org/ns#"
   xmlns:rdf="http://www.w3.org/1999/02/22-rdf-syntax-ns#"
   xmlns:svg="http://www.w3.org/2000/svg"
   xmlns="http://www.w3.org/2000/svg"
   xmlns:sodipodi="http://sodipodi.sourceforge.net/DTD/sodipodi-0.dtd"
   xmlns:inkscape="http://www.inkscape.org/namespaces/inkscape"
   width="1000"
   height="1000"
   viewBox="0 0 1000 1000"
   version="1.1"
   id="svg8"
   inkscape:version="0.92.4 5da689c313, 2019-01-14"
   sodipodi:docname="emoji_u1f468_200d_1f6ab.svg">
  <defs
     id="defs2" />
  <sodipodi:namedview
     id="base"
     pagecolor="#ffffff"
     bordercolor="#666666"
     borderopacity="1.0"
     inkscape:pageopacity="0.0"
     inkscape:pageshadow="2"
     inkscape:zoom="0.35000001"
     inkscape:cx="78.335725"
     inkscape:cy="633.69251"
     inkscape:document-units="px"
     inkscape:current-layer="layer1"
     showgrid="true"
     inkscape:window-width="1916"
     inkscape:window-height="1056"
     inkscape:window-x="0"
     inkscape:window-y="20"
     inkscape:window-maximized="1"
     units="px"
     gridtolerance="10"
     inkscape:snap-bbox="true"
     inkscape:bbox-paths="true"
     inkscape:bbox-nodes="true"
     inkscape:snap-bbox-edge-midpoints="true"
     inkscape:snap-bbox-midpoints="true"
     inkscape:object-paths="true"
     inkscape:snap-intersection-paths="true"
     inkscape:snap-smooth-nodes="true"
     inkscape:snap-midpoints="true"
     inkscape:snap-nodes="false">
    <inkscape:grid
       type="xygrid"
       id="grid815"
       units="px"
       spacingx="50"
       spacingy="50" />
  </sodipodi:namedview>
  <metadata
     id="metadata5">
    <rdf:RDF>
      <cc:Work
         rdf:about="">
        <dc:format>image/svg+xml</dc:format>
        <dc:type
           rdf:resource="http://purl.org/dc/dcmitype/StillImage" />
        <dc:title></dc:title>
      </cc:Work>
    </rdf:RDF>
  </metadata>
  <g
     inkscape:label="Layer 1"
     inkscape:groupmode="layer"
     id="layer1"
     transform="translate(0,-32.416667)">
    <path
       inkscape:connector-curvature="0"
       style="fill:#f2760f;stroke-width:20.83333206;font-variant-east_asian:normal;opacity:1;vector-effect:none;fill-opacity:1;stroke-linecap:butt;stroke-linejoin:miter;stroke-miterlimit:4;stroke-dasharray:none;stroke-dashoffset:0;stroke-opacity:1"
       d="M 888.85774,1032.4167 V 893.52777 c 0,-92.05559 -74.61113,-166.66669 -166.66666,-166.66669 H 277.74666 c -92.02777,0 -166.66666,74.6111 -166.66666,166.66669 v 138.88893 z"
       id="path2484" />
    <path
       inkscape:connector-curvature="0"
       style="fill:#ffdc5d;stroke-width:27.77777672"
       d="m 378.85777,729.80552 c 0,24.83333 65.55555,55.36111 121.1111,55.36111 55.55555,0 121.08331,-30.52778 121.08331,-55.33333 V 623.80553 H 378.82997 v 105.99999 z"
       id="path2486" />
    <path
       inkscape:connector-curvature="0"
       style="fill:#f9ca55;stroke-width:27.77777672"
       d="m 378.63558,670.55552 c 33.7777,38.16667 75.66665,48.5 121.2222,48.5 45.52776,0 87.3889,-10.36111 121.1944,-48.5 V 573.58331 H 378.60779 v 96.97221 z"
       id="path2488" />
    <path
       inkscape:connector-curvature="0"
       style="fill:#ffdc5d;stroke-width:27.77777672"
       d="m 317.85777,391.74998 c 0,40.22222 -20.38889,72.83333 -45.52778,72.83333 -25.13889,0 -45.52777,-32.61111 -45.52777,-72.83333 0,-40.22222 20.38888,-72.86111 45.52777,-72.86111 25.13889,-0.0278 45.52778,32.61111 45.52778,72.86111 m 455.24994,0 c 0,40.22222 -20.36107,72.83333 -45.52776,72.83333 -25.13889,0 -45.52775,-32.61111 -45.52775,-72.83333 0,-40.22222 20.36107,-72.86111 45.52775,-72.86111 25.16669,-0.0278 45.52776,32.61111 45.52776,72.86111"
       id="path2490" />
    <path
       inkscape:connector-curvature="0"
       style="fill:#ffdc5d;stroke-width:27.77777672"
       d="m 263.21888,420.19442 c 0,-155.24999 105.99996,-281.13887 236.74999,-281.13887 130.75003,0 236.72225,125.88888 236.72225,281.13887 0,155.25 -105.97222,281.13888 -236.72225,281.13888 C 369.24663,701.3055 263.21888,575.44442 263.21888,420.19442"
       id="path2492" />
    <path
       inkscape:connector-curvature="0"
       style="fill:#c1694f;stroke-width:27.77777672"
       d="m 499.96887,610.24997 c -76.49998,0 -99.99999,-19.58333 -103.91668,-23.55555 -7.11113,-7.11111 -7.11113,-18.63889 0,-25.75 6.88895,-6.88889 17.94446,-7.08333 25.05559,-0.63889 1.44439,1.02778 20.0278,13.52778 78.86109,13.52778 61.11111,0 78.7778,-13.47222 78.94448,-13.61111 7.11103,-7.08334 18.24994,-6.75 25.36107,0.41666 7.11113,7.11111 6.72226,18.97222 -0.38887,26.05556 -3.91668,3.97222 -27.4167,23.55555 -103.91668,23.55555"
       id="path2494" />
    <path
       inkscape:connector-curvature="0"
       style="fill:#ffac33;stroke-width:27.77777672"
       d="m 499.96887,32.416667 c 156.88884,0 254.94439,129.111103 254.94439,225.583323 0,96.47222 -19.61103,135.08332 -39.22216,96.47222 l -39.22226,-77.16667 c 0,0 -117.63888,0 -156.86104,-38.61111 0,0 58.83329,115.77778 -58.83339,0 0,0 19.61113,77.19444 -98.05555,-19.27777 0,0 -58.83331,38.58333 -78.44442,135.05555 -5.44445,26.77777 -39.22222,0 -39.22222,-96.47222 0,-96.47222 78.41666,-225.583323 254.91665,-225.583323"
       id="path2496" />
    <path
       inkscape:connector-curvature="0"
       style="fill:#662113;stroke-width:27.77777672"
       d="m 388.85777,421.30554 c -15.27778,0 -27.77778,-12.5 -27.77778,-27.77778 v -27.77778 c 0,-15.27777 12.5,-27.77777 27.77778,-27.77777 15.27777,0 27.77777,12.5 27.77777,27.77777 v 27.77778 c 0,15.27778 -12.5,27.77778 -27.77777,27.77778 m 222.22221,0 c -15.27778,0 -27.77778,-12.5 -27.77778,-27.77778 v -27.77778 c 0,-15.27777 12.5,-27.77777 27.77778,-27.77777 15.27777,0 27.77777,12.5 27.77777,27.77777 v 27.77778 c 0,15.27778 -12.5,27.77778 -27.77777,27.77778"
       id="path2498" />
    <path
       inkscape:connector-curvature="0"
       style="fill:#c1694f;stroke-width:27.77777672"
       d="m 520.8022,497.69442 h -41.66666 c -11.47218,0 -20.83333,-9.36111 -20.83333,-20.83333 0,-11.47222 9.36115,-20.83333 20.83333,-20.83333 h 41.66666 c 11.47219,0 20.83334,9.36111 20.83334,20.83333 0,11.47222 -9.36115,20.83333 -20.83334,20.83333"
       id="path2500" />
    <g
       id="g1703"
       style="font-variant-east_asian:normal;opacity:1;vector-effect:none;fill:#99aab5;fill-opacity:1;stroke-width:1;stroke-linecap:butt;stroke-linejoin:miter;stroke-miterlimit:4;stroke-dasharray:none;stroke-dashoffset:0;stroke-opacity:1">
      <rect
         y="32.416668"
         x="275"
         height="1000"
         width="50"
         id="rect1684"
         style="opacity:1;vector-effect:none;fill:#99aab5;fill-opacity:1;stroke:none;stroke-width:1;stroke-linecap:butt;stroke-linejoin:miter;stroke-miterlimit:4;stroke-dasharray:none;stroke-dashoffset:0;stroke-opacity:1;paint-order:normal;font-variant-east_asian:normal" />
      <rect
         style="opacity:1;vector-effect:none;fill:#99aab5;fill-opacity:1;stroke:none;stroke-width:1;stroke-linecap:butt;stroke-linejoin:miter;stroke-miterlimit:4;stroke-dasharray:none;stroke-dashoffset:0;stroke-opacity:1;paint-order:normal;font-variant-east_asian:normal"
         id="rect1686"
         width="50"
         height="1000"
         x="75"
         y="32.416668" />
      <rect
         y="32.416668"
         x="475"
         height="1000"
         width="50"
         id="rect1688"
         style="opacity:1;vector-effect:none;fill:#99aab5;fill-opacity:1;stroke:none;stroke-width:1;stroke-linecap:butt;stroke-linejoin:miter;stroke-miterlimit:4;stroke-dasharray:none;stroke-dashoffset:0;stroke-opacity:1;paint-order:normal;font-variant-east_asian:normal" />
      <rect
         style="opacity:1;vector-effect:none;fill:#99aab5;fill-opacity:1;stroke:none;stroke-width:1;stroke-linecap:butt;stroke-linejoin:miter;stroke-miterlimit:4;stroke-dasharray:none;stroke-dashoffset:0;stroke-opacity:1;paint-order:normal;font-variant-east_asian:normal"
         id="rect1690"
         width="50"
         height="1000"
         x="675"
         y="32.416668" />
      <rect
         style="opacity:1;vector-effect:none;fill:#99aab5;fill-opacity:1;stroke:none;stroke-width:1;stroke-linecap:butt;stroke-linejoin:miter;stroke-miterlimit:4;stroke-dasharray:none;stroke-dashoffset:0;stroke-opacity:1;paint-order:normal;font-variant-east_asian:normal"
         id="rect1694"
         width="50"
         height="1000"
         x="875"
         y="32.416668" />
    </g>
    <g
       id="g1713"
       transform="translate(7.9747353,231.41986)">
      <g
         transform="matrix(0,-6.945,6.945,0,-3122.6107,4594.7024)"
         id="g1643">
        <path
           inkscape:connector-curvature="0"
           style="fill:#ffdc5d"
           d="m 582.942,457.66067 c -0.041,-0.609 -0.284,-1.18 -0.674,-1.644 l -0.357,-2.057 c -0.376,-2.006 -2.232,-3.386 -4.262,-3.169 l -23.39,3.736 c -1.882,0.202 -3.35,1.723 -3.485,3.611 l 1.761,11.147 c 0.305,2.169 2.151,3.788 4.341,3.813 0.677,0.008 1.238,0.017 1.463,0.027 l 9.483,0.463 c -0.363,0.483 -0.822,1.08 -0.822,1.718 v 0.052 c 0,1.581 1.771,3.06 3.353,3.06 h 7.282 c 0.76,0 1.488,-0.4 2.025,-0.938 l 4.424,-4.472 c 0.583,-0.584 0.887,-1.416 0.832,-2.24 z"
           id="path1053" />
        <path
           inkscape:connector-curvature="0"
           style="fill:#ef9645"
           d="m 558.217,473.03967 c -0.474,0 -0.895,-0.338 -0.983,-0.821 l -2.06,-11.332 c -0.099,-0.543 0.262,-1.064 0.805,-1.163 0.546,-0.097 1.064,0.262 1.163,0.805 l 2.06,11.332 c 0.099,0.543 -0.262,1.063 -0.805,1.162 -0.061,0.012 -0.121,0.017 -0.18,0.017 z m 6.181,0 c -0.517,0 -0.955,-0.398 -0.996,-0.923 l -1.03,-13.393 c -0.043,-0.551 0.37,-1.031 0.92,-1.074 0.549,-0.044 1.031,0.371 1.074,0.92 l 1.03,13.392 c 0.043,0.551 -0.37,1.032 -0.92,1.074 -0.026,0.003 -0.053,0.004 -0.078,0.004 z m 7.207,1.106 c -0.508,0 -0.757,-10e-4 -0.951,-1.062 l -0.044,-0.003 c 10e-4,-0.055 0.007,-0.108 0.017,-0.161 -0.174,-1.068 -0.309,-3.069 -0.561,-6.817 -0.235,-3.49 -0.486,-7.552 -0.486,-8.485 0,-0.552 0.447,-1 1,-1 0.553,0 1,0.448 1,1 0,1.533 0.795,13.324 0.981,15.145 0.032,0.097 0.049,0.2 0.049,0.308 0,0.266 -0.108,0.557 -0.295,0.744 -0.187,0.187 -0.444,0.331 -0.71,0.331 z"
           id="path1055" />
        <path
           inkscape:connector-curvature="0"
           style="fill:#ef9645"
           d="m 575.178,475.10067 h -6.658 c -0.552,0 -1,-0.447 -1,-1 0,-0.553 0.448,-1 1,-1 h 6.658 c 1.458,0 2.644,-1.186 2.644,-2.644 v -12.839 c 0,-0.552 0.447,-1 1,-1 0.553,0 1,0.448 1,1 v 12.839 c -10e-4,2.561 -2.084,4.644 -4.644,4.644 z"
           id="path1057" />
      </g>
      <g
         id="g1651"
         transform="matrix(0,-6.945,-6.945,0,4122.6107,4594.7024)">
        <path
           id="path1645"
           d="m 582.942,457.66067 c -0.041,-0.609 -0.284,-1.18 -0.674,-1.644 l -0.357,-2.057 c -0.376,-2.006 -2.232,-3.386 -4.262,-3.169 l -23.39,3.736 c -1.882,0.202 -3.35,1.723 -3.485,3.611 l 1.761,11.147 c 0.305,2.169 2.151,3.788 4.341,3.813 0.677,0.008 1.238,0.017 1.463,0.027 l 9.483,0.463 c -0.363,0.483 -0.822,1.08 -0.822,1.718 v 0.052 c 0,1.581 1.771,3.06 3.353,3.06 h 7.282 c 0.76,0 1.488,-0.4 2.025,-0.938 l 4.424,-4.472 c 0.583,-0.584 0.887,-1.416 0.832,-2.24 z"
           style="fill:#ffdc5d"
           inkscape:connector-curvature="0" />
        <path
           id="path1647"
           d="m 558.217,473.03967 c -0.474,0 -0.895,-0.338 -0.983,-0.821 l -2.06,-11.332 c -0.099,-0.543 0.262,-1.064 0.805,-1.163 0.546,-0.097 1.064,0.262 1.163,0.805 l 2.06,11.332 c 0.099,0.543 -0.262,1.063 -0.805,1.162 -0.061,0.012 -0.121,0.017 -0.18,0.017 z m 6.181,0 c -0.517,0 -0.955,-0.398 -0.996,-0.923 l -1.03,-13.393 c -0.043,-0.551 0.37,-1.031 0.92,-1.074 0.549,-0.044 1.031,0.371 1.074,0.92 l 1.03,13.392 c 0.043,0.551 -0.37,1.032 -0.92,1.074 -0.026,0.003 -0.053,0.004 -0.078,0.004 z m 7.207,1.106 c -0.508,0 -0.757,-10e-4 -0.951,-1.062 l -0.044,-0.003 c 10e-4,-0.055 0.007,-0.108 0.017,-0.161 -0.174,-1.068 -0.309,-3.069 -0.561,-6.817 -0.235,-3.49 -0.486,-7.552 -0.486,-8.485 0,-0.552 0.447,-1 1,-1 0.553,0 1,0.448 1,1 0,1.533 0.795,13.324 0.981,15.145 0.032,0.097 0.049,0.2 0.049,0.308 0,0.266 -0.108,0.557 -0.295,0.744 -0.187,0.187 -0.444,0.331 -0.71,0.331 z"
           style="fill:#ef9645"
           inkscape:connector-curvature="0" />
        <path
           id="path1649"
           d="m 575.178,475.10067 h -6.658 c -0.552,0 -1,-0.447 -1,-1 0,-0.553 0.448,-1 1,-1 h 6.658 c 1.458,0 2.644,-1.186 2.644,-2.644 v -12.839 c 0,-0.552 0.447,-1 1,-1 0.553,0 1,0.448 1,1 v 12.839 c -10e-4,2.561 -2.084,4.644 -4.644,4.644 z"
           style="fill:#ef9645"
           inkscape:connector-curvature="0" />
      </g>
    </g>
  </g>
</svg>
