<?xml version="1.0" encoding="UTF-8" standalone="no"?>
<!-- Created with Inkscape (http://www.inkscape.org/) -->

<svg
   xmlns:dc="http://purl.org/dc/elements/1.1/"
   xmlns:cc="http://creativecommons.org/ns#"
   xmlns:rdf="http://www.w3.org/1999/02/22-rdf-syntax-ns#"
   xmlns:svg="http://www.w3.org/2000/svg"
   xmlns="http://www.w3.org/2000/svg"
   xmlns:sodipodi="http://sodipodi.sourceforge.net/DTD/sodipodi-0.dtd"
   xmlns:inkscape="http://www.inkscape.org/namespaces/inkscape"
   width="1000"
   height="1000"
   viewBox="0 0 1000 1000"
   version="1.1"
   id="svg8"
   inkscape:version="0.92.4 5da689c313, 2019-01-14"
   sodipodi:docname="emoji_u1f486_200d_1f631.svg">
  <defs
     id="defs2" />
  <sodipodi:namedview
     id="base"
     pagecolor="#ffffff"
     bordercolor="#666666"
     borderopacity="1.0"
     inkscape:pageopacity="0.0"
     inkscape:pageshadow="2"
     inkscape:zoom="0.24748738"
     inkscape:cx="-538.6161"
     inkscape:cy="533.93038"
     inkscape:document-units="px"
     inkscape:current-layer="layer1"
     showgrid="true"
     inkscape:window-width="1916"
     inkscape:window-height="1056"
     inkscape:window-x="0"
     inkscape:window-y="20"
     inkscape:window-maximized="1"
     units="px"
     gridtolerance="10"
     inkscape:snap-bbox="true"
     inkscape:bbox-paths="true"
     inkscape:bbox-nodes="true"
     inkscape:snap-bbox-edge-midpoints="true"
     inkscape:snap-bbox-midpoints="true"
     inkscape:object-paths="true"
     inkscape:snap-intersection-paths="true"
     inkscape:snap-smooth-nodes="true"
     inkscape:snap-midpoints="true">
    <inkscape:grid
       type="xygrid"
       id="grid815"
       units="px"
       spacingx="50"
       spacingy="50" />
  </sodipodi:namedview>
  <metadata
     id="metadata5">
    <rdf:RDF>
      <cc:Work
         rdf:about="">
        <dc:format>image/svg+xml</dc:format>
        <dc:type
           rdf:resource="http://purl.org/dc/dcmitype/StillImage" />
        <dc:title></dc:title>
      </cc:Work>
    </rdf:RDF>
  </metadata>
  <g
     inkscape:label="Layer 1"
     inkscape:groupmode="layer"
     id="layer1"
     transform="translate(0,-32.416667)">
    <circle
       style="fill:#ffac33;stroke-width:25"
       cx="525"
       cy="307.41666"
       r="275"
       id="circle5309" />
    <circle
       style="fill:#ffac33;stroke-width:25"
       r="300"
       transform="rotate(-80.781)"
       cx="-436.92535"
       cy="577.43683"
       id="ellipse5305" />
    <circle
       style="fill:#ffac33;stroke-width:25"
       cx="375"
       cy="232.41666"
       r="175"
       id="circle5307" />
    <path
       style="fill:#ffac33;stroke-width:25"
       inkscape:connector-curvature="0"
       d="M 800,532.41665 H 200 v -300 l 600,75 z"
       id="path5311" />
    <path
       style="fill:#9268ca;stroke-width:25"
       inkscape:connector-curvature="0"
       d="M 724.99999,707.41664 H 275.00001 c -55.225,0 -100,44.77501 -100,100 l 0,225.00006 h 649.99998 l 0,-225.00006 c 0,-55.22499 -44.775,-100 -100,-100 z"
       id="path5313"
       sodipodi:nodetypes="sssccss" />
    <path
       style="fill:#7450a8;stroke-width:25"
       inkscape:connector-curvature="0"
       d="m 699.99999,832.41664 h 25 l 0,200.00006 h -25 z m -424.99998,0 h 25 l 0,200.00006 h -25 z"
       id="path5315"
       sodipodi:nodetypes="cccccccccc" />
    <path
       style="fill:#ffdc5d;stroke-width:25"
       inkscape:connector-curvature="0"
       d="m 425.00001,582.41665 v 149.99999 c 0,41.425 33.57499,75 74.99999,75 41.425,0 74.99999,-33.575 74.99999,-75 V 582.41665 Z"
       id="path5317" />
    <path
       style="fill:#ffdc5d;stroke-width:25"
       inkscape:connector-curvature="0"
       d="m 400,157.41666 c 0,0 -0.075,132.69999 -124.99999,148.39999 v 151.6 c 0,124.275 100.725,225 224.99999,225 124.27499,0 224.99999,-100.725 224.99999,-225 v -125.475 C 447.225,322.54165 400,157.41666 400,157.41666 Z"
       id="path5319" />
    <path
       style="fill:#f5f8fa;stroke-width:15.05182457"
       inkscape:connector-curvature="0"
       d="m 339.66031,397.4069 c -14.23902,47.8046 1.61055,94.72113 35.41695,104.79081 33.8064,10.08472 72.76053,-20.50059 86.9845,-68.30518 14.23903,-47.78955 -1.5955,-94.72114 -35.38684,-104.79081 -33.8064,-10.06967 -72.76053,20.51563 -87.01461,68.30518 z m 320.67914,0 c 14.23902,47.8046 -1.61055,94.72113 -35.40189,104.79081 -33.80641,10.08472 -72.76052,-20.50059 -86.9845,-68.30518 -14.23902,-47.78955 1.61055,-94.72114 35.38684,-104.79081 33.79134,-10.06967 72.74547,20.51563 86.99955,68.30518 z"
       id="path5563" />
    <ellipse
       style="fill:#df1f32;stroke-width:25"
       cx="499.99997"
       cy="582.41663"
       rx="50"
       ry="25"
       id="ellipse5321" />
    <path
       style="fill:#c1694f;stroke-width:25"
       inkscape:connector-curvature="0"
       d="m 525,519.91665 h -50 c -6.89999,0 -12.5,-5.6 -12.5,-12.5 0,-6.90001 5.60001,-12.5 12.5,-12.5 h 50 c 6.89999,0 12.5,5.59999 12.5,12.5 0,6.9 -5.60001,12.5 -12.5,12.5 z"
       id="path5323" />
    <g
       id="g5381"
       transform="translate(-111.13889,494.66667)">
      <path
         id="path5325"
         d="m 154.44444,172.19444 144.13889,-106.194447 45.5,-5.222223 v 78.86111 l 83.44445,19.25 c 19.13889,4.47222 31.08333,23.58334 26.66666,42.72222 -4.38888,19.13889 -23.52777,31.08334 -42.66666,26.66667 L 298,202.13888 241.19444,258.94444 c -9.5,9.52778 -25.44444,18.41667 -42.13889,23.83333 L 177.55555,460 c 0,0 0,27.75 -27.75,27.75 -27.75,0 -27.75,-27.75 -27.75,-27.75 V 237.91666 Z"
         inkscape:connector-curvature="0"
         style="fill:#e39c2f;stroke-width:27.77777863" />
      <path
         id="path5327"
         d="m 143.55555,161.27777 61.97223,-61.972222 16.63888,-66.888889 h 111.13889 v 96.333331 l 83.33334,19.25 c 19.13889,4.47223 31.08333,23.58334 26.66667,42.72223 -4.38889,19.13888 -23.52778,31.08333 -42.66667,26.66666 l -113.55556,-26.16666 -56.77778,56.80555 c -9.52777,9.52778 -25.47222,18.44445 -42.16666,23.83334 l -21.5,177.25 c 0,0 0,27.75 -27.75,27.75 -27.75,0 -27.75,-27.75 -27.75,-27.75 V 226.99999 Z"
         inkscape:connector-curvature="0"
         style="fill:#ffdc5d;stroke-width:27.77777863" />
    </g>
    <g
       id="g5377"
       transform="translate(111.13889,494.69445)">
      <path
         id="path5329"
         d="M 845.52778,172.19444 683.13889,72.361104 655.86111,60.77777 v 78.86111 l -83.44444,19.25 c -19.13889,4.47222 -31.08334,23.58334 -26.66667,42.72222 4.38889,19.13889 23.52778,31.08334 42.66667,26.66667 l 113.55555,-26.16667 56.80556,56.80556 c 9.52778,9.52778 25.44444,18.41667 42.16667,23.83333 l 21.5,177.22223 c 0,0 0,27.75 27.75,27.75 27.75,0 27.75,-27.75 27.75,-27.75 V 237.91666 Z"
         inkscape:connector-curvature="0"
         style="fill:#e39c2f;stroke-width:27.77777863" />
      <path
         id="path5331"
         d="M 856.44445,161.27777 794.47222,99.305548 777.80556,32.416659 H 666.75 v 96.333331 l -83.41667,19.22223 c -19.13889,4.47222 -31.08333,23.58333 -26.66666,42.72222 4.38889,19.13889 23.52778,31.08333 42.66666,26.66666 l 113.55556,-26.16666 56.80556,56.80555 c 9.52777,9.52778 25.44444,18.41667 42.16666,23.83334 l 21.5,177.22222 c 0,0 0,27.75 27.75,27.75 27.75,0.0556 27.75,-27.69444 27.75,-27.69444 V 226.99999 Z"
         inkscape:connector-curvature="0"
         style="fill:#ffdc5d;stroke-width:27.77777863" />
    </g>
  </g>
</svg>
