<?xml version="1.0" encoding="UTF-8" standalone="no"?>
<!-- Created with Inkscape (http://www.inkscape.org/) -->

<svg
   xmlns:osb="http://www.openswatchbook.org/uri/2009/osb"
   xmlns:dc="http://purl.org/dc/elements/1.1/"
   xmlns:cc="http://creativecommons.org/ns#"
   xmlns:rdf="http://www.w3.org/1999/02/22-rdf-syntax-ns#"
   xmlns:svg="http://www.w3.org/2000/svg"
   xmlns="http://www.w3.org/2000/svg"
   xmlns:xlink="http://www.w3.org/1999/xlink"
   xmlns:sodipodi="http://sodipodi.sourceforge.net/DTD/sodipodi-0.dtd"
   xmlns:inkscape="http://www.inkscape.org/namespaces/inkscape"
   width="1000"
   height="1000"
   viewBox="0 0 1000 1000"
   version="1.1"
   id="svg8"
   inkscape:version="0.92.4 5da689c313, 2019-01-14"
   sodipodi:docname="emoji_u1f61f_200d_1f5a4.svg">
  <defs
     id="defs2">
    <linearGradient
       inkscape:collect="always"
       xlink:href="#linearGradient2343"
       id="linearGradient2345"
       x1="0.0080000004"
       y1="-203.00165"
       x2="1000.008"
       y2="-203.00165"
       gradientUnits="userSpaceOnUse"
       gradientTransform="translate(-0.0078,735.41827)" />
    <linearGradient
       id="linearGradient2343"
       osb:paint="solid">
      <stop
         style="stop-color:#ffcc4d;stop-opacity:1;"
         offset="0"
         id="stop2341" />
    </linearGradient>
  </defs>
  <sodipodi:namedview
     id="base"
     pagecolor="#ffffff"
     bordercolor="#666666"
     borderopacity="1.0"
     inkscape:pageopacity="0.0"
     inkscape:pageshadow="2"
     inkscape:zoom="0.35000001"
     inkscape:cx="-221.44567"
     inkscape:cy="875.75415"
     inkscape:document-units="px"
     inkscape:current-layer="layer1"
     showgrid="true"
     inkscape:window-width="1916"
     inkscape:window-height="1056"
     inkscape:window-x="0"
     inkscape:window-y="20"
     inkscape:window-maximized="1"
     units="px"
     gridtolerance="10"
     inkscape:snap-bbox="true"
     inkscape:bbox-paths="true"
     inkscape:bbox-nodes="true"
     inkscape:snap-bbox-edge-midpoints="true"
     inkscape:snap-bbox-midpoints="true"
     inkscape:object-paths="true"
     inkscape:snap-intersection-paths="true"
     inkscape:snap-smooth-nodes="true"
     inkscape:snap-midpoints="true">
    <inkscape:grid
       type="xygrid"
       id="grid815"
       units="px"
       spacingx="50"
       spacingy="50" />
  </sodipodi:namedview>
  <metadata
     id="metadata5">
    <rdf:RDF>
      <cc:Work
         rdf:about="">
        <dc:format>image/svg+xml</dc:format>
        <dc:type
           rdf:resource="http://purl.org/dc/dcmitype/StillImage" />
        <dc:title></dc:title>
      </cc:Work>
    </rdf:RDF>
  </metadata>
  <g
     inkscape:label="Layer 1"
     inkscape:groupmode="layer"
     id="layer1"
     transform="translate(0,-32.416667)">
    <path
       inkscape:connector-curvature="0"
       style="fill:url(#linearGradient2345);fill-opacity:1;stroke-width:27.77776337"
       d="m 500.00025,32.416667 c -0.16184,0 -0.3234,0 -0.48524,0 h 0.97049 c -0.16185,-10e-5 -0.32338,0 -0.48525,0 z m 102.14206,10.4459 18.43917,89.555803 -70.58947,100 50.00003,50.0002 -50.00003,49.9995 -50.00001,250.0002 -50.00004,-250.0002 50.00004,-49.9995 -50.00004,-50.0002 50.00004,-100 L 347.421,56.132567 C 145.9118,120.64697 0,309.51357 0,532.41677 0,808.55527 223.8849,1032.4167 500.00025,1032.4167 776.13662,1032.4167 1000,808.55527 1000,532.41677 1000,291.30647 829.29388,90.020567 602.14231,42.862567 Z"
       id="path1722" />
    <ellipse
       style="fill:#664500;stroke-width:27.77776527"
       cx="319.44629"
       cy="490.74805"
       rx="69.444412"
       ry="97.222221"
       id="ellipse1724" />
    <ellipse
       style="fill:#664500;stroke-width:27.77776527"
       cx="680.5564"
       cy="490.74805"
       rx="69.444412"
       ry="97.222221"
       id="ellipse1726" />
    <path
       inkscape:connector-curvature="0"
       style="fill:#664500;stroke-width:27.77776527"
       d="m 652.35695,806.83347 c 0,-1.2179 -31.80052,-121.6389 -152.35691,-121.6389 -120.55634,0 -152.05244,120.4168 -152.33594,121.6389 -1.4698,5.9212 1.1549,11.9716 6.4042,15.1107 5.2494,3.1076 12.0315,2.3937 16.5564,-1.6693 0,-0.21 28.168,-23.9727 129.36484,-23.9727 99.72699,0 128.25192,23.0562 129.33327,23.9727 2.62469,2.4987 6.08925,3.8005 9.55381,3.8005 2.3097,0 4.7244,-0.6299 6.82416,-1.7742 5.4593,-3.1076 8.18895,-9.4174 6.61415,-15.472 z"
       id="path1728" />
    <path
       inkscape:connector-curvature="0"
       style="fill:#664500;stroke-width:27.77776527"
       d="m 833.33324,365.74997 c -154.27815,0 -216.72434,-121.3061 -219.30699,-126.4725 -6.82416,-13.7218 -1.25987,-30.4168 12.41993,-37.2777 13.6693,-6.8556 30.33068,-1.3333 37.21784,12.3055 2.09973,4.0525 50.58265,95.8888 169.66922,95.8888 15.35956,0 27.77952,12.4451 27.77952,27.7784 0,15.3334 -12.41996,27.7775 -27.77952,27.7775 z m -666.66644,0 c -15.328,0 -27.7795,-12.4441 -27.7795,-27.7775 0,-15.3333 12.4515,-27.7784 27.7795,-27.7784 141.1968,0 166.5511,-86.6667 167.58,-90.3612 3.9895,-14.6667 19.1706,-23.5549 33.8688,-19.6945 14.7191,3.8635 23.6325,18.695 19.937,33.4729 -1.3648,5.3859 -35.1601,132.1387 -221.3858,132.1387 z"
       id="path1734" />
    <path
       inkscape:connector-curvature="0"
       style="opacity:1;fill:#292f33;fill-opacity:1;stroke:none;stroke-width:0.26499987;stroke-linecap:round;stroke-linejoin:miter;stroke-miterlimit:4;stroke-dasharray:none;stroke-opacity:1;paint-order:normal"
       d="m 499.992,82.418367 a 449.99977,449.99997 0 0 0 -83.67651,8.1618 l 83.67651,41.838203 -50.00004,100 50.00004,50.0002 -50.00004,49.9995 50.00004,250.0002 50.00001,-250.0002 50.00003,-49.9995 -50.00003,-50.0002 70.58947,-100 -7.18613,-34.901203 A 449.99977,449.99997 0 0 0 499.992,82.418367 Z"
       id="path2405" />
  </g>
</svg>
