<?xml version="1.0" encoding="UTF-8" standalone="no"?>
<!-- Created with Inkscape (http://www.inkscape.org/) -->

<svg
   xmlns:osb="http://www.openswatchbook.org/uri/2009/osb"
   xmlns:dc="http://purl.org/dc/elements/1.1/"
   xmlns:cc="http://creativecommons.org/ns#"
   xmlns:rdf="http://www.w3.org/1999/02/22-rdf-syntax-ns#"
   xmlns:svg="http://www.w3.org/2000/svg"
   xmlns="http://www.w3.org/2000/svg"
   xmlns:xlink="http://www.w3.org/1999/xlink"
   xmlns:sodipodi="http://sodipodi.sourceforge.net/DTD/sodipodi-0.dtd"
   xmlns:inkscape="http://www.inkscape.org/namespaces/inkscape"
   width="1000mm"
   height="1000mm"
   viewBox="0 0 1000 1000"
   version="1.1"
   id="svg8"
   inkscape:version="0.92.4 5da689c313, 2019-01-14"
   sodipodi:docname="emoji_u1f61f_200d_1f5a4.svg">
  <defs
     id="defs2">
    <linearGradient
       id="linearGradient2349"
       osb:paint="solid">
      <stop
         style="stop-color:#000000;stop-opacity:1;"
         offset="0"
         id="stop2347" />
    </linearGradient>
    <linearGradient
       id="linearGradient2343"
       osb:paint="solid">
      <stop
         style="stop-color:#ffcc4d;stop-opacity:1;"
         offset="0"
         id="stop2341" />
    </linearGradient>
    <linearGradient
       inkscape:collect="always"
       xlink:href="#linearGradient2343"
       id="linearGradient2345"
       x1="0.008"
       y1="-203.00165"
       x2="1000.008"
       y2="-203.00165"
       gradientUnits="userSpaceOnUse"
       gradientTransform="matrix(3.7795276,0,0,3.7795276,0,2657.0079)" />
  </defs>
  <sodipodi:namedview
     id="base"
     pagecolor="#ffffff"
     bordercolor="#666666"
     borderopacity="1.0"
     inkscape:pageopacity="0.0"
     inkscape:pageshadow="2"
     inkscape:zoom="0.087500002"
     inkscape:cx="2384.8958"
     inkscape:cy="815.35691"
     inkscape:document-units="mm"
     inkscape:current-layer="layer1"
     showgrid="true"
     inkscape:window-width="1916"
     inkscape:window-height="1056"
     inkscape:window-x="0"
     inkscape:window-y="20"
     inkscape:window-maximized="1"
     gridtolerance="10"
     inkscape:snap-bbox="true"
     inkscape:object-paths="true"
     inkscape:snap-intersection-paths="true"
     inkscape:bbox-paths="true"
     inkscape:bbox-nodes="true"
     inkscape:snap-bbox-edge-midpoints="true"
     inkscape:snap-bbox-midpoints="true">
    <inkscape:grid
       type="xygrid"
       id="grid815"
       units="mm"
       spacingx="50"
       spacingy="50" />
  </sodipodi:namedview>
  <metadata
     id="metadata5">
    <rdf:RDF>
      <cc:Work
         rdf:about="">
        <dc:format>image/svg+xml</dc:format>
        <dc:type
           rdf:resource="http://purl.org/dc/dcmitype/StillImage" />
        <dc:title></dc:title>
      </cc:Work>
    </rdf:RDF>
  </metadata>
  <g
     inkscape:label="Layer 1"
     inkscape:groupmode="layer"
     id="layer1"
     transform="translate(0,703)">
    <path
       style="fill:url(#linearGradient2345);fill-opacity:1;stroke-width:104.98686981"
       d="M 1889.7949 -0.005859375 C 1889.1832 -0.005859375 1888.5726 -0.00058146162 1887.9609 0 L 1891.6289 0 C 1891.0172 -0.00058146162 1890.4067 -0.005859375 1889.7949 -0.005859375 z M 2275.8438 39.474609 L 2345.5352 377.95312 L 2078.7402 755.90625 L 2267.7168 944.88281 L 2078.7402 1133.8574 L 1889.7637 2078.7402 L 1700.7871 1133.8574 L 1889.7637 944.88281 L 1700.7871 755.90625 L 1889.7637 377.95312 L 1313.1172 89.628906 C 551.50711 333.46271 0.029296875 1047.2893 0.029296875 1889.7578 C 0.029296875 2933.4312 846.20878 3779.5215 1889.7949 3779.5215 C 2933.4604 3779.5215 3779.5586 2933.4312 3779.5586 1889.7578 C 3779.5586 978.47514 3134.3698 217.70939 2275.8438 39.474609 z "
       transform="matrix(0.26458333,0,0,0.26458333,0,-703)"
       id="path1722" />
    <ellipse
       style="fill:#664500;stroke-width:27.77777672"
       cx="319.45416"
       cy="-244.67024"
       rx="69.444443"
       ry="97.222221"
       id="ellipse1724" />
    <ellipse
       style="fill:#664500;stroke-width:27.77777672"
       cx="680.56445"
       cy="-244.67024"
       rx="69.444443"
       ry="97.222221"
       id="ellipse1726" />
    <path
       inkscape:connector-curvature="0"
       style="fill:#664500;stroke-width:27.77777672"
       d="m 652.36498,71.415151 c 0,-1.217848 -31.80053,-121.638849 -152.35696,-121.638849 -120.55644,0 -152.0525,120.416801 -152.33597,121.638849 -1.46981,5.92126 1.15486,11.971654 6.4042,15.110761 5.24935,3.107612 12.0315,2.393701 16.55643,-1.669291 0,-0.209974 28.16798,-23.972704 129.36484,-23.972704 99.72703,0 128.25197,23.056168 129.33333,23.972704 2.62468,2.498688 6.08924,3.800525 9.55381,3.800525 2.30971,0 4.72441,-0.629921 6.82415,-1.774278 5.45932,-3.107612 8.18897,-9.417323 6.61417,-15.471917 z"
       id="path1728" />
    <path
       inkscape:connector-curvature="0"
       style="fill:#664500;stroke-width:27.77777672"
       d="m 833.34136,-369.66833 c -154.27822,0 -216.72442,-121.30604 -219.30709,-126.47244 -6.82415,-13.72179 -1.25985,-30.4168 12.41994,-37.27769 13.6693,-6.85565 30.33071,-1.33334 37.21785,12.30551 2.09974,4.05249 50.58268,95.88871 169.6693,95.88871 15.35958,0 27.77953,12.44515 27.77953,27.77848 0,15.33334 -12.41995,27.77743 -27.77953,27.77743 z m -666.66669,0 c -15.32808,0 -27.77953,-12.44409 -27.77953,-27.77743 0,-15.33333 12.45145,-27.77848 27.77953,-27.77848 141.19686,0 166.55119,-86.66666 167.58006,-90.36115 3.9895,-14.66667 19.1706,-23.55486 33.86877,-19.69449 14.71916,3.86352 23.63254,18.69501 19.93701,33.47297 -1.36483,5.38582 -35.16011,132.13858 -221.38584,132.13858 z"
       id="path1734" />
    <path
       style="opacity:1;fill:#000000;fill-opacity:1;stroke:none;stroke-width:1.00157475;stroke-linecap:round;stroke-linejoin:miter;stroke-miterlimit:4;stroke-dasharray:none;stroke-opacity:1;paint-order:normal"
       d="M 1889.7637 188.97656 A 1700.7873 1700.7873 0 0 0 1573.5059 219.82422 L 1889.7637 377.95312 L 1700.7871 755.90625 L 1889.7637 944.88281 L 1700.7871 1133.8574 L 1889.7637 2078.7402 L 2078.7402 1133.8574 L 2267.7168 944.88281 L 2078.7402 755.90625 L 2345.5352 377.95312 L 2318.375 246.04297 A 1700.7873 1700.7873 0 0 0 1889.7637 188.97656 z "
       transform="matrix(0.26458333,0,0,0.26458333,0,-703)"
       id="path2405" />
  </g>
  <g
     inkscape:groupmode="layer"
     id="layer2"
     inkscape:label="Hidden" />
</svg>
