<?xml version="1.0" encoding="UTF-8" standalone="no"?>
<!-- Created with Inkscape (http://www.inkscape.org/) -->

<svg
   xmlns:dc="http://purl.org/dc/elements/1.1/"
   xmlns:cc="http://creativecommons.org/ns#"
   xmlns:rdf="http://www.w3.org/1999/02/22-rdf-syntax-ns#"
   xmlns:svg="http://www.w3.org/2000/svg"
   xmlns="http://www.w3.org/2000/svg"
   xmlns:sodipodi="http://sodipodi.sourceforge.net/DTD/sodipodi-0.dtd"
   xmlns:inkscape="http://www.inkscape.org/namespaces/inkscape"
   width="1000"
   height="1000"
   viewBox="0 0 1000 1000"
   version="1.1"
   id="svg8"
   inkscape:version="0.92.4 5da689c313, 2019-01-14"
   sodipodi:docname="emoji_u1f930_200d_1f6ab.svg">
  <defs
     id="defs2" />
  <sodipodi:namedview
     id="base"
     pagecolor="#ffffff"
     bordercolor="#666666"
     borderopacity="1.0"
     inkscape:pageopacity="0.0"
     inkscape:pageshadow="2"
     inkscape:zoom="0.70000002"
     inkscape:cx="101.25156"
     inkscape:cy="279.85237"
     inkscape:document-units="px"
     inkscape:current-layer="layer1"
     showgrid="true"
     inkscape:window-width="1916"
     inkscape:window-height="1056"
     inkscape:window-x="0"
     inkscape:window-y="20"
     inkscape:window-maximized="1"
     units="px"
     gridtolerance="10"
     inkscape:snap-bbox="true"
     inkscape:bbox-paths="true"
     inkscape:bbox-nodes="true"
     inkscape:snap-bbox-edge-midpoints="true"
     inkscape:snap-bbox-midpoints="true"
     inkscape:object-paths="true"
     inkscape:snap-intersection-paths="true"
     inkscape:snap-smooth-nodes="true"
     inkscape:snap-midpoints="true">
    <inkscape:grid
       type="xygrid"
       id="grid815"
       units="px"
       spacingx="50"
       spacingy="50" />
  </sodipodi:namedview>
  <metadata
     id="metadata5">
    <rdf:RDF>
      <cc:Work
         rdf:about="">
        <dc:format>image/svg+xml</dc:format>
        <dc:type
           rdf:resource="http://purl.org/dc/dcmitype/StillImage" />
        <dc:title></dc:title>
      </cc:Work>
    </rdf:RDF>
  </metadata>
  <g
     inkscape:label="Layer 1"
     inkscape:groupmode="layer"
     id="layer1"
     transform="translate(0,-32.416667)">
    <path
       style="fill:#e6e7e8;stroke-width:27.89403915;fill-opacity:1"
       inkscape:connector-curvature="0"
       d="m 609.94403,412.55533 h -123.9611 c -50.01402,0 -92.97084,42.98472 -92.97084,92.97083 V 1032.4167 H 690.19518 V 782.59765 L 702.94276,733.7273 V 505.52616 c 0,-50.01401 -42.98471,-92.97083 -92.99873,-92.97083 z"
       id="path1129" />
    <path
       style="fill:#99aab5;stroke-width:1;font-variant-east_asian:normal;opacity:1;vector-effect:none;fill-opacity:1;stroke-linecap:butt;stroke-linejoin:miter;stroke-miterlimit:4;stroke-dasharray:none;stroke-dashoffset:0;stroke-opacity:1"
       inkscape:connector-curvature="0"
       d="m 494.93691,488.48291 c -69.31668,0 -125.52317,56.20649 -125.52317,125.52317 0,69.31669 56.20649,125.52318 125.52317,125.52318 z"
       id="path1131" />
    <path
       style="fill:#e6e7e8;stroke-width:27.89403915;fill-opacity:1"
       inkscape:connector-curvature="0"
       d="m 494.93691,516.37695 c -53.91918,0 -97.62913,43.70995 -97.62913,97.62913 0,53.91918 43.70995,97.62914 97.62913,97.62914 z"
       id="path1133" />
    <path
       style="fill:#99aab5;stroke-width:1;font-variant-east_asian:normal;opacity:1;vector-effect:none;fill-opacity:1;stroke-linecap:butt;stroke-linejoin:miter;stroke-miterlimit:4;stroke-dasharray:none;stroke-dashoffset:0;stroke-opacity:1"
       inkscape:connector-curvature="0"
       d="m 550.72499,488.48291 c -69.31669,0 -125.52318,56.20649 -125.52318,125.52317 0,69.31669 56.20649,125.52318 125.52318,125.52318 z"
       id="path1135" />
    <path
       style="fill:#e6e6e6;stroke-width:27.89403915"
       inkscape:connector-curvature="0"
       d="m 550.72499,516.37695 c -53.91918,0 -97.62914,43.70995 -97.62914,97.62913 0,53.91918 43.70996,97.62914 97.62914,97.62914 z"
       id="path1137" />
    <path
       style="fill:#99aab5;stroke-width:1;font-variant-east_asian:normal;opacity:1;vector-effect:none;fill-opacity:1;stroke-linecap:butt;stroke-linejoin:miter;stroke-miterlimit:4;stroke-dasharray:none;stroke-dashoffset:0;stroke-opacity:1"
       inkscape:connector-curvature="0"
       d="M 322.38439,1032.4167 H 521.93834 V 634.92661 c -12.636,-2.11995 -25.55094,-3.48675 -38.80061,-3.48675 -128.59152,0 -232.83154,104.24002 -232.83154,232.83154 0,66.16466 27.72667,125.74633 72.0782,168.1453 z"
       id="path1139" />
    <path
       style="fill:#e6e7e8;stroke-width:27.89403915;fill-opacity:1"
       inkscape:connector-curvature="0"
       d="m 516.9732,535.09385 v 125.27212 c -11.04604,-1.841 -22.28733,-3.04045 -33.83547,-3.04045 -114.30977,0 -206.94587,92.63611 -206.94587,206.94588 0,69.34458 34.25388,130.59989 86.61099,168.1453 H 661.15749 V 455.93056 Z"
       id="path1141" />
    <path
       style="fill:#99aab5;stroke-width:1;font-variant-east_asian:normal;opacity:1;vector-effect:none;fill-opacity:1;stroke-linecap:butt;stroke-linejoin:miter;stroke-miterlimit:4;stroke-dasharray:none;stroke-dashoffset:0;stroke-opacity:1"
       inkscape:connector-curvature="0"
       d="M 674.51874,474.53589 809.80482,617.186 690.19518,743.01601 690.1394,827.98126 580.23688,902.56992 506.56873,787.11649 664.03058,625.05212 609.94403,571.41188 Z"
       id="path1143" />
    <path
       style="fill:#e6e7e8;stroke-width:27.89403915;fill-opacity:1"
       inkscape:connector-curvature="0"
       d="M 674.51874,439.66834 826.93176,598.497 c 0,0 52.915,42.62209 0,92.97083 C 795.16045,721.67707 596.0807,855.76372 596.0807,855.76372 L 534.10014,793.78316 702.97065,629.48727 609.97193,536.51644 Z"
       id="path1145" />
    <path
       style="fill:#f9ca55;stroke-width:27.89403915"
       inkscape:connector-curvature="0"
       d="m 559.95792,796.20994 c -31.3529,-14.92331 -61.08795,-12.85915 -89.8467,3.96096 -13.75176,8.06138 -19.35847,23.12416 1.70153,28.11719 21.14369,4.93724 88.14517,-32.07815 88.14517,-32.07815 z"
       id="path1147" />
    <path
       style="fill:#ffdc5d;stroke-width:27.89403915"
       inkscape:connector-curvature="0"
       d="m 602.18949,849.68282 c 3.87727,49.23298 -62.09213,95.23025 -112.13403,89.23303 -35.76016,-4.29568 -66.88991,-100.64169 -24.46308,-113.05454 37.82432,-11.04604 48.28458,-45.4115 93.16609,-32.58024 35.64859,10.20922 42.00843,37.48959 43.43102,56.40175 z"
       id="path1149" />
    <path
       style="fill:#ef9645;stroke-width:27.89403915"
       inkscape:connector-curvature="0"
       d="m 569.10716,868.73445 -5.91353,-12.30128 c 0,0 -21.50631,31.99447 -51.40872,44.35153 -22.67785,9.26082 -41.78527,10.18132 -51.79923,8.53557 4.29568,8.17296 4.37937,9.56766 10.01396,14.78384 31.15764,1.08787 80.9485,-15.62066 99.10752,-55.36966 z m -61.84108,-1.08787 c 27.6151,-18.91216 35.67647,-36.9875 35.67647,-36.9875 l -9.00977,-11.40866 c 0,0 -31.93868,49.53981 -88.61936,47.00146 0.41841,6.91772 -0.13947,8.25663 1.89679,15.34172 7.61507,0.25104 37.62906,1.3947 60.05587,-13.94702 z"
       id="path1151" />
    <path
       style="fill:#ffac33;stroke-width:27.89403915"
       inkscape:connector-curvature="0"
       d="m 427.23808,162.3737 c 16.06697,38.63324 -2.00837,82.8174 -40.33478,98.74489 -38.3543,15.9275 -82.45478,-2.39888 -98.49385,-41.06002 -16.03908,-38.60535 2.00837,-82.8174 40.39057,-98.7449 38.3543,-15.9275 82.45477,2.42678 98.43806,41.06003 z"
       id="path1153" />
    <path
       style="fill:#ffdc5d;stroke-width:27.89403915"
       inkscape:connector-curvature="0"
       d="m 578.14483,357.35303 c 33.55653,-40.02795 53.58445,-91.18561 36.37383,-132.52458 L 586.06674,156.2928 c -153.80773,57.90802 -217.09931,-21.5621 -217.09931,-21.5621 0,0 30.12556,72.46872 -34.53282,109.37253 l 34.39335,82.78951 c 28.11719,67.61515 66.4436,116.0392 133.97507,88.28463 l 2.28731,9.09346 c 5.74617,22.78943 1.53417,41.22739 35.0907,42.51051 23.45889,0.89261 55.14652,-41.00423 49.40035,-63.79366 z"
       id="path1155" />
    <path
       style="fill:#ffac33;stroke-width:27.89403915"
       inkscape:connector-curvature="0"
       d="M 757.41982,179.1938 C 780.40451,117.77113 725.09063,71.076507 678.00549,66.278732 649.44199,63.377752 623.6679,81.59256 611.11558,103.4057 553.90491,7.6175682 468.326,30.183846 413.87683,49.347051 356.19196,69.653911 270.3899,129.37505 304.058,193.55923 c 33.66811,64.21208 146.10898,36.59698 146.10898,36.59698 l 40.6974,65.60678 c -10.99025,-56.45753 26.49934,-69.06564 43.82154,-56.76437 18.2427,12.97073 6.13669,54.56074 14.44911,70.96244 8.31242,16.40169 37.09907,38.88429 37.09907,38.88429 17.68482,-22.4826 73.50079,-99.80487 47.41987,-193.44516 10.79499,-4.04464 27.00143,-1.31102 40.08373,5.52302 33.2497,17.26641 7.05719,103.29162 53.30551,130.48831 44.32363,26.08093 70.32087,-9.79081 70.32087,-9.79081 -45.41149,1.50628 -61.89687,-43.70996 -39.94426,-102.42691 z"
       id="path1157" />
    <path
       style="fill:#bf6952;stroke-width:27.89403915"
       inkscape:connector-curvature="0"
       d="m 392.90052,356.87883 -8.59137,3.57044 c -3.76569,1.56206 -8.08927,-0.16737 -9.67923,-3.98885 -1.53417,-3.7657 0.22315,-8.08927 3.98885,-9.65134 l 8.61926,-3.57043 c 3.79359,-1.58996 8.11716,0.22315 9.67923,3.98884 1.56207,3.7657 -0.25105,8.06138 -4.01674,9.65134 z"
       id="path1159" />
    <path
       style="fill:#662113;stroke-width:27.89403915"
       inkscape:connector-curvature="0"
       d="m 397.11252,299.11028 c -7.53139,3.12413 -16.17855,-0.4742 -19.30268,-7.9777 l -5.71828,-13.69597 c -3.12413,-7.5035 0.4742,-16.20644 8.00559,-19.30268 7.55929,-3.15202 16.23433,0.4742 19.33057,7.9498 l 5.69039,13.66808 c 3.15202,7.55929 -0.41841,16.23433 -8.00559,19.35847 z"
       id="path1161" />
    <path
       style="fill:#df1f32;stroke-width:27.89403915"
       inkscape:connector-curvature="0"
       d="m 404.58812,390.37957 c 6.77825,8.22874 14.19807,15.09068 22.20365,20.44633 29.42822,-16.98747 31.49237,-42.76156 31.49237,-42.76156 l -52.30132,21.72946 z"
       id="path1163" />
    <path
       id="path1317"
       d="M 645.39212,778.32906 495.05499,532.41672 355.74697,776.64814 c -32.43841,51.754 -35.26938,119.04883 -1.19432,174.78382 48.43638,79.22334 152.79944,104.65784 233.12863,56.87044 C 667.981,960.52946 693.8285,857.61137 645.39212,778.32906 Z"
       inkscape:connector-curvature="0"
       style="fill:#da2f47;stroke-width:14.74471474" />
  </g>
</svg>
