<?xml version="1.0" encoding="UTF-8" standalone="no"?>
<svg
   xmlns:dc="http://purl.org/dc/elements/1.1/"
   xmlns:cc="http://creativecommons.org/ns#"
   xmlns:rdf="http://www.w3.org/1999/02/22-rdf-syntax-ns#"
   xmlns:svg="http://www.w3.org/2000/svg"
   xmlns="http://www.w3.org/2000/svg"
   xmlns:sodipodi="http://sodipodi.sourceforge.net/DTD/sodipodi-0.dtd"
   xmlns:inkscape="http://www.inkscape.org/namespaces/inkscape"
   viewBox="0 0 1000 1000"
   version="1.1"
   id="svg976"
   sodipodi:docname="emoji_u1f30d_1f525.svg"
   inkscape:version="0.92.4 5da689c313, 2019-01-14"
   width="1000mm"
   height="1000mm">
  <metadata
     id="metadata982">
    <rdf:RDF>
      <cc:Work
         rdf:about="">
        <dc:format>image/svg+xml</dc:format>
        <dc:type
           rdf:resource="http://purl.org/dc/dcmitype/StillImage" />
        <dc:title></dc:title>
      </cc:Work>
    </rdf:RDF>
  </metadata>
  <defs
     id="defs980" />
  <sodipodi:namedview
     pagecolor="#ffffff"
     bordercolor="#666666"
     borderopacity="1"
     objecttolerance="10"
     gridtolerance="10"
     guidetolerance="10"
     inkscape:pageopacity="0"
     inkscape:pageshadow="2"
     inkscape:window-width="1916"
     inkscape:window-height="1056"
     id="namedview978"
     showgrid="true"
     units="mm"
     inkscape:snap-page="true"
     inkscape:snap-bbox="true"
     inkscape:object-paths="true"
     inkscape:snap-intersection-paths="true"
     inkscape:snap-smooth-nodes="true"
     inkscape:snap-midpoints="true"
     inkscape:zoom="0.094292535"
     inkscape:cx="-2952.0474"
     inkscape:cy="773.12708"
     inkscape:window-x="0"
     inkscape:window-y="20"
     inkscape:window-maximized="1"
     inkscape:current-layer="svg976"
     inkscape:document-units="mm">
    <inkscape:grid
       type="xygrid"
       id="grid1570"
       units="mm"
       spacingx="50"
       spacingy="50" />
  </sodipodi:namedview>
  <circle
     cx="500"
     cy="499.99979"
     id="circle972"
     style="fill:#88c9f9;stroke-width:27.77777863"
     r="500" />
  <path
     d="m 714.33333,48.777573 c -28.38889,15.777778 -52,42.444445 -84.11111,32.805556 -52.08333,-15.611111 -121.52778,-50.333333 -166.66666,-6.944444 -45.13889,43.388885 -55.55556,83.333335 0,81.611115 55.55555,-1.72223 93.75,-67.722227 121.52777,-39.94445 27.77778,27.77778 20.80556,50.36111 -45.13889,59.02778 C 474,183.9998 402.77778,194.44424 364.58333,194.44424 c -38.19444,0 -46.88889,22.55556 -20.83333,46.88889 26.05556,24.33333 -15.63889,26.02778 -59.02778,50.33333 -43.38889,24.30556 10.41667,34.72222 46.88889,55.55556 36.47222,20.83333 64.22222,-5.22222 79.86111,-39.94445 15.63889,-34.72222 82.80556,-76.38889 110.83334,-71.16666 28.05555,5.22222 28.05555,19.11111 22.83333,43.38889 -5.22222,24.27777 20.83333,17.36111 22.55555,-10.41667 1.72223,-27.77778 33,-48.61111 57.27778,-50.33333 24.27778,-1.72223 45.13889,33 17.36111,50.33333 -27.77777,17.33333 -55.55555,31.25 -20.83333,39.94444 34.72222,8.69445 59.02778,53.83334 19.11111,72.91667 C 600.69444,401.02757 531.25,413.19424 500,397.55535 468.75,381.91646 397.55556,359.36091 378.47222,371.4998 c -19.08333,12.13888 -29.5,24.72222 -52.08333,33.19444 -22.55556,8.47222 -114.58333,50.13889 -116.33333,103.97222 -1.75,53.83334 -3.44445,114.61111 33,116.33334 36.44444,1.72222 125,-22.55556 152.77777,-45.13889 27.77778,-22.58334 65.97223,-17.36111 78.11111,8.66666 12.13889,26.02778 3.47223,41.66667 -8.66666,83.33334 -12.13889,41.66666 7.94444,62.5 27.41666,98.94444 19.47223,36.44445 35.08334,57.27778 35.08334,83.33333 0,26.05556 27.77778,52.08334 69.44444,8.66667 41.66667,-43.41667 79.86111,-128.47222 97.22222,-159.72222 17.36112,-31.25 31.25,-100.69445 52.08334,-114.58333 20.83333,-13.88889 53.83333,-46.88889 29.5,-41.66667 -24.33334,5.22222 -72.91667,-1.72222 -85.05556,-36.44445 C 678.83333,475.66646 626.75,409.69424 651.02778,402.7498 c 24.27778,-6.94445 52.08333,38.61111 62.5,60.11111 10.41666,21.5 24.30555,47.52777 45.13889,54.47222 20.83333,6.94444 65.97222,-46.47222 79.86111,-54.47222 13.88889,-8.02778 3.47222,-41 -24.30556,-37.52778 -27.77778,3.47222 -64.22222,0 -64.22222,-17.33333 0,-17.33334 34.72222,-39.94445 62.5,-34.72223 27.77778,5.22223 48.61111,13.88889 65.97222,34.72223 17.36111,20.83333 52.08334,59.02777 65.97222,83.33333 13.88889,24.30555 24.30556,27.77778 31.25,-15.61111 4.61112,-28.83334 10.75,-44.69445 16.38889,-61.72222 -28.13889,-161.91667 -133.88889,-296.75 -277.75,-365.222227 z"
     id="path974"
     inkscape:connector-curvature="0"
     style="fill:#5c913b;stroke-width:27.77777863" />
  <path
     inkscape:connector-curvature="0"
     style="fill:#f4900c;stroke-width:27.77777863"
     d="M 997.90103,545.76646 C 985.12325,695.46091 850.75,785.80535 767.36111,749.9998 689.25,716.44424 741.88889,585.63868 745.77778,523.22202 752.33333,417.41646 745.44444,296.30535 553.25,195.61091 633.11111,348.38868 562.5,443.30535 488.44444,449.08313 406.27778,455.4998 331.02778,378.47202 358.80556,253.47202 268.8611,319.7498 266.24999,431.30535 294,503.47202 322.94444,578.69424 292.83333,641.19424 222.24999,648.13868 143.36114,655.91646 71.75,535.88868 112.16669,388.88868 42.222222,471.2498 27.777778,583.33313 55.555556,722.22202 71.898567,803.93868 239.19444,999.9998 500,999.9998 879.12797,957.8498 988.95,730.01368 997.90103,545.76646 Z"
     id="path984"
     sodipodi:nodetypes="cccccccccscc" />
  <path
     inkscape:connector-curvature="0"
     style="fill:#ffcc4d;stroke-width:27.77777863"
     d="m 788.72219,785.86091 c 4.11114,85.66666 -71.13888,119.25 -111.63888,103.02777 -58.5,-23.41666 -42.80556,-63.63888 -57.86112,-146.97222 -15.05555,-83.33333 -72.91666,-141.19444 -158.55555,-166.66666 62.5,175.91666 -34.63889,240.75 -85.55556,252.33333 -52,11.83333 -104.24999,0 -110.22221,-111.30556 -86.09254,61.5 -98.2222,117.05556 -98.2222,161.98056 85.27774,84.27778 203.94441,121.74167 333.3333,121.74167 129.38889,0 254.06211,-43.37778 339.33992,-127.65556 -6.00656,-66.78889 -38.0195,-66.14167 -50.6177,-86.48333 z"
     id="path986"
     sodipodi:nodetypes="ccsccccscc" />
</svg>
