<?xml version="1.0" encoding="UTF-8" standalone="no"?>
<!-- Created with Inkscape (http://www.inkscape.org/) -->

<svg
   xmlns:dc="http://purl.org/dc/elements/1.1/"
   xmlns:cc="http://creativecommons.org/ns#"
   xmlns:rdf="http://www.w3.org/1999/02/22-rdf-syntax-ns#"
   xmlns:svg="http://www.w3.org/2000/svg"
   xmlns="http://www.w3.org/2000/svg"
   xmlns:sodipodi="http://sodipodi.sourceforge.net/DTD/sodipodi-0.dtd"
   xmlns:inkscape="http://www.inkscape.org/namespaces/inkscape"
   inkscape:version="0.92.4 5da689c313, 2019-01-14"
   sodipodi:docname="emoji_u1f48a_1f930.svg"
   id="svg8"
   version="1.1"
   viewBox="0 0 1000 1000"
   height="1000mm"
   width="1000mm">
  <defs
     id="defs2" />
  <sodipodi:namedview
     id="base"
     pagecolor="#ffffff"
     bordercolor="#666666"
     borderopacity="1.0"
     inkscape:pageopacity="0.0"
     inkscape:pageshadow="2"
     inkscape:zoom="0.021875001"
     inkscape:cx="10116.972"
     inkscape:cy="5245.3243"
     inkscape:document-units="mm"
     inkscape:current-layer="layer1"
     showgrid="true"
     inkscape:window-width="1916"
     inkscape:window-height="1056"
     inkscape:window-x="0"
     inkscape:window-y="20"
     inkscape:window-maximized="1"
     gridtolerance="10">
    <inkscape:grid
       units="mm"
       spacingx="50"
       spacingy="50"
       type="xygrid"
       id="grid815" />
  </sodipodi:namedview>
  <metadata
     id="metadata5">
    <rdf:RDF>
      <cc:Work
         rdf:about="">
        <dc:format>image/svg+xml</dc:format>
        <dc:type
           rdf:resource="http://purl.org/dc/dcmitype/StillImage" />
        <dc:title></dc:title>
      </cc:Work>
    </rdf:RDF>
  </metadata>
  <g
     inkscape:label="Layer 1"
     inkscape:groupmode="layer"
     id="layer1"
     transform="translate(0,703)">
    <text
       xml:space="preserve"
       style="font-style:normal;font-variant:normal;font-weight:normal;font-stretch:normal;font-size:671.37640381px;line-height:1.25;font-family:'DejaVu Sans';-inkscape-font-specification:'DejaVu Sans';letter-spacing:0px;word-spacing:0px;fill:#000000;fill-opacity:1;stroke:none;stroke-width:0.25176615"
       x="23.615919"
       y="844.14532"
       id="text858"><tspan
         sodipodi:role="line"
         id="tspan856"
         x="23.615919"
         y="1438.1561"
         style="font-size:671.37640381px;stroke-width:0.25176615" /></text>
    <text
       xml:space="preserve"
       style="font-style:normal;font-variant:normal;font-weight:normal;font-stretch:normal;font-size:671.37640381px;line-height:1.25;font-family:'DejaVu Sans';-inkscape-font-specification:'DejaVu Sans';letter-spacing:0px;word-spacing:0px;fill:#000000;fill-opacity:1;stroke:none;stroke-width:0.25176615"
       x="-214.27335"
       y="-1629.9031"
       id="text862"><tspan
         sodipodi:role="line"
         id="tspan860"
         x="-214.27335"
         y="-1035.8923"
         style="font-size:671.37640381px;stroke-width:0.25176615" /></text>
    <path
       style="fill:#666666;stroke:none;stroke-width:0.26458332px;stroke-linecap:butt;stroke-linejoin:miter;stroke-opacity:1"
       d="M 375,-640.49999 250,-578 125,-515.5 C 0,-452.99999 0,-452.99999 0,-328 v 125 124.999999 C 0,47.000008 0,47.000008 125,109.5 l 125,62.5 125,62.5 c 125,62.50001 125,62.50001 250,0 L 750,172 875,109.5 C 1000,47.000008 1000,47.000008 1000,-78.000001 V -203 -328 c 0,-124.99999 -16.07944,-133.03972 -125,-187.5 L 750,-578 625,-640.49999 c -125,-62.5 -125,-62.5 -250,0 z"
       id="path972"
       inkscape:connector-curvature="0"
       sodipodi:nodetypes="ccccccccccccccccccc" />
    <path
       sodipodi:nodetypes="ccccccccccccccccccc"
       inkscape:connector-curvature="0"
       id="path1023"
       d="M 375,-640.49999 250,-578 125,-515.5 C 0,-452.99999 0,-452.99999 0,-328 v 125 l 0,-49.99999 c 0,125.00001 0,125.00001 125,187.499999 L 250,-2.9999914 375,59.500009 c 125,62.500011 125,62.500011 250,0 L 750,-2.9999914 875,-65.499991 c 125,-62.499989 125,-62.499989 125,-187.499999 L 1000,-203 v -125 c 0,-124.99999 -16.07944,-133.03972 -125,-187.5 L 750,-578 625,-640.49999 c -125,-62.5 -125,-62.5 -250,0 z"
       style="fill:#e6e6e6;stroke:none;stroke-width:0.265;stroke-linecap:butt;stroke-linejoin:miter;stroke-opacity:1;stroke-miterlimit:4;stroke-dasharray:none" />
    <path
       style="font-style:normal;font-variant:normal;font-weight:bold;font-stretch:normal;font-size:705.55554199px;line-height:1.25;font-family:'DejaVu Sans';-inkscape-font-specification:'DejaVu Sans Bold';letter-spacing:0px;word-spacing:0px;fill:#b3b3b3;fill-opacity:1;stroke:none;stroke-width:0.99999994"
       d="M 1199.4844 754.95117 L 1199.4844 2509.9863 L 2580.9961 2509.9863 L 2580.9961 2320.0566 L 1700.7871 2320.0566 L 1700.7871 2131.0801 L 1700.7871 1874.7441 L 1700.7871 1685.7676 L 2501.5684 1685.7676 L 2501.5684 1495.8379 L 1700.7871 1495.8379 L 1700.7871 1306.8613 L 1700.7871 1133.8574 L 1700.7871 944.88281 L 2552.3496 944.88281 L 2552.3496 754.95117 L 1199.4844 754.95117 z "
       transform="matrix(0.26458333,0,0,0.26458333,0,-703)"
       id="path1044" />
    <path
       style="font-style:normal;font-variant:normal;font-weight:bold;font-stretch:normal;font-size:705.55554199px;line-height:1.25;font-family:'DejaVu Sans';-inkscape-font-specification:'DejaVu Sans Bold';letter-spacing:0px;word-spacing:0px;fill:#666666;fill-opacity:1;stroke:none;stroke-width:0.26458332"
       d="m 317.36408,-553.25203 v 100.25204 h 357.94508 v -100.25204 z m 132.63583,196.02577 v 104.22627 H 661.8733 v -104.22627 z m 0,218.07453 0,100.252264 h 232.88863 l 0,-100.252264 z"
       id="path1051"
       inkscape:connector-curvature="0"
       sodipodi:nodetypes="ccccccccccccccc" />
  </g>
</svg>
