<?xml version="1.0" encoding="UTF-8" standalone="no"?>
<!-- Created with Inkscape (http://www.inkscape.org/) -->

<svg
   xmlns:dc="http://purl.org/dc/elements/1.1/"
   xmlns:cc="http://creativecommons.org/ns#"
   xmlns:rdf="http://www.w3.org/1999/02/22-rdf-syntax-ns#"
   xmlns:svg="http://www.w3.org/2000/svg"
   xmlns="http://www.w3.org/2000/svg"
   xmlns:sodipodi="http://sodipodi.sourceforge.net/DTD/sodipodi-0.dtd"
   xmlns:inkscape="http://www.inkscape.org/namespaces/inkscape"
   width="1000"
   height="1000"
   viewBox="0 0 1000 1000"
   version="1.1"
   id="svg8"
   inkscape:version="0.92.4 5da689c313, 2019-01-14"
   sodipodi:docname="emoji_u1f30d_200d_1f525.svg">
  <defs
     id="defs2" />
  <sodipodi:namedview
     id="base"
     pagecolor="#ffffff"
     bordercolor="#666666"
     borderopacity="1.0"
     inkscape:pageopacity="0.0"
     inkscape:pageshadow="2"
     inkscape:zoom="0.175"
     inkscape:cx="-1580.296"
     inkscape:cy="485.85776"
     inkscape:document-units="px"
     inkscape:current-layer="layer1"
     showgrid="true"
     inkscape:window-width="1916"
     inkscape:window-height="1056"
     inkscape:window-x="0"
     inkscape:window-y="20"
     inkscape:window-maximized="1"
     units="px"
     gridtolerance="10"
     inkscape:snap-bbox="true"
     inkscape:bbox-paths="true"
     inkscape:bbox-nodes="true"
     inkscape:snap-bbox-edge-midpoints="true"
     inkscape:snap-bbox-midpoints="true"
     inkscape:object-paths="true"
     inkscape:snap-intersection-paths="true"
     inkscape:snap-smooth-nodes="true"
     inkscape:snap-midpoints="true">
    <inkscape:grid
       type="xygrid"
       id="grid815"
       units="px"
       spacingx="50"
       spacingy="50" />
  </sodipodi:namedview>
  <metadata
     id="metadata5">
    <rdf:RDF>
      <cc:Work
         rdf:about="">
        <dc:format>image/svg+xml</dc:format>
        <dc:type
           rdf:resource="http://purl.org/dc/dcmitype/StillImage" />
        <dc:title></dc:title>
      </cc:Work>
    </rdf:RDF>
  </metadata>
  <g
     inkscape:label="Layer 1"
     inkscape:groupmode="layer"
     id="layer1"
     transform="translate(0,-32.416667)">
    <circle
       cx="500"
       cy="532.41669"
       id="circle972"
       style="fill:#88c9f9;stroke-width:27.77777863"
       r="500" />
    <path
       d="m 714.33331,81.194451 c -28.38889,15.7778 -51.99999,42.444399 -84.1111,32.805499 -52.08332,-15.611099 -121.52777,-50.333299 -166.66666,-6.9444 -45.13887,43.3889 -55.55554,83.3333 0,81.6111 55.55557,-1.7223 93.74999,-67.7222 121.52778,-39.9445 27.77777,27.7778 20.80555,50.3611 -45.1389,59.0278 -65.94443,8.6667 -137.16666,19.1111 -175.36109,19.1111 -38.19446,0 -46.8889,22.5556 -20.83335,46.8889 26.05556,24.3333 -15.63888,26.0278 -59.02777,50.3333 -43.38888,24.3056 10.41667,34.7223 46.88888,55.5556 36.47222,20.8334 64.22223,-5.2222 79.86111,-39.9444 15.63889,-34.7222 82.80556,-76.3889 110.83335,-71.1667 28.05555,5.2222 28.05555,19.1111 22.83333,43.3889 -5.22221,24.2778 20.83332,17.3611 22.55555,-10.4167 1.72222,-27.7778 32.99999,-48.6111 57.27778,-50.3333 24.27777,-1.7222 45.13887,33 17.36108,50.3333 -27.77775,17.3333 -55.55553,31.25 -20.83331,39.9445 34.72222,8.6944 59.02777,53.8333 19.11111,72.9166 -39.91667,19.0834 -109.36111,31.25 -140.6111,15.6111 -31.24999,-15.6388 -102.44445,-38.1944 -121.52778,-26.0555 -19.08334,12.1389 -29.50001,24.7222 -52.08334,33.1944 -22.55554,8.4722 -114.58334,50.1389 -116.33334,103.9722 -1.75,53.8334 -3.4444,114.6112 33,116.3334 36.44447,1.7222 125,-22.5556 152.77779,-45.1389 27.77778,-22.5833 65.97224,-17.3611 78.11111,8.6667 12.1389,26.0277 3.47223,41.6666 -8.66667,83.3333 -12.13889,41.6667 7.94444,62.5 27.41666,98.9444 19.47225,36.4445 35.08335,57.2778 35.08335,83.3334 0,26.0555 27.77778,52.0833 69.44445,8.6666 41.66665,-43.4166 79.86108,-128.4722 97.22219,-159.7222 17.36114,-31.25 31.25002,-100.6944 52.08333,-114.5833 20.83335,-13.8889 53.83335,-46.8889 29.50001,-41.6667 -24.33333,5.2222 -72.91668,-1.7222 -85.05555,-36.4444 -12.1389,-34.7222 -64.22223,-100.6945 -39.94443,-107.6389 24.27777,-6.9444 52.0833,38.6111 62.49998,60.1111 10.41667,21.5 24.30555,47.5278 45.13889,54.4722 20.83335,6.9445 65.97222,-46.4722 79.86112,-54.4722 13.88888,-8.0278 3.47221,-41 -24.30555,-37.5278 -27.77778,3.4723 -64.22223,0 -64.22223,-17.3333 0,-17.3333 34.72222,-39.9444 62.5,-34.7222 27.77779,5.2222 48.61111,13.8888 65.97222,34.7222 17.36111,20.8333 52.08333,59.0278 65.97221,83.3333 13.88891,24.3056 24.30558,27.7778 31.25002,-15.6111 4.6111,-28.8333 10.74999,-44.6944 16.38887,-61.7222 -28.13889,-161.9167 -133.88888,-296.75 -277.75,-365.222199 z"
       id="path974"
       inkscape:connector-curvature="0"
       style="fill:#5c913b;stroke-width:27.77777863" />
    <path
       inkscape:connector-curvature="0"
       style="fill:#f4900c;stroke-width:27.77777863"
       d="m 997.90102,578.18335 c -12.77779,149.6944 -147.15103,240.0388 -230.53992,204.2333 -78.11111,-33.5556 -25.47223,-164.3611 -21.58333,-226.7778 6.55555,-105.8056 -0.33335,-226.9166 -192.52779,-327.6111 79.86111,152.7778 9.25002,247.6944 -64.80555,253.4722 -82.16665,6.4167 -157.41666,-70.6111 -129.63888,-195.6111 -89.94451,66.2778 -92.55561,177.8334 -64.80556,250 28.94444,75.2222 -1.16665,137.7222 -71.75005,144.6667 -78.8888,7.7778 -150.4999,-112.25 -110.0833,-259.25 -69.9444,82.3611 -84.3889,194.4444 -56.6111,333.3333 C 71.89854,836.35555 239.19444,1032.4167 500,1032.4167 879.12795,990.26665 988.94998,762.43055 997.90102,578.18335 Z"
       id="path984"
       sodipodi:nodetypes="cccccccccscc" />
    <path
       inkscape:connector-curvature="0"
       style="fill:#ffcc4d;stroke-width:27.77777863"
       d="m 788.72218,818.27775 c 4.11115,85.6667 -71.13889,119.25 -111.63887,103.0278 -58.50001,-23.4167 -42.80556,-63.6389 -57.86112,-146.9723 -15.05556,-83.3333 -72.91667,-141.1944 -158.55555,-166.6666 62.50001,175.9167 -34.6389,240.75 -85.55556,252.3333 -52.00002,11.8334 -104.24994,0 -110.22224,-111.3055 -86.0925,61.5 -98.2222,117.0555 -98.2222,161.9805 85.2778,84.2778 203.94443,121.74175 333.33333,121.74175 129.38888,0 254.06209,-43.37785 339.33991,-127.65565 -6.00657,-66.7889 -38.01951,-66.1416 -50.6177,-86.4833 z"
       id="path986"
       sodipodi:nodetypes="ccsccccscc" />
  </g>
</svg>
