<?xml version="1.0" encoding="UTF-8" standalone="no"?>
<!-- Created with Inkscape (http://www.inkscape.org/) -->

<svg
   xmlns:dc="http://purl.org/dc/elements/1.1/"
   xmlns:cc="http://creativecommons.org/ns#"
   xmlns:rdf="http://www.w3.org/1999/02/22-rdf-syntax-ns#"
   xmlns:svg="http://www.w3.org/2000/svg"
   xmlns="http://www.w3.org/2000/svg"
   xmlns:sodipodi="http://sodipodi.sourceforge.net/DTD/sodipodi-0.dtd"
   xmlns:inkscape="http://www.inkscape.org/namespaces/inkscape"
   width="1000mm"
   height="1000mm"
   viewBox="0 0 1000 1000"
   version="1.1"
   id="svg8"
   inkscape:version="0.92.4 5da689c313, 2019-01-14"
   sodipodi:docname="emoji_u1f9d8_1f5e1.svg">
  <defs
     id="defs2" />
  <sodipodi:namedview
     id="base"
     pagecolor="#ffffff"
     bordercolor="#666666"
     borderopacity="1.0"
     inkscape:pageopacity="0.0"
     inkscape:pageshadow="2"
     inkscape:zoom="0.12374369"
     inkscape:cx="1040.374"
     inkscape:cy="1313.8904"
     inkscape:document-units="mm"
     inkscape:current-layer="layer1"
     showgrid="true"
     inkscape:window-width="1916"
     inkscape:window-height="1056"
     inkscape:window-x="0"
     inkscape:window-y="20"
     inkscape:window-maximized="1">
    <inkscape:grid
       type="xygrid"
       id="grid815"
       units="mm"
       spacingx="50"
       spacingy="50" />
  </sodipodi:namedview>
  <metadata
     id="metadata5">
    <rdf:RDF>
      <cc:Work
         rdf:about="">
        <dc:format>image/svg+xml</dc:format>
        <dc:type
           rdf:resource="http://purl.org/dc/dcmitype/StillImage" />
        <dc:title></dc:title>
      </cc:Work>
    </rdf:RDF>
  </metadata>
  <g
     inkscape:label="Layer 1"
     inkscape:groupmode="layer"
     id="layer1"
     transform="translate(0,703)">
    <g
       id="g3739"
       transform="translate(157.98322)">
      <path
         id="path1532"
         d="m 634.15566,149.78394 c -4.89169,-39.78911 -43.08713,-53.878981 -62.02017,-53.878981 -24.29148,0 -82.21717,30.859551 -92.74169,-16.323575 l -1.01772,-5.104413 -272.317,-0.316389 -1.45613,5.136052 c -10.3048,47.657706 -68.47774,16.630473 -92.82405,16.630473 -18.933049,0 -57.12889,14.089863 -62.020172,53.878973 0,0 185.895482,67.99838 292.239302,67.99838 106.42618,0 292.15684,-67.99838 292.15684,-67.99838 z"
         style="fill:#4289c1;stroke-width:27.68994713"
         inkscape:connector-curvature="0" />
      <path
         id="path1534"
         d="m 181.65877,-228.2664 c -15.00359,-2.54166 -29.12781,7.75154 -31.6284,22.93611 l -22.67016,138.033244 c -1.95044,1.202279 -3.90192,2.425651 -5.96246,3.765032 -48.418035,31.556663 -45.642646,98.467713 -80.623469,128.79784 -4.698517,4.070875 -26.07752,21.373147 -33.0571723,36.970084 -9.2329466,20.59272 6.0455563,12.3898 1.2369459,19.3936 -11.1564962,16.29405 -11.3762591,41.23923 -3.4896183,47.04286 l 10.2497137,2.79478 c 15.305714,11.24552 57.183726,-37.27698 62.679562,-64.23124 8.243184,-40.262637 84.497988,-90.682426 98.622218,-129.83032 4.45138,-12.388748 6.15567,-21.958468 4.75354,-29.967334 L 212.16122,-196.1202 c 2.50085,-15.23414 -15.55309,-29.63196 -30.50174,-32.14303 z m 492.47877,351.51477 c -4.80859,-7.00275 12.00834,-0.42185 2.77505,-21.03777 C 669.9053,86.585187 646.98797,69.313499 642.31655,65.23946 607.33574,34.909333 611.64998,-32.000662 563.23194,-63.557325 c -2.28074,-1.508122 -4.50644,-2.900235 -6.67697,-4.218523 L 533.96728,-205.33451 c -2.4729,-15.18035 -16.67976,-25.44718 -31.60089,-22.93611 -14.97607,2.54166 -33.93663,16.9089 -31.46347,32.11562 l 31.6283,145.706736 c -0.76882,7.593341 0.98714,16.517627 5.0558,27.846471 14.09681,39.11942 90.37851,89.539209 98.62221,129.830323 5.5231,26.98167 47.40127,75.50418 62.67956,64.23123 l 10.24974,-2.79477 c 7.94095,-5.86375 6.18267,-29.12996 -5.00074,-45.42611 z"
         style="fill:#ffdc5d;stroke-width:27.68994713"
         inkscape:connector-curvature="0" />
      <path
         id="path1536"
         d="m 472.71638,296.46831 c -28.5781,2.47839 -55.50757,-5.80046 -82.43703,0 -13.05252,0.84371 -22.03808,0 -35.09061,-11.60726 C 342.13612,273.25273 127.47009,242.58723 88.285002,216.08014 70.203901,203.83166 42.614939,173.11026 49.924339,147.30028 c 7.227458,-25.47355 31.298653,-39.87242 60.398851,-40.59801 56.74419,-1.42375 164.87407,82.06188 243.21682,112.72632 14.23411,5.579 26.0501,-1.45539 44.07626,3.32209 18.76823,4.96731 63.66891,-15.4862 86.53141,-12.44465 31.02385,4.15525 43.25195,19.05718 40.8063,44.75537 -2.5829,27.17784 -23.6594,38.92431 -52.2376,41.40797 z"
         style="fill:#ffdc5d;stroke-width:27.68994713"
         inkscape:connector-curvature="0" />
      <path
         id="path1538"
         d="m 472.71638,296.46831 c -28.5781,2.47839 -55.50757,-5.80046 -82.43703,0 -13.05252,0.84371 -22.03808,0 -35.09061,-11.60726 -13.05262,-11.60832 24.42879,-66.93953 42.45505,-62.16732 18.76812,4.96731 63.66881,-15.4862 86.53141,-12.44465 31.02374,4.15525 43.25195,19.05718 40.80631,44.75537 -2.6099,27.23373 -23.68693,38.98021 -52.26513,41.46386 z M 155.03153,223.53005 c 6.53987,-17.4109 32.64507,-24.86081 44.90079,-26.50709 12.25562,-1.64522 32.64507,5.80047 46.5219,11.60832 13.87695,5.80047 30.72152,6.52816 41.3285,2.37292 10.60689,-4.15525 18.35592,-3.45919 26.32481,0 2.14364,0.94917 11.62365,0 15.00359,-1.8667 0,0 49.18741,17.18732 31.2162,22.99201 -17.94381,5.80047 -148.9638,14.62035 -166.9076,14.62035 -17.94381,0 -38.38819,-23.21559 -38.38819,-23.21559 z"
         style="fill:#f9ca55;stroke-width:27.68994713"
         inkscape:connector-curvature="0" />
      <path
         id="path1540"
         d="m 49.924339,147.30028 c 0.166209,-0.52731 0.436195,-1.05463 0.602405,-1.56085 5.523154,21.26135 20.884014,46.31727 38.498068,52.95828 22.038188,8.2894 199.140458,61.32995 221.178638,63.81255 22.03818,2.48893 54.68325,5.80047 61.22316,10.77094 6.53998,4.96731 23.65951,6.64418 37.53634,3.32209 13.87695,-3.32209 48.96766,9.93462 66.93888,5.80047 17.9438,-4.13415 44.07637,-12.41722 48.96764,-34.79544 0.0825,-0.42185 0.19722,-0.63277 0.30163,-0.94916 0.1139,2.67876 0.0825,5.44189 -0.18667,8.4265 -2.5829,27.20525 -23.65941,38.95173 -52.23761,41.43433 -28.5782,2.48893 -55.50757,-5.80047 -82.43704,0 -13.05252,0.84371 -22.03817,0 -35.09069,-11.60621 C 342.16656,273.30546 127.50054,242.63996 88.315443,216.13287 70.206819,203.82849 42.617858,173.07968 49.927257,147.29712 Z"
         style="fill:#f9ca55;stroke-width:27.68994713"
         inkscape:connector-curvature="0" />
      <path
         id="path1542"
         d="m 211.28106,296.46831 c 28.57821,2.47839 55.50767,-5.80046 82.43714,0 13.05251,0.84371 22.03807,0 35.09069,-11.60726 13.05253,-11.60832 227.71855,-42.27382 266.90354,-68.78091 18.0812,-12.24848 45.67016,-42.96988 38.36077,-68.77986 -7.22644,-25.47355 -31.29866,-39.87242 -60.39885,-40.59801 -56.7442,-1.42375 -164.87406,82.06188 -243.21671,112.72632 -14.23421,5.579 -26.05011,-1.45539 -44.07637,3.32209 -18.76822,4.96731 -63.66891,-15.4862 -86.53141,-12.44465 -31.02385,4.15525 -43.25194,19.05718 -40.80631,44.75537 2.5829,27.17784 23.6594,38.92431 52.23751,41.40797 z"
         style="fill:#ffdc5d;stroke-width:27.68994713"
         inkscape:connector-curvature="0" />
      <path
         id="path1544"
         d="m 369.4778,-703.00001 c -34.73343,0 -66.91145,10.96605 -93.48364,29.60454 -5.38611,-0.8437 -10.79923,-1.69795 -16.43247,-1.69795 -60.70108,0 -109.91601,49.97368 -109.91601,111.61052 v 111.60946 c 0,107.87186 86.1192,195.31763 192.35314,195.31763 106.23384,0 192.35304,-87.44577 192.35304,-195.31763 v -83.67967 c 0,-92.46792 -73.80864,-167.44268 -164.87406,-167.44268 z"
         style="fill:#ffac33;stroke-width:27.68994713"
         inkscape:connector-curvature="0" />
      <path
         id="path1546"
         d="M 466.83596,-284.4624 H 217.07922 c -70.40128,0 -80.01891,111.60947 -80.01891,111.60947 l 67.54343,17.63553 c 0,0 12.47548,66.296205 12.47548,121.012559 0,54.717409 -12.47548,112.474264 -12.47548,112.474264 0,0 55.80979,9.344029 137.39508,9.344029 81.58508,0 137.39498,-9.344029 137.39498,-9.344029 0,0 -13.38227,-57.78533 -13.38227,-113.311641 0,-55.525256 13.38227,-120.175182 13.38227,-120.175182 l 67.54343,-17.63553 c 0,0 -9.70028,-111.60947 -80.10127,-111.60947 z"
         style="fill:#9268ca;stroke-width:27.68994713"
         inkscape:connector-curvature="0" />
      <path
         id="path1548"
         d="m 287.04077,-396.07187 v 111.60947 c 0,30.80471 24.62122,55.80579 54.95805,55.80579 30.33683,0 54.95795,-25.00108 54.95795,-55.80579 v -111.60947 z"
         style="fill:#ffdc5d;stroke-width:27.68994713"
         inkscape:connector-curvature="0" />
      <path
         id="path1550"
         d="m 396.95677,-396.07187 -109.916,0.52732 v 111.08004 c 0,0 54.95805,27.90237 109.916,0 z"
         style="fill:#f9ca55;stroke-width:27.68994713"
         inkscape:connector-curvature="0" />
      <path
         id="path1552"
         d="m 287.04077,-619.29185 c 0,0 -0.30162,91.66007 -82.43703,108.65228 v 58.76192 c 0,77.06714 61.49797,139.51288 137.39508,139.51288 75.897,0 137.39498,-62.41832 137.39498,-139.51288 V -508.5746 C 287.56285,-517.61279 287.04077,-619.29185 287.04077,-619.29185 Z"
         style="fill:#ffdc5d;stroke-width:27.68994713"
         inkscape:connector-curvature="0" />
      <path
         id="path1554"
         d="m 396.95677,-368.1695 h -109.916 c 0,0 0,27.90131 54.95805,27.90131 54.95795,0 54.95795,-27.90131 54.95795,-27.90131 z"
         style="fill:#df1f32;stroke-width:27.68994713"
         inkscape:connector-curvature="0" />
      <g
         transform="matrix(27.479009,0,0,27.902503,-169.11087,-703.00001)"
         id="g3040">
        <circle
           style="fill:#f5f8fa;stroke-width:0.30000001"
           cx="16.049999"
           cy="8.3500004"
           r="1.65"
           id="circle2438" />
        <circle
           style="fill:#664500;stroke-width:0.30000001"
           cx="16.049999"
           cy="8.3500004"
           r="0.75"
           id="circle2440" />
      </g>
      <g
         transform="matrix(27.479009,0,0,27.902503,-136.13607,-703.00001)"
         id="g3036">
        <circle
           style="fill:#f5f8fa;stroke-width:0.30000001"
           cx="19.949999"
           cy="8.3500004"
           r="1.65"
           id="circle2436" />
        <circle
           style="fill:#664500;stroke-width:0.30000001"
           cx="19.949999"
           cy="8.3500004"
           r="0.75"
           id="circle2442" />
      </g>
      <path
         style="fill:#c1694f;fill-opacity:1;stroke-width:27.68994713"
         id="path1556"
         d="m 314.51974,-423.97529 h 54.95806 c 0,0 0,27.90342 -27.47898,27.90342 -27.47908,0 -27.47908,-27.90342 -27.47908,-27.90342 z"
         inkscape:connector-curvature="0" />
      <path
         id="path1649"
         d="m 286.89765,29.435799 c 13.74701,0.01055 192.36082,-55.797351 384.71189,55.805788 -27.48427,0.01055 -400.56712,21.220223 -400.56712,21.220223 z"
         style="fill:#ccd6dd;stroke-width:13.84489822"
         inkscape:connector-curvature="0" />
      <path
         id="path1651"
         d="m 286.888,141.05898 c 13.73725,0 192.38013,55.79524 384.72154,-55.817393 l -412.1865,0.01055 z"
         style="fill:#9aaab4;stroke-width:13.84489822"
         inkscape:connector-curvature="0" />
      <path
         id="path1653"
         d="m 245.67613,127.10832 c 15.17506,0 27.48426,-14.98419 27.48426,-33.490855 l 0.01,-16.741209 c 0,-18.506661 -12.31886,-33.481364 -27.49392,-33.481364 H 94.546582 c -15.175164,0 -27.47451,14.993686 -27.47451,33.481364 v 16.731717 c 0,18.506657 12.309109,33.490857 27.47451,33.481367 z"
         style="fill:#31373d;stroke-width:13.84489822"
         inkscape:connector-curvature="0" />
      <path
         id="path1655"
         d="m 166.01157,43.394892 54.95879,83.703938 h 24.696 c 2.58395,0 5.03196,-0.52732 7.41237,-1.39211 L 199.03312,43.383292 Z m 107.15848,33.481364 c 0,-18.506661 -12.31886,-33.481364 -27.49392,-33.481364 h -16.04954 l 41.41583,63.066918 c 1.35014,-3.95486 2.10831,-8.299941 2.10831,-12.853837 z M 132.97985,43.394892 H 99.967641 l 54.958779,83.703938 h 33.01231 z M 72.600001,56.919478 c -3.429386,5.589543 -5.537687,12.449916 -5.537687,19.96627 v 16.731717 c 0,2.035438 0.207762,3.997051 0.488083,5.916479 l 16.39923,24.976816 c 3.264251,1.65578 6.829684,2.5944 10.589537,2.58385 h 24.132626 z"
         style="fill:#67757f;stroke-width:13.84489822"
         inkscape:connector-curvature="0" />
      <circle
         transform="matrix(0.70167524,0.71249691,-0.70167524,0.71249691,0,0)"
         id="circle1657"
         r="55.382835"
         cy="11.901795"
         cx="107.68368"
         style="fill:#31373d;stroke-width:13.84570885" />
      <path
         id="path1659"
         d="m 266.28201,189.881 c -11.38623,0 -20.61565,-9.37567 -20.60588,-20.92388 V -5.4376768 c 0,-11.5608632 9.22981,-20.9333662 20.60588,-20.9238752 11.38622,0 20.60599,9.365122 20.60599,20.9238752 V 168.95712 c 0.0193,11.54188 -9.21948,20.92388 -20.60599,20.92388 z"
         style="fill:#31373d;stroke-width:13.84489822"
         inkscape:connector-curvature="0" />
    </g>
  </g>
</svg>
