<?xml version="1.0" encoding="UTF-8" standalone="no"?>
<!-- Created with Inkscape (http://www.inkscape.org/) -->

<svg
   xmlns:dc="http://purl.org/dc/elements/1.1/"
   xmlns:cc="http://creativecommons.org/ns#"
   xmlns:rdf="http://www.w3.org/1999/02/22-rdf-syntax-ns#"
   xmlns:svg="http://www.w3.org/2000/svg"
   xmlns="http://www.w3.org/2000/svg"
   xmlns:sodipodi="http://sodipodi.sourceforge.net/DTD/sodipodi-0.dtd"
   xmlns:inkscape="http://www.inkscape.org/namespaces/inkscape"
   width="1000"
   height="1000"
   viewBox="0 0 1000 1000"
   version="1.1"
   id="svg8"
   inkscape:version="0.92.4 5da689c313, 2019-01-14"
   sodipodi:docname="emoji_u1f9d8_200d_1f3a9.svg">
  <defs
     id="defs2" />
  <sodipodi:namedview
     id="base"
     pagecolor="#ffffff"
     bordercolor="#666666"
     borderopacity="1.0"
     inkscape:pageopacity="0.0"
     inkscape:pageshadow="2"
     inkscape:zoom="0.70000002"
     inkscape:cx="380.9303"
     inkscape:cy="180.0312"
     inkscape:document-units="px"
     inkscape:current-layer="layer1"
     showgrid="true"
     inkscape:window-width="1916"
     inkscape:window-height="1056"
     inkscape:window-x="0"
     inkscape:window-y="20"
     inkscape:window-maximized="1"
     units="px"
     gridtolerance="10"
     inkscape:snap-bbox="true"
     inkscape:bbox-paths="true"
     inkscape:bbox-nodes="true"
     inkscape:snap-bbox-edge-midpoints="true"
     inkscape:snap-bbox-midpoints="true"
     inkscape:object-paths="true"
     inkscape:snap-intersection-paths="true"
     inkscape:snap-smooth-nodes="true"
     inkscape:snap-midpoints="true"
     inkscape:snap-nodes="false"
     inkscape:snap-object-midpoints="true">
    <inkscape:grid
       type="xygrid"
       id="grid815"
       units="px"
       spacingx="50"
       spacingy="50" />
  </sodipodi:namedview>
  <metadata
     id="metadata5">
    <rdf:RDF>
      <cc:Work
         rdf:about="">
        <dc:format>image/svg+xml</dc:format>
        <dc:type
           rdf:resource="http://purl.org/dc/dcmitype/StillImage" />
        <dc:title></dc:title>
      </cc:Work>
    </rdf:RDF>
  </metadata>
  <g
     inkscape:label="Layer 1"
     inkscape:groupmode="layer"
     id="layer1"
     transform="translate(0,-32.416667)">
    <path
       inkscape:connector-curvature="0"
       style="fill:#4289c1;stroke-width:20.92684364"
       d="m 722.4807,672.0038 c -3.72503,-29.84168 -32.81333,-40.40974 -47.23192,-40.40974 -18.49928,0 -62.61308,23.14509 -70.62808,-12.24221 l -0.7743,-3.82961 -207.38502,-0.25111 -1.10912,3.85053 c -7.84757,35.74306 -52.1497,12.4724 -70.69089,12.4724 -14.41859,0 -43.5069,10.56806 -47.23188,40.40974 0,0 141.5701,50.99872 222.55698,50.99872 81.04968,0 222.49423,-50.99872 222.49423,-50.99872 z"
       id="path1773" />
    <path
       inkscape:connector-curvature="0"
       style="fill:#ffdc5d;stroke-width:20.92684364"
       d="m 377.87834,388.46599 c -11.42606,-1.90435 -22.18245,5.81766 -24.0868,17.20187 L 336.5269,509.19295 c -1.48581,0.89986 -2.97161,1.82064 -4.54113,2.82513 -36.8731,23.66826 -34.75949,73.85083 -61.39936,96.59831 -3.57849,3.05531 -19.85957,16.02996 -25.175,27.72807 -7.03141,15.44401 4.60391,9.29151 0.94171,14.54415 -8.49629,12.22128 -8.6637,30.92987 -2.6577,35.28267 l 7.80571,2.09267 c 11.65625,8.43352 43.54877,-27.95825 47.73413,-48.17359 6.27805,-30.19744 64.35005,-68.01224 75.10644,-97.3726 3.39015,-9.29152 4.68762,-16.46943 3.62035,-22.47543 l 23.14509,-107.66862 c 1.90434,-11.42605 -11.8446,-22.2243 -23.2288,-24.10772 z m 375.05093,263.63638 c -3.66225,-5.25264 9.14498,-0.33483 2.11358,-15.77884 -5.33633,-11.71903 -22.78935,-24.67275 -26.3469,-27.72807 -26.63985,-22.74748 -23.35433,-72.93005 -60.22748,-96.59831 -1.73692,-1.13005 -3.432,-2.17639 -5.08522,-3.15995 L 646.1814,405.66786 c -1.8834,-11.38421 -12.7026,-19.08528 -24.06585,-17.20187 -11.40518,1.90434 -25.84466,12.68167 -23.96125,24.0868 l 24.0868,109.27998 c -0.58598,5.6921 0.75337,12.38869 3.8505,20.88499 10.7355,29.33943 68.8284,67.15424 75.1065,97.3726 4.2063,20.23626 36.09877,56.62804 47.73413,48.17359 l 7.80569,-2.09267 c 6.04785,-4.39465 4.70858,-21.84763 -3.80865,-34.06891 z"
       id="path1775" />
    <path
       inkscape:connector-curvature="0"
       style="fill:#ffdc5d;stroke-width:20.92684364"
       d="m 599.53547,782.01622 c -21.76392,1.86248 -42.27223,-4.35279 -62.78053,0 -9.94025,0.6278 -16.78333,0 -26.72358,-8.70557 -9.94025,-8.70557 -173.42076,-31.70417 -203.26244,-51.58467 -13.76986,-9.18689 -34.78041,-32.22734 -29.21387,-51.58467 5.50376,-19.10621 23.83567,-29.90446 45.9972,-30.44856 43.21393,-1.06727 125.56107,61.54585 185.2235,84.54445 10.8401,4.18537 19.83865,-1.0882 33.56666,2.49029 14.29303,3.72499 48.4875,-11.61439 65.89863,-9.33337 23.62638,3.1181 32.93883,14.29304 31.07636,33.56666 -1.9671,20.38274 -18.018,29.19295 -39.78193,31.05544 z"
       id="path1777" />
    <path
       inkscape:connector-curvature="0"
       style="fill:#f9ca55;stroke-width:20.92684364"
       d="m 599.53547,782.01622 c -21.76392,1.86248 -42.27223,-4.35279 -62.78053,0 -9.94025,0.6278 -16.78333,0 -26.72358,-8.70557 -9.94025,-8.70557 18.60396,-50.2035 32.33197,-46.625 14.29304,3.72497 48.4875,-11.61441 65.89863,-9.33338 23.62639,3.1181 32.93884,14.29303 31.07636,33.56665 -1.98802,20.4246 -18.03892,29.23481 -39.80285,31.0973 z M 357.60022,727.31345 c 4.9806,-13.05836 24.8611,-18.64582 34.19447,-19.88051 9.33337,-1.23468 24.86109,4.35279 35.42915,8.70558 10.56806,4.35278 23.39621,4.89687 31.47397,1.77877 8.07776,-3.11809 13.97914,-2.59493 20.04792,0 1.63229,0.69059 8.85205,0 11.42605,-1.40209 0,0 37.45905,12.89093 23.7729,17.24372 -13.66523,4.35278 -113.44443,10.96566 -127.10965,10.96566 -13.66523,0 -29.23481,-17.41113 -29.23481,-17.41113 z"
       id="path1779" />
    <path
       inkscape:connector-curvature="0"
       style="fill:#f9ca55;stroke-width:20.92684364"
       d="m 277.55505,670.14131 c 0.12556,-0.41854 0.33483,-0.77429 0.46039,-1.17191 4.2063,15.94626 15.9044,34.73857 29.31851,39.71916 16.78333,6.21527 151.65684,45.99719 168.44017,47.85968 16.78332,1.8625 41.64442,4.3528 46.62501,8.07777 4.98058,3.72498 18.018,4.98059 28.58607,2.4903 10.56805,-2.4903 37.29163,7.44995 50.97778,4.35278 13.66522,-3.09718 33.56669,-9.31245 37.29165,-26.09578 0.063,-0.3139 0.14647,-0.46038 0.23017,-0.71151 0.0837,2.00898 0.063,4.08074 -0.14648,6.31991 -1.9671,20.40367 -18.01799,29.21387 -39.78192,31.07636 -21.76391,1.86249 -42.27222,-4.35278 -62.78053,0 -9.94025,0.6278 -16.78333,0 -26.72358,-8.70556 -9.94025,-8.70557 -173.42076,-31.70418 -203.26244,-51.58467 -13.79079,-9.22875 -34.80134,-32.29013 -29.2348,-51.62653 z"
       id="path1781" />
    <path
       inkscape:connector-curvature="0"
       style="fill:#ffdc5d;stroke-width:20.92684364"
       d="m 400.43748,782.01622 c 21.76391,1.86248 42.27222,-4.35279 62.78053,0 9.94025,0.6278 16.78333,0 26.72358,-8.70557 9.94025,-8.70557 173.42074,-31.70417 203.26241,-51.58467 13.76992,-9.18689 34.78043,-32.22734 29.21392,-51.58467 -5.50379,-19.10621 -23.83567,-29.90446 -45.9972,-30.44856 -43.21395,-1.06727 -125.56109,61.54585 -185.22352,84.54445 -10.8401,4.18537 -19.83865,-1.0882 -33.56665,2.49029 -14.29304,3.72499 -48.4875,-11.61439 -65.89864,-9.33337 -23.62641,3.1181 -32.93885,14.29304 -31.07637,33.56666 1.96713,20.38274 18.01802,29.19295 39.78194,31.05544 z"
       id="path1783" />
    <path
       inkscape:connector-curvature="0"
       style="fill:#ffac33;stroke-width:20.92684364"
       d="m 520.91332,32.416668 c -26.45153,0 -50.95686,8.224245 -71.19312,22.203375 -4.10166,-0.627803 -8.22426,-1.276538 -12.51426,-1.276538 -46.22739,0 -83.70737,37.479983 -83.70737,83.707385 v 83.70737 c 0,80.90318 65.58473,146.48791 146.4879,146.48791 80.90318,0 146.48788,-65.58473 146.48788,-146.48791 v -62.7596 c 0,-69.351567 -56.20947,-125.581992 -125.56103,-125.581992 z"
       id="path1785" />
    <path
       inkscape:connector-curvature="0"
       style="fill:#9268ca;stroke-width:20.92684364"
       d="M 595.05713,346.31933 H 404.85304 c -53.61457,0 -60.93897,83.70737 -60.93897,83.70737 l 51.43818,13.22576 c 0,0 9.50079,49.72219 9.50079,90.75973 0,41.03754 -9.50079,84.35611 -9.50079,84.35611 0,0 42.50242,7.01049 104.63422,7.01049 62.1318,0 104.63423,-7.01049 104.63423,-7.01049 0,0 -10.19138,-43.3395 -10.19138,-84.98392 0,-41.64442 10.19138,-90.13192 10.19138,-90.13192 l 51.4382,-13.22576 c 0,0 -7.3872,-83.70737 -61.00177,-83.70737 z"
       id="path1787" />
    <path
       inkscape:connector-curvature="0"
       style="fill:#ffdc5d;stroke-width:20.92684364"
       d="m 458.13279,262.61195 v 83.70738 c 0,23.10323 18.75045,41.85368 41.85368,41.85368 23.10324,0 41.85369,-18.75045 41.85369,-41.85368 v -83.70738 z"
       id="path1789" />
    <path
       inkscape:connector-curvature="0"
       style="fill:#f9ca55;stroke-width:20.92684364"
       d="m 541.84016,262.61195 -83.70737,0.39761 v 83.30977 c 0,0 41.85368,20.92684 83.70737,0 z"
       id="path1791" />
    <path
       inkscape:connector-curvature="0"
       style="fill:#ffdc5d;stroke-width:20.92684364"
       d="m 458.13279,95.197195 c 0,0 -0.2302,68.744685 -62.78053,81.489135 v 44.07193 c 0,57.79994 46.83427,104.63422 104.63421,104.63422 57.79995,0 104.63423,-46.81335 104.63423,-104.63422 V 178.23492 C 458.5304,171.45462 458.13279,95.197195 458.13279,95.197195 Z"
       id="path1793" />
    <path
       inkscape:connector-curvature="0"
       style="fill:#df1f32;stroke-width:20.92684364"
       d="m 541.84016,304.46564 h -83.70737 c 0,0 0,-20.92685 41.85368,-20.92685 41.85369,0 41.85369,20.92685 41.85369,20.92685 z"
       id="path1795" />
    <g
       id="g2446"
       transform="translate(-2.303585,22.121827)">
      <path
         id="path2442"
         d="m 463.3645,215.52655 h -31.39027 c -2.86697,0 -5.23171,-2.36473 -5.23171,-5.23171 0,-2.86698 2.36474,-5.23171 5.23171,-5.23171 h 31.39027 c 2.8879,0 5.23171,2.36473 5.23171,5.23171 0,2.86698 -2.34381,5.23171 -5.23171,5.23171 z"
         style="fill:#c1694f;stroke-width:20.92684364"
         inkscape:connector-curvature="0" />
      <path
         id="path2440"
         d="m 567.99871,215.52655 h -31.39025 c -2.88791,0 -5.23172,-2.36473 -5.23172,-5.23171 0,-2.86698 2.34381,-5.23171 5.23172,-5.23171 h 31.39025 c 2.88791,0 5.23172,2.36473 5.23172,5.23171 0,2.86698 -2.34381,5.23171 -5.23172,5.23171 z"
         style="fill:#c1694f;stroke-width:20.92684364"
         inkscape:connector-curvature="0" />
    </g>
    <g
       id="g3342"
       transform="matrix(10,0,0,-10,-12611.78,10747.725)">
      <g
         id="g3328">
        <path
           style="fill:#664500"
           d="m 1325.178,981.66087 c -1.19,1.441 -3.182,1.951 -5.076,2.121 -0.318,-1.538 -1.683,-7.251 -4.424,-7.251 -2.403,0 -3.269,1.091 -4.5,1.091 -1.231,0 -2.097,-1.091 -4.5,-1.091 -2.741,0 -4.106,5.713 -4.424,7.251 -1.894,-0.17 -3.886,-0.681 -5.076,-2.121 -2.153,-2.606 -5,-0.686 -3.558,2.174 2.278,4.517 7.788,7.696 17.558,7.696 9.769,0 15.279,-3.179 17.558,-7.696 1.442,-2.86 -1.405,-4.78 -3.558,-2.174 z"
           id="path3295"
           inkscape:connector-curvature="0" />
      </g>
      <path
         id="path3297"
         d="m 1314.678,978.53087 c -1.869,0 -2.543,0.964 -3.5,0.964 -0.957,0 -1.631,-0.964 -3.5,-0.964 -2.463,0 -3.5,6.75 -3.5,6.75 0,0 1.282,2.25 7,2.25 5.719,0 7,-2.25 7,-2.25 0,0 -1.037,-6.75 -3.5,-6.75 z"
         inkscape:connector-curvature="0"
         style="fill:#825d0e" />
      <path
         id="path3299"
         d="m 1304.178,981.53087 c 0,0 2.074,2 7,2 4.927,0 7,-2 7,-2 v 2 c 0,0 -2.222,2 -7,2 -4.778,0 -7,-2 -7,-2 z"
         inkscape:connector-curvature="0"
         style="fill:#664500" />
    </g>
  </g>
</svg>
