<?xml version="1.0" encoding="UTF-8" standalone="no"?>
<!-- Created with Inkscape (http://www.inkscape.org/) -->

<svg
   xmlns:dc="http://purl.org/dc/elements/1.1/"
   xmlns:cc="http://creativecommons.org/ns#"
   xmlns:rdf="http://www.w3.org/1999/02/22-rdf-syntax-ns#"
   xmlns:svg="http://www.w3.org/2000/svg"
   xmlns="http://www.w3.org/2000/svg"
   xmlns:sodipodi="http://sodipodi.sourceforge.net/DTD/sodipodi-0.dtd"
   xmlns:inkscape="http://www.inkscape.org/namespaces/inkscape"
   width="1000"
   height="1000"
   viewBox="0 0 1000 1000"
   version="1.1"
   id="svg8"
   inkscape:version="0.92.4 5da689c313, 2019-01-14"
   sodipodi:docname="emoji_u1f6ac_200d_1f33f.svg">
  <defs
     id="defs2" />
  <sodipodi:namedview
     id="base"
     pagecolor="#ffffff"
     bordercolor="#666666"
     borderopacity="1.0"
     inkscape:pageopacity="0.0"
     inkscape:pageshadow="2"
     inkscape:zoom="0.35000001"
     inkscape:cx="-336.73468"
     inkscape:cy="86.147086"
     inkscape:document-units="px"
     inkscape:current-layer="layer1"
     showgrid="true"
     inkscape:window-width="1916"
     inkscape:window-height="1056"
     inkscape:window-x="0"
     inkscape:window-y="20"
     inkscape:window-maximized="1"
     units="px"
     gridtolerance="10"
     inkscape:snap-bbox="true"
     inkscape:bbox-paths="true"
     inkscape:bbox-nodes="true"
     inkscape:snap-bbox-edge-midpoints="true"
     inkscape:snap-bbox-midpoints="true"
     inkscape:object-paths="true"
     inkscape:snap-intersection-paths="true"
     inkscape:snap-smooth-nodes="true"
     inkscape:snap-midpoints="true">
    <inkscape:grid
       type="xygrid"
       id="grid815"
       units="px"
       spacingx="50"
       spacingy="50" />
  </sodipodi:namedview>
  <metadata
     id="metadata5">
    <rdf:RDF>
      <cc:Work
         rdf:about="">
        <dc:format>image/svg+xml</dc:format>
        <dc:type
           rdf:resource="http://purl.org/dc/dcmitype/StillImage" />
        <dc:title></dc:title>
      </cc:Work>
    </rdf:RDF>
  </metadata>
  <g
     inkscape:label="Layer 1"
     inkscape:groupmode="layer"
     id="layer1"
     transform="translate(0,-32.416667)">
    <path
       style="opacity:1;fill:#5c913b;fill-opacity:1;stroke:none;stroke-width:0.25828999;stroke-linecap:round;stroke-linejoin:miter;stroke-miterlimit:4;stroke-dasharray:none;stroke-opacity:1;paint-order:normal"
       d="m 574.99995,507.41659 c 0,142.5 -74.99995,332.5 -74.99995,332.5 0,0 -74.99998,-190 -74.99998,-332.5 0,-142.5 74.99998,-474.99997 74.99998,-474.99997 0,0 74.99995,332.49997 74.99995,474.99997 z"
       id="ellipse1142"
       inkscape:connector-curvature="0"
       sodipodi:nodetypes="zczcz" />
    <ellipse
       style="opacity:1;fill:#5c913b;fill-opacity:1;stroke:none;stroke-width:0.25828999;stroke-linecap:round;stroke-linejoin:miter;stroke-miterlimit:4;stroke-dasharray:none;stroke-opacity:1;paint-order:normal"
       id="path1164"
       cx="500"
       cy="839.91656"
       rx="49.999977"
       ry="47.499992" />
    <rect
       style="opacity:1;fill:#5c913b;fill-opacity:1;stroke:none;stroke-width:0.30790213;stroke-linecap:round;stroke-linejoin:miter;stroke-miterlimit:4;stroke-dasharray:none;stroke-opacity:1;paint-order:normal"
       id="rect1166"
       width="49.999977"
       height="168.74998"
       x="475"
       y="863.66669" />
    <path
       sodipodi:nodetypes="zczcz"
       inkscape:connector-curvature="0"
       id="path1168"
       d="M 711.82164,683.23319 C 639.50808,765.10419 500,839.91659 500,839.91659 c 0,0 53.32812,-143.5103 125.64167,-225.3813 72.31358,-81.871 284.13525,-238.5544 284.13525,-238.5544 0,0 -125.64171,225.3813 -197.95528,307.2523 z"
       style="opacity:1;fill:#5c913b;fill-opacity:1;stroke:none;stroke-width:0.19371751;stroke-linecap:round;stroke-linejoin:miter;stroke-miterlimit:4;stroke-dasharray:none;stroke-opacity:1;paint-order:normal" />
    <path
       style="opacity:1;fill:#5c913b;fill-opacity:1;stroke:none;stroke-width:0.14528812;stroke-linecap:round;stroke-linejoin:miter;stroke-miterlimit:4;stroke-dasharray:none;stroke-opacity:1;paint-order:normal"
       d="M 701.2097,846.90819 C 618.11661,860.82719 500,839.91659 500,839.91659 c 0,0 103.46505,-58.0279 186.55815,-71.9469 83.09312,-13.919 284.30285,-6.9273 284.30285,-6.9273 0,0 -186.55817,71.9468 -269.6513,85.8658 z"
       id="path1170"
       inkscape:connector-curvature="0"
       sodipodi:nodetypes="zczcz" />
    <path
       sodipodi:nodetypes="zczcz"
       inkscape:connector-curvature="0"
       id="path1172"
       d="M 612.05371,936.08479 C 557.25056,906.02619 500,839.91659 500,839.91659 c 0,0 88.89117,14.0466 143.69432,44.1052 54.80311,30.0586 166.85683,126.22681 166.85683,126.22681 0,0 -143.69433,-44.10521 -198.49744,-74.16381 z"
       style="opacity:1;fill:#5c913b;fill-opacity:1;stroke:none;stroke-width:0.10896609;stroke-linecap:round;stroke-linejoin:miter;stroke-miterlimit:4;stroke-dasharray:none;stroke-opacity:1;paint-order:normal" />
    <path
       style="opacity:1;fill:#5c913b;fill-opacity:1;stroke:none;stroke-width:0.19371751;stroke-linecap:round;stroke-linejoin:miter;stroke-miterlimit:4;stroke-dasharray:none;stroke-opacity:1;paint-order:normal"
       d="M 288.17834,683.23319 C 360.49192,765.10419 500,839.91659 500,839.91659 c 0,0 -53.32812,-143.5103 -125.6417,-225.3813 -72.31357,-81.871 -284.135223,-238.5544 -284.135223,-238.5544 0,0 125.641693,225.3813 197.955263,307.2523 z"
       id="path1176"
       inkscape:connector-curvature="0"
       sodipodi:nodetypes="zczcz" />
    <path
       sodipodi:nodetypes="zczcz"
       inkscape:connector-curvature="0"
       id="path1178"
       d="M 298.79027,846.90819 C 381.88339,860.82719 500,839.91659 500,839.91659 c 0,0 -103.46505,-58.0279 -186.55817,-71.9469 -83.09311,-13.919 -284.30283,-6.9273 -284.30283,-6.9273 0,0 186.55816,71.9468 269.65127,85.8658 z"
       style="opacity:1;fill:#5c913b;fill-opacity:1;stroke:none;stroke-width:0.14528812;stroke-linecap:round;stroke-linejoin:miter;stroke-miterlimit:4;stroke-dasharray:none;stroke-opacity:1;paint-order:normal" />
    <path
       style="opacity:1;fill:#5c913b;fill-opacity:1;stroke:none;stroke-width:0.10896609;stroke-linecap:round;stroke-linejoin:miter;stroke-miterlimit:4;stroke-dasharray:none;stroke-opacity:1;paint-order:normal"
       d="M 387.94629,936.08479 C 442.74944,906.02619 500,839.91659 500,839.91659 c 0,0 -88.89117,14.0466 -143.69432,44.1052 -54.80314,30.0586 -166.85685,126.22681 -166.85685,126.22681 0,0 143.69432,-44.10521 198.49746,-74.16381 z"
       id="path1180"
       inkscape:connector-curvature="0"
       sodipodi:nodetypes="zczcz" />
  </g>
</svg>
