<?xml version="1.0" encoding="UTF-8" standalone="no"?>
<!-- Created with Inkscape (http://www.inkscape.org/) -->

<svg
   xmlns:dc="http://purl.org/dc/elements/1.1/"
   xmlns:cc="http://creativecommons.org/ns#"
   xmlns:rdf="http://www.w3.org/1999/02/22-rdf-syntax-ns#"
   xmlns:svg="http://www.w3.org/2000/svg"
   xmlns="http://www.w3.org/2000/svg"
   xmlns:sodipodi="http://sodipodi.sourceforge.net/DTD/sodipodi-0.dtd"
   xmlns:inkscape="http://www.inkscape.org/namespaces/inkscape"
   width="1000"
   height="1000"
   viewBox="0 0 1000 1000"
   version="1.1"
   id="svg8"
   inkscape:version="0.92.4 5da689c313, 2019-01-14"
   sodipodi:docname="emoji_u1f9cd_200d_1f9cd_200d_1f3f3.svg">
  <defs
     id="defs2" />
  <sodipodi:namedview
     id="base"
     pagecolor="#ffffff"
     bordercolor="#666666"
     borderopacity="1.0"
     inkscape:pageopacity="0.0"
     inkscape:pageshadow="2"
     inkscape:zoom="0.70000002"
     inkscape:cx="600.50603"
     inkscape:cy="455.70511"
     inkscape:document-units="px"
     inkscape:current-layer="layer1"
     showgrid="true"
     inkscape:window-width="1916"
     inkscape:window-height="1056"
     inkscape:window-x="0"
     inkscape:window-y="20"
     inkscape:window-maximized="1"
     units="px"
     gridtolerance="10"
     inkscape:snap-bbox="true"
     inkscape:bbox-paths="true"
     inkscape:bbox-nodes="true"
     inkscape:snap-bbox-edge-midpoints="true"
     inkscape:snap-bbox-midpoints="true"
     inkscape:object-paths="true"
     inkscape:snap-intersection-paths="true"
     inkscape:snap-smooth-nodes="true"
     inkscape:snap-midpoints="true"
     inkscape:snap-object-midpoints="false"
     inkscape:snap-nodes="true">
    <inkscape:grid
       type="xygrid"
       id="grid815"
       units="px"
       spacingx="50"
       spacingy="50" />
  </sodipodi:namedview>
  <metadata
     id="metadata5">
    <rdf:RDF>
      <cc:Work
         rdf:about="">
        <dc:format>image/svg+xml</dc:format>
        <dc:type
           rdf:resource="http://purl.org/dc/dcmitype/StillImage" />
        <dc:title></dc:title>
      </cc:Work>
    </rdf:RDF>
  </metadata>
  <g
     inkscape:label="Layer 1"
     inkscape:groupmode="layer"
     id="layer1"
     transform="translate(0,-32.416667)">
    <g
       transform="matrix(19.366598,0,0,19.366598,-235.45784,337.19453)"
       id="g2809">
      <path
         style="fill:#ffdc5d"
         inkscape:connector-curvature="0"
         d="m 13.449,22.569 c -0.236,0.161 -0.512,-0.02 -0.646,-0.131 -0.379,-0.313 -0.763,-1.144 -0.611,-2.142 0.154,-1.008 0.404,-2.185 0.878,-4.137 0.055,-0.228 -0.274,-2.776 0.007,-4.528 0.076,-0.473 0.958,-1.066 1.495,-1.057 0.536,0.008 0.263,0.944 0.274,1.101 0.12,1.682 -0.143,4.279 -0.193,4.632 -0.277,1.956 -1.239,2.835 -0.981,4.13 0.135,0.679 0.154,1.293 -0.242,1.345 0.004,0.366 0.105,0.728 0.019,0.787 z m 9.102,0 c 0.236,0.161 0.512,-0.02 0.646,-0.131 0.379,-0.313 0.763,-1.144 0.611,-2.142 -0.154,-1.008 -0.404,-2.185 -0.878,-4.137 -0.055,-0.228 0.274,-2.776 -0.007,-4.528 -0.076,-0.473 -0.958,-1.066 -1.495,-1.057 -0.536,0.008 -0.263,0.944 -0.274,1.101 -0.12,1.682 0.143,4.279 0.193,4.632 0.277,1.956 1.239,2.835 0.981,4.13 -0.135,0.679 -0.154,1.293 0.242,1.345 -0.004,0.366 -0.105,0.728 -0.019,0.787 z"
         id="path2779" />
      <path
         style="fill:#4289c1"
         inkscape:connector-curvature="0"
         d="m 21.717,25.17 c 0,-1.012 0.084,-3.628 -0.241,-5.198 -0.325,-1.57 -6.687,-1.605 -7.012,0 -0.325,1.605 -0.075,4.081 -0.075,5.158 0,2.141 1.159,7.747 0.862,9.903 -0.066,0.479 2.492,0.937 2.449,-0.125 -0.078,-1.969 -0.104,-5.193 -0.04,-6.18 0.035,-0.547 0.171,-4.771 0.265,-6.105 0.011,-0.018 0.295,-0.018 0.306,0 0.094,1.333 0.387,5.558 0.423,6.105 0.064,0.987 0.137,4.212 0.059,6.18 -0.042,1.062 2.525,0.604 2.459,0.125 -0.296,-2.156 0.545,-9.514 0.545,-9.863 z"
         id="path2781" />
      <path
         style="fill:#ffac33"
         inkscape:connector-curvature="0"
         d="m 19.744,5.553 c 0.814,0.198 1.151,0.895 1.116,1.616 -0.024,0.488 0.384,0.93 0.384,0.93 0,0 -2.07,0.419 -2.481,-1.409 -0.371,-1.641 0.981,-1.137 0.981,-1.137 z"
         id="path2783" />
      <path
         style="fill:#9268ca"
         inkscape:connector-curvature="0"
         d="M 22.131,9.371 C 21.466,8.577 19.112,8.015 19.112,8.015 h -2.225 c 0,0 -2.355,0.561 -3.019,1.356 -0.807,0.964 -0.982,2.71 -0.982,2.71 l 1.608,0.298 c 0,0 0.461,1.862 0.461,3.3 0,1.147 -0.422,3.328 -0.593,4.163 -0.043,0.211 -0.035,0.227 0,0.279 0.035,0.052 0.233,0.057 0.233,0.057 h 6.814 c 0,0 0.128,0.022 0.198,-0.036 0.07,-0.058 0.051,-0.084 0.002,-0.286 -0.203,-0.833 -0.722,-3.073 -0.722,-4.176 0,-1.371 0.65,-3.301 0.65,-3.301 l 1.58,-0.298 C 23.113,12.08 22.938,10.335 22.131,9.371 Z"
         id="path2785" />
      <path
         style="fill:#ffdc5d"
         inkscape:connector-curvature="0"
         d="M 19.36,4.361 16.672,4.38 v 3.981 c 0,0.963 2.688,0.998 2.688,0 z"
         id="path2787" />
      <path
         style="fill:#f9ca55"
         inkscape:connector-curvature="0"
         d="M 19.36,3.851 16.672,3.87 v 3.901 c 0,0 1.17,1.151 2.688,0.035 z"
         id="path2789" />
      <path
         style="fill:#ffac33"
         inkscape:connector-curvature="0"
         d="m 15.11,3.437 c 0,-1.753 1.335,-2.651 2.983,-2.651 1.647,0 2.983,0.898 2.983,2.651 0,1.753 -1.335,3.174 -2.983,3.174 -1.648,0 -2.983,-1.421 -2.983,-3.174 z"
         id="path2791" />
      <path
         style="fill:#ffdc5d"
         inkscape:connector-curvature="0"
         d="m 20.702,2.283 h -5.21 v 2.738 c 0,1.337 1.447,2.993 2.605,2.993 1.158,0 2.605,-1.516 2.605,-2.912 z"
         id="path2793" />
      <path
         style="fill:#ffac33"
         inkscape:connector-curvature="0"
         d="m 18.199,2.233 c 0,0 -0.967,1.739 -2.707,1.739 V 2.233 Z"
         id="path2795" />
      <path
         style="fill:#ffac33"
         inkscape:connector-curvature="0"
         d="m 17.937,2.233 c 0,0 1.033,1.739 2.772,1.739 V 2.233 Z"
         id="path2797" />
      <circle
         style="fill:#662113"
         cx="17.049"
         cy="4.777"
         r="0.33899999"
         id="circle2799" />
      <circle
         style="fill:#662113"
         cx="19.165001"
         cy="4.777"
         r="0.33899999"
         id="circle2801" />
      <path
         style="fill:#df1f32"
         inkscape:connector-curvature="0"
         d="m 18.112,7.03 c -0.404,0 -0.616,-0.2 -0.639,-0.223 -0.067,-0.067 -0.067,-0.176 0,-0.243 0.067,-0.067 0.174,-0.067 0.242,-0.002 0.009,0.008 0.139,0.124 0.397,0.124 0.261,0 0.391,-0.119 0.397,-0.124 0.069,-0.064 0.177,-0.062 0.242,0.005 0.065,0.068 0.065,0.174 -0.001,0.24 C 18.728,6.83 18.517,7.03 18.112,7.03"
         id="path2803" />
      <path
         style="fill:#c1694f"
         inkscape:connector-curvature="0"
         d="m 18.31,6.138 h -0.395 c -0.109,0 -0.198,-0.089 -0.198,-0.198 0,-0.109 0.089,-0.198 0.198,-0.198 h 0.395 c 0.109,0 0.198,0.089 0.198,0.198 -10e-4,0.109 -0.09,0.198 -0.198,0.198 z"
         id="path2805" />
      <path
         style="fill:#292f33"
         inkscape:connector-curvature="0"
         d="m 14.173,35.898 c -0.558,-0.051 -0.192,-0.684 0.062,-0.897 0.282,-0.238 0.734,-0.441 0.961,-0.852 0.251,-0.455 1.465,-0.395 1.721,-0.023 0.457,0.664 0.66,0.179 0.792,0.488 0.212,0.494 0.05,1.284 0.05,1.284 z m 8.029,0 c 0.558,-0.051 0.192,-0.684 -0.062,-0.897 -0.282,-0.238 -0.734,-0.441 -0.961,-0.852 -0.251,-0.455 -1.465,-0.395 -1.721,-0.023 -0.457,0.664 -0.66,0.179 -0.792,0.488 -0.212,0.494 -0.05,1.284 -0.05,1.284 z"
         id="path2807" />
    </g>
    <g
       transform="matrix(19.313251,0,0,19.313251,21.053131,338.93576)"
       id="g2835">
      <path
         style="fill:#ffdc5d"
         inkscape:connector-curvature="0"
         d="m 22.933,22.368 c 0.236,0.161 0.512,-0.02 0.646,-0.131 0.379,-0.313 0.763,-1.144 0.611,-2.142 -0.154,-1.008 -0.11,-2.185 -0.584,-4.137 -0.055,-0.228 0.274,-2.776 -0.007,-4.528 -0.076,-0.473 -1.251,-1.066 -1.789,-1.057 -0.536,0.008 -0.263,0.944 -0.274,1.101 -0.12,1.682 0.143,4.279 0.193,4.632 0.277,1.956 1.239,2.835 0.981,4.13 -0.135,0.679 -0.154,1.293 0.242,1.345 -0.004,0.366 -0.105,0.728 -0.019,0.787 z m -9.866,-0.192 c -0.236,0.161 -0.512,-0.02 -0.646,-0.131 -0.379,-0.313 -0.763,-1.144 -0.611,-2.142 0.154,-1.008 0.11,-2.185 0.584,-4.137 0.055,-0.228 -0.274,-2.776 0.007,-4.528 0.076,-0.473 1.251,-1.066 1.789,-1.057 0.536,0.008 0.263,0.944 0.274,1.101 0.12,1.682 -0.143,4.279 -0.193,4.632 -0.277,1.956 -1.239,2.835 -0.981,4.13 0.135,0.679 0.154,1.293 -0.242,1.345 0.004,0.366 0.105,0.728 0.019,0.787 z"
         id="path2811" />
      <path
         style="fill:#4289c1"
         inkscape:connector-curvature="0"
         d="m 21.702,26.733 c 0.021,-3.063 0.014,-6.5 0.014,-6.5 h -7.465 c 0,0 0.035,3.747 0.123,6.46 0.07,2.14 0.396,6.193 0.1,8.349 -0.066,0.479 2.886,0.937 2.844,-0.125 -0.078,-1.969 0.264,-6.322 0.328,-7.309 0.035,-0.547 0.25,-2.326 0.344,-3.659 0.011,-0.018 0.295,-0.018 0.306,0 0.094,1.333 0.308,3.112 0.344,3.659 0.064,0.987 0.406,5.34 0.328,7.309 -0.042,1.062 2.91,0.604 2.844,0.125 -0.298,-2.157 -0.113,-7.96 -0.11,-8.309 z"
         id="path2813" />
      <path
         style="fill:#77b255"
         inkscape:connector-curvature="0"
         d="M 22.822,9.472 C 22.044,8.623 19.286,8.023 19.286,8.023 h -2.605 c 0,0 -2.757,0.6 -3.536,1.449 -0.945,1.031 -1.15,2.895 -1.15,2.895 l 1.882,0.318 c 0,0 0.283,0.9 0.283,2.436 0,1.536 -0.177,5.896 -0.177,5.896 h 8.032 c 0,0 -0.209,-4.43 -0.209,-5.895 0,-1.465 0.315,-2.437 0.315,-2.437 l 1.85,-0.318 c 0.001,0 -0.205,-1.865 -1.149,-2.895 z"
         id="path2815" />
      <path
         style="fill:#ffdc5d"
         inkscape:connector-curvature="0"
         d="m 19.344,4.369 -2.688,0.019 v 3.981 c 0,0.963 2.688,0.998 2.688,0 z"
         id="path2817" />
      <path
         style="fill:#f9ca55"
         inkscape:connector-curvature="0"
         d="M 19.344,3.86 16.656,3.879 V 7.78 c 0,0 1.17,1.151 2.688,0.035 z"
         id="path2819" />
      <path
         style="fill:#ffac33"
         inkscape:connector-curvature="0"
         d="M 18.402,0.716 C 17.789,0.638 16.835,0.809 16.37,1.321 15.719,1.088 14.955,1.8 14.955,2.774 c 0,1.116 0.164,2.206 0.857,2.64 0.52,0.723 1.571,1.046 2.53,1.046 1.582,0 2.703,-0.756 2.703,-3.093 0,-1.883 -0.992,-2.442 -2.643,-2.651 z"
         id="path2821" />
      <path
         style="fill:#ffdc5d"
         inkscape:connector-curvature="0"
         d="m 20.687,2.292 h -5.21 V 5.03 c 0,1.337 1.166,2.993 2.605,2.993 1.439,0 2.605,-1.516 2.605,-2.912 z"
         id="path2823" />
      <path
         style="fill:#ffac33"
         inkscape:connector-curvature="0"
         d="m 17.146,1.588 -1.67,0.704 v 2.084 c 0,-0.799 0.545,-0.846 0.871,-1.358 0.012,0.322 0.658,0.628 1.636,0.628 0.744,0 2.703,-1.291 2.703,0.73 V 2.007 Z"
         id="path2825" />
      <circle
         style="fill:#662113"
         cx="17.033001"
         cy="4.7859998"
         r="0.33899999"
         id="circle2827" />
      <circle
         style="fill:#662113"
         cx="19.15"
         cy="4.7859998"
         r="0.33899999"
         id="circle2829" />
      <path
         style="fill:#c1694f"
         inkscape:connector-curvature="0"
         d="M 18.573,6.984 H 17.62 c -0.102,0 -0.186,-0.084 -0.186,-0.186 0,-0.102 0.084,-0.186 0.186,-0.186 h 0.953 c 0.102,0 0.186,0.084 0.186,0.186 0,0.102 -0.084,0.186 -0.186,0.186 z M 18.294,6.146 h -0.395 c -0.109,0 -0.198,-0.089 -0.198,-0.198 0,-0.109 0.089,-0.198 0.198,-0.198 h 0.395 c 0.109,0 0.198,0.089 0.198,0.198 0,0.109 -0.089,0.198 -0.198,0.198 z"
         id="path2831" />
      <path
         style="fill:#292f33"
         inkscape:connector-curvature="0"
         d="m 13.789,35.907 c -0.558,-0.051 -0.192,-0.684 0.062,-0.897 0.282,-0.238 0.734,-0.441 0.961,-0.852 0.251,-0.455 1.465,-0.395 1.721,-0.023 0.457,0.664 0.66,0.179 0.792,0.488 0.212,0.494 0.05,1.284 0.05,1.284 z m 8.666,0 c 0.558,-0.051 0.192,-0.684 -0.062,-0.897 -0.282,-0.238 -0.734,-0.441 -0.961,-0.852 -0.251,-0.455 -1.465,-0.395 -1.721,-0.023 -0.457,0.664 -0.66,0.179 -0.792,0.488 -0.212,0.494 -0.05,1.284 -0.05,1.284 z"
         id="path2833" />
    </g>
    <g
       transform="matrix(19.313251,0,0,19.313251,532.15459,338.93576)"
       id="g2893">
      <path
         style="fill:#ffdc5d"
         inkscape:connector-curvature="0"
         d="m 22.933,22.368 c 0.236,0.161 0.512,-0.02 0.646,-0.131 0.379,-0.313 0.763,-1.144 0.611,-2.142 -0.154,-1.008 -0.11,-2.185 -0.584,-4.137 -0.055,-0.228 0.274,-2.776 -0.007,-4.528 -0.076,-0.473 -1.251,-1.066 -1.789,-1.057 -0.536,0.008 -0.263,0.944 -0.274,1.101 -0.12,1.682 0.143,4.279 0.193,4.632 0.277,1.956 1.239,2.835 0.981,4.13 -0.135,0.679 -0.154,1.293 0.242,1.345 -0.004,0.366 -0.105,0.728 -0.019,0.787 z m -9.866,-0.192 c -0.236,0.161 -0.512,-0.02 -0.646,-0.131 -0.379,-0.313 -0.763,-1.144 -0.611,-2.142 0.154,-1.008 0.11,-2.185 0.584,-4.137 0.055,-0.228 -0.274,-2.776 0.007,-4.528 0.076,-0.473 1.251,-1.066 1.789,-1.057 0.536,0.008 0.263,0.944 0.274,1.101 0.12,1.682 -0.143,4.279 -0.193,4.632 -0.277,1.956 -1.239,2.835 -0.981,4.13 0.135,0.679 0.154,1.293 -0.242,1.345 0.004,0.366 0.105,0.728 0.019,0.787 z"
         id="path2869" />
      <path
         style="fill:#4289c1"
         inkscape:connector-curvature="0"
         d="m 21.702,26.733 c 0.021,-3.063 0.014,-6.5 0.014,-6.5 h -7.465 c 0,0 0.035,3.747 0.123,6.46 0.07,2.14 0.396,6.193 0.1,8.349 -0.066,0.479 2.886,0.937 2.844,-0.125 -0.078,-1.969 0.264,-6.322 0.328,-7.309 0.035,-0.547 0.25,-2.326 0.344,-3.659 0.011,-0.018 0.295,-0.018 0.306,0 0.094,1.333 0.308,3.112 0.344,3.659 0.064,0.987 0.406,5.34 0.328,7.309 -0.042,1.062 2.91,0.604 2.844,0.125 -0.298,-2.157 -0.113,-7.96 -0.11,-8.309 z"
         id="path2871" />
      <path
         style="fill:#77b255"
         inkscape:connector-curvature="0"
         d="M 22.822,9.472 C 22.044,8.623 19.286,8.023 19.286,8.023 h -2.605 c 0,0 -2.757,0.6 -3.536,1.449 -0.945,1.031 -1.15,2.895 -1.15,2.895 l 1.882,0.318 c 0,0 0.283,0.9 0.283,2.436 0,1.536 -0.177,5.896 -0.177,5.896 h 8.032 c 0,0 -0.209,-4.43 -0.209,-5.895 0,-1.465 0.315,-2.437 0.315,-2.437 l 1.85,-0.318 c 0.001,0 -0.205,-1.865 -1.149,-2.895 z"
         id="path2873" />
      <path
         style="fill:#ffdc5d"
         inkscape:connector-curvature="0"
         d="m 19.344,4.369 -2.688,0.019 v 3.981 c 0,0.963 2.688,0.998 2.688,0 z"
         id="path2875" />
      <path
         style="fill:#f9ca55"
         inkscape:connector-curvature="0"
         d="M 19.344,3.86 16.656,3.879 V 7.78 c 0,0 1.17,1.151 2.688,0.035 z"
         id="path2877" />
      <path
         style="fill:#ffac33"
         inkscape:connector-curvature="0"
         d="M 18.402,0.716 C 17.789,0.638 16.835,0.809 16.37,1.321 15.719,1.088 14.955,1.8 14.955,2.774 c 0,1.116 0.164,2.206 0.857,2.64 0.52,0.723 1.571,1.046 2.53,1.046 1.582,0 2.703,-0.756 2.703,-3.093 0,-1.883 -0.992,-2.442 -2.643,-2.651 z"
         id="path2879" />
      <path
         style="fill:#ffdc5d"
         inkscape:connector-curvature="0"
         d="m 20.687,2.292 h -5.21 V 5.03 c 0,1.337 1.166,2.993 2.605,2.993 1.439,0 2.605,-1.516 2.605,-2.912 z"
         id="path2881" />
      <path
         style="fill:#ffac33"
         inkscape:connector-curvature="0"
         d="m 17.146,1.588 -1.67,0.704 v 2.084 c 0,-0.799 0.545,-0.846 0.871,-1.358 0.012,0.322 0.658,0.628 1.636,0.628 0.744,0 2.703,-1.291 2.703,0.73 V 2.007 Z"
         id="path2883" />
      <circle
         style="fill:#662113"
         cx="17.033001"
         cy="4.7859998"
         r="0.33899999"
         id="circle2885" />
      <circle
         style="fill:#662113"
         cx="19.15"
         cy="4.7859998"
         r="0.33899999"
         id="circle2887" />
      <path
         style="fill:#c1694f"
         inkscape:connector-curvature="0"
         d="M 18.573,6.984 H 17.62 c -0.102,0 -0.186,-0.084 -0.186,-0.186 0,-0.102 0.084,-0.186 0.186,-0.186 h 0.953 c 0.102,0 0.186,0.084 0.186,0.186 0,0.102 -0.084,0.186 -0.186,0.186 z M 18.294,6.146 h -0.395 c -0.109,0 -0.198,-0.089 -0.198,-0.198 0,-0.109 0.089,-0.198 0.198,-0.198 h 0.395 c 0.109,0 0.198,0.089 0.198,0.198 0,0.109 -0.089,0.198 -0.198,0.198 z"
         id="path2889" />
      <path
         style="fill:#292f33"
         inkscape:connector-curvature="0"
         d="m 13.789,35.907 c -0.558,-0.051 -0.192,-0.684 0.062,-0.897 0.282,-0.238 0.734,-0.441 0.961,-0.852 0.251,-0.455 1.465,-0.395 1.721,-0.023 0.457,0.664 0.66,0.179 0.792,0.488 0.212,0.494 0.05,1.284 0.05,1.284 z m 8.666,0 c 0.558,-0.051 0.192,-0.684 -0.062,-0.897 -0.282,-0.238 -0.734,-0.441 -0.961,-0.852 -0.251,-0.455 -1.465,-0.395 -1.721,-0.023 -0.457,0.664 -0.66,0.179 -0.792,0.488 -0.212,0.494 -0.05,1.284 -0.05,1.284 z"
         id="path2891" />
    </g>
    <g
       id="g2925"
       transform="matrix(19.366598,0,0,19.366598,275.64359,337.19453)">
      <path
         id="path2895"
         d="m 13.449,22.569 c -0.236,0.161 -0.512,-0.02 -0.646,-0.131 -0.379,-0.313 -0.763,-1.144 -0.611,-2.142 0.154,-1.008 0.404,-2.185 0.878,-4.137 0.055,-0.228 -0.274,-2.776 0.007,-4.528 0.076,-0.473 0.958,-1.066 1.495,-1.057 0.536,0.008 0.263,0.944 0.274,1.101 0.12,1.682 -0.143,4.279 -0.193,4.632 -0.277,1.956 -1.239,2.835 -0.981,4.13 0.135,0.679 0.154,1.293 -0.242,1.345 0.004,0.366 0.105,0.728 0.019,0.787 z m 9.102,0 c 0.236,0.161 0.512,-0.02 0.646,-0.131 0.379,-0.313 0.763,-1.144 0.611,-2.142 -0.154,-1.008 -0.404,-2.185 -0.878,-4.137 -0.055,-0.228 0.274,-2.776 -0.007,-4.528 -0.076,-0.473 -0.958,-1.066 -1.495,-1.057 -0.536,0.008 -0.263,0.944 -0.274,1.101 -0.12,1.682 0.143,4.279 0.193,4.632 0.277,1.956 1.239,2.835 0.981,4.13 -0.135,0.679 -0.154,1.293 0.242,1.345 -0.004,0.366 -0.105,0.728 -0.019,0.787 z"
         inkscape:connector-curvature="0"
         style="fill:#ffdc5d" />
      <path
         id="path2897"
         d="m 21.717,25.17 c 0,-1.012 0.084,-3.628 -0.241,-5.198 -0.325,-1.57 -6.687,-1.605 -7.012,0 -0.325,1.605 -0.075,4.081 -0.075,5.158 0,2.141 1.159,7.747 0.862,9.903 -0.066,0.479 2.492,0.937 2.449,-0.125 -0.078,-1.969 -0.104,-5.193 -0.04,-6.18 0.035,-0.547 0.171,-4.771 0.265,-6.105 0.011,-0.018 0.295,-0.018 0.306,0 0.094,1.333 0.387,5.558 0.423,6.105 0.064,0.987 0.137,4.212 0.059,6.18 -0.042,1.062 2.525,0.604 2.459,0.125 -0.296,-2.156 0.545,-9.514 0.545,-9.863 z"
         inkscape:connector-curvature="0"
         style="fill:#4289c1" />
      <path
         id="path2899"
         d="m 19.744,5.553 c 0.814,0.198 1.151,0.895 1.116,1.616 -0.024,0.488 0.384,0.93 0.384,0.93 0,0 -2.07,0.419 -2.481,-1.409 -0.371,-1.641 0.981,-1.137 0.981,-1.137 z"
         inkscape:connector-curvature="0"
         style="fill:#ffac33" />
      <path
         id="path2901"
         d="M 22.131,9.371 C 21.466,8.577 19.112,8.015 19.112,8.015 h -2.225 c 0,0 -2.355,0.561 -3.019,1.356 -0.807,0.964 -0.982,2.71 -0.982,2.71 l 1.608,0.298 c 0,0 0.461,1.862 0.461,3.3 0,1.147 -0.422,3.328 -0.593,4.163 -0.043,0.211 -0.035,0.227 0,0.279 0.035,0.052 0.233,0.057 0.233,0.057 h 6.814 c 0,0 0.128,0.022 0.198,-0.036 0.07,-0.058 0.051,-0.084 0.002,-0.286 -0.203,-0.833 -0.722,-3.073 -0.722,-4.176 0,-1.371 0.65,-3.301 0.65,-3.301 l 1.58,-0.298 C 23.113,12.08 22.938,10.335 22.131,9.371 Z"
         inkscape:connector-curvature="0"
         style="fill:#9268ca" />
      <path
         id="path2903"
         d="M 19.36,4.361 16.672,4.38 v 3.981 c 0,0.963 2.688,0.998 2.688,0 z"
         inkscape:connector-curvature="0"
         style="fill:#ffdc5d" />
      <path
         id="path2905"
         d="M 19.36,3.851 16.672,3.87 v 3.901 c 0,0 1.17,1.151 2.688,0.035 z"
         inkscape:connector-curvature="0"
         style="fill:#f9ca55" />
      <path
         id="path2907"
         d="m 15.11,3.437 c 0,-1.753 1.335,-2.651 2.983,-2.651 1.647,0 2.983,0.898 2.983,2.651 0,1.753 -1.335,3.174 -2.983,3.174 -1.648,0 -2.983,-1.421 -2.983,-3.174 z"
         inkscape:connector-curvature="0"
         style="fill:#ffac33" />
      <path
         id="path2909"
         d="m 20.702,2.283 h -5.21 v 2.738 c 0,1.337 1.447,2.993 2.605,2.993 1.158,0 2.605,-1.516 2.605,-2.912 z"
         inkscape:connector-curvature="0"
         style="fill:#ffdc5d" />
      <path
         id="path2911"
         d="m 18.199,2.233 c 0,0 -0.967,1.739 -2.707,1.739 V 2.233 Z"
         inkscape:connector-curvature="0"
         style="fill:#ffac33" />
      <path
         id="path2913"
         d="m 17.937,2.233 c 0,0 1.033,1.739 2.772,1.739 V 2.233 Z"
         inkscape:connector-curvature="0"
         style="fill:#ffac33" />
      <circle
         id="circle2915"
         r="0.33899999"
         cy="4.777"
         cx="17.049"
         style="fill:#662113" />
      <circle
         id="circle2917"
         r="0.33899999"
         cy="4.777"
         cx="19.165001"
         style="fill:#662113" />
      <path
         id="path2919"
         d="m 18.112,7.03 c -0.404,0 -0.616,-0.2 -0.639,-0.223 -0.067,-0.067 -0.067,-0.176 0,-0.243 0.067,-0.067 0.174,-0.067 0.242,-0.002 0.009,0.008 0.139,0.124 0.397,0.124 0.261,0 0.391,-0.119 0.397,-0.124 0.069,-0.064 0.177,-0.062 0.242,0.005 0.065,0.068 0.065,0.174 -0.001,0.24 C 18.728,6.83 18.517,7.03 18.112,7.03"
         inkscape:connector-curvature="0"
         style="fill:#df1f32" />
      <path
         id="path2921"
         d="m 18.31,6.138 h -0.395 c -0.109,0 -0.198,-0.089 -0.198,-0.198 0,-0.109 0.089,-0.198 0.198,-0.198 h 0.395 c 0.109,0 0.198,0.089 0.198,0.198 -10e-4,0.109 -0.09,0.198 -0.198,0.198 z"
         inkscape:connector-curvature="0"
         style="fill:#c1694f" />
      <path
         id="path2923"
         d="m 14.173,35.898 c -0.558,-0.051 -0.192,-0.684 0.062,-0.897 0.282,-0.238 0.734,-0.441 0.961,-0.852 0.251,-0.455 1.465,-0.395 1.721,-0.023 0.457,0.664 0.66,0.179 0.792,0.488 0.212,0.494 0.05,1.284 0.05,1.284 z m 8.029,0 c 0.558,-0.051 0.192,-0.684 -0.062,-0.897 -0.282,-0.238 -0.734,-0.441 -0.961,-0.852 -0.251,-0.455 -1.465,-0.395 -1.721,-0.023 -0.457,0.664 -0.66,0.179 -0.792,0.488 -0.212,0.494 -0.05,1.284 -0.05,1.284 z"
         inkscape:connector-curvature="0"
         style="fill:#292f33" />
    </g>
    <g
       id="g3354"
       transform="translate(41.483565,8.966117)">
      <path
         id="path3296"
         d="m 208.51643,423.45055 c -9.46285,0 -17.14285,-7.68 -17.14285,-17.14286 V 140.59341 c 0,-9.46286 7.68,-17.14286 17.14285,-17.14286 9.46286,0 17.14286,7.68 17.14286,17.14286 v 265.71428 c 0,9.46286 -7.68,17.14286 -17.14286,17.14286 z"
         inkscape:connector-curvature="0"
         style="fill:#8899a6;stroke-width:8.5714283" />
      <path
         id="path3298"
         d="m 208.51643,123.45055 c -9.47143,0 -17.14285,7.67143 -17.14285,17.14286 v 265.71428 c 0,2.36572 1.92,4.28572 4.28571,4.28572 2.36571,0 4.28571,-1.92 4.28571,-4.28572 V 152.71341 c 0,-6.69429 5.42572,-12.12 12.12,-12.12 h 13.59429 c 0,-9.47143 -7.67143,-17.14286 -17.14286,-17.14286 z"
         inkscape:connector-curvature="0"
         style="fill:#aab8c2;stroke-width:8.5714283" />
      <path
         id="path3302"
         d="m 208.51643,123.45055 c -9.47143,0 -17.14285,7.67143 -17.14285,17.14286 v 265.71428 c 0,2.36572 1.92,4.28572 4.28571,4.28572 2.36571,0 4.28571,-1.92 4.28571,-4.28572 V 152.71341 c 0,-6.69429 5.42572,-12.12 12.12,-12.12 h 13.59429 c 0,-9.47143 -7.67143,-17.14286 -17.14286,-17.14286 z"
         inkscape:connector-curvature="0"
         style="fill:#aab8c2;stroke-width:8.5714283" />
    </g>
    <g
       transform="translate(541.48356,8.966117)"
       id="g3362">
      <path
         style="fill:#8899a6;stroke-width:8.5714283"
         inkscape:connector-curvature="0"
         d="m 208.51643,423.45055 c -9.46285,0 -17.14285,-7.68 -17.14285,-17.14286 V 140.59341 c 0,-9.46286 7.68,-17.14286 17.14285,-17.14286 9.46286,0 17.14286,7.68 17.14286,17.14286 v 265.71428 c 0,9.46286 -7.68,17.14286 -17.14286,17.14286 z"
         id="path3356" />
      <path
         style="fill:#aab8c2;stroke-width:8.5714283"
         inkscape:connector-curvature="0"
         d="m 208.51643,123.45055 c -9.47143,0 -17.14285,7.67143 -17.14285,17.14286 v 265.71428 c 0,2.36572 1.92,4.28572 4.28571,4.28572 2.36571,0 4.28571,-1.92 4.28571,-4.28572 V 152.71341 c 0,-6.69429 5.42572,-12.12 12.12,-12.12 h 13.59429 c 0,-9.47143 -7.67143,-17.14286 -17.14286,-17.14286 z"
         id="path3358" />
      <path
         style="fill:#aab8c2;stroke-width:8.5714283"
         inkscape:connector-curvature="0"
         d="m 208.51643,123.45055 c -9.47143,0 -17.14285,7.67143 -17.14285,17.14286 v 265.71428 c 0,2.36572 1.92,4.28572 4.28571,4.28572 2.36571,0 4.28571,-1.92 4.28571,-4.28572 V 152.71341 c 0,-6.69429 5.42572,-12.12 12.12,-12.12 h 13.59429 c 0,-9.47143 -7.67143,-17.14286 -17.14286,-17.14286 z"
         id="path3360" />
    </g>
    <path
       style="fill:#e1e8ed;stroke-width:12.49051952"
       inkscape:connector-curvature="0"
       d="m 739.3521,150.32644 c -31.88907,-6.84857 -65.79854,-10.17427 -103.71231,-10.17427 -45.83145,0 -91.37166,4.8857 -135.38297,9.61713 -44.01128,4.72286 -85.58358,9.18857 -127.31968,9.18857 -32.58074,0 -61.55756,-2.82 -88.60504,-8.62285 -5.62427,-1.21715 -12.19501,-0.98572 -17.40065,0.58285 -5.22384,1.57715 -8.37271,4.29429 -8.37271,7.20857 v 162.85715 c 0,3.36 4.16816,6.40285 10.6479,7.8 31.88907,6.84857 65.81671,10.17428 103.71231,10.17428 45.83143,0 91.37166,-4.88571 135.38295,-9.61714 44.0113,-4.72286 85.58358,-9.18 127.31972,-9.18 32.58072,0 61.57574,2.82 88.605,8.63143 5.66069,1.2 12.19505,0.98571 17.40067,-0.59143 C 746.85113,326.61502 750,323.89787 750,320.98359 V 158.12644 c 0,-3.36 -4.16813,-6.41142 -10.6479,-7.8 z"
       id="path3304" />
  </g>
</svg>
