<?xml version="1.0" encoding="UTF-8" standalone="no"?>
<!-- Created with Inkscape (http://www.inkscape.org/) -->

<svg
   xmlns:dc="http://purl.org/dc/elements/1.1/"
   xmlns:cc="http://creativecommons.org/ns#"
   xmlns:rdf="http://www.w3.org/1999/02/22-rdf-syntax-ns#"
   xmlns:svg="http://www.w3.org/2000/svg"
   xmlns="http://www.w3.org/2000/svg"
   xmlns:sodipodi="http://sodipodi.sourceforge.net/DTD/sodipodi-0.dtd"
   xmlns:inkscape="http://www.inkscape.org/namespaces/inkscape"
   width="1000"
   height="1000"
   viewBox="0 0 1000 1000"
   version="1.1"
   id="svg8"
   inkscape:version="0.92.4 5da689c313, 2019-01-14"
   sodipodi:docname="emoji_u1f449_200d_1f44c.svg">
  <defs
     id="defs2" />
  <sodipodi:namedview
     id="base"
     pagecolor="#ffffff"
     bordercolor="#666666"
     borderopacity="1.0"
     inkscape:pageopacity="0.0"
     inkscape:pageshadow="2"
     inkscape:zoom="0.35000001"
     inkscape:cx="-174.82847"
     inkscape:cy="144.00278"
     inkscape:document-units="px"
     inkscape:current-layer="layer1"
     showgrid="true"
     inkscape:window-width="1916"
     inkscape:window-height="1056"
     inkscape:window-x="0"
     inkscape:window-y="20"
     inkscape:window-maximized="1"
     units="px"
     gridtolerance="10"
     inkscape:snap-bbox="true"
     inkscape:bbox-paths="true"
     inkscape:bbox-nodes="true"
     inkscape:snap-bbox-edge-midpoints="true"
     inkscape:snap-bbox-midpoints="true"
     inkscape:object-paths="true"
     inkscape:snap-intersection-paths="true"
     inkscape:snap-smooth-nodes="true"
     inkscape:snap-midpoints="true"
     inkscape:snap-nodes="false">
    <inkscape:grid
       type="xygrid"
       id="grid815"
       units="px"
       spacingx="50"
       spacingy="50" />
  </sodipodi:namedview>
  <metadata
     id="metadata5">
    <rdf:RDF>
      <cc:Work
         rdf:about="">
        <dc:format>image/svg+xml</dc:format>
        <dc:type
           rdf:resource="http://purl.org/dc/dcmitype/StillImage" />
        <dc:title></dc:title>
      </cc:Work>
    </rdf:RDF>
  </metadata>
  <g
     inkscape:label="Layer 1"
     inkscape:groupmode="layer"
     id="layer1"
     transform="translate(0,-32.416667)">
    <path
       style="opacity:1;vector-effect:none;fill:#f9ca55;fill-opacity:1;stroke-width:31.31862831;stroke-linecap:butt;stroke-linejoin:miter;stroke-miterlimit:4;stroke-dasharray:none;stroke-dashoffset:0;stroke-opacity:1"
       d="m 466.36763,701.07208 c -11.11534,0.0769 -22.06788,0.82366 -30.99443,2.83629 -32.31383,17.99198 -11.84342,168.6844 9.41174,202.87422 20.36698,21.97654 38.93337,25.29205 64.06103,20.99253 92.89907,-2.5434 196.67302,-7.92338 264.76838,1.62735 41.30003,-3.82507 71.30484,-9.27291 0,-28.52848 -71.30489,-19.25557 -90.90354,-59.47589 -112.74705,-40.81318 -21.84351,18.66271 -52.27945,-2.7665 -82.93294,-9.77947 -31.49763,-6.9675 -55.57417,-5.92802 -55.57417,-5.92802 l -0.1189,-140.44495 c -6.17893,0.0631 -31.4199,-3.00558 -55.87366,-2.83629 z"
       id="path3469"
       inkscape:connector-curvature="0"
       sodipodi:nodetypes="ccccczzcccc" />
    <path
       style="fill:#f9ca55;stroke-width:31.31862831"
       inkscape:connector-curvature="0"
       d="m 163.23904,708.58167 c 4.51861,30.59777 17.63459,119.47286 18.17775,128.32242 0.46699,7.44927 -1.22741,17.07902 -13.06063,17.5513 -11.81906,0.5002 -47.22395,10.71249 -64.71658,17.34441 -17.478505,6.65985 -28.965595,-16.06376 -54.7651,-12.88285 -25.799535,3.18088 -42.7534334,30.38561 -32.612895,52.66695 10.168487,22.26721 21.150061,28.78782 51.74256,19.88528 30.59248,-8.90255 52.045895,-9.85133 62.998515,-9.91354 10.92466,-0.0481 101.47401,-16.2036 111.49368,-24.5674 10.0197,-8.3638 8.83583,-99.14711 8.83583,-99.14711 l 0.51729,-118.98607 c -3.19126,-83.62122 -98.34388,-46.48167 -88.61042,29.72661 z"
       id="path3481"
       sodipodi:nodetypes="ccccscsccccc" />
    <path
       style="fill:#f9ca55;stroke-width:31.31862831"
       inkscape:connector-curvature="0"
       d="m 494.06987,297.64459 c -103.84875,-41.36481 -87.87425,94.05265 -109.57068,155.73816 -2.94395,6.85878 -8.80054,14.68843 -19.57415,9.77141 -10.77361,-4.8857 -46.97795,-11.74449 -65.58121,-13.71756 -18.60326,-1.94175 -18.60326,-27.40379 -43.06311,-36.20433 -24.45984,-8.80054 -51.86365,7.82965 -52.86584,32.2895 -0.97088,24.45986 5.8879,35.23346 37.20652,41.09005 31.31863,5.85657 50.89278,14.68843 60.69551,19.57414 9.77141,4.8857 97.87071,31.31862 110.58607,28.37467 52.64723,-51.66787 138.15967,-207.18379 82.16689,-236.91604 z"
       id="path2832"
       sodipodi:nodetypes="ccccscsccc" />
    <path
       style="opacity:1;vector-effect:none;fill:#ffdc5d;fill-opacity:1;stroke-width:31.31862831;stroke-linecap:butt;stroke-linejoin:miter;stroke-miterlimit:4;stroke-dasharray:none;stroke-dashoffset:0;stroke-opacity:1"
       d="m 439.89958,293.93215 c -30.62962,60.13176 2.63814,128.76646 17.38921,150.345 14.75108,21.54721 38.99594,143.28369 48.07834,178.48583 C 579.75278,659.82179 650,655.10765 713.92025,583.35833 688.0417,532.41667 663.52169,378.22667 655.87995,353.48495 642.63696,310.80996 573.83483,283.12405 550,264.53931 c -23.83483,-18.58475 -29.66139,-82.12264 -50,-82.12264 -20.33861,0 -48.71811,88.57159 -60.10042,111.51548 z"
       id="path2820"
       inkscape:connector-curvature="0"
       sodipodi:nodetypes="ccccczzc" />
    <path
       id="path4052"
       d="m 500,232.41667 c 10.7977,51.39174 -23.501,74.1934 -42.92893,78.31033 -19.42794,4.11693 -44.42106,-37.39545 -72.22336,-78.31033 -27.80231,-40.91489 104.35459,-51.39174 115.15229,0 z"
       inkscape:connector-curvature="0"
       style="opacity:1;vector-effect:none;fill:#f9ca55;fill-opacity:1;stroke-width:31.31862831;stroke-linecap:butt;stroke-linejoin:miter;stroke-miterlimit:4;stroke-dasharray:none;stroke-dashoffset:0;stroke-opacity:1"
       sodipodi:nodetypes="zzzz" />
    <path
       style="fill:#ffdc5d;stroke-width:31.31862831"
       inkscape:connector-curvature="0"
       d="m 527.31771,184.48949 c 4.85644,49.80925 -34.89726,95.01756 -73.78643,107.29224 -43.3875,13.70812 -79.47598,-40.71976 -95.61076,-89.51565 -15.70241,-47.51091 33.34324,-95.55262 78.60606,-99.95788 45.29345,-4.411747 85.93467,32.37205 90.79113,82.18129 z"
       id="path2842" />
    <path
       style="fill:#ffac33;stroke-width:31.31862831"
       inkscape:connector-curvature="0"
       d="m 352.33155,138.87801 c 38.4278,-48.897068 88.21945,-58.519893 128.32262,-41.951029 39.81911,16.436969 55.63086,64.917139 55.71587,98.705999 0.085,33.78886 -5.85125,29.79649 -5.85125,29.79649 0,0 -11.35113,-1.59638 -17.06834,-14.37501 -5.37756,-12.08227 1.41718,-24.88712 -19.23483,-38.95091 -13.31594,-9.05549 -15.69136,12.06496 -10.78927,29.30621 4.9021,17.24125 -7.93603,9.68522 -7.93603,9.68522 l -27.06326,-33.29026 c 0,0 -15.26539,21.93108 -54.29597,17.52439 -27.68308,-3.1297 -38.22266,-0.89629 -31.22181,22.62318 -27.46404,-30.196 -24.19429,-61.75047 -10.57773,-79.07428 z"
       id="path2844" />
    <path
       style="opacity:1;vector-effect:none;fill:#ffdc5d;fill-opacity:1;stroke-width:31.31862831;stroke-linecap:butt;stroke-linejoin:miter;stroke-miterlimit:4;stroke-dasharray:none;stroke-dashoffset:0;stroke-opacity:1"
       d="m 541.25633,590.57116 c -40.06782,0.76613 -54.52802,8.34132 -119.5493,12.73249 -99.08004,6.69131 -193.046,-29.71274 -268.20145,18.60546 -43.95682,28.51124 -55.140035,8.84212 -39.82261,73.60709 15.31743,64.76496 22.25561,51.60317 77.78005,46.31438 39.29727,-3.74314 39.38241,51.58306 118.32494,38.71275 78.94254,-12.87032 171.46788,-79.22463 186.85842,22.40187 9.94899,68.42952 10.19025,178.28624 97.2157,164.10201 87.02544,-14.18424 100.06866,-21.32022 179.75227,-13.88325 79.68364,7.43698 165.49654,3.24481 77.58485,-23.76149 -87.91179,-27.0063 -109.05164,-86.17104 -131.93033,-50.84283 -22.8787,35.32821 -60.59828,3.4477 -115.36746,5.75722 0,0 -7.01606,-0.6043 17.32385,-124.03497 13.80791,-79.87419 35.61403,-171.92078 -79.96893,-169.71073 z"
       id="path3471"
       inkscape:connector-curvature="0"
       sodipodi:nodetypes="sscsssczzzzccs" />
    <path
       style="opacity:1;vector-effect:none;fill:#f9ca55;fill-opacity:1;stroke-width:31.31862831;stroke-linecap:butt;stroke-linejoin:miter;stroke-miterlimit:4;stroke-dasharray:none;stroke-dashoffset:0;stroke-opacity:1"
       inkscape:connector-curvature="0"
       d="m 651.30736,519.00387 c -0.97087,15.65932 -124.30363,70.46691 -136.04812,75.35262 -11.74447,4.8857 -34.26257,34.26258 -51.86364,35.23346 -17.63239,0.97087 -67.52295,-7.82966 -50.89276,-35.23346 16.63019,-27.4038 45.03618,-44.03399 66.55208,-42.09224 21.54721,1.94176 79.26744,-53.83671 92.01412,-58.72243 12.71537,-4.8857 17.60107,-11.74447 12.71537,-26.43291 -19.63414,-112.56348 -49.44693,-202.5154 28.96791,-170.9146 78.41482,31.6008 43.81872,150.55211 38.55504,222.80956 z"
       id="path2834"
       sodipodi:nodetypes="cscsccczc" />
    <path
       sodipodi:nodetypes="cszzzzccccc"
       inkscape:connector-curvature="0"
       id="path3768"
       d="m 521.65278,591.58945 c 108.74367,0.24505 115.59992,76.55099 95.64391,168.69244 -39.59096,182.80052 -13.15499,228.46838 73.87045,214.28415 87.02545,-14.18424 114.49331,-21.32022 194.17695,-13.88325 79.68361,7.43698 165.49651,3.24481 77.58485,-23.76149 -87.9118,-27.0063 -109.05165,-86.17104 -131.93039,-50.84283 -22.87863,35.32821 -60.59829,3.4477 -115.36747,5.75722 0,0 -18.9747,-8.12216 5.36521,-131.55283 10.39218,-52.86244 11.89225,-145.98539 -7.07604,-176.92453 C 650,609.34817 586.88894,596.34981 533.57905,586.25831 Z"
       style="opacity:1;vector-effect:none;fill:#f9ca55;fill-opacity:1;stroke-width:31.31862831;stroke-linecap:butt;stroke-linejoin:miter;stroke-miterlimit:4;stroke-dasharray:none;stroke-dashoffset:0;stroke-opacity:1" />
    <path
       style="fill:#ffdc5d;stroke-width:31.31862831"
       inkscape:connector-curvature="0"
       d="m 322.62615,760.28189 c -3.01926,26.28411 -5.02588,176.07887 -8.43319,191.39381 -3.40731,15.31491 -147.48328,50.9703 -159.84722,53.9597 -12.36384,2.9897 -39.19825,28.4841 -56.734635,26.6911 -17.56735,-1.798 -65.468321,-18.2908 -44.757996,-42.75739 20.710316,-24.4666 51.367131,-36.4509 72.314811,-31.16896 20.9786,5.28684 86.71009,-40.78088 100.06389,-43.61352 13.32288,-2.83753 19.22088,-8.84805 16.69186,-24.11973 -2.52904,-15.27169 -21.85765,-139.70779 -20.41145,-161.26267 1.38433,-21.56467 106.35848,-14.87208 101.11393,30.87766 z"
       id="path3483"
       sodipodi:nodetypes="csccsccscc" />
    <path
       id="path3565"
       d="m 159.3793,610.54212 c 50.49981,36.99272 54.99812,93.51607 46.50494,121.62792 -8.49318,28.11185 -108.752175,38.15465 -108.752175,-28.26167 0,-56.37353 11.747425,-130.35897 62.247235,-93.36625 z"
       inkscape:connector-curvature="0"
       style="opacity:1;vector-effect:none;fill:#f9ca55;fill-opacity:1;stroke-width:31.31862831;stroke-linecap:butt;stroke-linejoin:miter;stroke-miterlimit:4;stroke-dasharray:none;stroke-dashoffset:0;stroke-opacity:1"
       sodipodi:nodetypes="zzsz" />
    <path
       style="fill:#ffdc5d;stroke-width:31.31862831"
       inkscape:connector-curvature="0"
       d="m 143.7643,601.74287 c 43.77506,24.25471 58.45599,82.63807 46.50495,121.62792 -13.32222,43.50755 -78.61726,42.35398 -127.955367,27.96232 C 14.279266,737.31429 2.5357356,669.67133 24.583061,629.8964 46.642416,590.09257 99.989255,577.48818 143.7643,601.74287 Z"
       id="path3491" />
    <path
       style="fill:#ffac33;stroke-width:31.31862831"
       inkscape:connector-curvature="0"
       d="M 6.9405146,719.97912 C -11.530405,660.59524 8.7889916,614.13095 45.182679,590.50278 c 36.123926,-23.46906 85.018801,-8.99048 112.893731,10.10619 55.79417,71.66188 -16.74324,83.12592 -44.39344,94.90723 0,0 -10.77247,-7.58298 -36.541625,22.06083 -18.280633,21.023 -22.419871,30.96973 0.92073,38.54559 -40.446752,5.48928 -64.578566,-15.10273 -71.1215604,-36.1435 z"
       id="path3493"
       sodipodi:nodetypes="ccccccc" />
    <path
       style="fill:#dd2e44;stroke-width:27.77778053"
       d="m 950,167.50002 c 0,-47.00001 -38.11125,-85.083353 -85.08345,-85.083353 -28.5278,0 -53.6944,14.08334 -69.1389,35.611123 -15.4444,-21.527783 -40.6111,-35.611123 -69.1389,-35.611123 -47,0 -85.0833,38.083343 -85.0833,85.083353 0,6.66668 0.8333,13.11112 2.2778,19.33335 11.8333,73.41667 93.4444,150.86114 151.9444,172.13894 58.5,-21.2778 140.1111,-98.72227 151.91665,-172.11116 1.4722,-6.25001 2.3056,-12.69445 2.3057,-19.36113 z"
       id="path4265"
       inkscape:connector-curvature="0" />
    <path
       style="fill:#dd2e44;stroke-width:27.77778053"
       d="m 334.22226,224.61108 c 0,-50.9166 -41.27779,-92.19441 -92.19446,-92.19441 -30.91667,0 -58.16667,15.25 -74.91667,38.58331 -16.72222,-23.33331 -44,-38.58331 -74.916677,-38.58331 C 41.27778,132.41667 0,173.69448 0,224.61108 c 0,7.2223 0.91667,14.1945 2.47222,20.9445 12.80556,79.5278 101.22223,163.4444 164.61113,186.5 63.38889,-23.0278 151.80557,-106.9445 164.61112,-186.4722 1.61111,-6.7778 2.52779,-13.7778 2.52779,-20.9723 z"
       id="path4263"
       inkscape:connector-curvature="0" />
    <path
       style="fill:#dd2e44;stroke-width:27.77778053"
       d="m 1000,692.51387 c 0,-35.2778 -28.58321,-63.8611 -63.86101,-63.8611 -21.4166,0 -40.3055,10.5556 -51.8889,26.7222 -11.5833,-16.1666 -30.4722,-26.7222 -51.8889,-26.7222 -35.2777,0 -63.8611,28.5833 -63.8611,63.8611 0,5 0.6389,9.8334 1.7222,14.5 8.8612,55.0834 70.1112,113.2223 114.0278,129.1667 43.8889,-15.9444 105.16666,-74.0833 113.99991,-129.1667 1.1111,-4.6666 1.75,-9.5 1.75,-14.5 z"
       id="path4242"
       inkscape:connector-curvature="0" />
  </g>
</svg>
