<?xml version="1.0" encoding="UTF-8" standalone="no"?>
<!-- Created with Inkscape (http://www.inkscape.org/) -->

<svg
   xmlns:dc="http://purl.org/dc/elements/1.1/"
   xmlns:cc="http://creativecommons.org/ns#"
   xmlns:rdf="http://www.w3.org/1999/02/22-rdf-syntax-ns#"
   xmlns:svg="http://www.w3.org/2000/svg"
   xmlns="http://www.w3.org/2000/svg"
   xmlns:sodipodi="http://sodipodi.sourceforge.net/DTD/sodipodi-0.dtd"
   xmlns:inkscape="http://www.inkscape.org/namespaces/inkscape"
   width="1000"
   height="1000"
   viewBox="0 0 1000 1000"
   version="1.1"
   id="svg8"
   inkscape:version="0.92.4 5da689c313, 2019-01-14"
   sodipodi:docname="emoji_u1f468_200d_1f91a.svg">
  <defs
     id="defs2" />
  <sodipodi:namedview
     id="base"
     pagecolor="#ffffff"
     bordercolor="#666666"
     borderopacity="1.0"
     inkscape:pageopacity="0.0"
     inkscape:pageshadow="2"
     inkscape:zoom="0.35000001"
     inkscape:cx="299.72782"
     inkscape:cy="385.92508"
     inkscape:document-units="px"
     inkscape:current-layer="layer1"
     showgrid="true"
     inkscape:window-width="1916"
     inkscape:window-height="1056"
     inkscape:window-x="0"
     inkscape:window-y="20"
     inkscape:window-maximized="1"
     units="px"
     gridtolerance="10"
     inkscape:snap-bbox="true"
     inkscape:bbox-paths="true"
     inkscape:bbox-nodes="true"
     inkscape:snap-bbox-edge-midpoints="true"
     inkscape:snap-bbox-midpoints="true"
     inkscape:object-paths="true"
     inkscape:snap-intersection-paths="true"
     inkscape:snap-smooth-nodes="true"
     inkscape:snap-midpoints="true"
     inkscape:snap-grids="true"
     inkscape:snap-nodes="false">
    <inkscape:grid
       type="xygrid"
       id="grid815"
       units="px"
       spacingx="50"
       spacingy="50" />
  </sodipodi:namedview>
  <metadata
     id="metadata5">
    <rdf:RDF>
      <cc:Work
         rdf:about="">
        <dc:format>image/svg+xml</dc:format>
        <dc:type
           rdf:resource="http://purl.org/dc/dcmitype/StillImage" />
        <dc:title></dc:title>
      </cc:Work>
    </rdf:RDF>
  </metadata>
  <g
     inkscape:label="Layer 1"
     inkscape:groupmode="layer"
     id="layer1"
     transform="translate(0,-32.416667)">
    <path
       inkscape:connector-curvature="0"
       style="fill:#ffdc5d;stroke-width:21.83072281"
       d="m 454.23177,547.77953 c 0,48.22407 -24.42857,87.3229 -54.57676,87.3229 -30.14821,0 -54.57679,-39.09883 -54.57679,-87.3229 0,-48.22407 24.42858,-87.3229 54.57679,-87.3229 30.14819,0 54.57676,39.09883 54.57676,87.3229 z m 545.76823,0 c 0,48.22407 -24.42862,87.3229 -54.57695,87.3229 -30.14814,0 -54.57676,-39.09883 -54.57676,-87.3229 0,-48.22407 24.42862,-87.3229 54.57676,-87.3229 30.14833,0 54.57695,39.09883 54.57695,87.3229 z"
       id="path3453" />
    <path
       inkscape:connector-curvature="0"
       style="fill:#ffdc5d;stroke-width:21.83072281"
       d="m 388.73966,581.87913 c 0,-186.12876 127.05476,-337.02272 283.79943,-337.02272 156.74455,0 283.79931,150.89396 283.79931,337.02272 0,186.12874 -127.05476,337.0227 -283.79931,337.0227 -156.74467,0 -283.79943,-150.89396 -283.79943,-337.0227 z"
       id="path3455" />
    <path
       inkscape:connector-curvature="0"
       style="fill:#c1694f;stroke-width:21.83072281"
       d="m 694.36977,656.93314 h -43.66149 c -12.05054,0 -21.83068,-9.75832 -21.83068,-21.83071 0,-12.07239 9.78014,-21.83073 21.83068,-21.83073 h 43.66149 c 12.07236,0 21.83069,9.75834 21.83069,21.83073 0,12.07239 -9.75833,21.83071 -21.83069,21.83071 z"
       id="path3459" />
    <path
       inkscape:connector-curvature="0"
       style="fill:#ffac33;stroke-width:21.83072281"
       d="m 831.3357,723.2549 -71.91041,-20.54273 c 0.0649,-0.74223 0.43665,-1.37533 0.43665,-2.11757 0,-12.0724 -9.75833,-21.83074 -21.83069,-21.83074 H 607.04692 c -12.05057,0 -21.8308,9.75834 -21.8308,21.83074 0,0.74224 0.34936,1.37534 0.41485,2.11757 l -71.9104,20.54273 c -11.59211,3.31826 -18.29421,15.41247 -14.97591,26.98276 2.72888,9.60551 11.46114,15.84911 20.97929,15.84911 1.98667,0 4.01693,-0.28381 6.00348,-0.82958 l 42.15516,-12.05055 c -4.71543,6.39641 -5.98169,15.01954 -2.18314,22.63846 3.82045,7.66258 11.52663,12.07239 19.53857,12.07239 3.27461,0 6.61471,-0.74225 9.73644,-2.29223 l 34.42707,-17.20261 c 0.78592,7.11682 4.64994,13.7752 11.54843,17.20261 3.12182,1.54998 6.46192,2.29223 9.73653,2.29223 8.01185,0 15.71812,-4.40981 19.56036,-12.07239 l 2.29224,-4.6063 2.29222,4.6063 c 3.84213,7.66258 11.54842,12.07239 19.56025,12.07239 3.27462,0 6.61471,-0.74225 9.73655,-2.29223 6.87667,-3.42741 10.76251,-10.08579 11.54841,-17.20261 l 34.40529,17.20261 c 3.14362,1.54998 6.48373,2.29223 9.75833,2.29223 8.01184,0 15.71812,-4.40981 19.56026,-12.07239 3.79855,-7.61892 2.53241,-16.24205 -2.18304,-22.63846 l 42.15517,12.05055 c 1.98655,0.54577 3.99502,0.82958 6.00337,0.82958 9.47457,0 18.2287,-6.2436 20.97937,-15.84911 3.29638,-11.57029 -3.40553,-23.6645 -15.01957,-26.98276 z M 672.53909,132.99579 c 188.07163,0 305.63011,138.79973 305.63011,254.45892 0,115.65916 -23.51175,161.91847 -47.02341,115.65916 l -47.0015,-92.5186 c 0,0 -141.07014,0 -188.07172,-46.28114 0,0 70.51327,138.79974 -70.53506,0 0,0 23.51168,92.54043 -117.55846,-23.14057 0,0 -70.51327,46.28115 -94.04675,161.91848 -6.52737,32.09117 -47.02337,0.0218 -47.02337,-115.63733 0,-115.68102 94.04675,-254.45892 305.63016,-254.45892 z"
       id="path3461" />
    <path
       style="fill:#ef9645;fill-opacity:1;stroke-width:21.83072281"
       d="m 599.0972,139.11696 c -160.04698,28.00643 -232.18749,147.026 -232.18749,248.33789 0,34.66046 3.67401,61.66485 8.94356,81.83437 -18.20138,14.15732 -30.77472,43.93695 -30.77472,78.49089 0,44.19082 20.53254,80.62281 47.16266,86.4238 a 573.32851,573.32851 0 0 1 -1.42748,-11.76938 573.32851,573.32851 0 0 1 -1.43644,-40.55639 573.32851,573.32851 0 0 1 2.86392,-57.23565 573.32851,573.32851 0 0 1 8.56484,-56.66646 573.32851,573.32851 0 0 1 14.17838,-55.52807 573.32851,573.32851 0 0 1 19.65073,-53.83391 573.32851,573.32851 0 0 1 24.92589,-51.60419 573.32851,573.32851 0 0 1 29.95679,-48.85681 573.32851,573.32851 0 0 1 34.68067,-45.62315 573.32851,573.32851 0 0 1 39.06394,-41.93232 573.32851,573.32851 0 0 1 35.83475,-31.48062 z"
       id="path4139"
       inkscape:connector-curvature="0" />
    <path
       sodipodi:nodetypes="ccccccccccccccccc"
       inkscape:connector-curvature="0"
       id="path4053"
       d="m 553.61327,512.89918 c -33.87573,-31.19835 -85.97629,-15.44338 -119.49012,8.10621 -23.15313,15.16148 -57.39389,67.09778 -84.46481,31.87782 -20.46183,-122.23365 31.65515,-234.94708 117.50599,-338.59223 27.05219,-30.77264 53.39757,-71.04058 23.17818,-72.73237 -65.68155,2.73214 -99.93576,51.35661 -149.24216,113.07743 -31.45346,47.6672 -51.67971,89.01907 -83.13317,136.68628 -8.69,-13.46394 22.8878,-80.35984 56.60834,-128.51623 C 338.69197,218.86672 429.9634,148.42184 429.26854,128.61237 423.26843,103.61096 389.91738,116.8775 369.2923,124.07271 351.07686,105.09575 340.67815,105.59435 331.63618,108.02926 120.35152,227.74087 35.068446,421.90625 24.566076,649.37738 c -0.207431,46.98004 4.296807,104.94651 48.838575,131.61706 94.099469,44.76885 212.130879,20.42628 286.153329,-51.238 26.58202,-23.01949 44.01071,-53.74363 64.40699,-81.73942 31.64861,-34.04871 76.49127,-51.17491 116.27271,-73.65242 28.46665,-7.81334 35.03289,-42.05323 13.37559,-61.46542 z"
       style="fill:#ef9645;fill-opacity:1;stroke-width:21.8307209" />
    <path
       inkscape:connector-curvature="0"
       style="fill:#662113;stroke-width:21.83072281"
       d="m 563.38544,569.61026 c -12.05057,0 -21.8307,-9.75834 -21.8307,-21.83073 v -43.66144 c 0,-12.05057 9.78013,-21.83073 21.8307,-21.83073 12.05055,0 21.83068,9.78016 21.83068,21.83073 v 43.66144 c 0,12.07239 -9.78013,21.83073 -21.83068,21.83073 z m 218.30719,0 c -12.07236,0 -21.83069,-9.75834 -21.83069,-21.83073 v -43.66144 c 0,-12.05057 9.75833,-21.83073 21.83069,-21.83073 12.07246,0 21.83079,9.78016 21.83079,21.83073 v 43.66144 c 0,12.07239 -9.75833,21.83073 -21.83079,21.83073 z"
       id="path3457" />
    <path
       style="fill:#ffdc5d;stroke-width:21.8307209"
       d="m 529.0537,512.89918 c -33.87572,-31.19835 -85.97628,-15.44338 -119.49011,8.10621 -23.15313,15.16148 -57.39389,67.09778 -84.46481,31.87782 -20.46184,-122.23365 31.65515,-234.94708 117.50598,-338.59223 27.0522,-30.77264 53.39758,-71.04058 23.17818,-72.73237 -65.68155,2.73214 -99.93575,51.35661 -149.24215,113.07743 -31.45346,47.6672 -51.67971,89.01907 -83.13317,136.68628 -8.69,-13.46394 22.88779,-80.35984 56.60834,-128.51623 C 314.1324,218.86672 405.40383,148.42184 404.70897,128.61237 398.70887,103.61096 365.35782,116.8775 344.73274,124.07271 326.5173,105.09575 316.11858,105.59435 307.07661,108.02926 95.791957,227.74087 10.508883,421.90625 0.00651247,649.37738 -0.20091828,696.35742 4.30332,754.32389 48.845088,780.99444 c 94.099472,44.76885 212.130882,20.42628 286.153332,-51.238 26.58202,-23.01949 44.01071,-53.74363 64.40698,-81.73942 31.64862,-34.04871 76.49128,-51.17491 116.27272,-73.65242 28.46665,-7.81334 35.03288,-42.05323 13.37558,-61.46542 z"
       id="path3143"
       inkscape:connector-curvature="0"
       sodipodi:nodetypes="ccccccccccccccccc" />
    <path
       style="fill:#c1694f;fill-opacity:1;stroke-width:21.83072281"
       d="m 607.04802,678.76485 c -12.05056,0 -21.83116,9.75652 -21.83116,21.82892 0,0.74224 0.34908,1.37545 0.41457,2.11769 l -71.91152,20.54262 c -11.5921,3.31826 -18.29446,15.41278 -14.97615,26.98307 2.72887,9.60551 11.46145,15.85012 20.97961,15.85012 1.98666,0 4.0169,-0.28339 6.00346,-0.82915 l 42.15642,-12.05174 c -4.71543,6.39642 -5.98346,15.01898 -2.18491,22.6379 3.82044,7.66258 11.52675,12.07415 19.53869,12.07415 3.27461,0 6.61512,-0.74249 9.73685,-2.29248 l 34.42745,-17.20364 c 0.78591,7.11682 4.64903,13.77623 11.54752,17.20364 3.12182,1.54999 6.46224,2.29248 9.73685,2.29248 8.01185,0 15.71887,-4.41157 19.5611,-12.07415 l 2.29247,-4.60511 2.29248,4.60511 c 3.84213,7.66258 11.54702,12.07415 19.55885,12.07415 3.27463,0 6.61502,-0.74249 9.73685,-2.29248 6.87668,-3.42741 10.76387,-10.08682 11.54977,-17.20364 l 34.40504,17.20364 c 3.14362,1.54999 6.48241,2.29248 9.75701,2.29248 8.01184,0 15.71897,-4.41157 19.5611,-12.07415 3.79856,-7.61892 2.53278,-16.24148 -2.18266,-22.6379 l 42.15417,12.05174 c 1.98656,0.54576 3.99511,0.82915 6.00346,0.82915 9.47457,0 18.22894,-6.24461 20.97961,-15.85012 3.29638,-11.57029 -3.40468,-23.66481 -15.01872,-26.98307 l -71.91152,-20.54262 c 0.0649,-0.74224 0.43697,-1.37545 0.43697,-2.11769 0,-12.0724 -9.7588,-21.82892 -21.83116,-21.82892 z"
       id="path4141"
       inkscape:connector-curvature="0" />
  </g>
</svg>
