<?xml version="1.0" encoding="UTF-8" standalone="no"?>
<!-- Created with Inkscape (http://www.inkscape.org/) -->

<svg
   xmlns:dc="http://purl.org/dc/elements/1.1/"
   xmlns:cc="http://creativecommons.org/ns#"
   xmlns:rdf="http://www.w3.org/1999/02/22-rdf-syntax-ns#"
   xmlns:svg="http://www.w3.org/2000/svg"
   xmlns="http://www.w3.org/2000/svg"
   xmlns:sodipodi="http://sodipodi.sourceforge.net/DTD/sodipodi-0.dtd"
   xmlns:inkscape="http://www.inkscape.org/namespaces/inkscape"
   width="1000mm"
   height="1000mm"
   viewBox="0 0 1000 1000"
   version="1.1"
   id="svg8"
   inkscape:version="0.92.4 5da689c313, 2019-01-14"
   sodipodi:docname="emoji_u1f6ac_200d_1f33f.svg">
  <defs
     id="defs2" />
  <sodipodi:namedview
     id="base"
     pagecolor="#ffffff"
     bordercolor="#666666"
     borderopacity="1.0"
     inkscape:pageopacity="0.0"
     inkscape:pageshadow="2"
     inkscape:zoom="0.175"
     inkscape:cx="2207.8618"
     inkscape:cy="1222.2211"
     inkscape:document-units="mm"
     inkscape:current-layer="layer1"
     showgrid="true"
     inkscape:window-width="1916"
     inkscape:window-height="1056"
     inkscape:window-x="0"
     inkscape:window-y="20"
     inkscape:window-maximized="1">
    <inkscape:grid
       type="xygrid"
       id="grid815"
       units="mm"
       spacingx="25"
       spacingy="25" />
  </sodipodi:namedview>
  <metadata
     id="metadata5">
    <rdf:RDF>
      <cc:Work
         rdf:about="">
        <dc:format>image/svg+xml</dc:format>
        <dc:type
           rdf:resource="http://purl.org/dc/dcmitype/StillImage" />
        <dc:title></dc:title>
      </cc:Work>
    </rdf:RDF>
  </metadata>
  <g
     inkscape:label="Layer 1"
     inkscape:groupmode="layer"
     id="layer1"
     transform="translate(0,703)">
    <path
       style="opacity:1;fill:#5c913b;fill-opacity:1;stroke:none;stroke-width:0.25829002;stroke-linecap:round;stroke-linejoin:miter;stroke-miterlimit:4;stroke-dasharray:none;stroke-opacity:1;paint-order:normal"
       d="m 575,-227.99999 c 0,142.500012 -75,332.50003 -75,332.50003 0,0 -75,-190.000018 -75,-332.50003 0,-142.5 75,-475.00001 75,-475.00001 0,0 75,332.50001 75,475.00001 z"
       id="ellipse1142"
       inkscape:connector-curvature="0"
       sodipodi:nodetypes="zczcz" />
    <ellipse
       style="opacity:1;fill:#5c913b;fill-opacity:1;stroke:none;stroke-width:0.25829002;stroke-linecap:round;stroke-linejoin:miter;stroke-miterlimit:4;stroke-dasharray:none;stroke-opacity:1;paint-order:normal"
       id="path1164"
       cx="500"
       cy="104.5"
       rx="50"
       ry="47.5" />
    <rect
       style="opacity:1;fill:#5c913b;fill-opacity:1;stroke:none;stroke-width:0.30790216;stroke-linecap:round;stroke-linejoin:miter;stroke-miterlimit:4;stroke-dasharray:none;stroke-opacity:1;paint-order:normal"
       id="rect1166"
       width="50"
       height="168.75"
       x="475"
       y="128.25" />
    <path
       sodipodi:nodetypes="zczcz"
       inkscape:connector-curvature="0"
       id="path1168"
       d="M 711.82175,-52.183361 C 639.50815,29.68764 500,104.50003 500,104.50003 c 0,0 53.32815,-143.51031 125.64175,-225.38131 72.31361,-81.871 284.13536,-238.55437 284.13536,-238.55437 0,0 -125.64175,225.38129 -197.95536,307.252289 z"
       style="opacity:1;fill:#5c913b;fill-opacity:1;stroke:none;stroke-width:0.19371752;stroke-linecap:round;stroke-linejoin:miter;stroke-miterlimit:4;stroke-dasharray:none;stroke-opacity:1;paint-order:normal" />
    <path
       style="opacity:1;fill:#5c913b;fill-opacity:1;stroke:none;stroke-width:0.14528814;stroke-linecap:round;stroke-linejoin:miter;stroke-miterlimit:4;stroke-dasharray:none;stroke-opacity:1;paint-order:normal"
       d="M 701.20982,111.49163 C 618.11667,125.41062 500,104.50003 500,104.50003 c 0,0 103.4651,-58.027912 186.55825,-71.946894 83.09316,-13.918983 284.30297,-6.927372 284.30297,-6.927372 0,0 -186.55825,71.946881 -269.6514,85.865866 z"
       id="path1170"
       inkscape:connector-curvature="0"
       sodipodi:nodetypes="zczcz" />
    <path
       sodipodi:nodetypes="zczcz"
       inkscape:connector-curvature="0"
       id="path1172"
       d="M 612.05376,200.66825 C 557.25059,170.60966 500,104.50003 500,104.50003 c 0,0 88.89122,14.04662 143.69438,44.10521 54.80317,30.05861 166.85693,126.22684 166.85693,126.22684 0,0 -143.69438,-44.10523 -198.49755,-74.16383 z"
       style="opacity:1;fill:#5c913b;fill-opacity:1;stroke:none;stroke-width:0.1089661;stroke-linecap:round;stroke-linejoin:miter;stroke-miterlimit:4;stroke-dasharray:none;stroke-opacity:1;paint-order:normal" />
    <path
       style="opacity:1;fill:#5c913b;fill-opacity:1;stroke:none;stroke-width:0.19371752;stroke-linecap:round;stroke-linejoin:miter;stroke-miterlimit:4;stroke-dasharray:none;stroke-opacity:1;paint-order:normal"
       d="M 288.17825,-52.183365 C 360.49185,29.687637 500,104.50003 500,104.50003 c 0,0 -53.32815,-143.510315 -125.64175,-225.38132 -72.31361,-81.87099 -284.13536,-238.55436 -284.13536,-238.55436 0,0 125.64175,225.38129 197.95536,307.252285 z"
       id="path1176"
       inkscape:connector-curvature="0"
       sodipodi:nodetypes="zczcz" />
    <path
       sodipodi:nodetypes="zczcz"
       inkscape:connector-curvature="0"
       id="path1178"
       d="M 298.79018,111.49163 C 381.88333,125.41062 500,104.50003 500,104.50003 c 0,0 -103.4651,-58.027916 -186.55825,-71.946898 C 230.34859,18.63415 29.13878,25.62576 29.13878,25.62576 c 0,0 186.55825,71.946885 269.6514,85.86587 z"
       style="opacity:1;fill:#5c913b;fill-opacity:1;stroke:none;stroke-width:0.14528814;stroke-linecap:round;stroke-linejoin:miter;stroke-miterlimit:4;stroke-dasharray:none;stroke-opacity:1;paint-order:normal" />
    <path
       style="opacity:1;fill:#5c913b;fill-opacity:1;stroke:none;stroke-width:0.1089661;stroke-linecap:round;stroke-linejoin:miter;stroke-miterlimit:4;stroke-dasharray:none;stroke-opacity:1;paint-order:normal"
       d="M 387.94624,200.66825 C 442.74941,170.60966 500,104.50003 500,104.50003 c 0,0 -88.89122,14.04662 -143.69438,44.10521 -54.80317,30.05861 -166.85693,126.22684 -166.85693,126.22684 0,0 143.69438,-44.10523 198.49755,-74.16383 z"
       id="path1180"
       inkscape:connector-curvature="0"
       sodipodi:nodetypes="zczcz" />
  </g>
</svg>
