<?xml version="1.0" encoding="UTF-8" standalone="no"?>
<svg
   xmlns:dc="http://purl.org/dc/elements/1.1/"
   xmlns:cc="http://creativecommons.org/ns#"
   xmlns:rdf="http://www.w3.org/1999/02/22-rdf-syntax-ns#"
   xmlns:svg="http://www.w3.org/2000/svg"
   xmlns="http://www.w3.org/2000/svg"
   xmlns:sodipodi="http://sodipodi.sourceforge.net/DTD/sodipodi-0.dtd"
   xmlns:inkscape="http://www.inkscape.org/namespaces/inkscape"
   viewBox="0 0 1000 1000"
   version="1.1"
   id="svg1358"
   sodipodi:docname="emoji_u1f468_200d_1f52a.svg"
   inkscape:version="0.92.4 5da689c313, 2019-01-14"
   width="1000mm"
   height="1000mm">
  <metadata
     id="metadata1364">
    <rdf:RDF>
      <cc:Work
         rdf:about="">
        <dc:format>image/svg+xml</dc:format>
        <dc:type
           rdf:resource="http://purl.org/dc/dcmitype/StillImage" />
        <dc:title></dc:title>
      </cc:Work>
    </rdf:RDF>
  </metadata>
  <defs
     id="defs1362" />
  <sodipodi:namedview
     pagecolor="#ffffff"
     bordercolor="#666666"
     borderopacity="1"
     objecttolerance="10"
     gridtolerance="10"
     guidetolerance="10"
     inkscape:pageopacity="0"
     inkscape:pageshadow="2"
     inkscape:window-width="1916"
     inkscape:window-height="1056"
     id="namedview1360"
     showgrid="false"
     inkscape:zoom="0.07242934"
     inkscape:cx="1160.9412"
     inkscape:cy="2725.2455"
     inkscape:window-x="0"
     inkscape:window-y="20"
     inkscape:window-maximized="0"
     inkscape:current-layer="svg1358"
     inkscape:document-units="mm"
     units="mm" />
  <g
     id="g876"
     transform="translate(80)">
    <path
       style="fill:#ffac33;stroke-width:21.22527122"
       inkscape:connector-curvature="0"
       id="path1326"
       d="m 370.93598,-9.1977789e-6 c -36.52867,0 -70.95606,8.6164829977789 -101.73271,23.5804671977789 -8.34153,-1.432261 -16.87409,-2.348909 -25.6189,-2.348909 -82.0569,0 -148.576913,66.52197 -148.576913,148.578251 v 254.70426 h 0.382127 C 99.2738,561.77745 211.51304,671.91408 349.71077,671.91408 c 138.19776,0 250.43698,-110.13663 254.32122,-247.40002 h 0.38213 V 233.48444 c 0,-128.94195 -104.53446,-233.4758592 -233.478,-233.4758592 z" />
    <path
       sodipodi:nodetypes="sccccss"
       style="fill:#9268ca;stroke-width:21.22527122"
       inkscape:connector-curvature="0"
       id="path1328"
       d="M 577.36917,575.36933 H 99.778228 c -16.78921,30.10012 -33.578405,60.1971 -50.367609,90.29436 V 925.51264 H 662.27024 V 660.27265 c 0,-46.88881 -38.01446,-84.90332 -84.90107,-84.90332 z" />
    <path
       sodipodi:nodetypes="cccc"
       inkscape:connector-curvature="0"
       id="path2693"
       d="M 22.257181,915.4066 C 154.46545,913.77411 286.67372,912.16997 418.88196,910.55152 277.80099,860.42006 299.82561,656.70919 225.32278,606.28011 185.1571,720.68746 69.47569,778.9513 22.257181,915.4066 Z"
       style="fill:#ff0000;stroke:none;stroke-width:21.22527122px;stroke-linecap:butt;stroke-linejoin:miter;stroke-opacity:1" />
    <path
       style="fill:#ffdc5d;stroke-width:21.22527122"
       inkscape:connector-curvature="0"
       id="path1330"
       d="m 158.68326,106.12629 v 254.70168 c 0,83.13879 53.21176,153.6711 127.35164,179.92703 v 53.5514 c 0,35.17033 28.50554,63.67463 63.67582,63.67463 35.17027,0 63.67583,-28.5043 63.67583,-63.67463 V 540.755 C 487.52641,514.49907 540.73816,443.96676 540.73816,360.82797 V 106.12629 Z" />
    <path
       style="fill:#ffac33;stroke-width:21.22527122"
       inkscape:connector-curvature="0"
       id="path1332"
       d="M 540.71694,106.12629 V 84.900454 H 137.45799 V 233.47583 c 127.35164,0 127.35164,-127.34954 127.35164,-127.34954 0,0 42.45054,148.57539 297.15379,148.57539 V 106.12629 Z" />
    <path
       style="fill:#ffac33;stroke-width:21.22527122"
       inkscape:connector-curvature="0"
       id="path1334"
       d="m 227.70787,97.401235 h 85.11334 v 99.821485 h -85.11334 z" />
    <g
       transform="matrix(-7.1149662,-12.981,12.981,-7.1149662,106.48531,134.83998)"
       id="g2641">
      <path
         inkscape:connector-curvature="0"
         style="fill:#ccd6dd"
         d="m -58.921458,4.1478135 c 0.708,-0.707 7.072,-12.728 22.628,-16.9709995 -1.414,1.415 -19.54,21.6909995 -19.54,21.6909995 z"
         id="path2039" />
      <path
         inkscape:connector-curvature="0"
         style="fill:#9aaab4"
         d="m -53.264458,9.8058135 c 0.707,-0.707 12.729,-7.073 16.971,-22.6289995 l -21.213,21.2139995 z"
         id="path2041" />
      <path
         inkscape:connector-curvature="0"
         style="fill:#31373d"
         d="m -56.092458,11.219814 c 0.781,-0.781 0.655,-2.1740005 -0.283,-3.1120005 l -0.848,-0.849 c -0.938,-0.938 -2.331,-1.063 -3.112,-0.282 l -7.778,7.7780005 c -0.781,0.781 -0.654,2.174 0.283,3.111 l 0.848,0.848 c 0.938,0.938 2.331,1.064 3.111,0.283 z"
         id="path2043" />
      <path
         inkscape:connector-curvature="0"
         style="fill:#67757f"
         d="m -64.435458,11.076814 7.071,1.414 1.271,-1.271 c 0.133,-0.133 0.23,-0.288 0.311,-0.452 l -6.954,-1.3910005 z m 7.212,-3.8180005 c -0.938,-0.938 -2.331,-1.063 -3.112,-0.282 l -0.826,0.826 5.328,1.065 c -0.131,-0.27 -0.312,-0.529 -0.543,-0.76 z m -8.912,5.5180005 -1.699,1.699 7.071,1.414 1.699,-1.699 z m -2.422,3.793 c 0.107,0.46 0.346,0.916 0.727,1.297 l 0.848,0.848 c 0.103,0.103 0.213,0.192 0.325,0.275 l 2.11,0.422 c 0.252,-0.084 0.483,-0.22 0.676,-0.414 l 1.242,-1.242 z"
         id="path2045" />
      <circle
         style="fill:#31373d"
         cx="-67.401459"
         cy="18.280813"
         r="4"
         id="circle2047" />
      <path
         inkscape:connector-curvature="0"
         style="fill:#31373d"
         d="m -51.850458,13.340814 c -0.586,0.586 -1.536,0.586 -2.121,0 l -8.839,-8.8390005 c -0.586,-0.586 -0.586,-1.536 0,-2.121 0.586,-0.586 1.535,-0.586 2.121,0 l 8.839,8.8390005 c 0.586,0.584 0.586,1.535 0,2.121 z"
         id="path2049" />
    </g>
    <path
       style="fill:#deaa87;stroke-width:21.22527122"
       inkscape:connector-curvature="0"
       d="m 651.89141,700.02594 c 12.31153,8.61362 15.30284,25.5971 6.7172,37.90881 l -14.29317,20.43523 45.0361,-17.92905 c 21.78247,-8.66203 46.47242,1.94788 55.13397,23.73802 l 31.39695,78.87094 c 8.66154,21.78154 -1.95474,46.47059 -23.73708,55.13261 l -157.75815,62.80669 c 0,0 -19.7258,7.85739 -27.58198,-11.86744 l -47.09544,-118.30625 11.86962,-27.58192 20.5612,-8.18967 61.82596,-88.31785 c 8.63155,-12.32575 25.62929,-15.33065 37.92482,-6.70012 z"
       id="path1932" />
    <path
       id="path1346"
       d="m 658.80165,724.80378 c 12.31153,8.61649 15.3028,25.5971 6.71717,37.9114 l -14.29315,20.43264 45.03607,-17.92905 c 21.78244,-8.66203 46.47243,1.94788 55.134,23.73802 l 31.39695,78.87094 c 8.66155,21.78155 -1.95474,46.47316 -23.73707,55.13261 l -157.75816,62.80955 c 0,0 -19.7258,7.85453 -27.58201,-11.87029 l -47.0954,-118.30626 11.86961,-27.5822 20.5612,-8.18939 61.82597,-88.31785 c 8.63154,-12.32604 25.62928,-15.33065 37.92482,-6.70012 z"
       inkscape:connector-curvature="0"
       style="fill:#ffdc5d;stroke-width:21.22527122" />
    <path
       id="path1348"
       d="m 675.22743,885.8195 98.59684,-39.25485 7.85621,19.72769 -98.59686,39.25199 z m -23.54074,-59.14581 98.61082,-39.23796 7.84224,19.7105 -98.59685,39.25228 z"
       inkscape:connector-curvature="0"
       style="fill:#ef9645;stroke-width:21.22527122" />
    <path
       style="fill:#000080;stroke-width:21.22527122"
       inkscape:connector-curvature="0"
       d="m 321.18762,1037.5571 c 0,0 -81.25387,22.3573 -100.06097,27.8085 -33.33207,9.6818 -58.01515,-10.5902 -58.01515,-10.5902 C 51.625322,926.69855 246.20399,880.52014 246.20399,880.52014 L 525.4883,818.4124 575.33749,959.08428 Z"
       id="path1934" />
    <path
       id="path1356"
       d="m 328.09788,1062.3378 c 0,0 -81.25387,22.3544 -100.06098,27.8082 -33.33207,9.6821 -58.01514,-10.5928 -58.01514,-10.5928 C 58.535561,951.47639 253.11425,905.30084 253.11425,905.30084 l 279.28426,-62.11059 49.84924,140.67187 z"
       inkscape:connector-curvature="0"
       style="fill:#9268ca;stroke-width:21.22527122" />
    <path
       style="fill:#9268ca;stroke-width:21.22527122"
       inkscape:connector-curvature="0"
       d="m 175.94654,937.23685 c 0,0 -9.74758,83.70915 -11.746,103.18755 -3.52466,34.5284 -31.57588,49.8075 -31.57588,49.8075 C -27.91391,1145.5516 2.2505143,947.85563 2.2505143,947.85563 L 49.410619,665.66369 198.51119,672.20627 Z"
       id="path2700" />
    <path
       style="fill:#664500;fill-opacity:1;stroke:none;stroke-width:15.26493073;stroke-opacity:1"
       id="path3411"
       d="m 287.0553,306.13906 27.86666,-26.88011 c 6.07689,-5.86369 6.07689,-15.33953 0,-21.20005 -6.07688,-5.86368 -15.8994,-5.86368 -21.97625,0 L 265.079,284.93901 237.21234,258.0589 c -6.07689,-5.86368 -15.89935,-5.86368 -21.97625,0 -6.07689,5.86052 -6.07689,15.33636 0,21.20005 l 27.86664,26.88011 -27.86664,26.88327 c -6.07689,5.86081 -6.07689,15.33637 0,21.20006 3.03065,2.9218 7.0094,4.39131 10.98811,4.39131 3.97874,0 7.95749,-1.46091 10.98814,-4.39131 l 27.86666,-26.88328 27.86671,26.88328 c 3.03067,2.9218 7.00938,4.39131 10.98814,4.39131 3.9787,0 7.95742,-1.46091 10.98811,-4.39131 6.07689,-5.86369 6.07689,-15.33925 0,-21.20006 z"
       inkscape:connector-curvature="0" />
    <path
       style="fill:#664500;fill-opacity:1;stroke:none;stroke-width:15.26493073;stroke-opacity:1"
       id="path2853"
       d="m 458.0164,306.13906 27.86669,-26.88011 c 6.07691,-5.86369 6.07691,-15.33953 0,-21.20005 -6.07689,-5.86368 -15.8994,-5.86368 -21.97626,0 l -27.86671,26.88011 -27.86666,-26.88011 c -6.07686,-5.86368 -15.89936,-5.86368 -21.97628,0 -6.07686,5.86052 -6.07686,15.33636 0,21.20005 l 27.86672,26.88011 -27.86672,26.88327 c -6.07686,5.86081 -6.07686,15.33637 0,21.20006 3.03072,2.9218 7.00943,4.39131 10.98816,4.39131 3.97875,0 7.95748,-1.46091 10.98812,-4.39131 l 27.86666,-26.88328 27.86671,26.88328 c 3.03064,2.9218 7.00938,4.39131 10.98811,4.39131 3.97874,0 7.95748,-1.46091 10.98815,-4.39131 6.07691,-5.86369 6.07691,-15.33925 0,-21.20006 z"
       inkscape:connector-curvature="0" />
  </g>
</svg>
