<?xml version="1.0" encoding="UTF-8" standalone="no"?>
<svg
   xmlns:dc="http://purl.org/dc/elements/1.1/"
   xmlns:cc="http://creativecommons.org/ns#"
   xmlns:rdf="http://www.w3.org/1999/02/22-rdf-syntax-ns#"
   xmlns:svg="http://www.w3.org/2000/svg"
   xmlns="http://www.w3.org/2000/svg"
   xmlns:sodipodi="http://sodipodi.sourceforge.net/DTD/sodipodi-0.dtd"
   xmlns:inkscape="http://www.inkscape.org/namespaces/inkscape"
   viewBox="0 0 1000 1000"
   version="1.1"
   id="svg976"
   sodipodi:docname="emoji_u1f30d_200d_1f3ed.svg"
   inkscape:version="0.92.4 5da689c313, 2019-01-14"
   width="1000mm"
   height="1000mm">
  <metadata
     id="metadata982">
    <rdf:RDF>
      <cc:Work
         rdf:about="">
        <dc:format>image/svg+xml</dc:format>
        <dc:type
           rdf:resource="http://purl.org/dc/dcmitype/StillImage" />
        <dc:title></dc:title>
      </cc:Work>
    </rdf:RDF>
  </metadata>
  <defs
     id="defs980" />
  <sodipodi:namedview
     pagecolor="#ffffff"
     bordercolor="#666666"
     borderopacity="1"
     objecttolerance="10"
     gridtolerance="10"
     guidetolerance="10"
     inkscape:pageopacity="0"
     inkscape:pageshadow="2"
     inkscape:window-width="1916"
     inkscape:window-height="1056"
     id="namedview978"
     showgrid="true"
     units="mm"
     inkscape:snap-page="true"
     inkscape:snap-bbox="true"
     inkscape:object-paths="true"
     inkscape:snap-intersection-paths="true"
     inkscape:snap-smooth-nodes="true"
     inkscape:snap-midpoints="true"
     inkscape:zoom="0.13334978"
     inkscape:cx="1145.8223"
     inkscape:cy="1607.1432"
     inkscape:window-x="0"
     inkscape:window-y="20"
     inkscape:window-maximized="1"
     inkscape:current-layer="svg976"
     inkscape:document-units="mm">
    <inkscape:grid
       type="xygrid"
       id="grid1570"
       units="mm"
       spacingx="50"
       spacingy="50" />
  </sodipodi:namedview>
  <path
     inkscape:connector-curvature="0"
     style="fill:#be1931;stroke-width:14.74663448"
     d="m 362.57211,601.84087 h -68.06952 l -2.28515,29.49346 h 72.61195 z m -4.57029,-58.98635 h -58.98467 l -2.28515,29.4929 h 63.5271 z m 9.07371,117.9727 h -77.12651 l -2.28516,29.49346 h 81.66895 z m -82.80595,73.73336 h 88.4798 l -1.1147,-14.74645 H 285.42887 Z M 514.54003,660.82722 H 437.4135 l -2.28515,29.49346 h 81.66337 z m -82.80039,73.73336 h 88.47981 l -1.11471,-14.74645 H 432.89336 Z M 510.01431,601.84087 H 441.9392 l -2.28514,29.49346 h 72.61197 z m -4.57029,-58.98635 h -58.99025 l -2.28515,29.4929 h 63.52711 z m 152.0069,58.98635 h -68.06953 l -2.28513,29.49346 h 72.61196 z m -77.13765,117.97326 -1.11471,14.74645 h 88.4798 l -1.11471,-14.74645 z m 81.66336,-58.98691 h -77.12651 l -2.28516,29.49346 h 81.66895 z m -9.06813,-117.9727 h -58.98468 l -2.28514,29.4929 h 63.52709 z"
     id="path1199" />
  <path
     inkscape:connector-curvature="0"
     style="fill:#e6e7e8;stroke-width:14.74663448"
     d="M 364.88235,631.33433 H 292.2704 l -2.28516,29.49289 h 77.12653 z m -4.57029,-58.98691 h -63.5271 l -2.28515,29.49345 h 68.06952 z m -72.60081,117.97326 -2.28516,29.49345 h 86.20581 l -2.28514,-29.49345 z M 512.31898,631.33433 H 439.707 l -2.28514,29.49289 h 77.12651 z m -4.5703,-58.98691 h -63.52711 l -2.28515,29.49345 h 68.07511 z m -72.59525,117.97326 -2.28515,29.49345 h 86.21138 l -2.28515,-29.49345 z M 659.7556,631.33433 h -72.61197 l -2.28515,29.49289 H 661.985 Z m 4.51456,58.98635 h -81.66897 l -2.28514,29.49345 h 86.2058 z m -9.07372,-117.97326 h -63.52711 l -2.28515,29.49345 h 68.06955 z"
     id="path1201" />
  <path
     inkscape:connector-curvature="0"
     style="fill:#a0041e;stroke-width:14.74663448"
     d="m 726.66582,970.50654 c 0,16.28029 -13.20926,29.49346 -29.48955,29.49346 H 254.77724 c -16.28028,0 -29.49512,-13.21317 -29.49512,-29.49346 V 764.05403 c 0,-16.28028 13.21484,-29.49345 29.49512,-29.49345 h 442.39903 c 16.28029,0 29.48955,13.21317 29.48955,29.49345 z"
     id="path1203" />
  <path
     inkscape:connector-curvature="0"
     style="fill:#c1694f;stroke-width:14.74663448"
     d="m 225.28212,764.05403 h 501.3837 v 29.4929 h -501.3837 z"
     id="path1205" />
  <path
     inkscape:connector-curvature="0"
     style="fill:#aab8c2;stroke-width:14.74663448"
     d="m 299.01437,823.0404 h 58.98468 v 58.98635 h -58.98468 z m 147.46448,0 h 58.99024 v 58.98635 h -58.99024 z m 147.47005,0 h 58.98468 v 58.98635 H 593.9489 Z m -294.93453,88.47979 h 58.98468 v 58.98635 h -58.98468 z m 147.46448,0 h 58.99024 v 58.98635 h -58.99024 z m 147.47005,0 h 58.98468 v 58.98635 H 593.9489 Z"
     id="path1207" />
  <path
     inkscape:connector-curvature="0"
     style="fill:#292f33;stroke-width:28.5714798;fill-opacity:1"
     d="m 777.79577,108.56766 c -22.93637,0 -44.99805,3.40158 -65.82869,9.71881 C 687.34612,49.457896 620.51315,0 541.66127,0 457.11848,0 386.31161,56.886309 366.71202,133.57198 c -20.93862,-15.48528 -46.73664,-25 -75.02915,-25 -69.0575,0 -124.9946,54.68555 -124.9946,122.14267 0,16.37187 3.45557,31.94355 9.39483,46.22911 -11.91092,-3.22881 -24.2322,-5.51812 -37.20141,-5.51812 C 62.167941,271.42564 0,332.16816 0,407.14008 0,482.11092 62.167941,542.85452 138.88169,542.85452 H 777.77418 C 900.51186,542.85452 1000,445.65353 1000,325.71055 1000,205.76757 900.51186,108.56766 777.79577,108.56766 Z"
     id="path2104" />
</svg>
