<?xml version="1.0" encoding="UTF-8" standalone="no"?>
<svg
   xmlns:dc="http://purl.org/dc/elements/1.1/"
   xmlns:cc="http://creativecommons.org/ns#"
   xmlns:rdf="http://www.w3.org/1999/02/22-rdf-syntax-ns#"
   xmlns:svg="http://www.w3.org/2000/svg"
   xmlns="http://www.w3.org/2000/svg"
   xmlns:sodipodi="http://sodipodi.sourceforge.net/DTD/sodipodi-0.dtd"
   xmlns:inkscape="http://www.inkscape.org/namespaces/inkscape"
   viewBox="0 0 36 36"
   version="1.1"
   id="svg1358"
   sodipodi:docname="emoji_u1f9d8_200d_1f5e1.svg"
   inkscape:version="0.92.4 5da689c313, 2019-01-14">
  <metadata
     id="metadata1364">
    <rdf:RDF>
      <cc:Work
         rdf:about="">
        <dc:format>image/svg+xml</dc:format>
        <dc:type
           rdf:resource="http://purl.org/dc/dcmitype/StillImage" />
        <dc:title></dc:title>
      </cc:Work>
    </rdf:RDF>
  </metadata>
  <defs
     id="defs1362" />
  <sodipodi:namedview
     pagecolor="#ffffff"
     bordercolor="#666666"
     borderopacity="1"
     objecttolerance="10"
     gridtolerance="10"
     guidetolerance="10"
     inkscape:pageopacity="0"
     inkscape:pageshadow="2"
     inkscape:window-width="1916"
     inkscape:window-height="1056"
     id="namedview1360"
     showgrid="false"
     inkscape:zoom="13.111111"
     inkscape:cx="13.960931"
     inkscape:cy="16.364319"
     inkscape:window-x="0"
     inkscape:window-y="20"
     inkscape:window-maximized="0"
     inkscape:current-layer="svg1358" />
  <path
     d="m 16.902362,0.00963849 c -1.275226,0 -2.477096,0.30083792 -3.551517,0.82322889 -0.291205,-0.0503866 -0.589079,-0.0822488 -0.894363,-0.0822488 -2.864629,0 -5.186861,2.32223162 -5.186861,5.18686062 v 8.8917618 h 0.01334 c 0.135599,4.791918 4.053902,8.636864 8.878423,8.636864 4.824522,0 8.742825,-3.844946 8.878424,-8.636864 h 0.01334 V 8.1604197 c 0,-4.5014542 -3.649327,-8.15078121 -8.150782,-8.15078121 z"
     id="path1326"
     inkscape:connector-curvature="0"
     style="fill:#ffac33;stroke-width:0.74098009" />
  <path
     d="M 24.109002,20.096026 H 7.43617 c -0.586116,1.05071 -1.1722315,2.101418 -1.7583473,3.152127 v 9.071474 H 27.072922 v -9.25968 c 0,-1.636825 -1.327095,-2.963921 -2.96392,-2.963921 z"
     id="path1328"
     inkscape:connector-curvature="0"
     style="fill:#9268ca;stroke-width:0.74098009"
     sodipodi:nodetypes="sccccss" />
  <path
     style="fill:#ff0000;stroke:none;stroke-width:0.74098009px;stroke-linecap:butt;stroke-linejoin:miter;stroke-opacity:1"
     d="M 4.7298887,31.966822 C 9.345316,31.910307 13.960743,31.853791 18.57617,31.797275 13.650994,30.047229 14.419879,22.93556 11.818965,21.175057 10.41677,25.169096 6.3782999,27.203039 4.7298887,31.966822 Z"
     id="path2693"
     inkscape:connector-curvature="0"
     sodipodi:nodetypes="cccc" />
  <path
     d="m 9.492561,3.714539 v 8.891762 c 0,2.902418 1.857637,5.364695 4.445881,6.281288 v 1.869492 c 0,1.227805 0.995136,2.222941 2.22294,2.222941 1.227804,0 2.222941,-0.995136 2.222941,-2.222941 v -1.869492 c 2.588243,-0.916593 4.44588,-3.37887 4.44588,-6.281288 V 3.714539 Z"
     id="path1330"
     inkscape:connector-curvature="0"
     style="fill:#ffdc5d;stroke-width:0.74098009" />
  <path
     d="M 22.829462,3.714539 V 2.9735589 H 8.751581 v 5.1868608 c 4.445881,0 4.445881,-4.4458807 4.445881,-4.4458807 0,0 1.48196,5.1868608 10.373721,5.1868608 V 3.714539 Z"
     id="path1332"
     inkscape:connector-curvature="0"
     style="fill:#ffac33;stroke-width:0.74098009" />
  <path
     d="m 11.902229,3.4099962 h 2.97133 v 3.4848295 h -2.97133 z"
     id="path1334"
     inkscape:connector-curvature="0"
     style="fill:#ffac33;stroke-width:0.74098009" />
  <g
     id="g2641"
     transform="matrix(-0.24838545,-0.45317031,0.45317031,-0.24838545,7.670316,4.7169913)">
    <path
       id="path2039"
       d="m -58.921458,4.1478135 c 0.708,-0.707 7.072,-12.728 22.628,-16.9709995 -1.414,1.415 -19.54,21.6909995 -19.54,21.6909995 z"
       style="fill:#ccd6dd"
       inkscape:connector-curvature="0" />
    <path
       id="path2041"
       d="m -53.264458,9.8058135 c 0.707,-0.707 12.729,-7.073 16.971,-22.6289995 l -21.213,21.2139995 z"
       style="fill:#9aaab4"
       inkscape:connector-curvature="0" />
    <path
       id="path2043"
       d="m -56.092458,11.219814 c 0.781,-0.781 0.655,-2.1740005 -0.283,-3.1120005 l -0.848,-0.849 c -0.938,-0.938 -2.331,-1.063 -3.112,-0.282 l -7.778,7.7780005 c -0.781,0.781 -0.654,2.174 0.283,3.111 l 0.848,0.848 c 0.938,0.938 2.331,1.064 3.111,0.283 z"
       style="fill:#31373d"
       inkscape:connector-curvature="0" />
    <path
       id="path2045"
       d="m -64.435458,11.076814 7.071,1.414 1.271,-1.271 c 0.133,-0.133 0.23,-0.288 0.311,-0.452 l -6.954,-1.3910005 z m 7.212,-3.8180005 c -0.938,-0.938 -2.331,-1.063 -3.112,-0.282 l -0.826,0.826 5.328,1.065 c -0.131,-0.27 -0.312,-0.529 -0.543,-0.76 z m -8.912,5.5180005 -1.699,1.699 7.071,1.414 1.699,-1.699 z m -2.422,3.793 c 0.107,0.46 0.346,0.916 0.727,1.297 l 0.848,0.848 c 0.103,0.103 0.213,0.192 0.325,0.275 l 2.11,0.422 c 0.252,-0.084 0.483,-0.22 0.676,-0.414 l 1.242,-1.242 z"
       style="fill:#67757f"
       inkscape:connector-curvature="0" />
    <circle
       id="circle2047"
       r="4"
       cy="18.280813"
       cx="-67.401459"
       style="fill:#31373d" />
    <path
       id="path2049"
       d="m -51.850458,13.340814 c -0.586,0.586 -1.536,0.586 -2.121,0 l -8.839,-8.8390005 c -0.586,-0.586 -0.586,-1.536 0,-2.121 0.586,-0.586 1.535,-0.586 2.121,0 l 8.839,8.8390005 c 0.586,0.584 0.586,1.535 0,2.121 z"
       style="fill:#31373d"
       inkscape:connector-curvature="0" />
  </g>
  <path
     id="path1932"
     d="m 26.710594,24.447734 c 0.429799,0.300772 0.534226,0.893609 0.234499,1.32348 l -0.498978,0.71334 1.572222,-0.625885 c 0.760432,-0.302377 1.622366,0.06824 1.924743,0.828669 l 1.096076,2.753411 c 0.302377,0.760431 -0.06824,1.622366 -0.828668,1.924744 l -5.507381,2.192638 c 0,0 -0.688633,0.274262 -0.962895,-0.414371 l -1.644114,-4.130117 0.414371,-0.962894 0.717798,-0.285899 2.158361,-3.083176 c 0.30133,-0.430284 0.894726,-0.535198 1.323966,-0.23394 z"
     inkscape:connector-curvature="0"
     style="fill:#deaa87;stroke-width:0.74098009" />
  <path
     style="fill:#ffdc5d;stroke-width:0.74098009"
     inkscape:connector-curvature="0"
     d="m 26.951832,25.312771 c 0.429799,0.300771 0.534226,0.893609 0.234499,1.323479 l -0.498978,0.71334 1.572222,-0.625884 c 0.760431,-0.302378 1.622365,0.06824 1.924743,0.828668 l 1.096076,2.753411 c 0.302377,0.760432 -0.06824,1.622366 -0.828668,1.924744 l -5.507381,2.192638 c 0,0 -0.688633,0.274262 -0.962895,-0.414371 l -1.644114,-4.130117 0.414371,-0.962894 0.717798,-0.285898 2.158361,-3.083177 c 0.30133,-0.430285 0.894726,-0.535197 1.323966,-0.233939 z"
     id="path1346" />
  <path
     style="fill:#ef9645;stroke-width:0.74098009"
     inkscape:connector-curvature="0"
     d="m 27.525261,30.933856 3.442043,-1.370337 0.274263,0.688632 -3.442044,1.370338 z m -0.821814,-2.064778 3.442531,-1.369779 0.273775,0.688073 -3.442043,1.370338 z"
     id="path1348" />
  <path
     id="path1934"
     d="m 15.165633,36.231123 c 0,0 -2.836595,0.780443 -3.493156,0.970792 C 10.508845,37.53992 9.647152,36.83214 9.647152,36.83214 5.7551386,32.360951 12.547934,30.748925 12.547934,30.748925 l 9.749892,-2.168263 1.740249,4.91093 z"
     inkscape:connector-curvature="0"
     style="fill:#000080;stroke-width:0.74098009" />
  <path
     style="fill:#9268ca;stroke-width:0.74098009"
     inkscape:connector-curvature="0"
     d="m 15.406872,37.096159 c 0,0 -2.836595,0.780443 -3.493156,0.970793 -1.163632,0.338005 -2.025325,-0.369776 -2.025325,-0.369776 -3.892014,-4.471188 2.900782,-6.083214 2.900782,-6.083214 l 9.749891,-2.168263 1.74025,4.910929 z"
     id="path1356" />
  <path
     id="path2700"
     d="m 10.095227,32.728882 c 0,0 -0.340291,2.922254 -0.410056,3.602282 -0.123047,1.205465 -1.102323,1.738838 -1.102323,1.738838 -5.604446,1.931186 -4.5513976,-4.970393 -4.5513976,-4.970393 l 1.6463723,-9.851456 5.2051423,0.228448 z"
     inkscape:connector-curvature="0"
     style="fill:#9268ca;stroke-width:0.74098009" />
  <path
     inkscape:connector-curvature="0"
     d="m 13.974064,10.697104 0.972833,-0.9384667 c 0.212146,-0.2046515 0.212146,-0.5354439 0,-0.7400953 -0.212146,-0.2046516 -0.555052,-0.2046516 -0.767197,0 L 13.206866,9.957008 12.234033,9.018542 c -0.212146,-0.2046516 -0.555051,-0.2046516 -0.767197,0 -0.212146,0.2046514 -0.212146,0.5354438 0,0.7400953 l 0.972832,0.9384667 -0.972832,0.938466 c -0.212146,0.204651 -0.212146,0.535443 0,0.740095 0.105801,0.102064 0.2447,0.153358 0.383598,0.153358 0.138899,0 0.277798,-0.05129 0.383599,-0.153358 l 0.972833,-0.938466 0.972834,0.938466 c 0.105801,0.102064 0.244699,0.153358 0.383599,0.153358 0.138898,0 0.277796,-0.05129 0.383598,-0.153358 0.212146,-0.204652 0.212146,-0.535444 0,-0.740095 z"
     id="path3411"
     style="fill:#664500;fill-opacity:1;stroke:none;stroke-width:0.53290296;stroke-opacity:1" />
  <path
     inkscape:connector-curvature="0"
     d="m 19.942364,10.697104 0.972833,-0.9384667 c 0.212147,-0.2046515 0.212147,-0.5354439 0,-0.7400953 -0.212145,-0.2046516 -0.555052,-0.2046516 -0.767197,0 L 19.175166,9.957008 18.202333,9.018542 c -0.212145,-0.2046516 -0.555051,-0.2046516 -0.767198,0 -0.212145,0.2046514 -0.212145,0.5354438 0,0.7400953 l 0.972834,0.9384667 -0.972834,0.938466 c -0.212145,0.204651 -0.212145,0.535443 0,0.740095 0.105803,0.102064 0.244701,0.153358 0.3836,0.153358 0.138899,0 0.277797,-0.05129 0.383598,-0.153358 l 0.972833,-0.938466 0.972834,0.938466 c 0.105801,0.102064 0.2447,0.153358 0.383598,0.153358 0.138899,0 0.277798,-0.05129 0.383599,-0.153358 0.212147,-0.204652 0.212147,-0.535444 0,-0.740095 z"
     id="path2853"
     style="fill:#664500;fill-opacity:1;stroke:none;stroke-width:0.53290296;stroke-opacity:1" />
</svg>
