<?xml version="1.0" encoding="UTF-8" standalone="no"?>
<!-- Created with Inkscape (http://www.inkscape.org/) -->

<svg
   xmlns:dc="http://purl.org/dc/elements/1.1/"
   xmlns:cc="http://creativecommons.org/ns#"
   xmlns:rdf="http://www.w3.org/1999/02/22-rdf-syntax-ns#"
   xmlns:svg="http://www.w3.org/2000/svg"
   xmlns="http://www.w3.org/2000/svg"
   xmlns:sodipodi="http://sodipodi.sourceforge.net/DTD/sodipodi-0.dtd"
   xmlns:inkscape="http://www.inkscape.org/namespaces/inkscape"
   width="1000"
   height="1000"
   viewBox="0 0 1000 1000"
   version="1.1"
   id="svg8"
   inkscape:version="0.92.4 5da689c313, 2019-01-14"
   sodipodi:docname="emoji_u1f574_200d_1f4b0.svg">
  <defs
     id="defs2" />
  <sodipodi:namedview
     id="base"
     pagecolor="#ffffff"
     bordercolor="#666666"
     borderopacity="1.0"
     inkscape:pageopacity="0.0"
     inkscape:pageshadow="2"
     inkscape:zoom="0.35000001"
     inkscape:cx="514.58216"
     inkscape:cy="613.09794"
     inkscape:document-units="px"
     inkscape:current-layer="layer1"
     showgrid="true"
     inkscape:window-width="1916"
     inkscape:window-height="1056"
     inkscape:window-x="0"
     inkscape:window-y="20"
     inkscape:window-maximized="1"
     units="px"
     gridtolerance="10"
     inkscape:snap-bbox="true"
     inkscape:bbox-paths="true"
     inkscape:bbox-nodes="true"
     inkscape:snap-bbox-edge-midpoints="true"
     inkscape:snap-bbox-midpoints="true"
     inkscape:object-paths="true"
     inkscape:snap-intersection-paths="true"
     inkscape:snap-smooth-nodes="true"
     inkscape:snap-midpoints="true">
    <inkscape:grid
       type="xygrid"
       id="grid815"
       units="px"
       spacingx="50"
       spacingy="50" />
  </sodipodi:namedview>
  <metadata
     id="metadata5">
    <rdf:RDF>
      <cc:Work
         rdf:about="">
        <dc:format>image/svg+xml</dc:format>
        <dc:type
           rdf:resource="http://purl.org/dc/dcmitype/StillImage" />
        <dc:title></dc:title>
      </cc:Work>
    </rdf:RDF>
  </metadata>
  <g
     inkscape:label="Layer 1"
     inkscape:groupmode="layer"
     id="layer1"
     transform="translate(0,-32.416667)">
    <path
       inkscape:connector-curvature="0"
       style="fill:#66757f;stroke-width:33.23141098"
       d="m 367.0742,630.05263 33.23088,365.54418 h 66.46406 c 0,0 14.88712,-232.61838 33.23086,-232.61838 18.37697,0 33.23086,232.61838 33.23086,232.61838 h 66.46406 L 632.9258,630.05263 h -99.69494 z"
       id="path1093" />
    <g
       id="g2207"
       transform="matrix(1.1963298,0,0,1.1963298,-110.50979,-173.3243)">
      <path
         id="path1631"
         d="m 389.95777,1007.8667 c -15.5,-1.4167 -5.3333,-19.00004 1.7222,-24.91671 7.8334,-6.61112 20.3889,-12.25001 26.6945,-23.66669 6.9722,-12.6389 40.6945,-10.97223 47.8056,-0.63889 12.6944,18.44446 18.3333,4.97223 22,13.55557 5.8889,13.72223 1.3889,35.66672 1.3889,35.66672 z m 240.7224,0 c 15.5,-1.4167 5.3333,-19.00004 -1.7222,-24.91671 -7.8334,-6.61112 -20.3889,-12.25001 -26.6945,-23.66669 -6.9722,-12.6389 -40.6945,-10.97223 -47.8056,-0.63889 -12.6944,18.44446 -18.3333,4.97223 -22,13.55557 -5.8889,13.72223 -1.3889,35.66672 -1.3889,35.66672 z"
         style="fill:#292f33;stroke-width:27.77779961"
         inkscape:connector-curvature="0" />
    </g>
    <g
       id="g1351"
       transform="matrix(8.3333333,0,0,8.3333333,533.33333,732.41667)">
      <path
         id="path1334"
         d="M 31.898,23.938 C 31.3,17.32 28,14 28,14 L 22,6 H 14 L 8,14 C 8,14 6.581,15.433 5.433,18.275 3.444,18.935 2,20.789 2,23 2,24.448 2.625,25.742 3.609,26.655 3.233,27.357 3,28.147 3,29 3,30.958 4.136,32.636 5.775,33.456 7.058,35.378 8.772,36 10,36 h 16 c 1.379,0 3.373,-0.779 4.678,-3.31 C 32.609,31.999 34,30.17 34,28 34,26.322 33.166,24.846 31.898,23.938 Z M 18,6 C 18.55,6 19.058,5.842 19.5,5.584 19.943,5.842 20.451,6 21,6 22.657,6 25,3.656 25,2 25,2 25,0 23,0 22.212,0 22,1 21,1 20,1 20,0 18,0 16,0 16,1 15,1 14,1 13.789,0 13,0 11,0 11,2 11,2 11,3.656 13.344,6 15,6 15.549,6 16.057,5.842 16.5,5.584 16.943,5.842 17.451,6 18,6 Z"
         inkscape:connector-curvature="0"
         style="fill:#fdd888" />
      <path
         id="path1336"
         d="m 24,6 c 0,0.552 -0.447,1 -1,1 H 13 C 12.448,7 12,6.552 12,6 12,5.448 12.448,5 13,5 h 10 c 0.553,0 1,0.448 1,1 z"
         inkscape:connector-curvature="0"
         style="fill:#bf6952" />
      <path
         id="path1338"
         d="m 23.901,24.542 c 0,-4.477 -8.581,-4.185 -8.581,-6.886 0,-1.308 1.301,-1.947 2.811,-1.947 2.538,0 2.99,1.569 4.139,1.569 0.813,0 1.205,-0.493 1.205,-1.046 0,-1.284 -2.024,-2.256 -3.965,-2.592 V 12.4 C 19.51,11.627 18.86,11 18.056,11 17.251,11 16.6,11.627 16.6,12.4 v 1.283 c -2.116,0.463 -3.937,1.875 -3.937,4.176 0,4.299 8.579,4.125 8.579,7.145 0,1.047 -1.178,2.093 -3.111,2.093 -2.901,0 -3.867,-1.889 -5.045,-1.889 -0.574,0 -1.087,0.464 -1.087,1.164 0,1.113 1.938,2.451 4.603,2.824 l -0.001,0.01 v 1.398 c 0,0.772 0.652,1.4 1.456,1.4 0.804,0 1.455,-0.628 1.455,-1.4 v -1.398 c 0,-0.017 -0.008,-0.03 -0.009,-0.045 2.398,-0.43 4.398,-1.932 4.398,-4.619 z"
         inkscape:connector-curvature="0"
         style="fill:#67757f" />
    </g>
    <g
       transform="matrix(8.3333333,0,0,8.3333333,166.66667,732.41667)"
       id="g2264">
      <path
         style="fill:#fdd888"
         inkscape:connector-curvature="0"
         d="M 31.898,23.938 C 31.3,17.32 28,14 28,14 L 22,6 H 14 L 8,14 C 8,14 6.581,15.433 5.433,18.275 3.444,18.935 2,20.789 2,23 2,24.448 2.625,25.742 3.609,26.655 3.233,27.357 3,28.147 3,29 3,30.958 4.136,32.636 5.775,33.456 7.058,35.378 8.772,36 10,36 h 16 c 1.379,0 3.373,-0.779 4.678,-3.31 C 32.609,31.999 34,30.17 34,28 34,26.322 33.166,24.846 31.898,23.938 Z M 18,6 C 18.55,6 19.058,5.842 19.5,5.584 19.943,5.842 20.451,6 21,6 22.657,6 25,3.656 25,2 25,2 25,0 23,0 22.212,0 22,1 21,1 20,1 20,0 18,0 16,0 16,1 15,1 14,1 13.789,0 13,0 11,0 11,2 11,2 11,3.656 13.344,6 15,6 15.549,6 16.057,5.842 16.5,5.584 16.943,5.842 17.451,6 18,6 Z"
         id="path2258" />
      <path
         style="fill:#bf6952"
         inkscape:connector-curvature="0"
         d="m 24,6 c 0,0.552 -0.447,1 -1,1 H 13 C 12.448,7 12,6.552 12,6 12,5.448 12.448,5 13,5 h 10 c 0.553,0 1,0.448 1,1 z"
         id="path2260" />
      <path
         style="fill:#67757f"
         inkscape:connector-curvature="0"
         d="m 23.901,24.542 c 0,-4.477 -8.581,-4.185 -8.581,-6.886 0,-1.308 1.301,-1.947 2.811,-1.947 2.538,0 2.99,1.569 4.139,1.569 0.813,0 1.205,-0.493 1.205,-1.046 0,-1.284 -2.024,-2.256 -3.965,-2.592 V 12.4 C 19.51,11.627 18.86,11 18.056,11 17.251,11 16.6,11.627 16.6,12.4 v 1.283 c -2.116,0.463 -3.937,1.875 -3.937,4.176 0,4.299 8.579,4.125 8.579,7.145 0,1.047 -1.178,2.093 -3.111,2.093 -2.901,0 -3.867,-1.889 -5.045,-1.889 -0.574,0 -1.087,0.464 -1.087,1.164 0,1.113 1.938,2.451 4.603,2.824 l -0.001,0.01 v 1.398 c 0,0.772 0.652,1.4 1.456,1.4 0.804,0 1.455,-0.628 1.455,-1.4 v -1.398 c 0,-0.017 -0.008,-0.03 -0.009,-0.045 2.398,-0.43 4.398,-1.932 4.398,-4.619 z"
         id="path2262" />
    </g>
    <path
       style="fill:#ffdc5d;stroke-width:33.23141098"
       inkscape:connector-curvature="0"
       d="m 367.07436,729.74604 c 0,18.37698 -14.88767,33.23141 -33.23141,33.23141 -18.34374,0 -33.23141,-14.85443 -33.23141,-33.23141 V 463.89476 c 0,-18.34373 14.88767,-33.23141 33.23141,-33.23141 18.34374,0 33.23141,14.88768 33.23141,33.23141 z m 332.3141,0 c 0,18.37698 -14.85444,33.23141 -33.23141,33.23141 -18.37697,0 -33.23141,-14.85443 -33.23141,-33.23141 V 463.89476 c 0,-18.34373 14.85444,-33.23141 33.23141,-33.23141 18.37697,0 33.23141,14.88768 33.23141,33.23141 z"
       id="path1091" />
    <path
       inkscape:connector-curvature="0"
       style="fill:#292f33;stroke-width:33.23141098"
       d="M 632.92564,364.20053 H 367.07436 c -36.68747,0 -66.46282,29.77535 -66.46282,66.46282 v 265.85128 h 66.46282 v 33.23141 h 66.46282 L 500,696.51463 l 66.46282,33.23141 h 66.46282 v -33.23141 h 66.46282 V 430.66335 c 0,-36.68747 -29.77535,-66.46282 -66.46282,-66.46282 z"
       id="path2204" />
    <path
       style="fill:#ffdc5d;stroke-width:33.23141098"
       inkscape:connector-curvature="0"
       d="m 460.08907,330.96912 h 79.82186 v 52.90441 H 460.08907 Z M 410.40812,225.26001 c 0,19.673 -9.96943,35.59085 -22.26504,35.59085 -12.29563,0 -22.26505,-15.95109 -22.26505,-35.59085 0,-19.67299 9.96942,-35.59084 22.26505,-35.59084 12.29561,-0.0333 22.26504,15.91785 22.26504,35.59084 z m 222.51752,0 c 0,19.673 -9.96942,35.59085 -22.26505,35.59085 -12.29561,0 -22.26504,-15.95109 -22.26504,-35.59085 0,-19.67299 9.96943,-35.59084 22.26504,-35.59084 12.29563,-0.0333 22.26505,15.91785 22.26505,35.59084 z"
       id="path1101" />
    <path
       style="fill:#ffdc5d;stroke-width:33.23141098"
       inkscape:connector-curvature="0"
       d="m 500,361.07678 c -63.904,0 -115.71177,-61.51134 -115.71177,-137.41187 0,-75.90055 51.80777,-137.411884 115.71177,-137.411884 63.904,0 115.71177,61.511334 115.71177,137.411884 0,75.90053 -51.80777,137.41187 -115.71177,137.41187"
       id="path1103" />
    <path
       style="fill:#c1694f;stroke-width:33.23141098"
       inkscape:connector-curvature="0"
       d="m 543.36699,300.92793 c -0.49847,-0.83078 -1.42895,-1.36249 -2.42589,-1.36249 h -81.51665 c -0.99695,0 -1.92743,0.49848 -2.42589,1.36249 -0.49848,0.83079 -0.56494,1.8942 -0.0996,2.79144 0.49847,0.96372 12.36208,23.39491 43.30053,23.39491 30.93844,0 42.80205,-22.46443 43.30052,-23.39491 0.43201,-0.86401 0.36555,-1.92742 -0.13292,-2.79144 z M 500.26585,262.3795 c -8.93925,0 -15.88462,-1.59511 -21.46749,-4.05424 1.82772,6.57983 6.97859,15.75169 21.46749,15.75169 14.48889,0 19.60653,-9.17186 21.46749,-15.75169 -5.58288,2.45913 -12.52824,4.05424 -21.46749,4.05424 z"
       id="path1105" />
    <path
       style="fill:#ffac33;stroke-width:33.23141098"
       inkscape:connector-curvature="0"
       d="m 394.55674,211.20312 c 1.99388,-9.8365 4.91824,-18.14435 8.17492,-25.62141 h -25.8208 c 4.021,29.04426 15.45261,36.38839 17.64588,25.62141 z m 210.88652,-4.15392 c 7.94231,15.61876 15.78492,5.05117 18.27728,-25.62142 h -31.30399 z"
       id="path1107" />
    <path
       style="fill:#546170;stroke-width:33.23141098"
       inkscape:connector-curvature="0"
       d="m 559.81654,437.30963 42.40327,-39.87769 -16.28338,-33.23141 h -26.11989 z"
       id="path1109" />
    <path
       style="fill:#66757f;stroke-width:33.23141098"
       inkscape:connector-curvature="0"
       d="M 499.90031,596.8204 602.88445,429.16794 560.64732,383.94 Z"
       id="path1111" />
    <path
       style="fill:#546170;stroke-width:33.23141098"
       inkscape:connector-curvature="0"
       d="m 440.18346,437.30963 -42.40327,-39.87769 16.28338,-33.23141 h 26.11989 z"
       id="path1113" />
    <path
       style="fill:#66757f;stroke-width:33.23141098"
       inkscape:connector-curvature="0"
       d="M 500,596.8204 397.01586,429.16794 439.25298,383.94 Z"
       id="path1115" />
    <path
       style="fill:#e1e8ed;stroke-width:33.23141098"
       inkscape:connector-curvature="0"
       d="M 500,596.8204 433.53718,364.20053 500,397.43194 566.46282,364.20053 Z"
       id="path1117" />
    <path
       style="fill:#55acee;stroke-width:33.23141098"
       inkscape:connector-curvature="0"
       d="M 533.23141,397.43194 500,383.57445 466.76859,397.43194 495.94577,426.60912 469.59326,490.34697 500,596.8204 530.40674,490.34697 504.05423,426.60912 Z"
       id="path1119" />
    <path
       style="fill:#f5f8fa;stroke-width:33.23141098"
       inkscape:connector-curvature="0"
       d="M 452.21323,349.64518 500,383.57445 468.82893,416.6397 433.53718,364.20053 Z m 95.57354,0 L 500,383.57445 l 31.17107,33.06525 35.29175,-52.43917 z"
       id="path1121" />
    <path
       style="fill:#292f33;stroke-width:33.23141098"
       inkscape:connector-curvature="0"
       d="m 577.2298,130.81635 c 20.33762,-5.51642 36.25547,-13.65811 36.25547,-13.65811 0,0 -4.68563,-19.20776 -9.40449,-31.569842 C 589.39249,47.239351 565.03386,28.13129 542.6359,33.81386 c -33.86281,8.606937 -49.71419,3.655456 -90.12359,-1.129867 -40.37615,-4.785323 -58.91929,55.895232 -65.39941,84.474247 0,0 10.70051,9.10541 29.97473,13.39225 0.73109,0.16616 1.66157,0.26586 2.4259,0.43201 -69.58657,3.12376 -92.61594,11.66423 -92.61594,28.31316 0,21.93274 77.62857,44.29748 173.43473,44.29748 95.77292,0 173.43473,-22.36474 173.43473,-44.29748 -0.0665,-16.98125 -24.02631,-25.48848 -96.53725,-28.47931 z"
       id="path1125" />
    <path
       style="fill:#66757f;stroke-width:33.23141098"
       inkscape:connector-curvature="0"
       d="m 619.06814,139.05774 c -0.39878,-2.29297 -0.89724,-4.81856 -1.42895,-7.31092 -1.5951,-7.47706 -4.18716,-14.58858 -4.18716,-14.58858 0,0 -36.58778,14.25628 -113.18618,14.25628 -76.5984,0 -113.18618,-14.25628 -113.18618,-14.25628 0,0 -2.59205,7.11152 -4.18716,14.58858 -0.5317,2.5256 -1.03017,5.05118 -1.42895,7.31092 -1.59511,9.07217 2.69175,15.31968 32.10154,21.56718 19.93885,4.22039 52.57209,8.00877 86.66751,7.31091 34.09544,0.69786 66.76191,-3.09052 86.66753,-7.31091 29.50948,-6.2475 33.79634,-12.49501 32.168,-21.56718 z"
       id="path1127" />
    <path
       style="fill:#292f33;stroke-width:33.23141098"
       inkscape:connector-curvature="0"
       d="m 616.04409,194.62065 -31.83569,10.50113 c -11.19899,-1.56188 -34.49421,-2.19328 -59.11868,0.49847 -6.5466,0.73109 -9.03895,2.59205 -24.55802,2.59205 -15.48583,0 -18.01142,-1.86096 -24.55801,-2.59205 -24.62448,-2.69175 -47.9197,-2.06035 -59.11868,-0.49847 l -31.83569,-10.50113 c -3.09052,-1.09664 -6.3472,0.6314 -7.34414,3.68869 -0.99695,3.05728 0.66462,6.31397 3.68868,7.34414 l 29.70889,9.80326 c 2.19327,1.69481 6.91213,4.91826 8.04199,8.2414 1.29603,3.85484 3.88809,28.61224 11.631,35.05914 8.00877,6.64628 38.14966,4.15392 43.93193,1.29602 12.92701,-6.44689 14.52212,-27.24976 16.78186,-36.35516 1.29602,-5.15087 9.03894,-5.15087 9.03894,-5.15087 0,0 7.74291,0 9.03895,5.15087 2.29297,9.1054 3.88807,29.97473 16.78186,36.42163 5.78226,2.89112 35.92315,5.35025 43.93192,-1.29603 7.74292,-6.44689 10.33496,-31.27076 11.63099,-35.1256 1.09664,-3.32314 5.8155,-6.51336 8.00878,-8.20816 l 29.74211,-9.80327 c 3.05729,-0.99693 4.71886,-4.28685 3.68869,-7.34413 -0.96372,-3.09053 -4.38655,-4.78533 -7.27768,-3.72193 z"
       id="path1129" />
  </g>
</svg>
