<?xml version="1.0" encoding="UTF-8" standalone="no"?>
<!-- Created with Inkscape (http://www.inkscape.org/) -->

<svg
   xmlns:dc="http://purl.org/dc/elements/1.1/"
   xmlns:cc="http://creativecommons.org/ns#"
   xmlns:rdf="http://www.w3.org/1999/02/22-rdf-syntax-ns#"
   xmlns:svg="http://www.w3.org/2000/svg"
   xmlns="http://www.w3.org/2000/svg"
   xmlns:sodipodi="http://sodipodi.sourceforge.net/DTD/sodipodi-0.dtd"
   xmlns:inkscape="http://www.inkscape.org/namespaces/inkscape"
   width="1000"
   height="1000"
   viewBox="0 0 1000 1000"
   version="1.1"
   id="svg8"
   inkscape:version="0.92.4 5da689c313, 2019-01-14"
   sodipodi:docname="emoji_u1f9ce_200d_1f3a9.svg">
  <defs
     id="defs2" />
  <sodipodi:namedview
     id="base"
     pagecolor="#ffffff"
     bordercolor="#666666"
     borderopacity="1.0"
     inkscape:pageopacity="0.0"
     inkscape:pageshadow="2"
     inkscape:zoom="0.24748738"
     inkscape:cx="313.03147"
     inkscape:cy="-390.43964"
     inkscape:document-units="px"
     inkscape:current-layer="layer1"
     showgrid="true"
     inkscape:window-width="1916"
     inkscape:window-height="1056"
     inkscape:window-x="0"
     inkscape:window-y="20"
     inkscape:window-maximized="1"
     units="px"
     gridtolerance="10"
     inkscape:snap-bbox="true"
     inkscape:bbox-paths="true"
     inkscape:bbox-nodes="true"
     inkscape:snap-bbox-edge-midpoints="true"
     inkscape:snap-bbox-midpoints="true"
     inkscape:object-paths="true"
     inkscape:snap-intersection-paths="true"
     inkscape:snap-smooth-nodes="true"
     inkscape:snap-midpoints="true"
     inkscape:snap-nodes="false"
     inkscape:snap-object-midpoints="true">
    <inkscape:grid
       type="xygrid"
       id="grid815"
       units="px"
       spacingx="50"
       spacingy="50" />
  </sodipodi:namedview>
  <metadata
     id="metadata5">
    <rdf:RDF>
      <cc:Work
         rdf:about="">
        <dc:format>image/svg+xml</dc:format>
        <dc:type
           rdf:resource="http://purl.org/dc/dcmitype/StillImage" />
        <dc:title></dc:title>
      </cc:Work>
    </rdf:RDF>
  </metadata>
  <g
     inkscape:label="Layer 1"
     inkscape:groupmode="layer"
     id="layer1"
     transform="translate(0,-32.416667)">
    <g
       id="g3342"
       transform="matrix(11.142298,0,0,-11.142298,-14409.536,11913.214)">
      <g
         id="g3328">
        <path
           style="fill:#664500"
           d="m 1325.178,981.66087 c -1.19,1.441 -3.182,1.951 -5.076,2.121 -0.318,-1.538 -1.683,-7.251 -4.424,-7.251 -2.403,0 -3.269,1.091 -4.5,1.091 -1.231,0 -2.097,-1.091 -4.5,-1.091 -2.741,0 -4.106,5.713 -4.424,7.251 -1.894,-0.17 -3.886,-0.681 -5.076,-2.121 -2.153,-2.606 -5,-0.686 -3.558,2.174 2.278,4.517 7.788,7.696 17.558,7.696 9.769,0 15.279,-3.179 17.558,-7.696 1.442,-2.86 -1.405,-4.78 -3.558,-2.174 z"
           id="path3295"
           inkscape:connector-curvature="0" />
      </g>
      <path
         id="path3297"
         d="m 1314.678,978.53087 c -1.869,0 -2.543,0.964 -3.5,0.964 -0.957,0 -1.631,-0.964 -3.5,-0.964 -2.463,0 -3.5,6.75 -3.5,6.75 0,0 1.282,2.25 7,2.25 5.719,0 7,-2.25 7,-2.25 0,0 -1.037,-6.75 -3.5,-6.75 z"
         inkscape:connector-curvature="0"
         style="fill:#825d0e" />
      <path
         id="path3299"
         d="m 1304.178,981.53087 c 0,0 2.074,2 7,2 4.927,0 7,-2 7,-2 v 2 c 0,0 -2.222,2 -7,2 -4.778,0 -7,-2 -7,-2 z"
         inkscape:connector-curvature="0"
         style="fill:#664500" />
    </g>
    <g
       id="g4524"
       transform="matrix(27.970497,0,0,27.970497,-44596.285,-33091.542)">
      <g
         transform="translate(1603.2864,1184.1225)"
         id="g4512">
        <path
           style="fill:#ffdc5d"
           inkscape:connector-curvature="0"
           d="m 20.905,1.103 c -2.182,-0.859 -5.584,0.249 -5.979,2.799 -0.393,2.532 0.328,6.502 2.552,6.262 C 19.81,9.912 22.202,9.405 23.146,7.004 24.09,4.605 23.087,1.962 20.905,1.103 Z"
           id="path4477" />
        <path
           style="fill:#ffdc5d"
           inkscape:connector-curvature="0"
           d="m 22.526,7.623 c 3.175,-3.73 -4.474,-3.367 -4.474,-3.367 -1.448,0.053 -0.451,2.465 -1.133,3.782 -0.467,0.912 1.499,1.395 1.499,1.395 0,0 0.903,-0.013 0.951,1.082 v 0.01 c 0.011,0.279 -0.018,0.61 -0.148,1.053 -0.648,2.192 2.297,3.537 2.944,1.34 0.256,-0.869 0.157,-1.634 0.027,-2.34 L 22.18,10.515 C 21.984,9.466 21.74,8.546 22.526,7.623 Z"
           id="path4479" />
        <path
           style="fill:#ffac33"
           inkscape:connector-curvature="0"
           d="M 23.398,1.983 C 21.945,0.282 19.863,-0.621 16.523,0.9 c -1.361,0.62 -1.971,0.391 -2.165,0.663 -0.93,1.306 0.337,2.753 0.833,2.464 1.572,-0.917 2.99,-0.644 3.352,0.019 0.362,0.663 0.028,1.854 0.321,1.862 0.792,0.021 0.664,-0.755 0.977,-1.202 0.514,-0.731 1.296,-0.318 1.467,0.496 0.136,0.645 0,1.741 -1.054,1.934 0.717,1.577 2.136,2.058 2.136,2.058 0,0 0.461,0.181 1.25,-1.371 0.789,-1.554 1.201,-4.151 -0.242,-5.84 z"
           id="path4481" />
        <path
           style="fill:#292f33"
           inkscape:connector-curvature="0"
           d="m 20.666,32.225 c -0.937,0.204 -1.397,0.837 -1.522,1.423 -0.126,0.586 0.419,1.633 0.963,1.842 0.544,0.209 5.354,0.548 6.132,-0.078 1.162,-0.934 -4.804,-3.354 -5.573,-3.187 z"
           id="path4483" />
        <path
           style="fill:#3a4449"
           inkscape:connector-curvature="0"
           d="m 20.924,31.831 c -0.521,0.24 -0.593,1.505 0.045,2.283 0.721,0.879 2.524,1.26 3.455,1.51 0.931,0.25 2.442,-0.001 2.446,-1.322 0.004,-1.115 -1.452,-1.429 -2.145,-1.46 C 24.032,32.811 23.22,32.8 22.857,32.378 22.494,31.956 21.466,31.582 20.924,31.831 Z"
           id="path4485" />
        <path
           style="fill:#4289c1"
           inkscape:connector-curvature="0"
           d="m 25.75,26.1 c 0.655,2.154 0.529,4.598 -1.058,5.452 -1.52,0.818 -4.71,0.946 -4.71,0.946 0,0 -0.905,0.89 -0.351,2.014 0.315,0.639 0.649,0.921 0.58,1.007 -0.061,0.076 -0.748,0.153 -1.053,0.214 -0.814,0.163 -1.755,0.102 -3.341,0.061 -1.586,-0.041 -2.272,0.113 -3.998,0.076 C 9.907,35.829 8.475,35.363 7.521,33.79 6.707,32.447 7.126,30.452 9.026,29.152 c 1.546,-1.058 6.469,-2.197 8.341,-2.482 1.874,-0.285 7.814,-2.441 8.383,-0.57 z"
           id="path4487" />
        <path
           style="fill:#77b255"
           inkscape:connector-curvature="0"
           d="m 26.377,25.554 c -0.057,1.128 0.391,2.499 -0.26,2.27 -2.565,-0.9 -9.188,-0.988 -9.188,-0.988 -0.568,-2.564 -0.037,-6.416 0.008,-9.956 0.059,-4.645 3.148,-7.192 5.082,-6.61 2.528,0.761 3.689,3.387 4.016,7.511 0.327,4.124 0.398,6.646 0.342,7.773 z"
           id="path4489" />
        <path
           style="fill:#ffdc5d"
           inkscape:connector-curvature="0"
           d="m 19.382,16.204 c -0.442,2.329 -0.227,6.078 -0.59,6.249 -2.095,0.984 -3.883,3.239 -5.259,3.722 -0.997,0.349 -1.992,0.55 -2.42,0.928 -0.686,0.605 -1.503,1.121 -1.573,1.735 -0.072,0.623 0.645,0.847 1.896,0.323 0.919,-0.385 1.64,-0.333 2.461,-0.928 1.17,-0.847 5.832,-1.399 7.596,-4.008 0.595,-0.881 1.227,-2.94 2.074,-7.249 -1.091,-0.449 -4.185,-0.772 -4.185,-0.772 z"
           id="path4491" />
        <path
           style="fill:#2a6797"
           inkscape:connector-curvature="0"
           d="m 11.429,32.448 c 0.718,0.062 6.591,0.163 8.137,0.081 0,0 0,0.57 -1.505,0.651 -1.505,0.081 -4.516,-0.407 -6.469,-0.244 -0.538,0.045 -1.485,0.121 -1.587,-0.041 -0.117,-0.185 0.924,-0.491 1.424,-0.447 z"
           id="path4493" />
      </g>
    </g>
  </g>
</svg>
