<?xml version="1.0" encoding="UTF-8" standalone="no"?>
<!-- Created with Inkscape (http://www.inkscape.org/) -->

<svg
   xmlns:osb="http://www.openswatchbook.org/uri/2009/osb"
   xmlns:dc="http://purl.org/dc/elements/1.1/"
   xmlns:cc="http://creativecommons.org/ns#"
   xmlns:rdf="http://www.w3.org/1999/02/22-rdf-syntax-ns#"
   xmlns:svg="http://www.w3.org/2000/svg"
   xmlns="http://www.w3.org/2000/svg"
   xmlns:xlink="http://www.w3.org/1999/xlink"
   xmlns:sodipodi="http://sodipodi.sourceforge.net/DTD/sodipodi-0.dtd"
   xmlns:inkscape="http://www.inkscape.org/namespaces/inkscape"
   width="1000"
   height="1000"
   viewBox="0 0 1000 1000"
   version="1.1"
   id="svg8"
   inkscape:version="0.92.4 5da689c313, 2019-01-14"
   sodipodi:docname="emoji_u1f971_200d_1f971.svg">
  <defs
     id="defs2">
    <linearGradient
       id="linearGradient4240"
       osb:paint="solid">
      <stop
         style="stop-color:#ffdc5d;stop-opacity:1;"
         offset="0"
         id="stop4238" />
    </linearGradient>
    <linearGradient
       inkscape:collect="always"
       xlink:href="#linearGradient4240"
       id="linearGradient4244"
       gradientUnits="userSpaceOnUse"
       x1="4.9670847"
       y1="16.241575"
       x2="35.039534"
       y2="16.241575"
       gradientTransform="matrix(2.44166e-7,-25.257636,25.257636,2.44166e-7,115.70597,1107.8735)" />
    <linearGradient
       inkscape:collect="always"
       xlink:href="#linearGradient4240"
       id="linearGradient4246"
       gradientUnits="userSpaceOnUse"
       x1="4.9670847"
       y1="16.241575"
       x2="35.039534"
       y2="16.241575"
       gradientTransform="matrix(25.257636,0,0,25.257636,-1107.8735,115.70598)" />
    <linearGradient
       inkscape:collect="always"
       xlink:href="#linearGradient4240"
       id="linearGradient4268"
       gradientUnits="userSpaceOnUse"
       gradientTransform="matrix(12.628818,21.873754,21.873754,-12.628818,16.288731,416.54183)"
       x1="4.9670847"
       y1="16.241575"
       x2="35.039534"
       y2="16.241575" />
    <linearGradient
       inkscape:collect="always"
       xlink:href="#linearGradient4240"
       id="linearGradient4270"
       gradientUnits="userSpaceOnUse"
       gradientTransform="matrix(2.44166e-7,-25.257636,25.257636,2.44166e-7,115.70597,1107.8735)"
       x1="4.9670847"
       y1="16.241575"
       x2="35.039534"
       y2="16.241575" />
    <linearGradient
       inkscape:collect="always"
       xlink:href="#linearGradient4240"
       id="linearGradient4272"
       gradientUnits="userSpaceOnUse"
       gradientTransform="matrix(2.44166e-7,-25.257636,25.257636,2.44166e-7,115.70597,1107.8735)"
       x1="4.9670847"
       y1="16.241575"
       x2="35.039534"
       y2="16.241575" />
    <linearGradient
       inkscape:collect="always"
       xlink:href="#linearGradient4240"
       id="linearGradient4274"
       gradientUnits="userSpaceOnUse"
       gradientTransform="matrix(2.44166e-7,-25.257636,25.257636,2.44166e-7,115.70597,1107.8735)"
       x1="4.9670847"
       y1="16.241575"
       x2="35.039534"
       y2="16.241575" />
  </defs>
  <sodipodi:namedview
     id="base"
     pagecolor="#ffffff"
     bordercolor="#666666"
     borderopacity="1.0"
     inkscape:pageopacity="0.0"
     inkscape:pageshadow="2"
     inkscape:zoom="0.49497476"
     inkscape:cx="-16.702897"
     inkscape:cy="361.43407"
     inkscape:document-units="px"
     inkscape:current-layer="layer1"
     showgrid="true"
     inkscape:window-width="1916"
     inkscape:window-height="1056"
     inkscape:window-x="0"
     inkscape:window-y="20"
     inkscape:window-maximized="1"
     units="px"
     gridtolerance="10"
     inkscape:snap-bbox="true"
     inkscape:bbox-paths="true"
     inkscape:bbox-nodes="true"
     inkscape:snap-bbox-edge-midpoints="true"
     inkscape:snap-bbox-midpoints="true"
     inkscape:object-paths="true"
     inkscape:snap-intersection-paths="true"
     inkscape:snap-smooth-nodes="true"
     inkscape:snap-midpoints="true">
    <inkscape:grid
       type="xygrid"
       id="grid815"
       units="px"
       spacingx="50"
       spacingy="50" />
  </sodipodi:namedview>
  <metadata
     id="metadata5">
    <rdf:RDF>
      <cc:Work
         rdf:about="">
        <dc:format>image/svg+xml</dc:format>
        <dc:type
           rdf:resource="http://purl.org/dc/dcmitype/StillImage" />
        <dc:title></dc:title>
      </cc:Work>
    </rdf:RDF>
  </metadata>
  <g
     inkscape:label="Layer 1"
     inkscape:groupmode="layer"
     id="layer1"
     transform="translate(0,-32.416667)">
    <g
       id="g4220"
       transform="matrix(1.0195011,0,0,1.0195011,0,-80.912683)">
      <path
         id="path3566"
         d="m 732.83316,851.74486 c 0,30.69683 -25.69438,55.55748 -57.37654,55.55748 H 159.0677 c -31.68217,0 -57.37655,-24.86065 -57.37655,-55.55748 V 601.62253 c 0,-30.69684 25.69438,-55.58274 57.37655,-55.58274 h 516.38892 c 31.68216,0 57.37654,24.8859 57.37654,55.58274 z"
         style="fill:#5d9040;stroke-width:25.26488304"
         inkscape:connector-curvature="0" />
      <path
         id="path3568"
         d="m 694.78425,907.30234 c 0,30.69683 -24.88591,55.58273 -55.58274,55.58273 H 166.74822 c -30.69683,0 -55.58274,-24.8859 -55.58274,-55.58273 v -27.79138 c 0,-30.69683 24.88591,-55.58274 55.58274,-55.58274 h 472.45329 c 30.69683,0 55.58274,24.88591 55.58274,55.58274 z"
         style="fill:#3f7123;stroke-width:25.26488304"
         inkscape:connector-curvature="0" />
      <ellipse
         id="ellipse3570"
         ry="154.74741"
         rx="315.4068"
         cy="599.70239"
         cx="417.27493"
         style="fill:#5d9040;stroke-width:25.26488304" />
      <path
         id="path3572"
         d="m 166.74822,712.78801 c 0,46.03261 -37.34149,83.37411 -83.374111,83.37411 C 37.3415,796.16212 0,758.82062 0,712.78801 c 0,-46.08314 37.3415,-83.39938 83.374109,-83.39938 46.057881,0 83.374111,37.31624 83.374111,83.39938 z"
         style="fill:#78b159;stroke-width:25.26488304"
         inkscape:connector-curvature="0" />
      <path
         id="path3574"
         d="m 166.74822,962.88507 c 0,30.69688 -24.88591,55.58273 -55.58274,55.58273 -30.696836,0 -55.582737,-24.88585 -55.582737,-55.58273 V 712.78801 c 0,-30.69683 24.885901,-55.58274 55.582737,-55.58274 30.69683,0 55.58274,24.88591 55.58274,55.58274 z M 666.99288,712.78801 c 0,46.03261 37.31624,83.37411 83.37411,83.37411 46.00735,0 83.3741,-37.3415 83.3741,-83.37411 0,-46.05789 -37.36675,-83.39938 -83.3741,-83.39938 -46.03262,0 -83.37411,37.31624 -83.37411,83.39938 z"
         style="fill:#78b159;stroke-width:25.26488304"
         inkscape:connector-curvature="0" />
      <path
         id="path3576"
         d="m 666.99288,962.88507 c 0,30.69688 24.86065,55.58273 55.55748,55.58273 30.69683,0 55.58273,-24.88585 55.58273,-55.58273 V 712.78801 c 0,-30.69683 -24.8859,-55.58274 -55.58273,-55.58274 -30.69683,0 -55.55748,24.88591 -55.55748,55.58274 z M 416.87056,823.92822 c 0,30.69683 -24.88592,55.58274 -55.58275,55.58274 H 222.33096 c -30.69683,0 -55.58274,-24.88591 -55.58274,-55.58274 0,-30.69683 24.88591,-55.58273 55.58274,-55.58273 h 138.95685 c 30.69683,0 55.58275,24.8859 55.58275,55.58273 z m 250.12232,0 c 0,30.69683 -24.88591,55.58274 -55.58274,55.58274 H 472.45329 c -30.69683,0 -55.58273,-24.88591 -55.58273,-55.58274 0,-30.69683 24.8859,-55.58273 55.58273,-55.58273 h 138.95685 c 30.69683,0 55.58274,24.8859 55.58274,55.58273 z"
         style="fill:#78b159;stroke-width:25.26488304"
         inkscape:connector-curvature="0" />
      <path
         id="path3578"
         d="m 151.58929,823.92822 h 530.56252 v 75.79465 H 151.58929 Z"
         style="fill:#78b159;stroke-width:25.26488304"
         inkscape:connector-curvature="0" />
    </g>
    <path
       inkscape:connector-curvature="0"
       style="fill:#dd2e44;stroke-width:25.25763512"
       d="m 906.0174,922.22991 c 22.85816,6.49121 35.99213,6.87008 59.73431,10.81027 17.42777,2.90463 37.02769,14.85149 33.921,29.24831 -2.44999,11.4165 -13.58861,20.0799 -38.39161,17.1752 -13.26025,-1.5407 -22.15094,-5.1778 -35.76481,-9.9262 -7.85512,-2.7279 -18.69065,-6.668 -29.12205,-8.916 -11.36594,-2.45 -23.43909,-11.06282 -20.25663,-25.71225 2.29845,-10.86078 14.64943,-16.99839 29.87979,-12.67933 z"
       id="path2893" />
    <path
       inkscape:connector-curvature="0"
       style="fill:#a0041e;stroke-width:25.25763512"
       d="m 900.81432,954.83749 c -0.42938,-0.6062 -3.56132,-5.98603 -1.36391,-13.89167 2.19742,-7.90564 6.74379,-10.7345 7.40049,-11.11336 0.68196,-0.35361 19.59992,7.29945 24.87877,8.38553 5.63245,1.11134 21.44373,5.17782 22.12569,5.35462 1.36391,0.32835 2.17216,1.74278 1.81855,3.15721 l -3.6371,15.07877 c -0.35361,1.4145 -1.71752,2.2732 -3.08143,1.9449 l -21.3427,-5.1778 c -5.93555,-1.4397 -26.36898,-3.1067 -26.79836,-3.7382 z"
       id="path2895" />
    <path
       inkscape:connector-curvature="0"
       style="fill:#ccd6dd;stroke-width:25.25763512"
       d="m 952.74402,940.79427 c 0,0.40412 -0.0505,0.78299 -0.15154,1.18711 l -5.55668,22.98441 c -0.6567,2.7026 -3.38453,4.3949 -6.08709,3.7129 -2.70257,-0.6567 -4.36957,-3.3845 -3.71287,-6.0871 l 5.55668,-22.98443 c 0.65669,-2.70256 3.38452,-4.39483 6.08709,-3.71287 2.29844,0.55567 3.86441,2.60154 3.86441,4.89998 z m -18.18549,-4.42008 c 0,0.40412 -0.0505,0.78298 -0.15155,1.1871 l -5.55668,22.9845 c -0.6567,2.7025 -3.38452,4.3948 -6.08709,3.7128 -2.70257,-0.6314 -4.39483,-3.4098 -3.71287,-6.0871 l 5.55668,-22.98441 c 0.6567,-2.70257 3.38452,-4.39483 6.08709,-3.71288 2.3237,0.55567 3.86442,2.60154 3.86442,4.89999 z m -18.1855,-4.39483 c 0,0.40412 -0.0505,0.78298 -0.15155,1.18711 l -5.55668,22.98442 c -0.6567,2.7026 -3.38452,4.3949 -6.08709,3.7129 -2.70257,-0.682 -4.39483,-3.3845 -3.71287,-6.0871 l 5.55668,-22.98444 c 0.6567,-2.70257 3.38452,-4.39483 6.08709,-3.71288 2.3237,0.55567 3.86442,2.60154 3.86442,4.89999 z"
       id="path2897" />
    <path
       inkscape:connector-curvature="0"
       style="fill:#dd2e44;stroke-width:25.25763512"
       d="m 883.56336,732.36826 c 23.3128,4.54637 35.20915,10.15357 58.14308,17.37725 16.84684,5.30411 39.73026,3.51081 43.49365,-10.73449 2.9804,-11.29017 -3.03092,-24.07053 -26.44475,-32.68338 -12.52778,-4.62215 -22.10043,-5.40514 -36.39625,-7.34998 -8.23399,-1.11133 -19.70096,-2.52576 -30.00607,-5.22833 -11.23965,-2.95514 -25.88908,-0.73247 -29.70298,13.76541 -2.85411,10.7345 5.37987,21.8226 20.91332,24.85352 z"
       id="path2899" />
    <path
       inkscape:connector-curvature="0"
       style="fill:#a0041e;stroke-width:25.25763512"
       d="m 887.85716,725.52344 c -0.42938,-0.60618 -3.43504,-6.06183 -1.08608,-13.91696 2.37422,-7.85512 6.94585,-10.60821 7.62781,-10.96181 0.68195,-0.32835 19.44838,7.67832 24.70196,8.86543 5.6072,1.23762 21.34271,5.58194 21.99941,5.784 1.36391,0.3536 2.12164,1.79329 1.76803,3.18246 l -3.94019,15.00304 c -0.37887,1.41442 -1.76804,2.24792 -3.13195,1.89432 l -21.24167,-5.58194 c -5.88503,-1.56597 -26.2932,-3.6371 -26.69732,-4.26854 z"
       id="path2901" />
    <path
       inkscape:connector-curvature="0"
       style="fill:#ccd6dd;stroke-width:25.25763512"
       d="m 940.03944,712.41473 c 0,0.42938 -0.0505,0.85876 -0.17681,1.28814 l -6.03657,22.85816 c -0.70722,2.70256 -3.4603,4.31905 -6.16287,3.61184 -2.67731,-0.68196 -4.34431,-3.4603 -3.58658,-6.16286 l 6.03657,-22.85817 c 0.70722,-2.70256 3.4603,-4.31905 6.16287,-3.61184 2.24793,0.58093 3.76339,2.6268 3.76339,4.87473 z m -18.08447,-4.7737 c 0,0.42938 -0.0505,0.85876 -0.17681,1.28814 l -6.03657,22.85816 c -0.70721,2.70257 -3.4603,4.31906 -6.16286,3.61185 -2.67731,-0.68196 -4.34432,-3.48556 -3.58659,-6.16287 l 6.03658,-22.85816 c 0.70721,-2.70257 3.46029,-4.31905 6.16286,-3.61184 2.24793,0.58093 3.76339,2.62679 3.76339,4.87472 z M 903.8705,702.8926 c 0,0.42938 -0.0505,0.85876 -0.1768,1.28814 l -6.03658,22.85816 c -0.70721,2.70256 -3.46029,4.31905 -6.16286,3.61184 -2.67731,-0.70721 -4.36957,-3.51081 -3.58659,-6.16286 l 6.03658,-22.85816 c 0.70721,-2.70257 3.4603,-4.31906 6.16286,-3.61185 2.24793,0.58093 3.76339,2.6268 3.76339,4.87473 z"
       id="path2903" />
    <path
       style="fill:url(#linearGradient4244);fill-opacity:1;stroke-width:25.25763512"
       d="m 725.57685,702.6905 -36.32048,63.14409 66.02346,32.35503 c 4.67266,6.06183 6.97111,7.07214 26.57103,40.79108 17.65509,30.38494 78.07136,87.39142 101.66199,106.33465 5.00101,5.37984 8.61285,6.54174 17.7056,9.92624 l 6.71853,-25.83855 c 0,0 -8.58759,-4.59689 -13.46232,-12.02263 -20.73652,-36.32048 -88.27543,-159.35043 -88.27543,-159.35043 -7.14791,-9.95151 -12.07315,-16.16489 -18.1855,-19.70096 0,0 -49.98486,-30.1071 -62.43688,-35.63852 z"
       id="path4258"
       inkscape:connector-curvature="0" />
    <path
       style="fill:url(#linearGradient4274);fill-opacity:1;stroke-width:25.25763512"
       d="m 671.04562,550.21015 33.16327,63.16935 c 6.84482,-4.31906 21.57002,-12.95717 40.15965,-20.13034 5.37987,-2.09638 15.60921,-4.82421 22.07517,4.117 3.68761,5.05152 11.77006,14.902 17.78137,22.45404 4.117,5.15255 8.81492,11.06284 14.22005,18.03395 19.65044,25.18186 70.39303,76.58115 74.53529,80.77392 4.14225,4.19277 9.52213,7.14791 16.72055,8.68863 0.4799,-2.19742 5.88503,-24.37362 5.88503,-24.37362 0,0 -7.75409,-3.10669 -12.30047,-10.63347 C 869.116,668.84527 792.3833,535.35866 792.3833,535.35866 c -12.50253,-17.42777 -18.23601,-26.9499 -36.16893,-25.38392 -31.31947,2.72782 -73.62601,31.90039 -85.16875,40.23541 z"
       id="path4256"
       inkscape:connector-curvature="0" />
    <path
       style="fill:url(#linearGradient4272);fill-opacity:1;stroke-width:25.25763512"
       d="m 351.15766,764.97583 c -7.07214,6.74378 -10.65873,17.80663 -10.65873,32.80967 0,42.66014 5.43039,84.81514 7.57729,95.54963 0.60619,2.9804 0.60619,4.36957 -1.31339,7.60255 -4.74844,8.03193 -17.57932,10.96181 -33.84524,14.7252 -5.4809,1.21237 -11.2649,2.55102 -16.97313,4.16751 -25.28289,7.04688 -62.13378,14.85149 -69.10489,13.8917 -9.72419,-1.36391 -81.32959,7.88038 -82.41567,8.99172 -1.76803,1.79329 1.69227,6.92059 1.89433,10.43138 0.1768,2.8036 2.47524,4.799 4.44534,7.7794 11.29016,17.2257 34.75451,19.7009 50.51527,21.4437 9.74945,1.0608 27.65711,-15.6597 37.93697,-17.2762 3.35927,-0.5052 20.30714,-1.1871 47.68642,-2.2479 28.66742,-1.1114 64.38171,-2.5005 70.41829,-3.5614 14.44737,-2.551 29.95555,-5.2536 34.90605,-25.51018 3.71287,-15.25561 6.08709,-60.06266 7.80461,-92.7713 0.88402,-16.41746 1.61649,-30.63751 2.34896,-38.18954 1.56598,-16.3417 -1.46494,-30.25865 -8.36028,-38.26532 -4.21802,-4.84947 -9.82522,-7.47626 -16.67004,-7.80461 -11.18913,-0.42938 -20.0293,2.29844 -26.19216,8.23399 z"
       id="path4254"
       inkscape:connector-curvature="0" />
    <path
       style="fill:url(#linearGradient4270);fill-opacity:1;stroke-width:25.25763512"
       d="m 241.81735,657.60561 c -14.24531,1.56598 -25.25764,14.90201 -23.59063,28.99577 1.56597,14.24531 14.09376,24.67671 28.33907,23.08548 l 91.18006,-10.38089 1.18711,8.96646 c 0,0 26.69732,9.16853 26.69732,-36.59831 0,-45.76684 -20.83755,-40.94263 -20.83755,-40.94263 l -2.85411,15.02829 z"
       id="path2905"
       inkscape:connector-curvature="0" />
    <ellipse
       style="fill:url(#linearGradient4246);fill-opacity:1;stroke-width:25.25763512"
       id="ellipse2907"
       ry="75.772911"
       rx="66.301292"
       cy="239.89777"
       cx="-674.27563"
       transform="rotate(-89.999999)" />
    <path
       inkscape:connector-curvature="0"
       style="fill:#ffac33;stroke-width:25.25763512"
       d="m 143.5904,632.19647 c -12.30047,17.65508 -16.67004,62.15904 -0.73247,92.34191 8.20873,15.53345 19.65044,25.53547 32.78441,31.52153 -4.87473,4.57164 -9.06749,12.30047 -10.17883,25.66176 -2.50051,30.20814 30.51123,38.21481 42.30654,60.06266 8.89069,16.49324 9.19378,35.36069 0.32835,48.51992 0,0 21.89837,-18.08447 30.25865,-38.39161 10.86078,-26.39423 3.88967,-58.92606 -4.42009,-74.43425 -3.48555,-6.51647 -7.9309,-11.41645 -12.5783,-15.25561 2.24793,-0.25258 4.4706,-0.37887 6.71853,-0.75773 31.31947,-5.22833 58.69875,-34.07255 58.69875,-34.07255 0,0 -26.87413,-10.45666 -27.40454,-5.73348 -0.98505,8.76439 -27.90969,14.01798 -35.08285,6.66801 -7.55204,-7.72884 0,-15.15458 7.57729,-17.0489 7.57729,-1.89433 29.07154,-6.99637 29.07154,-6.99637 0,0 -27.17722,1.3134 -35.7143,-6.26389 -8.51182,-7.57729 -6.6175,-43.54417 -43.54417,-58.69875 0,0 4.52112,-11.87109 18.74117,-21.3427 11.71954,-7.80461 39.45243,-10.00202 39.45243,-10.00202 0,0 -17.12468,-7.14792 -33.66843,-12.09841 -18.91797,-5.68297 -46.85292,13.68964 -62.61368,36.32048 z"
       id="path2911" />
    <g
       transform="matrix(2.44166e-7,-25.257636,25.257636,2.44166e-7,115.70597,1107.8735)"
       style="fill:#a0041e"
       id="g2917">
      <path
         inkscape:connector-curvature="0"
         d="m 15.104,18.375 c -0.318,1.396 -2.009,4.729 -2.009,4.729 0,0 1.639,1.477 2.987,1.437 l 1.954,-2.841 1.735,2.446 c 0,0 1.713,-1.274 2.931,-1.485 0,0 -1.666,-3.182 -2.023,-3.856 -0.357,-0.674 -1.057,-1.547 -1.057,-1.547 0,0 -4.27,0.028 -4.518,1.117 z"
         id="path2913" />
      <path
         inkscape:connector-curvature="0"
         d="m 16.028,24.667 c -1.37,0 -2.949,-1.41 -3.016,-1.471 -0.042,-0.038 -0.054,-0.099 -0.028,-0.149 0.017,-0.033 1.688,-3.335 1.998,-4.7 0.263,-1.152 4.193,-1.211 4.64,-1.214 h 0.001 c 0.038,0 0.074,0.017 0.098,0.047 0.028,0.036 0.712,0.89 1.07,1.566 0.356,0.675 2.022,3.857 2.022,3.857 0.019,0.035 0.02,0.077 0.002,0.113 -0.018,0.035 -0.052,0.061 -0.091,0.067 -1.176,0.204 -2.861,1.45 -2.879,1.463 -0.027,0.02 -0.062,0.026 -0.094,0.022 -0.033,-0.005 -0.062,-0.023 -0.082,-0.051 l -1.632,-2.3 -1.853,2.693 c -0.032,0.051 -0.098,0.058 -0.156,0.057 z m -2.777,-1.595 c 0.32,0.271 1.65,1.337 2.765,1.345 l 1.918,-2.788 c 0.023,-0.033 0.062,-0.054 0.102,-0.054 h 10e-4 c 0.041,0 0.079,0.02 0.102,0.053 l 1.662,2.343 c 0.373,-0.267 1.665,-1.15 2.715,-1.398 -0.332,-0.633 -1.635,-3.122 -1.945,-3.709 -0.301,-0.567 -0.858,-1.29 -1.008,-1.479 -1.617,0.018 -4.174,0.305 -4.336,1.019 -0.293,1.284 -1.702,4.122 -1.976,4.668 z"
         id="path2915" />
    </g>
    <path
       id="path4266"
       d="m 391.64471,595.77408 c -9.49654,-2.30422 -18.13404,-10.09163 -25.63556,-23.08464 -21.33007,-36.94477 -37.70472,-76.16727 -41.21269,-86.53706 -0.96523,-2.88419 -1.65981,-4.08725 -4.93871,-5.9273 -8.12823,-4.58164 -20.70504,-0.70355 -36.67344,4.17022 -5.35278,1.69051 -11.03119,3.4232 -16.78291,4.8774 -25.41907,6.53866 -61.23518,18.20512 -66.79244,22.52188 -7.73944,6.04327 -74.37368,33.84018 -75.86993,33.42077 -2.4278,-0.66902 -1.99474,-6.83954 -3.57515,-9.981 -1.24868,-2.51639 -0.25588,-5.39368 -0.0399,-8.95983 1.16471,-20.56298 20.24783,-34.43874 33.02565,-43.82843 7.91287,-5.79341 31.78162,-0.26685 41.49249,-4.00685 3.16181,-1.24212 18.18005,-9.12551 42.4216,-21.89647 25.38241,-13.37121 57.00644,-30.02536 62.76473,-32.12489 13.78728,-5.01445 28.56906,-10.42802 42.98461,4.63944 10.84325,11.35531 35.30291,48.97225 53.14464,76.44 8.97432,13.77593 16.71868,25.72462 21.12903,31.89863 9.52703,13.36934 13.86065,26.93723 11.89245,37.31888 -1.22818,6.30878 -4.77076,11.38724 -10.53438,15.09401 -9.47538,5.96642 -18.4951,8.02415 -26.80007,5.96524 z"
       style="fill:url(#linearGradient4268);fill-opacity:1;stroke-width:25.25763512"
       inkscape:connector-curvature="0" />
    <g
       id="g3540"
       transform="matrix(2.44166e-7,-25.257636,25.257636,2.44166e-7,-3582.4331,12473.81)">
      <path
         id="path2919"
         d="m 463.956,155.13867 c 0.549,-0.02 1.321,0.078 1.865,0.117 0,0 0.078,0.855 1.399,0.894 1.321,0.039 1.671,-0.661 1.671,-0.661 0,0 1.01014,0.0778 1.749,0.544 0.75491,0.17671 1.43071,-0.18827 1.43071,-0.18827 0,0 0.62048,1.19899 1.00848,2.17099 -0.33199,0.35268 -1.44164,0.99499 -1.97038,0.80439 0,0 0.0382,0.54385 -0.0788,0.97185 -0.117,0.427 -0.538,0.88 -0.581,1.269 -0.12,1.082 0.227,3.672 0.383,4.021 0,0 -1.225,-0.346 -3.191,-0.13 -1.201,0.133 -3.041,0.965 -3.041,0.965 0.022,-0.842 0.413,-2.902 0.559,-4.01 0.142,-1.079 -0.814,-3.793 -1.474,-3.948 -0.661,-0.155 -1.166,-0.194 -1.166,-0.194 0,0 0.155,-0.994 0,-1.538 -0.155,-0.544 -0.233,-0.933 -0.233,-0.933 0,0 1.121,-0.135 1.67,-0.155 z"
         style="fill:#dd2e44"
         inkscape:connector-curvature="0"
         sodipodi:nodetypes="ccscccccccccccccscsc" />
    </g>
    <path
       inkscape:connector-curvature="0"
       style="fill:#ffdc5d;stroke-width:25.25763512"
       d="m 161.67486,938.19273 -0.32835,1.99535 c 0.50516,-3.35926 -1.74277,-6.59224 -5.1273,-7.17317 -3.40978,-0.58092 -6.69327,1.71752 -7.29945,5.15256 l -2.29845,12.95712 22.75713,20.8376 23.28754,6.3144 3.78865,-20.6355 c 0.58092,-3.4098 -1.71752,-6.6933 -5.15256,-7.2742 -3.25823,-0.55565 -6.26389,1.6165 -7.04688,4.7737 l 0.95979,-5.55667 c 0.58093,-3.40978 -1.71752,-6.69327 -5.15256,-7.2742 -3.30875,-0.58092 -6.39018,1.64175 -7.12265,4.87473 l 1.16185,-6.84482 c 0.58093,-3.40978 -1.71752,-6.69328 -5.15256,-7.2742 -3.43504,-0.58093 -6.69327,1.71752 -7.2742,5.1273 z"
       id="path2923" />
  </g>
</svg>
