<?xml version="1.0" encoding="UTF-8" standalone="no"?>
<!-- Created with Inkscape (http://www.inkscape.org/) -->

<svg
   xmlns:dc="http://purl.org/dc/elements/1.1/"
   xmlns:cc="http://creativecommons.org/ns#"
   xmlns:rdf="http://www.w3.org/1999/02/22-rdf-syntax-ns#"
   xmlns:svg="http://www.w3.org/2000/svg"
   xmlns="http://www.w3.org/2000/svg"
   xmlns:sodipodi="http://sodipodi.sourceforge.net/DTD/sodipodi-0.dtd"
   xmlns:inkscape="http://www.inkscape.org/namespaces/inkscape"
   width="1000"
   height="1000"
   viewBox="0 0 1000 1000"
   version="1.1"
   id="svg8"
   inkscape:version="0.92.4 5da689c313, 2019-01-14"
   sodipodi:docname="emoji_u1f6b6_200d_1f9f1.svg">
  <defs
     id="defs2" />
  <sodipodi:namedview
     id="base"
     pagecolor="#ffffff"
     bordercolor="#666666"
     borderopacity="1.0"
     inkscape:pageopacity="0.0"
     inkscape:pageshadow="2"
     inkscape:zoom="0.49497476"
     inkscape:cx="304.75979"
     inkscape:cy="288.41931"
     inkscape:document-units="px"
     inkscape:current-layer="layer1"
     showgrid="true"
     inkscape:window-width="1916"
     inkscape:window-height="1056"
     inkscape:window-x="0"
     inkscape:window-y="20"
     inkscape:window-maximized="1"
     units="px"
     gridtolerance="10"
     inkscape:snap-bbox="true"
     inkscape:bbox-paths="true"
     inkscape:bbox-nodes="true"
     inkscape:snap-bbox-edge-midpoints="true"
     inkscape:snap-bbox-midpoints="true"
     inkscape:object-paths="true"
     inkscape:snap-intersection-paths="true"
     inkscape:snap-smooth-nodes="true"
     inkscape:snap-midpoints="true">
    <inkscape:grid
       type="xygrid"
       id="grid815"
       units="px"
       spacingx="50"
       spacingy="50" />
  </sodipodi:namedview>
  <metadata
     id="metadata5">
    <rdf:RDF>
      <cc:Work
         rdf:about="">
        <dc:format>image/svg+xml</dc:format>
        <dc:type
           rdf:resource="http://purl.org/dc/dcmitype/StillImage" />
        <dc:title></dc:title>
      </cc:Work>
    </rdf:RDF>
  </metadata>
  <g
     inkscape:label="Layer 1"
     inkscape:groupmode="layer"
     id="layer1"
     transform="translate(0,-32.416667)">
    <path
       style="fill:#292f33;stroke-width:28.63665581"
       d="m 493.68414,504.91976 -1.36814,-0.74543 c 0.11763,2.01092 0.0959,5.57146 -1.00401,10.98787 -1.72679,8.50331 -9.33043,23.49845 -10.99877,25.52653 -1.66844,2.02809 -3.31791,3.38798 -6.07129,1.98139 -2.09173,-1.06766 -17.36582,-13.05269 -28.14109,-15.67921 -20.02405,-4.85531 -33.43806,11.2683 -33.43806,11.2683 0,0 -9.89805,-8.67249 -17.74005,-15.67083 -7.86993,-7.00419 -16.64686,-16.88075 -23.3399,-23.0615 -5.70716,-5.27919 -12.76225,-8.66972 -20.25229,-11.21348 -7.49004,-2.54377 -13.81669,-3.47791 -15.63471,-4.02243 -1.81803,-0.54452 -17.77531,-1.82716 -15.2077,-17.34828 l 0.80793,-3.54697 -1.6637,0.42188 c 0,0 -0.37824,-5.04433 -0.30804,-5.96522 0.0753,-0.94888 -0.37721,-1.59607 1.83803,-2.43199 2.21524,-0.83583 11.61113,-2.785 23.17072,-3.30124 11.55949,-0.51615 30.23448,-0.96088 44.01374,1.83736 13.77937,2.79823 24.95154,7.93073 31.41251,10.93761 6.48891,3.01253 20.44951,9.09114 21.98383,8.73065 1.53421,-0.3605 4.34388,-4.69912 6.23984,-5.83357 1.92411,-1.12882 44.72115,11.44863 47.70525,12.72668 3.01204,1.2838 3.41904,4.17165 3.17399,5.37844 l -3.69862,18.21342 c -0.0979,0.76917 -0.84587,1.14321 -1.47947,0.81002 z"
       id="path4551"
       inkscape:connector-curvature="0" />
    <path
       style="fill:#292f33;stroke-width:28.63665581"
       d="m 164.98104,612.14497 7.96653,17.19785 c 0.29556,0.647 -0.0649,1.40869 -0.78402,1.53559 l -1.57586,0.21548 c 1.31298,1.58404 3.4378,4.5235 5.79778,9.60911 3.71379,8.01863 6.56056,24.92146 6.38624,27.57786 -0.1467,2.66411 -0.67495,4.7762 -3.75935,5.2853 -2.36545,0.3822 -22.10878,-0.2365 -32.54198,4.14301 -19.34849,8.11126 -20.62085,29.45616 -20.62085,29.45616 l -24.01794,-2.13504 c -10.666915,-0.97652 -23.85608,-3.78436 -33.083731,-4.80624 -7.869415,-0.88176 -15.710687,0.59252 -23.383919,3.0648 -7.693025,2.43702 -13.415037,5.4819 -15.267082,6.15555 -1.816892,0.65373 -15.674708,9.22269 -22.9681489,-5.0532 l -1.459369,-3.40826 -1.111949,1.32547 c 0,0 -3.34296,-3.90264 -3.86378097,-4.7015 -0.5208202,-0.79886 -1.2704012,-1.09658 0.02577,-3.08417 1.29617497,-1.98758 7.84632297,-9.29047 17.01160387,-16.69798 9.200538,-7.42744 24.237107,-19.05699 37.23555,-25.07099 13.006071,-6.04156 25.265654,-8.54556 32.391159,-10.01095 7.125402,-1.46543 22.258057,-4.89402 23.311657,-6.11681 1.0537,-1.22278 0.72638,-6.4562 1.60875,-8.55892 0.87463,-2.07515 43.60446,-17.62146 46.82082,-18.3911 3.21626,-0.76964 5.36295,1.34362 5.88212,2.46898 z"
       id="path1490"
       inkscape:connector-curvature="0" />
    <path
       style="fill:#f9ca55;stroke-width:28.63665581"
       inkscape:connector-curvature="0"
       d="M 678.3088,942.8045 C 663.571,907.54452 637.01772,829.52162 631.47581,825.66715 c -29.31685,-20.46399 -61.57162,-45.68695 -84.9376,-52.82746 -16.94387,-5.18304 -29.87232,-24.60136 -35.3833,-32.43402 -6.83829,-9.74564 -14.76235,-30.71771 -9.68229,-39.75415 3.144,-5.62995 17.73521,-10.03651 21.07807,-2.88895 6.47231,13.92245 23.15639,19.27421 35.08103,31.39939 23.96917,24.33329 83.48452,37.38882 112.50334,69.10644 12.00887,13.15941 36.21298,38.46708 63.34388,115.36689 -17.9419,8.20114 -55.17014,29.16921 -55.17014,29.16921 z"
       id="path1492" />
    <path
       style="fill:#ffdc5d;stroke-width:28.63665581"
       inkscape:connector-curvature="0"
       d="m 980.74718,936.96972 c 18.51512,45.39387 4.83723,86.54458 -48.35019,95.44698 -103.09188,0 -132.98461,0 -147.69139,-46.82126 4.66914,-48.80076 22.15466,-73.57859 72.10783,-93.95401 49.95317,-20.37542 105.41876,-0.0656 123.93375,45.32829 z"
       id="path1494"
       sodipodi:nodetypes="cccsc" />
    <path
       style="fill:#ffdc5d;stroke-width:28.63665581"
       inkscape:connector-curvature="0"
       d="m 844.05859,904.74312 c 77.15499,-67.33414 71.53422,92.65435 71.53422,92.65435 -0.71577,30.28013 -51.39759,10.05463 -78.76849,24.65343 -18.92179,9.9987 -29.53572,-30.99613 -29.53572,-30.99613 0,0 0.0546,-18.87365 -22.86578,-19.59401 l -0.20041,0.002 c -5.84428,-0.1572 -12.73772,0.52903 -21.98187,3.36346 -45.67712,14.10817 -74.52512,-47.11039 -28.7616,-61.19099 18.11695,-5.57837 34.12073,-3.68465 48.9006,-1.17444 l 1.3204,0.2415 c 21.98476,3.85349 41.26119,8.71404 60.35865,-7.95963 z"
       id="path1496" />
    <path
       style="fill:#ffac33;stroke-width:28.63665581"
       inkscape:connector-curvature="0"
       d="m 961.72271,885.0811 c 35.93789,29.94363 53.14529,77.10494 22.22027,147.3356 h -51.54599 c 18.752,-33.10808 1.40287,-37.93529 -12.54927,-45.32432 -13.95215,-7.38899 -38.77853,-0.12429 -38.99667,-6.22168 -0.6335,-16.57409 15.63533,-14.08221 24.88947,-20.75437 15.15874,-10.92607 6.30995,-27.16997 -10.743,-30.54003 -13.52173,-2.66887 -36.39442,0.44779 -40.16057,22.54605 -33.1426,-14.57033 -43.55869,-44.14066 -43.55869,-44.14066 0,0 -3.89842,-9.60333 28.34181,-26.46733 32.26858,-16.89301 86.42491,-26.17963 122.10264,3.56674 z"
       id="path1498"
       sodipodi:nodetypes="cccsccccccc" />
    <path
       style="fill:#2a6797;stroke-width:28.63665581"
       inkscape:connector-curvature="0"
       d="m 434.58806,515.47759 c -34.90764,-10.27396 -53.33016,-4.02146 -50.66863,1.86645 3.3311,7.33895 1.32968,11.87082 0.5936,15.78306 -13.12555,68.66354 -47.36103,165.44633 -47.36103,165.44633 -1.98328,9.76628 -4.54913,22.833 -0.14608,45.61383 11.10238,57.27815 67.05457,238.32804 67.05457,238.32804 9.91929,30.0083 42.3322,46.3796 72.34606,36.4322 30.03634,-9.9135 39.49481,-33.03532 36.43226,-72.34614 -5.77242,-74.45892 -51.28326,-174.11139 -66.92137,-232.07686 18.37396,-58.24683 17.07531,-109.12166 34.36155,-164.17049 2.48328,-7.91147 -10.7833,-24.60246 -45.69093,-34.87642 z"
       id="path1500" />
    <path
       style="fill:#4289c1;stroke-width:28.63665581"
       inkscape:connector-curvature="0"
       d="m 178.47711,666.84498 c -16.43378,-2.88094 -33.63899,-2.25023 -49.49844,3.17579 -12.06814,3.88945 -23.85525,10.52353 -31.024885,21.29404 -3.40028,5.06267 -6.06314,11.00695 -6.182,17.1459 1.72008,2.77772 4.14346,5.04521 6.03262,7.71327 23.794025,30.10655 43.024885,63.42534 62.459765,96.41398 15.08595,26.18837 28.98593,53.0386 43.66385,79.44989 10.6132,16.59555 26.67605,28.62452 42.8523,39.38953 34.34918,23.60053 134.8081,78.93572 170.15727,100.98932 80.76362,-9.4526 103.09188,-45.58555 86.06481,-73.51733 -23.66804,-26.26739 -53.0851,-46.66243 -83.95771,-63.56419 -24.45567,-13.5226 -49.4672,-26.00822 -73.94399,-39.49281 -17.72356,-9.62806 -35.3298,-19.49503 -52.438,-30.18684 -3.35172,-4.24951 -4.66769,-9.65975 -7.65426,-14.13947 -15.57512,-28.65478 -37.83276,-52.77175 -58.81206,-77.46979 -16.93954,-20.12197 -32.82807,-41.54714 -43.42467,-65.76541 -0.97226,-1.28317 -2.90173,-1.01285 -4.2946,-1.43588 z"
       id="path1502"
       sodipodi:nodetypes="ccccccccccccccccc" />
    <path
       style="fill:#77b255;stroke-width:28.63665581"
       inkscape:connector-curvature="0"
       d="m 444.00467,853.12349 c 0,0 -28.33593,0.34942 -27.92985,57.62134 l 0.86277,121.67187 h 309.27564 c 103.72754,-2.5077 73.73307,-52.1058 60.23555,-92.37778 -17.65922,-52.65002 -76.57242,-76.18226 -168.77377,-81.89251 -92.20136,-5.71026 -173.67034,-5.02292 -173.67034,-5.02292 z"
       id="path1504"
       sodipodi:nodetypes="cscccsc" />
    <path
       style="fill:#ffdc5d;stroke-width:28.63665581"
       inkscape:connector-curvature="0"
       d="m 728.97465,962.88159 c -20.51931,0 -116.69826,-10.9662 -122.14068,-15.52947 -28.94243,-24.21225 -63.5346,-50.0978 -77.27015,-71.9464 -9.94321,-15.84507 -33.33115,-23.63621 -42.8256,-27.07513 -11.80392,-4.26922 -35.37444,-6.53531 -43.17231,1.10123 -4.87006,4.78003 -5.32541,20.84083 2.87647,22.25914 15.97492,2.77405 26.0372,18.24827 41.68015,27.06102 31.39973,17.68419 61.14091,74.7264 101.46623,95.52748 16.73346,8.62574 46.41908,19.96414 149.51096,19.96414 23.56381,0 11.41371,-51.36201 -10.12507,-51.36201 z"
       id="path1506"
       sodipodi:nodetypes="cccccccccc" />
  </g>
</svg>
