<?xml version="1.0" encoding="UTF-8" standalone="no"?>
<!-- Created with Inkscape (http://www.inkscape.org/) -->

<svg
   xmlns:dc="http://purl.org/dc/elements/1.1/"
   xmlns:cc="http://creativecommons.org/ns#"
   xmlns:rdf="http://www.w3.org/1999/02/22-rdf-syntax-ns#"
   xmlns:svg="http://www.w3.org/2000/svg"
   xmlns="http://www.w3.org/2000/svg"
   xmlns:sodipodi="http://sodipodi.sourceforge.net/DTD/sodipodi-0.dtd"
   xmlns:inkscape="http://www.inkscape.org/namespaces/inkscape"
   width="1000"
   height="1000"
   viewBox="0 0 1000 1000"
   version="1.1"
   id="svg8"
   inkscape:version="0.92.4 5da689c313, 2019-01-14"
   sodipodi:docname="emoji_u1f445_200d_1f308.svg">
  <defs
     id="defs2" />
  <sodipodi:namedview
     id="base"
     pagecolor="#ffffff"
     bordercolor="#666666"
     borderopacity="1.0"
     inkscape:pageopacity="0.0"
     inkscape:pageshadow="2"
     inkscape:zoom="0.49497476"
     inkscape:cx="193.0897"
     inkscape:cy="360.74688"
     inkscape:document-units="px"
     inkscape:current-layer="layer1"
     showgrid="true"
     inkscape:window-width="1916"
     inkscape:window-height="1056"
     inkscape:window-x="0"
     inkscape:window-y="20"
     inkscape:window-maximized="1"
     units="px"
     gridtolerance="10"
     inkscape:snap-bbox="true"
     inkscape:bbox-paths="true"
     inkscape:bbox-nodes="true"
     inkscape:snap-bbox-edge-midpoints="true"
     inkscape:snap-bbox-midpoints="true"
     inkscape:object-paths="true"
     inkscape:snap-intersection-paths="true"
     inkscape:snap-smooth-nodes="true"
     inkscape:snap-midpoints="true">
    <inkscape:grid
       type="xygrid"
       id="grid815"
       units="px"
       spacingx="50"
       spacingy="50" />
  </sodipodi:namedview>
  <metadata
     id="metadata5">
    <rdf:RDF>
      <cc:Work
         rdf:about="">
        <dc:format>image/svg+xml</dc:format>
        <dc:type
           rdf:resource="http://purl.org/dc/dcmitype/StillImage" />
        <dc:title></dc:title>
      </cc:Work>
    </rdf:RDF>
  </metadata>
  <g
     inkscape:label="Layer 1"
     inkscape:groupmode="layer"
     id="layer1"
     transform="translate(0,-32.416667)">
    <g
       id="g12975"
       transform="matrix(27.777778,0,0,27.777778,0,30.749993)">
      <path
         id="path12958"
         d="M 36,7.5 C 36,12 27.941,19 18,19 8.059,19 0,12 0,7.5 0,6 3,9 18,9 33,9 36,6 36,7.5 Z"
         inkscape:connector-curvature="0"
         style="fill:#662113" />
      <path
         id="path12960"
         d="M 18,11 C 12,11 7,10 7,10 v 12 c 0,6.075 4.925,11 11,11 6.075,0 11,-4.925 11,-11 V 10 c 0,0 -5,1 -11,1 z"
         inkscape:connector-curvature="0"
         style="fill:#ea596e" />
      <path
         id="path12962"
         d="m 19,29 c 0,0.553 -0.448,1 -1,1 -0.552,0 -1,-0.447 -1,-1 V 13 c 0,-0.552 0.448,-1 1,-1 0.552,0 1,0.448 1,1 z"
         inkscape:connector-curvature="0"
         style="fill:#dd2e44" />
    </g>
    <path
       style="opacity:1;fill:#ffffff;fill-opacity:1;stroke:none;stroke-width:12.61422634;stroke-linecap:round;stroke-linejoin:miter;stroke-miterlimit:4;stroke-dasharray:none;stroke-opacity:1;paint-order:normal"
       d="m 500,437.78116 -88.1514,88.15164 -88.1513,88.1516 14.6919,14.6912 a 20.779691,20.779691 0 0 1 29.3838,0 20.779691,20.779691 0 0 1 0,29.3846 l 29.3837,29.3825 a 20.779691,20.779691 0 0 1 29.3838,0 20.779691,20.779691 0 0 1 0,29.3845 l 29.3838,29.3825 a 20.779691,20.779691 0 0 1 29.3838,0 20.779691,20.779691 0 0 1 0,29.3846 L 500,790.3855 l 88.1513,-88.1516 88.1514,-88.1495 -14.6919,-14.6933 a 20.779691,20.779691 0 0 1 -29.3838,0 20.779691,20.779691 0 0 1 0,-29.3825 L 602.8432,540.624 a 20.779691,20.779691 0 0 1 -29.3838,0 20.779691,20.779691 0 0 1 0,-29.3845 l -29.3838,-29.38252 a 20.779691,20.779691 0 0 1 -29.3837,0 20.779691,20.779691 0 0 1 0,-29.38458 z"
       id="rect2945"
       inkscape:connector-curvature="0" />
  </g>
</svg>
