<?xml version="1.0" encoding="UTF-8" standalone="no"?>
<!-- Created with Inkscape (http://www.inkscape.org/) -->

<svg
   xmlns:osb="http://www.openswatchbook.org/uri/2009/osb"
   xmlns:dc="http://purl.org/dc/elements/1.1/"
   xmlns:cc="http://creativecommons.org/ns#"
   xmlns:rdf="http://www.w3.org/1999/02/22-rdf-syntax-ns#"
   xmlns:svg="http://www.w3.org/2000/svg"
   xmlns="http://www.w3.org/2000/svg"
   xmlns:sodipodi="http://sodipodi.sourceforge.net/DTD/sodipodi-0.dtd"
   xmlns:inkscape="http://www.inkscape.org/namespaces/inkscape"
   width="1000"
   height="1000"
   viewBox="0 0 1000 1000"
   version="1.1"
   id="svg8"
   inkscape:version="0.92.4 5da689c313, 2019-01-14"
   sodipodi:docname="moralizing.svg">
  <defs
     id="defs2">
    <linearGradient
       id="linearGradient1141"
       osb:paint="solid">
      <stop
         style="stop-color:#333333;stop-opacity:1;"
         offset="0"
         id="stop1139" />
    </linearGradient>
    <linearGradient
       id="linearGradient1135"
       osb:paint="solid">
      <stop
         style="stop-color:#000000;stop-opacity:1;"
         offset="0"
         id="stop1133" />
    </linearGradient>
    <linearGradient
       id="linearGradient1129"
       osb:paint="solid">
      <stop
         style="stop-color:#000000;stop-opacity:1;"
         offset="0"
         id="stop1127" />
    </linearGradient>
  </defs>
  <sodipodi:namedview
     id="base"
     pagecolor="#ffffff"
     bordercolor="#666666"
     borderopacity="1.0"
     inkscape:pageopacity="0.0"
     inkscape:pageshadow="2"
     inkscape:zoom="0.70000002"
     inkscape:cx="589.45277"
     inkscape:cy="341.99476"
     inkscape:document-units="px"
     inkscape:current-layer="layer1"
     showgrid="true"
     inkscape:window-width="1916"
     inkscape:window-height="1056"
     inkscape:window-x="0"
     inkscape:window-y="20"
     inkscape:window-maximized="1"
     units="px"
     gridtolerance="10"
     inkscape:snap-bbox="true"
     inkscape:bbox-paths="true"
     inkscape:bbox-nodes="true"
     inkscape:snap-bbox-edge-midpoints="true"
     inkscape:snap-bbox-midpoints="true"
     inkscape:object-paths="true"
     inkscape:snap-intersection-paths="true"
     inkscape:snap-smooth-nodes="true"
     inkscape:snap-midpoints="true"
     inkscape:snap-global="true">
    <inkscape:grid
       type="xygrid"
       id="grid815"
       units="px"
       spacingx="50"
       spacingy="50" />
  </sodipodi:namedview>
  <metadata
     id="metadata5">
    <rdf:RDF>
      <cc:Work
         rdf:about="">
        <dc:format>image/svg+xml</dc:format>
        <dc:type
           rdf:resource="http://purl.org/dc/dcmitype/StillImage" />
        <dc:title></dc:title>
      </cc:Work>
    </rdf:RDF>
  </metadata>
  <g
     inkscape:label="Layer 1"
     inkscape:groupmode="layer"
     id="layer1"
     transform="translate(0,-32.416667)"
     style="display:inline;opacity:1">
    <path
       id="path1153"
       style="fill:#292f33;stroke:none;stroke-width:10;stroke-linecap:butt;stroke-linejoin:miter;stroke-miterlimit:4;stroke-dasharray:none;stroke-opacity:1;fill-opacity:1"
       d="m 450.33685,327.01497 c 17.38109,23.02425 23.72865,35.88877 30.02302,68.61945 -7.59071,8.27741 -17.06733,3.47029 -20.90116,12.8416 -3.83383,9.37131 -1.88973,38.46601 -6.0749,39.89095 -4.18517,1.42494 -16.50198,-7.90676 -19.97557,-5.66602 -3.47359,2.24074 -6.35512,67.42956 -8.90157,70.08999 -2.54645,2.66043 -30.25949,6.34214 -30.14248,13.02957 0.0616,3.5212 30.37552,47.60478 35.95971,56.59616 l -406.752471,100 C -17.48112,567.40554 386.20872,403.05478 450.33685,327.01497 Z"
       inkscape:connector-curvature="0"
       sodipodi:nodetypes="ccsssssccc" />
    <path
       style="fill:#ef9645;stroke:none;stroke-width:0.88121063px;stroke-linecap:butt;stroke-linejoin:miter;stroke-opacity:1;fill-opacity:1"
       d="m 865.11197,314.01033 c 0,0 24.17696,-71.36581 33.45049,-92.7722 9.27353,-21.40639 51.64541,-82.07749 64.49601,-75.02242 16.54373,10.9178 -15.56955,43.50546 -21.16637,56.44754 -5.59682,12.94208 -3.09043,23.44408 -3.09043,23.44408 20.37541,-2.72377 32.05281,-5.89326 38.9444,2.22537 6.89159,8.11863 0.8902,20.9187 0.8902,20.9187 13.95918,1.31352 21.36373,-3.37269 17.88175,23.11732 15.92338,7.0544 4.99548,22.83817 -2.48492,33.90727 -7.48042,11.0691 -18.48671,26.14068 -31.18178,10.59068 -5.90937,4.86413 -30.16135,48.28399 -51.25665,55.18129 z"
       id="path1049"
       inkscape:connector-curvature="0"
       sodipodi:nodetypes="czczczcczccc" />
    <path
       inkscape:connector-curvature="0"
       style="opacity:1;fill:#ffdc5d;stroke:none;stroke-width:0.88121063px;stroke-linecap:butt;stroke-linejoin:miter;stroke-opacity:1;fill-opacity:1"
       d="m 955.12518,147.45566 c -17.33394,9.68473 -48.73596,55.71695 -56.5625,73.78322 -9.27353,21.40639 -33.45117,92.77148 -33.45117,92.77148 l 35.47265,22.89844 c 14.13795,-4.49213 30.35584,11.32107 54.4666,-31.04161 24.11076,-42.36269 13.06553,-41.85934 -26.78574,-73.45052 -2.98959,-40.22176 39.0347,-76.24094 26.86016,-84.96101 z"
       id="path1156-6"
       sodipodi:nodetypes="cscczcc" />
    <path
       style="opacity:1;fill:#66757f;stroke:none;stroke-width:0.88121063px;stroke-linecap:butt;stroke-linejoin:miter;stroke-opacity:1;fill-opacity:1"
       d="m 909.17257,354.57989 c -8.8121,-30.21296 -34.61911,-37.7661 -52.2433,-44.06052 -4.3154,-1.54123 -57.61266,22.63101 -82.34169,31.27508 -24.72903,8.64407 -23.73155,21.53809 -34.52616,31.45264 -10.79461,9.91456 -26.25236,4.13792 -37.87989,10.84163 -11.62754,6.70371 -13.42585,20.67686 -27.40945,28.47711 -13.9836,7.80025 -21.10497,-1.61851 -52.05414,18.501 -18.83214,12.24244 -43.70876,33.24063 -78.02972,48.27923 -22.08291,9.67618 -56.36309,13.92535 -67.92775,21.62003 C 364.65592,579.05696 261.01812,545.72331 159.28571,575.27381 83.179676,596.94071 66.485971,682.41667 33.485091,648.99565 0.48421119,615.57463 291.81902,502.79369 350,532.41667 c -24.94133,-100 33.03158,-69.60475 69.45591,-122.66457 10.78183,-18.87779 0.66041,-57.6594 37.68784,-89.1312 C 440.66911,293.55513 423.96747,265.33785 348.40498,266.45882 272.84249,267.57979 240.38712,336.48676 201.8261,392.62649 153.6972,462.69576 32.421962,611.34727 17.36803,649.98829 2.314098,688.62931 8.79289,970.72314 0,1032.4167 l 344.25462,-0 L 455.2761,817.33073 894.51637,418.15871 Z"
       id="path1036"
       inkscape:connector-curvature="0"
       sodipodi:nodetypes="cszzzzsscczccczszccccc" />
    <path
       style="opacity:1;fill:#292f33;stroke:none;stroke-width:0.88121063px;stroke-linecap:butt;stroke-linejoin:miter;stroke-opacity:1;fill-opacity:1"
       d="m 863.05437,496.27795 c -23.26099,35.17454 -55.70366,17.43632 -78.8861,60.55144 -23.18244,43.11512 -41.1908,34.67821 -55.944,68.83329 -14.7532,34.1551 -66.81111,74.47487 -94.00387,76.12705 -27.19276,1.65218 -151.4239,100.87794 -155.97867,113.44705 -4.55477,12.56911 -5.87504,107.6343 -5.87504,218.60352 -106.79892,0 -50.45866,-1.4176 -128.11207,-1.4286 -15.14373,-66.46767 -33.40888,-139.89455 -39.87717,-175.15756 -6.46829,-35.26301 104.63707,-64.61979 143.22003,-94.82587 94.39495,-59.5828 123.80167,-117.25708 172.41702,-230.66736 50.67568,13.30337 -1.19344,108.10147 -8.19359,121.18292 93.10862,-104.11217 20.73738,-138.86491 42.23722,-158.60702 21.49984,-19.74211 31.56627,20.7662 62.39003,-4.0771 30.82376,-24.8433 -19.2882,-62.87371 -0.43079,-74.51873 18.8575,-11.64503 44.4256,31.12855 66.8606,14.54047 22.4349,-16.58806 -18.08343,-36.45644 -4.48753,-46.05144 13.5959,-9.595 59.16537,25.79585 75.27533,12.03249 10.81789,-9.24215 -0.15593,-36.34922 9.60317,-43.2502 9.75911,-6.90098 32.45021,1.55052 45.90363,1.56759 4.6685,25.84766 4.6217,52.17733 3.4618,72.17718 -4.7406,36.29867 -26.31901,34.34634 -49.58,69.52088 z"
       id="path1032"
       inkscape:connector-curvature="0"
       sodipodi:nodetypes="zzzzzcczccczzzzzszccz" />
    <path
       style="fill:#292f33;stroke:none;stroke-width:10;stroke-linecap:butt;stroke-linejoin:miter;stroke-miterlimit:4;stroke-dasharray:none;stroke-opacity:1;fill-opacity:1"
       d="m 150,1032.4167 h 50 c 0,-227.41672 0,-400.00003 100,-450.00003 -150,50 -100,250 -150,450.00003 z"
       id="path1151"
       inkscape:connector-curvature="0"
       sodipodi:nodetypes="cccc" />
  </g>
</svg>
