<?xml version="1.0" encoding="UTF-8" standalone="no"?>
<!-- Created with Inkscape (http://www.inkscape.org/) -->

<svg
   xmlns:dc="http://purl.org/dc/elements/1.1/"
   xmlns:cc="http://creativecommons.org/ns#"
   xmlns:rdf="http://www.w3.org/1999/02/22-rdf-syntax-ns#"
   xmlns:svg="http://www.w3.org/2000/svg"
   xmlns="http://www.w3.org/2000/svg"
   xmlns:sodipodi="http://sodipodi.sourceforge.net/DTD/sodipodi-0.dtd"
   xmlns:inkscape="http://www.inkscape.org/namespaces/inkscape"
   width="1000"
   height="1000"
   viewBox="0 0 1000 1000"
   version="1.1"
   id="svg8"
   inkscape:version="0.92.4 5da689c313, 2019-01-14"
   sodipodi:docname="emoji_u1f468_200d_1f91a.svg">
  <defs
     id="defs2" />
  <sodipodi:namedview
     id="base"
     pagecolor="#ffffff"
     bordercolor="#666666"
     borderopacity="1.0"
     inkscape:pageopacity="0.0"
     inkscape:pageshadow="2"
     inkscape:zoom="0.49497476"
     inkscape:cx="315.88297"
     inkscape:cy="511.83675"
     inkscape:document-units="px"
     inkscape:current-layer="layer1"
     showgrid="true"
     inkscape:window-width="1916"
     inkscape:window-height="1056"
     inkscape:window-x="0"
     inkscape:window-y="20"
     inkscape:window-maximized="1"
     units="px"
     gridtolerance="10"
     inkscape:snap-bbox="false"
     inkscape:bbox-paths="true"
     inkscape:bbox-nodes="true"
     inkscape:snap-bbox-edge-midpoints="true"
     inkscape:snap-bbox-midpoints="true"
     inkscape:object-paths="true"
     inkscape:snap-intersection-paths="true"
     inkscape:snap-smooth-nodes="true"
     inkscape:snap-midpoints="true"
     inkscape:snap-grids="true"
     inkscape:snap-nodes="true"
     inkscape:snap-others="false">
    <inkscape:grid
       type="xygrid"
       id="grid815"
       units="px"
       spacingx="50"
       spacingy="50" />
  </sodipodi:namedview>
  <metadata
     id="metadata5">
    <rdf:RDF>
      <cc:Work
         rdf:about="">
        <dc:format>image/svg+xml</dc:format>
        <dc:type
           rdf:resource="http://purl.org/dc/dcmitype/StillImage" />
        <dc:title></dc:title>
      </cc:Work>
    </rdf:RDF>
  </metadata>
  <g
     inkscape:label="Layer 1"
     inkscape:groupmode="layer"
     id="layer1"
     transform="translate(0,-32.416667)">
    <path
       style="fill:#ffdc5d;stroke-width:25.06500816"
       inkscape:connector-curvature="0"
       d="m 800.23199,338.07493 c -100.26004,0 -317.1225,-26.06761 -317.1225,-26.06761 0,0 -43.36246,47.69871 -68.42747,72.76372 -46.69611,46.69611 -42.63558,105.7994 -48.82664,179.51559 7.69496,204.88139 138.86015,368.12979 300.05322,368.12979 160.26567,0 290.9045,-161.41866 299.90283,-364.72094 -8.82288,-90.98599 -70.08176,-229.62055 -165.57944,-229.62055 z"
       id="path1132" />
    <path
       style="fill:#c1694f;stroke-width:25.06500816"
       inkscape:connector-curvature="0"
       d="m 665.9086,832.15639 c -58.82757,0 -89.60741,-29.07541 -92.91599,-32.40906 -9.80041,-9.80042 -9.80041,-25.6415 0,-35.44192 9.70016,-9.70016 25.39086,-9.77536 35.19128,-0.25065 1.27831,1.17805 20.20239,17.97161 57.72471,17.97161 38.07375,0 56.97277,-17.29486 57.77485,-18.02174 9.97587,-9.34925 25.74176,-9.07354 35.29153,0.72688 9.49964,9.85055 9.5247,25.34073 -0.15039,35.01582 -3.30858,3.33365 -34.08841,32.40906 -92.91599,32.40906 z m 25.06501,-125.32505 h -50.13002 c -13.83588,0 -25.06501,-11.20406 -25.06501,-25.06501 0,-13.86095 11.22913,-25.06501 25.06501,-25.06501 h 50.13002 c 13.86095,0 25.06501,11.20406 25.06501,25.06501 0,13.86095 -11.20406,25.06501 -25.06501,25.06501 z"
       id="path1134" />
    <path
       style="fill:#ffac33;stroke-width:25.06500816"
       inkscape:connector-curvature="0"
       d="m 665.85847,132.41653 c 205.6584,0 334.14163,151.74356 334.14163,278.19653 0,126.42791 -25.71669,177.05923 -51.40833,126.42791 -25.7167,-50.55612 -51.40833,-126.20232 -51.40833,-126.20232 0,0 -87.1761,56.47146 -155.47825,-25.54124 0,0 26.99501,151.74356 -127.25505,0 0,0 25.7167,101.18744 -128.5083,-25.26553 0,0 -77.12504,50.58118 -102.81667,177.00909 -7.11846,35.11608 -51.40833,0 -51.40833,-126.42791 -0.0251,-126.45297 102.7916,-278.19653 334.14163,-278.19653"
       id="path1138" />
    <path
       sodipodi:nodetypes="zzzzccczzz"
       inkscape:connector-curvature="0"
       id="path1223"
       d="m 585.72122,544.21391 c 8.81041,-38.00967 -64.36708,-62.16588 -117.97488,-33.56258 -53.60781,28.60329 -94.81161,102.96649 -105.93056,13.44253 -11.11894,-89.52395 40.59452,-211.27407 97.0504,-278.48815 56.45587,-67.21409 76.88767,-94.39974 8.35805,-63.9222 -65.23884,-76.6722 -72.93325,-69.01237 -108.4613,-62.20622 -22.09098,-7.2396 -31.42973,-31.565155 -96.38196,14.59845 C 56.820045,312.92209 -67.768453,728.02019 87.67196,794.18518 243.11237,860.35017 397.76502,683.90092 456.83053,631.60204 515.89604,579.30316 576.9108,582.22357 585.72122,544.21391 Z"
       style="opacity:1;vector-effect:none;fill:#ef9645;fill-opacity:1;stroke-width:21.8307209;stroke-linecap:butt;stroke-linejoin:miter;stroke-miterlimit:4;stroke-dasharray:none;stroke-dashoffset:0;stroke-opacity:1" />
    <path
       style="fill:#662113;stroke-width:25.06500816"
       inkscape:connector-curvature="0"
       d="m 540.58356,606.57131 c -13.83589,0 -25.06501,-11.20406 -25.06501,-25.06501 v -50.13002 c 0,-13.83589 11.22912,-25.06501 25.06501,-25.06501 13.83588,0 25.06501,11.22912 25.06501,25.06501 v 50.13002 c 0,13.86095 -11.22913,25.06501 -25.06501,25.06501 z m 250.65009,0 c -13.86095,0 -25.06501,-11.20406 -25.06501,-25.06501 v -50.13002 c 0,-13.83589 11.20406,-25.06501 25.06501,-25.06501 13.86095,0 25.06501,11.22912 25.06501,25.06501 v 50.13002 c 0,13.86095 -11.20406,25.06501 -25.06501,25.06501 z"
       id="path1136" />
    <path
       sodipodi:nodetypes="zzzzzczczzzz"
       inkscape:connector-curvature="0"
       id="path1230"
       d="m 545.72122,544.21391 c 8.81041,-38.00967 -64.36708,-62.16588 -117.97488,-33.56258 -53.60781,28.60329 -94.81161,102.96649 -105.93056,13.44253 -11.11894,-89.52395 40.59452,-211.27407 97.0504,-278.48815 56.45587,-67.21409 96.23756,-125.85953 8.89396,-96.41748 C 340.41654,178.63027 254.42933,357.91054 233.40762,391.32232 221.54617,334.33529 313.02986,232.78897 379.24389,165.50469 445.45793,98.220418 365.8629,115.10973 344.73274,124.07271 326.5173,105.09575 321.22351,72.391685 174.02262,209.79811 26.821727,347.20454 -71.022113,732.69194 87.67196,794.18518 246.36603,855.67842 353.75242,709.66202 402.71567,645.90583 451.67891,582.14964 536.9108,582.22357 545.72122,544.21391 Z"
       style="fill:#ffdc5d;stroke-width:21.8307209" />
  </g>
</svg>
