<?xml version="1.0" encoding="UTF-8" standalone="no"?>
<!-- Created with Inkscape (http://www.inkscape.org/) -->

<svg
   xmlns:dc="http://purl.org/dc/elements/1.1/"
   xmlns:cc="http://creativecommons.org/ns#"
   xmlns:rdf="http://www.w3.org/1999/02/22-rdf-syntax-ns#"
   xmlns:svg="http://www.w3.org/2000/svg"
   xmlns="http://www.w3.org/2000/svg"
   xmlns:sodipodi="http://sodipodi.sourceforge.net/DTD/sodipodi-0.dtd"
   xmlns:inkscape="http://www.inkscape.org/namespaces/inkscape"
   width="1000"
   height="1000"
   viewBox="0 0 1000 1000"
   version="1.1"
   id="svg8"
   inkscape:version="0.92.4 5da689c313, 2019-01-14"
   sodipodi:docname="platform_economy.svg">
  <defs
     id="defs2" />
  <sodipodi:namedview
     id="base"
     pagecolor="#ffffff"
     bordercolor="#666666"
     borderopacity="1.0"
     inkscape:pageopacity="0.0"
     inkscape:pageshadow="2"
     inkscape:zoom="0.35000001"
     inkscape:cx="67.43841"
     inkscape:cy="459.78506"
     inkscape:document-units="px"
     inkscape:current-layer="layer1"
     showgrid="true"
     inkscape:snap-bbox="true"
     inkscape:bbox-paths="true"
     inkscape:bbox-nodes="true"
     inkscape:snap-bbox-midpoints="true"
     inkscape:snap-page="true"
     inkscape:snap-bbox-edge-midpoints="true"
     inkscape:window-width="1916"
     inkscape:window-height="1056"
     inkscape:window-x="0"
     inkscape:window-y="20"
     inkscape:window-maximized="1"
     units="px"
     scale-x="1"
     inkscape:snap-object-midpoints="true"
     inkscape:snap-center="true"
     inkscape:snap-midpoints="true"
     inkscape:snap-smooth-nodes="true"
     inkscape:snap-intersection-paths="true"
     inkscape:object-paths="true"
     inkscape:snap-global="true"
     inkscape:snap-nodes="true"
     inkscape:snap-grids="false"
     inkscape:snap-others="true">
    <inkscape:grid
       type="xygrid"
       id="grid3713"
       spacingx="50"
       spacingy="50"
       visible="true"
       enabled="true"
       snapvisiblegridlinesonly="true" />
  </sodipodi:namedview>
  <metadata
     id="metadata5">
    <rdf:RDF>
      <cc:Work
         rdf:about="">
        <dc:format>image/svg+xml</dc:format>
        <dc:type
           rdf:resource="http://purl.org/dc/dcmitype/StillImage" />
        <dc:title></dc:title>
      </cc:Work>
    </rdf:RDF>
  </metadata>
  <g
     inkscape:label="Layer 1"
     inkscape:groupmode="layer"
     id="layer1"
     transform="translate(0,-32.416667)">
    <g
       id="g1643"
       transform="matrix(-0.90665412,0,0,0.90665412,1606.6811,-9.6615226)">
      <path
         id="path1541"
         d="m 863.58729,319.29538 c -107.38889,0 -194.44445,87.05555 -194.44445,194.44444 0,107.38889 87.05556,194.44445 194.44445,194.44445 107.38889,0 194.44441,-87.05556 194.44441,-194.44445 0,-107.38889 -87.02775,-194.44444 -194.44441,-194.44444 z m 0,333.33333 c -76.69445,0 -138.88889,-62.16667 -138.88889,-138.88889 0,-76.72222 62.19444,-138.88889 138.88889,-138.88889 76.69444,0 138.88891,62.16667 138.88891,138.88889 0,76.72222 -62.16669,138.88889 -138.88891,138.88889 z M 1474.6984,319.29538 c -107.3611,0 -194.4444,87.05555 -194.4444,194.44444 0,107.38889 87.0833,194.44445 194.4444,194.44445 107.4167,0 194.4444,-87.05556 194.4444,-194.44445 0,-107.38889 -87.0277,-194.44444 -194.4444,-194.44444 z m 0,333.33333 c -76.6944,0 -138.8889,-62.16667 -138.8889,-138.88889 0,-76.72222 62.1945,-138.88889 138.8889,-138.88889 76.7222,0 138.8889,62.16667 138.8889,138.88889 0,76.72222 -62.1667,138.88889 -138.8889,138.88889 z"
         inkscape:connector-curvature="0"
         style="fill:#ff6600;stroke-width:27.77777863" />
      <path
         id="path1543"
         d="m 1502.4762,513.73982 c 0,-15.36111 -12.4167,-27.77778 -27.7778,-27.77778 h -305.5556 c -15.3333,0 -27.7777,12.41667 -27.7777,27.77778 0,15.36111 12.4444,27.77778 27.7777,27.77778 h 305.5556 c 15.3611,0 27.7778,-12.41667 27.7778,-27.77778 z"
         style="fill:#aab8c2;stroke-width:27.77777863"
         inkscape:connector-curvature="0" />
      <path
         inkscape:connector-curvature="0"
         d="m 1258.6984,180.40649 -115.7222,324 c -5.1389,14.41667 2.3889,30.33333 16.8333,35.47222 3.0833,1.11111 6.2222,1.63889 9.3333,1.63889 11.4167,0 22.1112,-7.08333 26.1667,-18.44444 l 122.3889,-342.66667 z"
         id="path1545"
         style="fill:#aab8c2;stroke-width:27.77777863" />
      <path
         id="path1613"
         d="m 1474.7262,541.5176 c -9.1667,0 -18.1667,-4.55556 -23.4722,-12.86111 L 1256.8095,223.10093 c -8.25,-12.94444 -4.4167,-30.11111 8.5278,-38.36111 12.9722,-8.25 30.1111,-4.41667 38.3611,8.52778 l 194.4444,305.55556 c 8.25,12.94444 4.4167,30.11111 -8.5277,38.36111 -4.6389,2.91666 -9.7778,4.33333 -14.8889,4.33333 z"
         style="fill:#aab8c2;stroke-width:27.77777863"
         inkscape:connector-curvature="0" />
      <path
         id="path1621"
         d="m 1384.9485,203.26759 c -0.8334,0 -1.6389,-0.0556 -2.4723,-0.16666 l -157.5555,-19.66667 c -10.3334,-1.27778 -17.8889,-10.38889 -17.2222,-20.77778 0.6388,-10.38889 9.25,-18.47222 19.6388,-18.47222 1.1389,0 112.9723,-0.5 166.3612,-36.08334 6.9444,-4.63888 16.1666,-4.36111 22.8888,0.72223 6.6389,5.13889 9.3612,13.91666 6.6945,21.88889 l -19.6945,59.08333 c -2.6666,8.13889 -10.25,13.47222 -18.6388,13.47222 z"
         style="fill:#292f33;stroke-width:27.77777863"
         inkscape:connector-curvature="0" />
      <path
         inkscape:connector-curvature="0"
         style="fill:#aab8c2;stroke-width:27.77777863"
         d="m 1169.1428,541.5176 c -9.1667,0 -18.1667,-4.55556 -23.4722,-12.86111 L 951.2261,223.10093 c -8.25,-12.94444 -4.4167,-30.11111 8.5278,-38.36111 12.9722,-8.25 30.1111,-4.41667 38.3611,8.52778 l 194.4444,305.55556 c 8.25,12.94444 4.4167,30.11111 -8.5277,38.36111 -4.6389,2.91666 -9.7778,4.33333 -14.8889,4.33333 z"
         id="path1615" />
      <path
         id="path1617"
         d="m 858.64299,538.44123 c 8.94941,-1.98404 16.75007,-8.37956 20.13216,-17.63657 L 1002.4762,180.40649 c 5.2528,-14.42324 -2.2052,-30.35331 -16.6285,-35.60604 -14.45029,-5.24675 -30.35327,2.20525 -35.60604,16.62849 L 826.54068,501.82709 c -5.25275,14.42324 2.20524,30.35331 16.62843,35.60607 5.16022,1.84349 10.48393,2.11431 15.47388,1.00807 z"
         style="fill:#aab8c2;stroke-width:27.77777863"
         inkscape:connector-curvature="0" />
      <path
         inkscape:connector-curvature="0"
         id="path1553"
         d="M 959.7539,184.73982 853.35884,95.46377 c -11.74603,-9.85609 -13.27989,-27.388212 -3.42382,-39.134228 9.85609,-11.74602 27.38822,-13.279877 39.13424,-3.423803 l 106.39505,89.276051 c 11.74599,9.85609 13.27989,27.38822 3.42383,39.13424 -9.85608,11.74602 -27.38823,13.27987 -39.13424,3.42379 z"
         style="fill:#292f33;stroke-width:27.77777863" />
    </g>
    <g
       id="g4740"
       transform="matrix(0.85829812,0,0,0.85829812,141.24545,68.359349)">
      <path
         inkscape:connector-curvature="0"
         id="path818"
         d="M 983.38311,588.05276 864.07642,494.84441 H 516.09858 v 347.97784 l 121.79224,94.45113 h 345.49229 z"
         style="opacity:1;vector-effect:none;fill:#231f20;fill-opacity:1;stroke:none;stroke-width:1;stroke-linecap:butt;stroke-linejoin:miter;stroke-miterlimit:4;stroke-dasharray:none;stroke-dashoffset:0;stroke-opacity:1"
         sodipodi:nodetypes="ccccccc" />
      <rect
         transform="scale(-1,1)"
         ry="42.609531"
         rx="42.609531"
         style="opacity:1;vector-effect:none;fill:#231f20;fill-opacity:1;stroke:none;stroke-width:1;stroke-linecap:butt;stroke-linejoin:miter;stroke-miterlimit:4;stroke-dasharray:none;stroke-dashoffset:0;stroke-opacity:1;paint-order:normal"
         id="rect1669"
         width="372.8334"
         height="372.8334"
         x="-876.50421"
         y="482.41666" />
      <rect
         transform="scale(-1,1)"
         y="575.62183"
         x="-996.77893"
         height="372.8334"
         width="372.8334"
         id="rect816"
         style="opacity:1;vector-effect:none;fill:#00ffff;fill-opacity:1;stroke:#000000;stroke-width:0;stroke-linecap:butt;stroke-linejoin:miter;stroke-miterlimit:4;stroke-dasharray:none;stroke-dashoffset:0;stroke-opacity:1;paint-order:normal"
         rx="42.609531"
         ry="42.609531" />
      <path
         sodipodi:nodetypes="cccczc"
         inkscape:connector-curvature="0"
         id="path1685"
         d="m 618.29163,922.07401 -34.04169,-26.39969 c -224.79872,-5.11961 -85.9465,-278.19146 39.69562,-320.0525 l -30.39714,-23.87864 c 0,0 -151.5592,68.16618 -159.22908,189.16016 -7.66988,120.99398 31.29752,160.2717 183.97229,181.17067 z"
         style="opacity:1;vector-effect:none;fill:#231f20;fill-opacity:1;stroke:none;stroke-width:1;stroke-linecap:butt;stroke-linejoin:miter;stroke-miterlimit:4;stroke-dasharray:none;stroke-dashoffset:0;stroke-opacity:1" />
      <path
         style="opacity:1;vector-effect:none;fill:#231f20;fill-opacity:1;stroke:none;stroke-width:1;stroke-linecap:butt;stroke-linejoin:miter;stroke-miterlimit:4;stroke-dasharray:none;stroke-dashoffset:0;stroke-opacity:1"
         d="M 551.27038,869.69978 517.22869,843.30009 C 299.19896,825.80798 447.16518,581.49216 560.93277,523.11696 L 536.1849,502.37679 c 0,0 -143.00991,98.06278 -157.21311,205.4743 -5.31485,103.4352 27.57032,157.00835 172.29859,161.84869 z"
         id="path1687"
         inkscape:connector-curvature="0"
         sodipodi:nodetypes="cccccc" />
    </g>
    <circle
       style="fill:#292f33;stroke-width:16.66666794"
       cx="75"
       cy="957.41669"
       r="75"
       id="circle1050" />
    <circle
       style="opacity:1;vector-effect:none;fill:#99aab5;fill-opacity:1;stroke-width:16.66666794;stroke-linecap:butt;stroke-linejoin:miter;stroke-miterlimit:4;stroke-dasharray:none;stroke-dashoffset:0;stroke-opacity:1"
       cx="75"
       cy="957.41669"
       r="36"
       id="circle1052" />
    <circle
       style="fill:#292f33;stroke-width:16.66666794"
       cx="525"
       cy="957.41669"
       r="75"
       id="circle1054" />
    <circle
       style="opacity:1;vector-effect:none;fill:#99aab5;fill-opacity:1;stroke-width:16.66666794;stroke-linecap:butt;stroke-linejoin:miter;stroke-miterlimit:4;stroke-dasharray:none;stroke-dashoffset:0;stroke-opacity:1"
       cx="525"
       cy="957.41669"
       r="36"
       id="circle1052-3" />
    <path
       inkscape:connector-curvature="0"
       style="opacity:1;vector-effect:none;fill:#292f33;fill-opacity:1;stroke-width:16.66666794;stroke-linecap:butt;stroke-linejoin:miter;stroke-miterlimit:4;stroke-dasharray:none;stroke-dashoffset:0;stroke-opacity:1"
       d="m 191.66602,932.41667 c -13.74999,0 -25,11.25001 -25,25 0,13.75001 11.25001,25 25,25 v 30.00003 h 240 V 982.41667 H 525 c 13.75001,0 25,-11.24999 25,-25 0,-13.74999 -11.24999,-25 -25,-25 z"
       id="path1058" />
    <path
       style="opacity:1;vector-effect:none;fill:#292f33;fill-opacity:1;stroke-width:16.66666794;stroke-linecap:butt;stroke-linejoin:miter;stroke-miterlimit:4;stroke-dasharray:none;stroke-dashoffset:0;stroke-opacity:1"
       inkscape:connector-curvature="0"
       d="m 433.53334,961.51664 c -0.05,-1.36667 -0.20001,-2.71667 -0.20001,-4.10001 0,-50.63333 41.03334,-91.66667 91.66667,-91.66667 20.16667,0 38.76667,6.6 53.9,17.63334 l 14.83334,-20.08333 c -19.3,-14.11667 -43,-22.55 -68.75001,-22.55 -64.43333,0 -116.66666,52.23333 -116.66666,116.66666 0,1.70001 0.18333,3.35001 0.24999,5.03334 z M 93.816672,867.69996 C 135.4,876.36664 166.63333,913.19997 166.66667,957.3333 L 225,957.38334 C 224.98332,885.05001 173.76667,824.68334 105.61667,810.55 101.75,829.38334 97.683336,849.05001 93.816672,867.7 Z"
       id="path1060" />
    <path
       style="opacity:1;vector-effect:none;fill:#292f33;fill-opacity:1;stroke-width:12.35424042;stroke-linecap:butt;stroke-linejoin:miter;stroke-miterlimit:4;stroke-dasharray:none;stroke-dashoffset:0;stroke-opacity:1"
       d="m 131.60387,667.96977 c -8.60203,-0.0576 -16.40895,5.95147 -18.25745,14.6751 -19.317672,90.74714 -38.609496,181.49786 -57.892548,272.25115 -1.42074,6.64658 2.866956,13.24414 9.513528,14.65252 l 12.0813,2.56948 c 6.646584,1.40838 13.243932,-2.87911 14.664672,-9.52569 19.258258,-90.75324 38.579228,-181.49314 57.880388,-272.23726 2.12493,-9.96987 -4.30044,-19.85384 -14.2703,-21.97877 -1.24624,-0.26562 -2.49073,-0.3983 -3.71959,-0.40653 z"
       id="path1187"
       inkscape:connector-curvature="0"
       sodipodi:nodetypes="sccccccss" />
    <path
       sodipodi:nodetypes="sccccccss"
       inkscape:connector-curvature="0"
       id="path1064"
       d="m 175.64766,459.78461 c -11.6047,-0.0778 -22.13672,8.02891 -24.63047,19.79766 -26.06078,122.42375 -52.086706,244.85232 -78.100786,367.28437 -1.916664,8.96667 3.867708,17.86719 12.834372,19.7672 l 16.298444,3.4664 c 8.96667,1.9 17.86692,-3.88411 19.78359,-12.85079 25.98063,-122.43197 52.04588,-244.84595 78.08438,-367.26561 2.86667,-13.45001 -5.80157,-26.78412 -19.25156,-29.65079 -1.68125,-0.35833 -3.36016,-0.53734 -5.01797,-0.54844 z"
       style="opacity:1;vector-effect:none;fill:#ccff00;fill-opacity:1;stroke-width:16.66666794;stroke-linecap:butt;stroke-linejoin:miter;stroke-miterlimit:4;stroke-dasharray:none;stroke-dashoffset:0;stroke-opacity:1" />
    <path
       sodipodi:nodetypes="cccccccc"
       inkscape:connector-curvature="0"
       id="path1066"
       d="m 127.76484,448.09164 c -11.60468,-0.0666 -22.13671,8.04063 -24.63047,19.80938 -2.86667,13.45 5.79922,26.78176 19.24923,29.64843 37.56636,7.98583 75.13189,15.96733 112.69921,23.95079 13.45001,2.86667 26.80079,-5.79922 29.65079,-19.24922 2.86666,-13.45 -5.79922,-26.78411 -19.24923,-29.65078 -37.58708,-7.97039 -75.14262,-15.98017 -112.70156,-23.96719 -1.68125,-0.35625 -3.36016,-0.5319 -5.01797,-0.54141 z"
       style="opacity:1;vector-effect:none;fill:#292f33;fill-opacity:1;stroke-width:16.66666794;stroke-linecap:butt;stroke-linejoin:miter;stroke-miterlimit:4;stroke-dasharray:none;stroke-dashoffset:0;stroke-opacity:1" />
    <path
       style="opacity:1;vector-effect:none;fill:#292f33;fill-opacity:1;stroke-width:16.66666794;stroke-linecap:butt;stroke-linejoin:miter;stroke-miterlimit:4;stroke-dasharray:none;stroke-dashoffset:0;stroke-opacity:1"
       inkscape:connector-curvature="0"
       d="m 265.05,502.31663 c -2.86667,13.5 -16.15,22.13334 -29.65,19.25001 -13.5,-2.86667 -22.13334,-16.15001 -19.25,-29.65001 2.86667,-13.5 16.15,-22.13333 29.65,-19.24999 13.50001,2.88332 22.13334,16.13332 19.25,29.64999 z"
       id="path1072" />
    <path
       id="path4758"
       style="fill:#ff0000;stroke:none;stroke-width:1px;stroke-linecap:butt;stroke-linejoin:miter;stroke-opacity:1"
       d="M 611.42857,932.41667 626.26191,912.33334 593.73334,863.29997 578.9,883.3833 Z"
       inkscape:connector-curvature="0"
       sodipodi:nodetypes="ccccc" />
  </g>
</svg>
