<?xml version="1.0" encoding="UTF-8" standalone="no"?>
<!-- Created with Inkscape (http://www.inkscape.org/) -->

<svg
   xmlns:dc="http://purl.org/dc/elements/1.1/"
   xmlns:cc="http://creativecommons.org/ns#"
   xmlns:rdf="http://www.w3.org/1999/02/22-rdf-syntax-ns#"
   xmlns:svg="http://www.w3.org/2000/svg"
   xmlns="http://www.w3.org/2000/svg"
   xmlns:sodipodi="http://sodipodi.sourceforge.net/DTD/sodipodi-0.dtd"
   xmlns:inkscape="http://www.inkscape.org/namespaces/inkscape"
   width="1000"
   height="1000"
   viewBox="0 0 1000 1000"
   version="1.1"
   id="svg8"
   inkscape:version="0.92.4 5da689c313, 2019-01-14"
   sodipodi:docname="emoji_u1f468_1f3fc_200d_1f6ab.svg">
  <defs
     id="defs2" />
  <sodipodi:namedview
     id="base"
     pagecolor="#ffffff"
     bordercolor="#666666"
     borderopacity="1.0"
     inkscape:pageopacity="0.0"
     inkscape:pageshadow="2"
     inkscape:zoom="0.35000001"
     inkscape:cx="303.56754"
     inkscape:cy="28.220036"
     inkscape:document-units="px"
     inkscape:current-layer="layer1"
     showgrid="true"
     inkscape:window-width="1916"
     inkscape:window-height="1056"
     inkscape:window-x="0"
     inkscape:window-y="20"
     inkscape:window-maximized="1"
     units="px"
     gridtolerance="10"
     inkscape:snap-bbox="true"
     inkscape:bbox-paths="true"
     inkscape:bbox-nodes="true"
     inkscape:snap-bbox-edge-midpoints="true"
     inkscape:snap-bbox-midpoints="true"
     inkscape:object-paths="true"
     inkscape:snap-intersection-paths="true"
     inkscape:snap-smooth-nodes="true"
     inkscape:snap-midpoints="true">
    <inkscape:grid
       type="xygrid"
       id="grid815"
       units="px"
       spacingx="50"
       spacingy="50" />
  </sodipodi:namedview>
  <metadata
     id="metadata5">
    <rdf:RDF>
      <cc:Work
         rdf:about="">
        <dc:format>image/svg+xml</dc:format>
        <dc:type
           rdf:resource="http://purl.org/dc/dcmitype/StillImage" />
        <dc:title></dc:title>
      </cc:Work>
    </rdf:RDF>
  </metadata>
  <g
     inkscape:label="Layer 1"
     inkscape:groupmode="layer"
     id="layer1"
     transform="translate(0,-32.416667)">
    <g
       id="g5599"
       transform="matrix(20.833333,0,0,20.833333,-10697.972,-9487.048)">
      <g
         transform="translate(529.50266,468.93431)"
         id="g5563">
        <path
           style="fill:#f2760f"
           inkscape:connector-curvature="0"
           d="m 32,36 v -2 c 0,-3.314 -2.685,-6 -6,-6 H 10 c -3.313,0 -6,2.686 -6,6 v 2 z"
           id="path5510" />
        <path
           style="fill:#292f33"
           inkscape:connector-curvature="0"
           d="m 13,27 h 10 v 4 H 13 Z"
           id="path5512" />
        <path
           style="fill:#292f33"
           inkscape:connector-curvature="0"
           d="m 14,27 h 8 c 0,0 -1.018,7 -4,7 -2.982,0 -4,-7 -4,-7"
           id="path5514" />
        <path
           style="fill:#7c533e"
           inkscape:connector-curvature="0"
           d="m 13.64,30.038 c 1.745,1.268 2.849,1.963 4.36,1.963 1.511,0 2.615,-0.696 4.359,-1.963 v -5.749 h -8.72 v 5.749 z"
           id="path5516" />
        <path
           style="fill:#664131"
           inkscape:connector-curvature="0"
           d="m 13.632,25.973 c 1.216,1.374 2.724,1.746 4.364,1.746 1.639,0 3.146,-0.373 4.363,-1.746 v -3.491 h -8.728 v 3.491 z"
           id="path5518" />
        <path
           style="fill:#7c533e"
           inkscape:connector-curvature="0"
           d="m 27.834,15.935 c 0,-1.448 -0.734,-2.623 -1.639,-2.623 -0.082,0 -0.161,0.02 -0.24,0.039 C 24.73,9.546 21.635,6.839 18,6.839 c -3.635,0 -6.729,2.707 -7.955,6.512 -0.079,-0.019 -0.158,-0.039 -0.24,-0.039 -0.905,0 -1.639,1.175 -1.639,2.623 0,1.33 0.621,2.417 1.423,2.587 0.634,4.845 4.153,8.557 8.411,8.557 4.258,0 7.777,-3.712 8.411,-8.557 0.802,-0.17 1.423,-1.257 1.423,-2.587 z"
           id="path5520" />
        <path
           style="fill:#3d2e24"
           inkscape:connector-curvature="0"
           d="m 18,23.802 c -2.754,0 -3.6,-0.705 -3.74,-0.848 -0.257,-0.256 -0.257,-0.671 0,-0.927 0.248,-0.248 0.644,-0.255 0.902,-0.023 0.051,0.037 0.721,0.487 2.838,0.487 2.201,0 2.836,-0.485 2.842,-0.49 0.256,-0.255 0.658,-0.243 0.914,0.015 0.256,0.256 0.242,0.683 -0.014,0.938 C 21.6,23.097 20.754,23.802 18,23.802"
           id="path5522" />
        <path
           style="fill:#0b0200"
           inkscape:connector-curvature="0"
           d="m 18,3.48 c 5.648,0 9.178,4.168 9.178,7.641 0,3.473 -0.705,4.863 -1.412,3.473 l -1.412,-2.778 c 0,0 -4.234,0 -5.646,-1.39 0,0 2.117,4.168 -2.119,0 0,0 0.707,2.779 -3.53,-0.694 0,0 -2.118,1.389 -2.824,4.862 -0.196,0.964 -1.412,0 -1.412,-3.473 C 8.822,7.648 11.646,3.48 18,3.48"
           id="path5524" />
        <path
           inkscape:connector-curvature="0"
           d="m 14,17 c -0.55,0 -1,-0.45 -1,-1 v -1 c 0,-0.55 0.45,-1 1,-1 0.551,0 1,0.45 1,1 v 1 c 0,0.55 -0.449,1 -1,1 m 8,0 c -0.549,0 -1,-0.45 -1,-1 v -1 c 0,-0.55 0.451,-1 1,-1 0.551,0 1,0.45 1,1 v 1 c 0,0.55 -0.449,1 -1,1"
           id="path5526" />
        <path
           style="fill:#3d2e24"
           inkscape:connector-curvature="0"
           d="m 18.75,19.75 h -1.5 c -0.412,0 -0.75,-0.337 -0.75,-0.75 0,-0.413 0.338,-0.75 0.75,-0.75 h 1.5 c 0.414,0 0.75,0.337 0.75,0.75 0,0.413 -0.336,0.75 -0.75,0.75"
           id="path5528" />
        <path
           style="fill:#292f33"
           inkscape:connector-curvature="0"
           d="m 19,34.938 -1,1.061 -1,-1 v -3 h 2 z"
           id="path5530" />
        <path
           style="fill:#fff75f"
           inkscape:connector-curvature="0"
           d="m 9,28 h 3 v 8 H 9 Z m 15,0 h 3 v 8 h -3 z"
           id="path5532" />
        <path
           style="fill:#55acee"
           inkscape:connector-curvature="0"
           d="m 11,28 c 0,1 1,3 3,5 1.582,1.581 4,3 4,3 0,-3.063 -1,-4 -2,-5 -1,-1 -3,-2 -3,-4 0,-1 -2,1 -2,1 m 14,0 c 0,1 -1,3 -3,5 -1.58,1.581 -4,3 -4,3 0,-3.063 1,-4 2,-5 1,-1 3,-2 3,-4 0,-1 2,1 2,1"
           id="path5534" />
        <path
           style="fill:#fff75f"
           inkscape:connector-curvature="0"
           d="M 30,11 C 27,9 28.992,6.831 27,4 25.127,1.337 22,0 17.998,0 13,0 10.874,1.337 9,4 7.008,6.831 9,9 6,11 c -1.861,1.24 6,2.313 12,2.313 6,0 13.861,-1.073 12,-2.313"
           id="path5536" />
        <path
           style="fill:#ffac33"
           inkscape:connector-curvature="0"
           d="M 16,11.5 V 0.088 C 15.65,0.12 15.317,0.162 15,0.212 V 10.493 C 12.91,10.443 9.876,10.097 7.347,9.64 7.173,9.937 6.937,10.23 6.617,10.517 9.527,11.083 13.213,11.5 15.5,11.5 Z M 28.855,9.947 C 26.002,10.251 23.016,10.464 21,10.496 V 0.292 C 20.677,0.226 20.34,0.18 20,0.137 V 11.5 h 0.5 c 2.018,0 5.796,-0.261 9.289,-0.657 -0.402,-0.295 -0.708,-0.593 -0.934,-0.896 z"
           id="path5538" />
      </g>
    </g>
    <g
       id="g3471"
       transform="matrix(26.071842,0,0,26.071842,-39455.839,-25965.877)">
      <g
         transform="translate(1509.3506,999.53453)"
         id="g3452">
        <path
           style="fill:#292f33"
           inkscape:connector-curvature="0"
           d="m 32,36 v -4 c 0,-3.314 -2.685,-6 -6,-6 H 10 c -3.313,0 -6,2.686 -6,6 v 4 z"
           id="path3396" />
        <path
           style="fill:#546170"
           inkscape:connector-curvature="0"
           d="M 22.5,30.003 26.792,29.087 24.879,26 22.5,26.003 Z"
           id="path3398" />
        <path
           style="fill:#66757f"
           inkscape:connector-curvature="0"
           d="m 20.58,36 h 2.83 l 4.382,-7.667 -2.913,0.924 -1.744,-2.204 z"
           id="path3400" />
        <path
           style="fill:#546170"
           inkscape:connector-curvature="0"
           d="M 13.5,30.003 9.208,29.087 11.12,26 13.5,26.003 Z"
           id="path3402" />
        <path
           style="fill:#66757f"
           inkscape:connector-curvature="0"
           d="m 15.42,36 h -2.83 l -4.382,-7.667 2.912,0.924 1.745,-2.204 z"
           id="path3404" />
        <path
           style="fill:#dfe7ec"
           inkscape:connector-curvature="0"
           d="M 20.805,36 23.667,25.983 H 12.333 L 15.195,36 Z"
           id="path3406" />
        <circle
           style="fill:#292f33"
           cx="18"
           cy="31.847"
           r="0.69999999"
           id="circle3408" />
        <circle
           style="fill:#292f33"
           cx="18"
           cy="34.703999"
           r="0.69999999"
           id="circle3410" />
        <path
           style="fill:#f3d2a2"
           inkscape:connector-curvature="0"
           d="m 14,25.887 4,1.75 4,-1.75 v -4 h -8 z"
           id="path3412" />
        <path
           style="fill:#e2c196"
           inkscape:connector-curvature="0"
           d="m 14,24 c 1.216,1.374 2.355,1.719 3.996,1.719 1.639,0 2.787,-0.346 4.004,-1.719 v -4 h -8 z"
           id="path3414" />
        <path
           style="fill:#f3d2a2"
           inkscape:connector-curvature="0"
           d="m 27.833,13.935 c 0,-1.448 -0.733,-2.623 -1.639,-2.623 -0.082,0 -0.161,0.02 -0.24,0.039 C 24.73,7.546 21.635,4.839 18,4.839 c -3.635,0 -6.729,2.707 -7.955,6.512 -0.079,-0.019 -0.158,-0.039 -0.24,-0.039 -0.905,0 -1.639,1.175 -1.639,2.623 0,1.33 0.621,2.417 1.423,2.587 0.634,4.845 4.153,8.557 8.411,8.557 4.258,0 7.776,-3.712 8.411,-8.557 0.802,-0.17 1.422,-1.257 1.422,-2.587 z"
           id="path3416" />
        <path
           style="fill:#f4f7f9"
           inkscape:connector-curvature="0"
           d="M 13.927,24.744 18,27.637 15.344,30.455 12.333,25.983 Z m 8.146,0 -4.073,2.893 2.656,2.818 3.011,-4.472 z"
           id="path3418" />
        <path
           style="fill:#292f33"
           inkscape:connector-curvature="0"
           d="M 21.045,26.653 C 20.973,26.61 20.886,26.61 20.814,26.65 L 18,28.197 15.186,26.65 c -0.072,-0.04 -0.159,-0.039 -0.231,0.003 -0.071,0.042 -0.115,0.119 -0.115,0.201 v 3.218 c 0,0.082 0.044,0.159 0.115,0.201 0.037,0.021 0.078,0.032 0.119,0.032 0.039,0 0.077,-0.01 0.112,-0.029 L 18,28.728 l 2.814,1.548 c 0.035,0.02 0.073,0.029 0.112,0.029 0.041,0 0.082,-0.011 0.119,-0.032 0.07,-0.042 0.114,-0.119 0.114,-0.201 v -3.218 c 0,-0.082 -0.044,-0.159 -0.114,-0.201 z"
           id="path3420" />
        <path
           style="fill:#c1694f"
           inkscape:connector-curvature="0"
           d="m 18,21.802 c -2.754,0 -3.6,-0.705 -3.741,-0.848 -0.256,-0.256 -0.256,-0.671 0,-0.927 0.248,-0.248 0.646,-0.255 0.902,-0.023 0.052,0.037 0.721,0.487 2.839,0.487 2.2,0 2.836,-0.485 2.842,-0.49 0.256,-0.255 0.657,-0.243 0.913,0.015 0.256,0.256 0.242,0.683 -0.014,0.938 C 21.6,21.097 20.754,21.802 18,21.802 m 0.75,-4.052 h -1.5 c -0.413,0 -0.75,-0.337 -0.75,-0.75 0,-0.413 0.337,-0.75 0.75,-0.75 h 1.5 c 0.413,0 0.75,0.337 0.75,0.75 0,0.413 -0.337,0.75 -0.75,0.75"
           id="path3422" />
        <path
           style="fill:#662113"
           inkscape:connector-curvature="0"
           d="m 22,15 c -0.55,0 -1,-0.45 -1,-1 v -1 c 0,-0.55 0.45,-1 1,-1 0.55,0 1,0.45 1,1 v 1 c 0,0.55 -0.45,1 -1,1 m -8,0 c -0.55,0 -1,-0.45 -1,-1 v -1 c 0,-0.55 0.45,-1 1,-1 0.55,0 1,0.45 1,1 v 1 c 0,0.55 -0.45,1 -1,1"
           id="path3424" />
        <path
           style="fill:#ffe51e"
           inkscape:connector-curvature="0"
           d="m 18,1.48 c 5.648,0 9.178,4.168 9.178,7.641 0,3.473 -0.706,4.863 -1.412,3.473 L 24.354,9.816 c 0,0 -4.235,0 -5.647,-1.39 0,0 2.118,4.168 -2.118,0 0,0 0.706,2.779 -3.53,-0.694 0,0 -2.118,1.389 -2.824,4.862 -0.196,0.964 -1.412,0 -1.412,-3.473 C 8.822,5.648 11.646,1.48 18,1.48"
           id="path3426" />
      </g>
    </g>
  </g>
</svg>
