<?xml version="1.0" encoding="UTF-8" standalone="no"?>
<!-- Created with Inkscape (http://www.inkscape.org/) -->

<svg
   xmlns:osb="http://www.openswatchbook.org/uri/2009/osb"
   xmlns:dc="http://purl.org/dc/elements/1.1/"
   xmlns:cc="http://creativecommons.org/ns#"
   xmlns:rdf="http://www.w3.org/1999/02/22-rdf-syntax-ns#"
   xmlns:svg="http://www.w3.org/2000/svg"
   xmlns="http://www.w3.org/2000/svg"
   xmlns:xlink="http://www.w3.org/1999/xlink"
   xmlns:sodipodi="http://sodipodi.sourceforge.net/DTD/sodipodi-0.dtd"
   xmlns:inkscape="http://www.inkscape.org/namespaces/inkscape"
   width="1000"
   height="1000"
   viewBox="0 0 1000 1000"
   version="1.1"
   id="svg8"
   inkscape:version="0.92.4 5da689c313, 2019-01-14"
   sodipodi:docname="svickova.svg">
  <defs
     id="defs2">
    <linearGradient
       id="linearGradient1039"
       osb:paint="solid">
      <stop
         style="stop-color:#ef9645;stop-opacity:1;"
         offset="0"
         id="stop1037" />
    </linearGradient>
    <linearGradient
       gradientTransform="translate(-437.12017,141.1074)"
       inkscape:collect="always"
       xlink:href="#linearGradient1039"
       id="linearGradient1041-6"
       x1="437.11978"
       y1="-109.15615"
       x2="477.7197"
       y2="-109.15615"
       gradientUnits="userSpaceOnUse" />
    <linearGradient
       gradientTransform="translate(-837.91967,-465.58567)"
       inkscape:collect="always"
       xlink:href="#linearGradient1039"
       id="linearGradient1041-9"
       x1="437.11978"
       y1="-109.15615"
       x2="477.7197"
       y2="-109.15615"
       gradientUnits="userSpaceOnUse" />
    <linearGradient
       gradientTransform="translate(-756.34925,-464.76061)"
       inkscape:collect="always"
       xlink:href="#linearGradient1039"
       id="linearGradient1041-2"
       x1="437.11978"
       y1="-109.15615"
       x2="477.7197"
       y2="-109.15615"
       gradientUnits="userSpaceOnUse" />
  </defs>
  <sodipodi:namedview
     id="base"
     pagecolor="#ffffff"
     bordercolor="#666666"
     borderopacity="1.0"
     inkscape:pageopacity="0.0"
     inkscape:pageshadow="2"
     inkscape:zoom="0.70000002"
     inkscape:cx="831.02046"
     inkscape:cy="379.81918"
     inkscape:document-units="px"
     inkscape:current-layer="layer1"
     showgrid="true"
     inkscape:snap-bbox="true"
     inkscape:bbox-paths="true"
     inkscape:bbox-nodes="true"
     inkscape:snap-bbox-midpoints="true"
     inkscape:snap-page="true"
     inkscape:snap-bbox-edge-midpoints="true"
     inkscape:window-width="1916"
     inkscape:window-height="1056"
     inkscape:window-x="0"
     inkscape:window-y="20"
     inkscape:window-maximized="1"
     units="px"
     scale-x="1"
     inkscape:snap-global="true"
     inkscape:snap-grids="false"
     inkscape:object-paths="true"
     inkscape:object-nodes="true"
     inkscape:snap-intersection-paths="true"
     inkscape:snap-smooth-nodes="true"
     inkscape:snap-midpoints="true"
     inkscape:snap-nodes="true">
    <inkscape:grid
       type="xygrid"
       id="grid3713"
       spacingx="50"
       spacingy="50"
       visible="true"
       enabled="true"
       snapvisiblegridlinesonly="true" />
  </sodipodi:namedview>
  <metadata
     id="metadata5">
    <rdf:RDF>
      <cc:Work
         rdf:about="">
        <dc:format>image/svg+xml</dc:format>
        <dc:type
           rdf:resource="http://purl.org/dc/dcmitype/StillImage" />
        <dc:title></dc:title>
      </cc:Work>
    </rdf:RDF>
  </metadata>
  <g
     inkscape:label="Layer 1"
     inkscape:groupmode="layer"
     id="layer1"
     transform="translate(0,-32.416667)">
    <ellipse
       style="fill:#939598;stroke-width:27.77777863"
       cx="500"
       cy="699.15875"
       rx="500"
       ry="277.77777"
       id="ellipse1158" />
    <ellipse
       style="fill:#f1f2f2;stroke-width:27.77777863"
       cx="500"
       cy="643.60321"
       rx="500"
       ry="277.77777"
       id="ellipse1160" />
    <ellipse
       style="opacity:1;vector-effect:none;fill:#ffe8b6;fill-opacity:1;stroke:none;stroke-width:29.37978363;stroke-linecap:butt;stroke-linejoin:miter;stroke-miterlimit:4;stroke-dasharray:none;stroke-dashoffset:0;stroke-opacity:1;paint-order:normal"
       id="path1782"
       cx="436.95251"
       cy="141.33652"
       rx="174.54782"
       ry="121.30428"
       transform="matrix(0.73477947,0.67830608,-0.43861196,0.89867655,0,0)" />
    <ellipse
       transform="matrix(0.73477947,0.67830608,-0.43861196,0.89867655,0,0)"
       ry="121.30428"
       rx="174.54782"
       cy="110.08279"
       cx="478.36005"
       id="ellipse1798"
       style="opacity:1;vector-effect:none;fill:#ffd983;fill-opacity:1;stroke:none;stroke-width:11.00710583;stroke-linecap:butt;stroke-linejoin:miter;stroke-miterlimit:4;stroke-dasharray:none;stroke-dashoffset:0;stroke-opacity:1;paint-order:normal" />
    <ellipse
       transform="matrix(0.73477947,0.67830608,-0.43861196,0.89867655,0,0)"
       ry="121.30428"
       rx="174.54782"
       cy="-14.613255"
       cx="554.08484"
       id="ellipse1842"
       style="opacity:1;vector-effect:none;fill:#ffe8b6;fill-opacity:1;stroke:none;stroke-width:29.37978363;stroke-linecap:butt;stroke-linejoin:miter;stroke-miterlimit:4;stroke-dasharray:none;stroke-dashoffset:0;stroke-opacity:1;paint-order:normal" />
    <ellipse
       style="opacity:1;vector-effect:none;fill:#ffd983;fill-opacity:1;stroke:none;stroke-width:11.00710583;stroke-linecap:butt;stroke-linejoin:miter;stroke-miterlimit:4;stroke-dasharray:none;stroke-dashoffset:0;stroke-opacity:1;paint-order:normal"
       id="ellipse1844"
       cx="595.49237"
       cy="-45.866982"
       rx="174.54782"
       ry="121.30428"
       transform="matrix(0.73477947,0.67830608,-0.43861196,0.89867655,0,0)" />
    <ellipse
       style="opacity:1;vector-effect:none;fill:#ffe8b6;fill-opacity:1;stroke:none;stroke-width:29.37978363;stroke-linecap:butt;stroke-linejoin:miter;stroke-miterlimit:4;stroke-dasharray:none;stroke-dashoffset:0;stroke-opacity:1;paint-order:normal"
       id="ellipse1848"
       cx="719.71509"
       cy="-139.62817"
       rx="174.54782"
       ry="121.30428"
       transform="matrix(0.73477947,0.67830608,-0.43861196,0.89867655,0,0)" />
    <ellipse
       transform="matrix(0.73477947,0.67830608,-0.43861196,0.89867655,0,0)"
       ry="121.30428"
       rx="174.54782"
       cy="-170.88191"
       cx="761.12262"
       id="ellipse1850"
       style="opacity:1;vector-effect:none;fill:#ffd983;fill-opacity:1;stroke:none;stroke-width:11.00710583;stroke-linecap:butt;stroke-linejoin:miter;stroke-miterlimit:4;stroke-dasharray:none;stroke-dashoffset:0;stroke-opacity:1;paint-order:normal" />
    <ellipse
       transform="matrix(0.73477946,0.67830608,-0.43861196,0.89867655,0,0)"
       ry="106.52035"
       rx="153.27484"
       cy="-205.91045"
       cx="894.03278"
       id="ellipse882"
       style="opacity:1;vector-effect:none;fill:#ffe8b6;fill-opacity:1;stroke:none;stroke-width:25.79912949;stroke-linecap:butt;stroke-linejoin:miter;stroke-miterlimit:4;stroke-dasharray:none;stroke-dashoffset:0;stroke-opacity:1;paint-order:normal" />
    <ellipse
       style="opacity:1;vector-effect:none;fill:#ffd983;fill-opacity:1;stroke:none;stroke-width:9.66561699;stroke-linecap:butt;stroke-linejoin:miter;stroke-miterlimit:4;stroke-dasharray:none;stroke-dashoffset:0;stroke-opacity:1;paint-order:normal"
       id="ellipse884"
       cx="930.3938"
       cy="-233.35515"
       rx="153.27484"
       ry="106.52035"
       transform="matrix(0.73477946,0.67830608,-0.43861196,0.89867655,0,0)" />
    <path
       style="opacity:1;vector-effect:none;fill:#ffcc4d;fill-opacity:1;stroke:none;stroke-width:27.77777863;stroke-linecap:butt;stroke-linejoin:miter;stroke-miterlimit:4;stroke-dasharray:none;stroke-dashoffset:0;stroke-opacity:1;paint-order:normal"
       d="m 800,782.41667 c -125.72528,115.41225 -190.96655,50 -300,50 -109.03345,0 -250,100 -350,-50 -100,-150 -141.2316336,-238.64488 19.12207,-291.5133 146.52913,186.98206 193.1427,8.25522 323.5267,22.58081 66.00901,7.25257 140.68238,-27.0575 188.93895,3.61689 97.63988,62.06499 133.38359,28.77961 220.34385,0.40712 116.99673,101.65907 61.79087,178.26344 19.30962,213.95775 C 888.31515,759.13159 854.89701,732.02277 800,782.41667 Z"
       id="ellipse1162"
       inkscape:connector-curvature="0"
       sodipodi:nodetypes="ssccsscss" />
    <path
       style="fill:#dd2e44;stroke-width:27.77777863"
       inkscape:connector-curvature="0"
       d="m 500.71429,759.55953 c -150,0 -100.71429,72.85714 -200.71429,72.85714 -100,0 -71.04854,-104.85604 -132.49671,-142.54822 -73.695595,-45.20474 68.61707,-75.07122 181.74905,-97.29458 113.13198,-22.22336 301.46195,166.98566 151.46195,166.98566 z"
       id="path1168"
       sodipodi:nodetypes="zzszz" />
    <path
       sodipodi:nodetypes="cccccscc"
       inkscape:connector-curvature="0"
       id="path5078"
       d="m 169.1263,490.90129 c 97.11403,123.19833 142.74412,58.79602 228.52144,9.16695 60.59218,45.95557 75.82826,-18.8144 139.22121,-28.34837 63.60058,59.47271 89.12148,19.21688 138.4542,18.23843 73.78249,43.59753 80.76181,50.72394 115.266,61.83065 -51.22218,7.2343 -104.57143,-24.5193 -176.47666,-33.52686 -81.97113,-10.26852 -182.54241,3.2602 -234.69168,36.57147 -92.66225,61.34941 -418.360445,7.59932 -210.29451,-63.93227 z"
       style="opacity:1;vector-effect:none;fill:#ffb703;fill-opacity:1;stroke:none;stroke-width:27.77777863;stroke-linecap:butt;stroke-linejoin:miter;stroke-miterlimit:4;stroke-dasharray:none;stroke-dashoffset:0;stroke-opacity:1;paint-order:normal" />
    <g
       id="g3687"
       transform="translate(-38.775245,136.52165)">
      <g
         id="g3682">
        <path
           style="opacity:1;vector-effect:none;fill:#f5f8fa;fill-opacity:1;stroke-width:18.51845551;stroke-linecap:butt;stroke-linejoin:miter;stroke-miterlimit:4;stroke-dasharray:none;stroke-dashoffset:0;stroke-opacity:1"
           inkscape:connector-curvature="0"
           d="m 461.62888,507.83162 c 1.97731,-7.3785 1.60266,-15.28776 -1.86284,-23.18661 -5.21387,-11.91592 -16.53659,-19.80436 -29.28507,-21.98981 1.58185,-3.54876 2.22708,-7.90926 0.40587,-13.40411 -6.19211,-18.54513 -30.90854,-6.07764 -49.44326,-30.79407 -15.36061,9.21012 -18.49309,22.97847 -17.76461,34.49893 -14.07015,2.50807 -22.18754,5.53648 -22.18754,5.53648 v 0.0104 c -8.40879,3.40306 -14.35114,11.64534 -14.35114,21.27174 0,5.09939 1.71714,9.77209 4.53741,13.58102 l -4.99532,1.86284 h 0.0104 c -14.40317,5.38038 -24.56032,18.38902 -24.56032,33.60394 0,6.4731 1.98772,12.45708 5.20345,17.71257 -17.54606,7.80519 -29.78459,24.87253 -29.78459,44.81218 19.10523,72.12532 102.45573,43.99644 146.93821,31.69076 44.48247,-12.30569 114.28572,-77.14286 37.13935,-115.20626 z"
           id="path3479"
           sodipodi:nodetypes="ccccccccscccscczc" />
      </g>
      <path
         id="path3481"
         d="m 338.77524,595.89502 c 49.99999,0 150,-50 123.29073,-104.28778 -23.29073,54.28778 -123.29073,104.28778 -155.25039,54.09516 -18.04034,0.19262 -18.04034,50.19262 31.95966,50.19262 z M 327.84796,485.2278 c 2.45603,10.03227 0.85729,26.17653 23.07014,35.31007 22.21285,9.13355 108.95141,-21.2518 77.09643,-71.25556 0.41136,25.69129 -52.17721,70.48097 -100.16657,35.94549 z"
         inkscape:connector-curvature="0"
         style="opacity:1;vector-effect:none;fill:#ffe8b6;fill-opacity:1;stroke-width:10.40691662;stroke-linecap:butt;stroke-linejoin:miter;stroke-miterlimit:4;stroke-dasharray:none;stroke-dashoffset:0;stroke-opacity:1"
         sodipodi:nodetypes="zcczczcc" />
    </g>
    <path
       style="opacity:1;vector-effect:none;fill:#662113;fill-opacity:1;stroke:none;stroke-width:8.66613388;stroke-linecap:butt;stroke-linejoin:miter;stroke-miterlimit:4;stroke-dasharray:none;stroke-dashoffset:0;stroke-opacity:1;paint-order:normal"
       d="m 582.54063,798.69449 c -92.30849,3.47188 39.43997,-124.89838 0.34396,-254.89842 63.99258,0.46966 84.83752,38.32022 50,184.3179 -7.76659,32.54834 -21.70597,69.50339 -50.34396,70.58052 z"
       id="path3730"
       inkscape:connector-curvature="0"
       sodipodi:nodetypes="scss" />
    <path
       sodipodi:nodetypes="ccssc"
       inkscape:connector-curvature="0"
       id="path2564"
       d="M 582.54063,798.69449 H 485.18718 C 443.34607,778.10946 438.25269,713.753 500,675.81589 c 100,-61.4393 30.31624,-135.70267 82.88459,-132.01982 64.05782,4.48779 21.99099,183.4517 -0.34396,254.89842 z"
       style="opacity:1;vector-effect:none;fill:#c1694f;fill-opacity:1;stroke:none;stroke-width:8.66613388;stroke-linecap:butt;stroke-linejoin:miter;stroke-miterlimit:4;stroke-dasharray:none;stroke-dashoffset:0;stroke-opacity:1;paint-order:normal" />
    <path
       sodipodi:nodetypes="sczs"
       inkscape:connector-curvature="0"
       id="path3690"
       d="m 885,635.17214 c 14.22158,26.53558 7.54797,46.36996 -35,82.06534 C 821.25619,709.57553 684.36112,534.91292 767.18056,533.91625 850,532.91959 845.76875,561.9718 885,635.17214 Z"
       style="opacity:1;vector-effect:none;fill:#662113;fill-opacity:1;stroke:none;stroke-width:8.66613388;stroke-linecap:butt;stroke-linejoin:miter;stroke-miterlimit:4;stroke-dasharray:none;stroke-dashoffset:0;stroke-opacity:1;paint-order:normal" />
    <path
       style="opacity:1;vector-effect:none;fill:#662113;fill-opacity:1;stroke:none;stroke-width:8.66613388;stroke-linecap:butt;stroke-linejoin:miter;stroke-miterlimit:4;stroke-dasharray:none;stroke-dashoffset:0;stroke-opacity:1;paint-order:normal"
       d="m 731.48359,709.56351 c 3.22789,41.7629 41.82587,37.0159 9.42686,61.68293 -50,0 -77.84519,-135.53484 -38.46365,-135.53484 50,0 25.80889,32.08899 29.03679,73.85191 z"
       id="path3717"
       inkscape:connector-curvature="0"
       sodipodi:nodetypes="zcsz" />
    <path
       style="opacity:1;vector-effect:none;fill:#c1694f;fill-opacity:1;stroke:none;stroke-width:8.66613388;stroke-linecap:butt;stroke-linejoin:miter;stroke-miterlimit:4;stroke-dasharray:none;stroke-dashoffset:0;stroke-opacity:1;paint-order:normal"
       d="m 850,717.23748 c -68.33311,1.11668 -20.43954,-48.21294 -101.07143,-23.69802 10,-60.73785 -43.21428,-160.18103 18.25199,-159.62321 61.46627,0.55782 119.57591,106.58188 82.81944,183.32123 z"
       id="path1854"
       inkscape:connector-curvature="0"
       sodipodi:nodetypes="cczc" />
    <path
       sodipodi:nodetypes="scccs"
       inkscape:connector-curvature="0"
       id="path3715"
       d="m 717.98994,754.67053 c 7.29868,10.42025 9.6706,10.68579 22.92051,16.57593 -20.26578,16.85096 -52.52833,-15.51251 -88.97118,27.5169 -6.75499,-44.3966 -1.0891,-160.45516 50.50753,-163.05176 50,0 -30.58397,53.10368 15.54314,118.95893 z"
       style="opacity:1;vector-effect:none;fill:#c1694f;fill-opacity:1;stroke:none;stroke-width:8.66613388;stroke-linecap:butt;stroke-linejoin:miter;stroke-miterlimit:4;stroke-dasharray:none;stroke-dashoffset:0;stroke-opacity:1;paint-order:normal" />
  </g>
</svg>
