<?xml version="1.0" encoding="UTF-8" standalone="no"?>
<!-- Created with Inkscape (http://www.inkscape.org/) -->

<svg
   xmlns:osb="http://www.openswatchbook.org/uri/2009/osb"
   xmlns:dc="http://purl.org/dc/elements/1.1/"
   xmlns:cc="http://creativecommons.org/ns#"
   xmlns:rdf="http://www.w3.org/1999/02/22-rdf-syntax-ns#"
   xmlns:svg="http://www.w3.org/2000/svg"
   xmlns="http://www.w3.org/2000/svg"
   xmlns:xlink="http://www.w3.org/1999/xlink"
   xmlns:sodipodi="http://sodipodi.sourceforge.net/DTD/sodipodi-0.dtd"
   xmlns:inkscape="http://www.inkscape.org/namespaces/inkscape"
   width="1000"
   height="1000"
   viewBox="0 0 1000 1000"
   version="1.1"
   id="svg8"
   inkscape:version="0.92.4 5da689c313, 2019-01-14"
   sodipodi:docname="emoji_u1f91c_200d_1f610.svg">
  <defs
     id="defs2">
    <linearGradient
       gradientTransform="translate(-0.0013,735.41684)"
       inkscape:collect="always"
       xlink:href="#linearGradient1055"
       id="linearGradient1057"
       x1="766.6662"
       y1="-228.00114"
       x2="849.99957"
       y2="-228.00114"
       gradientUnits="userSpaceOnUse" />
    <linearGradient
       id="linearGradient1055"
       osb:paint="solid">
      <stop
         style="stop-color:#664500;stop-opacity:1;"
         offset="0"
         id="stop1053" />
    </linearGradient>
    <linearGradient
       inkscape:collect="always"
       xlink:href="#linearGradient1055"
       id="linearGradient1081"
       x1="471.65747"
       y1="2294.1958"
       x2="2267.7217"
       y2="2294.1958"
       gradientUnits="userSpaceOnUse"
       gradientTransform="matrix(0.26458358,0,0,0.26458358,25.206,32.41618)" />
    <linearGradient
       gradientTransform="translate(-0.0013,735.41684)"
       inkscape:collect="always"
       xlink:href="#linearGradient1039"
       id="linearGradient1041"
       x1="437.11978"
       y1="-109.15615"
       x2="477.7197"
       y2="-109.15615"
       gradientUnits="userSpaceOnUse" />
    <linearGradient
       id="linearGradient1039"
       osb:paint="solid">
      <stop
         style="stop-color:#ef9645;stop-opacity:1;"
         offset="0"
         id="stop1037" />
    </linearGradient>
  </defs>
  <sodipodi:namedview
     id="base"
     pagecolor="#ffffff"
     bordercolor="#666666"
     borderopacity="1.0"
     inkscape:pageopacity="0.0"
     inkscape:pageshadow="2"
     inkscape:zoom="0.49497476"
     inkscape:cx="185.93126"
     inkscape:cy="266.5802"
     inkscape:document-units="px"
     inkscape:current-layer="layer1"
     showgrid="true"
     inkscape:window-width="1916"
     inkscape:window-height="1056"
     inkscape:window-x="0"
     inkscape:window-y="20"
     inkscape:window-maximized="1"
     units="px"
     gridtolerance="10"
     inkscape:snap-bbox="true"
     inkscape:bbox-paths="true"
     inkscape:bbox-nodes="true"
     inkscape:snap-bbox-edge-midpoints="true"
     inkscape:snap-bbox-midpoints="true"
     inkscape:object-paths="true"
     inkscape:snap-intersection-paths="true"
     inkscape:snap-smooth-nodes="true"
     inkscape:snap-midpoints="true">
    <inkscape:grid
       type="xygrid"
       id="grid815"
       units="px"
       spacingx="50"
       spacingy="50" />
  </sodipodi:namedview>
  <metadata
     id="metadata5">
    <rdf:RDF>
      <cc:Work
         rdf:about="">
        <dc:format>image/svg+xml</dc:format>
        <dc:type
           rdf:resource="http://purl.org/dc/dcmitype/StillImage" />
        <dc:title></dc:title>
      </cc:Work>
    </rdf:RDF>
  </metadata>
  <g
     inkscape:label="Layer 1"
     inkscape:groupmode="layer"
     id="layer1"
     transform="translate(0,-32.416667)">
    <path
       inkscape:connector-curvature="0"
       style="fill:#ffcc4d;stroke-width:16.66668129"
       d="m 999.9996,532.41664 c 0,165.6833 -134.31696,300.00033 -300.00028,300.00033 -165.66692,0 -300.00029,-134.31703 -300.00029,-300.00033 0,-165.6669 134.33337,-300.00027 300.00029,-300.00027 165.68332,0 300.00028,134.33337 300.00028,300.00027"
       id="path1118" />
    <ellipse
       style="fill:#664500;stroke-width:16.66668129"
       cx="591.66595"
       cy="507.41544"
       rx="41.666702"
       ry="58.333385"
       id="ellipse1120" />
    <ellipse
       style="fill:url(#linearGradient1057);fill-opacity:1;stroke-width:16.66668129"
       cx="808.33234"
       cy="507.41544"
       rx="41.666702"
       ry="58.333385"
       id="ellipse1122" />
    <path
       inkscape:connector-curvature="0"
       style="fill:#664500;stroke-width:16.66668129"
       d="m 816.66588,665.75034 h -233.3331 c -9.20002,0 -16.66713,-7.4501 -16.66713,-16.6671 0,-9.2164 7.46711,-16.6665 16.66713,-16.6665 h 233.3331 c 9.21701,0 16.6671,7.4501 16.6671,16.6665 0,9.217 -7.45009,16.6671 -16.6671,16.6671 z"
       id="path1124" />
    <path
       style="fill:url(#linearGradient1081);fill-opacity:1;stroke-width:16.66729355"
       d="m 507.22147,446.42904 c -6.06557,-0.01 -12.70353,0.9331 -20.03135,2.8582 -53.61464,14.0673 -182.38781,51.9021 -213.04095,65.1196 -70.73654,30.4843 -125.11997,88.4367 -124.13727,153.4389 1.0709,70.3194 29.4689,115.7374 131.46965,134.13813 103.35507,18.6508 170.68993,23.9507 210.44575,29.8344 28.01287,4.1469 45.82133,-13.9054 49.69986,-34.39533 -0.0172,0.1989 -0.0344,0.3895 -0.0346,0.3912 6.35395,-24.3772 1.60287,-42.8959 -8.73642,-54.2422 17.41201,-2.3359 39.10466,-5.1545 55.60388,-6.9908 38.35107,-4.2648 41.25519,-35.1009 32.92102,-76.3024 -8.51686,-42.0848 -38.23788,-114.9547 -53.21799,-152.3728 -15.78061,-39.4615 -31.71656,-61.4463 -60.94154,-61.4769 z"
       id="path1059"
       inkscape:connector-curvature="0" />
    <g
       id="g2513"
       transform="matrix(62.9945,0,0,62.9945,-91342.025,16883.864)">
      <path
         id="path1917"
         d="m 1457.3337,-260.88908 c -0.8511,0.22331 -2.8953,0.82391 -3.3819,1.03373 -1.1229,0.48392 -1.9862,1.40388 -1.9706,2.43575 0.017,1.11628 0.4678,1.83727 2.087,2.12937 1.6407,0.29607 2.7096,0.3802 3.3407,0.4736 0.9133,0.1352 1.1435,-1.21602 0.1775,-1.33614 0,0 0.839,-0.11827 1.3549,-0.17569 0.6088,-0.0677 0.6549,-0.55721 0.5226,-1.21126 -0.1352,-0.66807 -0.607,-1.82483 -0.8448,-2.41882 -0.3025,-0.75644 -0.6086,-1.10834 -1.2854,-0.93054 z"
         style="fill:#ffdc5d;stroke-width:0.26458332"
         inkscape:connector-curvature="0" />
      <path
         id="path1919"
         d="m 1458.1973,-255.35638 c 0,0 0.08,-0.7231 -0.6257,-0.79507 -0.4144,-0.0423 -0.9726,-0.1106 -1.184,-0.1352 -0.3636,-0.0423 -0.4398,-0.35534 -0.3469,-0.62574 0.092,-0.26697 0.6596,-1.66608 0.7951,-2.02142 0.1005,-0.26379 0.3609,-0.17436 0.4566,0.0169 0.1771,0.35375 0.4837,1.01733 0.5244,1.12475 0.092,0.24447 -0.1944,0.41434 -0.3299,0.16907 -0.091,-0.1659 -0.4313,-0.96414 -0.4313,-0.96414 0,0 -0.6342,1.53087 -0.7019,1.72534 -0.059,0.16934 0.017,0.27067 0.186,0.29607 0.1691,0.0254 0.9221,0.11668 1.1501,0.15214 0.3808,0.0593 0.6684,0.44 0.5075,1.05727 z"
         style="fill:#ef9645;stroke-width:0.26458332"
         inkscape:connector-curvature="0" />
      <path
         id="path1921"
         d="m 1457.5208,-257.86807 c 0,0 -0.2707,0.11854 -0.4821,0.19447 -0.2114,0.0762 -0.1352,0.37201 0.085,0.313 0.2198,-0.0593 0.5752,-0.15213 0.5752,-0.15213 z m 0.9303,-2.15662 c -0.103,-0.21934 -0.3469,-0.0931 -0.2876,0.0847 0.059,0.17754 0.9556,2.31722 1.0403,2.53709 0.085,0.21987 0.2199,0.16907 0.1521,-0.0593 -0.067,-0.22833 -0.7778,-2.29182 -0.9048,-2.56249 z"
         style="fill:#ef9645;stroke-width:0.26458332"
         inkscape:connector-curvature="0" />
      <path
         id="path1923"
         d="m 1457.0556,-258.58694 c 0.1035,0.36962 -0.014,0.81783 -0.1166,1.01441 l 0.6445,-0.23574 z"
         style="fill:#ef9645;stroke-width:0.26458332"
         inkscape:connector-curvature="0" />
      <path
         id="path1925"
         d="m 1453.9322,-259.83736 c -0.8514,0.27517 -2.033,0.30136 -3.0678,0.20426 -0.5345,-0.05 -0.8644,-0.0521 -0.8644,0.37994 v 2.80564 c 0,0.52652 0.1926,0.52097 0.7599,0.44529 0.8644,-0.11509 1.357,-0.32464 2.1823,0.3564 0.5757,0.47545 2.5926,-4.70906 0.99,-4.19153 z"
         style="fill:#ffdc5d;stroke-width:0.26458332"
         inkscape:connector-curvature="0" />
    </g>
    <path
       id="path2521"
       d="m 444.46402,594.30944 c 6.51995,23.2841 -0.88191,51.5188 -7.34515,63.9023 l 40.59995,-14.8503 z"
       style="fill:url(#linearGradient1041);fill-opacity:1;stroke-width:16.66729355"
       inkscape:connector-curvature="0" />
    <path
       id="path2523"
       d="m 247.707,515.53984 c -53.6335,17.3342 -128.0678,18.9841 -193.2545,12.8673 C 20.7819,525.25744 0,525.12514 0,552.34124 v 176.7399 c 0,33.1679 12.1328,32.8183 47.8695,28.0508 54.4525,-7.25 85.4836,-20.4505 137.4729,22.4513 36.26598,29.95073 163.31959,-296.6449 62.3646,-264.0434 z"
       style="fill:#ffdc5d;stroke-width:16.66729355"
       inkscape:connector-curvature="0" />
    <path
       id="path1067"
       d="m 247.707,515.53984 c -53.6335,17.3342 -128.0678,18.9841 -193.2545,12.8673 C 20.7819,525.25744 0,525.12514 0,552.34124 v 176.7399 c 0,33.1679 12.1328,32.8183 47.8695,28.0508 54.4525,-7.25 85.4836,-20.4505 137.4729,22.4513 36.26598,29.95073 163.31959,-296.6449 62.3646,-264.0434 z"
       style="fill:#ffdc5d;stroke-width:16.66729355"
       inkscape:connector-curvature="0" />
  </g>
</svg>
