<?xml version="1.0" encoding="UTF-8" standalone="no"?>
<!-- Created with Inkscape (http://www.inkscape.org/) -->

<svg
   xmlns:dc="http://purl.org/dc/elements/1.1/"
   xmlns:cc="http://creativecommons.org/ns#"
   xmlns:rdf="http://www.w3.org/1999/02/22-rdf-syntax-ns#"
   xmlns:svg="http://www.w3.org/2000/svg"
   xmlns="http://www.w3.org/2000/svg"
   xmlns:sodipodi="http://sodipodi.sourceforge.net/DTD/sodipodi-0.dtd"
   xmlns:inkscape="http://www.inkscape.org/namespaces/inkscape"
   width="1000"
   height="1000"
   viewBox="0 0 1000 1000"
   version="1.1"
   id="svg8"
   inkscape:version="0.92.4 5da689c313, 2019-01-14"
   sodipodi:docname="abortion.svg">
  <defs
     id="defs2" />
  <sodipodi:namedview
     id="base"
     pagecolor="#ffffff"
     bordercolor="#666666"
     borderopacity="1.0"
     inkscape:pageopacity="0.0"
     inkscape:pageshadow="2"
     inkscape:zoom="0.35000001"
     inkscape:cx="928.86463"
     inkscape:cy="430.37403"
     inkscape:document-units="px"
     inkscape:current-layer="layer1"
     showgrid="true"
     inkscape:snap-bbox="true"
     inkscape:bbox-paths="true"
     inkscape:bbox-nodes="true"
     inkscape:snap-bbox-midpoints="true"
     inkscape:snap-page="true"
     inkscape:snap-bbox-edge-midpoints="true"
     inkscape:window-width="1916"
     inkscape:window-height="1056"
     inkscape:window-x="0"
     inkscape:window-y="20"
     inkscape:window-maximized="1"
     units="px"
     scale-x="1"
     inkscape:snap-grids="false">
    <inkscape:grid
       type="xygrid"
       id="grid3713"
       spacingx="50"
       spacingy="50"
       visible="true"
       enabled="true"
       snapvisiblegridlinesonly="true" />
  </sodipodi:namedview>
  <metadata
     id="metadata5">
    <rdf:RDF>
      <cc:Work
         rdf:about="">
        <dc:format>image/svg+xml</dc:format>
        <dc:type
           rdf:resource="http://purl.org/dc/dcmitype/StillImage" />
        <dc:title></dc:title>
      </cc:Work>
    </rdf:RDF>
  </metadata>
  <g
     inkscape:label="Layer 1"
     inkscape:groupmode="layer"
     id="layer1"
     transform="translate(0,-32.416667)">
    <path
       style="opacity:1;vector-effect:none;fill:#f9ca55;fill-opacity:1;stroke:#000000;stroke-width:0;stroke-linecap:butt;stroke-linejoin:miter;stroke-miterlimit:4;stroke-dasharray:none;stroke-dashoffset:0;stroke-opacity:1;paint-order:normal;font-variant-east_asian:normal"
       d="M 280.35798,641.78355 C 112.06109,427.3425 221.27342,223.58041 574.4228,467.02717 655.85181,523.161 627.54773,358.89023 906.59598,496.12365 1185.6442,633.35706 448.65487,856.2246 280.35798,641.78355 Z"
       id="path6452"
       inkscape:connector-curvature="0"
       sodipodi:nodetypes="zszz" />
    <path
       style="fill:#ffdc5d;fill-opacity:1;stroke:#000000;stroke-width:0;stroke-linecap:butt;stroke-linejoin:miter;stroke-opacity:1;font-variant-east_asian:normal;opacity:1;vector-effect:none;stroke-miterlimit:4;stroke-dasharray:none;stroke-dashoffset:0"
       d="m 150.71456,202.91558 c 125.42107,-43.7607 194.129,-8.24626 246.70652,63.99344 52.57751,72.2397 109.01878,267.1398 -87.99018,277.76874 78.60501,23.72859 133.99654,-42.32701 147.63079,-87.36273 11.74929,-38.8094 -1.49615,-115.85306 -30.82584,-178.69994 -22.23745,-47.64981 27.50125,-58.26754 68.79904,-59.24564 41.2978,-0.97809 -17.00239,35.74515 -11.81147,80.90436 5.08167,44.20877 48.89843,151.38551 41.13395,187.96665 -6.98136,32.89156 -60.68919,90.26856 -164.09779,154.17891 128.05388,-61.67936 169.61907,-107.07156 173.21658,-130.84713 7.23904,-47.84197 -8.42397,-154.24777 -8.90067,-170.45288 -1.08102,-36.74763 90.20225,-98.00669 108.91669,-80.22243 18.71444,17.78427 -48.60212,49.89074 -54.87682,90.15065 -2.69748,17.30766 15.0182,115.80236 31.80457,169.06768 10.50372,33.32968 -101.25201,95.63315 -73.96882,102.91736 29.54651,7.88848 218.46451,-23.2136 239.55855,-44.90527 -69.88456,-35.47846 -124.7116,-60.54766 -133.87516,-95.15595 -8.43325,-31.85007 14.50753,-90.94852 16.81501,-134.75163 3.61287,-68.58371 -95.02391,-99.44879 -103.57852,-123.01775 -8.55462,-23.56895 82.74609,1.07143 132.67908,51.07143 33.95552,34.00108 15.95615,94.06911 13.35216,170.6675 -1.29958,38.22808 94.33685,70.43332 167.83327,82.54679 -69.29341,-21.35134 -113.13435,-56.1944 -137.13168,-85.11638 -18.89472,-22.7722 3.3323,-125.02364 -11.04099,-153.68532 -21.89663,-43.66395 -140.96091,-54.71618 -133.35778,-62.7233 20.68652,-21.78573 143.14474,4.38214 175.95785,36.525 32.81311,32.14285 -21.24599,145.17741 51.35966,174.28572 83.11194,33.32038 234.57994,82.3604 168.90817,204.18409 -35.58786,66.01681 -89.96221,110.6163 -221.69449,155.8159 -204.01194,70 -415.42877,31.33544 -639.1894,-142.73098 C -100.7138,481.97605 25.293483,246.67628 150.71456,202.91558 Z"
       id="path6450"
       inkscape:connector-curvature="0"
       sodipodi:nodetypes="zzcsszsscsszssscsszsscssszssszz" />
    <path
       style="opacity:1;vector-effect:none;fill:#f9ca55;fill-opacity:1;stroke:#000000;stroke-width:0;stroke-linecap:butt;stroke-linejoin:miter;stroke-miterlimit:4;stroke-dasharray:none;stroke-dashoffset:0;stroke-opacity:1;paint-order:normal;font-variant-east_asian:normal"
       d="M 409.48419,443.7936 C 398.3874,519.69974 149.58409,425.23121 171.91209,541.7784 199.51531,685.86115 51.360632,543.94339 48.334235,434.70223 45.336977,326.51283 114.49853,226.61081 233.44881,226.61081 c 118.95027,0 191.69092,110.09311 176.03538,217.18279 z"
       id="path6455"
       inkscape:connector-curvature="0"
       sodipodi:nodetypes="sssss" />
    <path
       inkscape:connector-curvature="0"
       style="fill:#dd2e44;stroke-width:27.24568748"
       d="M 596.67792,532.04545 930.02891,198.7217 c 26.59179,-26.59179 26.59179,-69.72171 0,-96.31351 -26.61904,-26.619034 -69.72171,-26.619034 -96.31351,0 L 500.36441,435.73194 167.04066,102.40819 c -26.59179,-26.619034 -69.748957,-26.619034 -96.313503,0 -26.619037,26.5918 -26.619037,69.72172 0,96.31351 L 404.0509,532.04545 69.964278,866.15932 c -26.619037,26.61904 -26.619037,69.72171 0,96.31351 13.295896,13.29589 30.733132,19.94384 48.170372,19.94384 17.43724,0 34.87448,-6.64795 48.17038,-19.94384 L 500.39166,628.35895 833.7154,961.6827 c 13.2959,13.2959 30.73314,19.94385 48.17038,19.94385 17.43724,0 34.84723,-6.64795 48.17038,-19.94385 26.59179,-26.61904 26.59179,-69.72171 0,-96.31351 z"
       id="path8052" />
  </g>
</svg>
