<svg xmlns="http://www.w3.org/2000/svg" width="1000" height="1000"><path d="M280.358 641.784C112.061 427.342 221.273 223.58 574.423 467.027c81.429 56.134 53.125-108.137 332.173 29.097 279.048 137.233-457.941 360.1-626.238 145.66Z" style="opacity:1;vector-effect:none;fill:#f9ca55;fill-opacity:1;stroke:#000;stroke-width:0;stroke-linecap:butt;stroke-linejoin:miter;stroke-miterlimit:4;stroke-dasharray:none;stroke-dashoffset:0;stroke-opacity:1;paint-order:normal;font-variant-east_asian:normal" transform="translate(0 -32.417)"/><path d="M150.715 202.916c125.42-43.761 194.129-8.247 246.706 63.993 52.578 72.24 109.019 267.14-87.99 277.769 78.605 23.728 133.996-42.327 147.63-87.363 11.75-38.81-1.495-115.853-30.825-178.7-22.238-47.65 27.501-58.267 68.799-59.246s-17.003 35.746-11.812 80.905c5.082 44.209 48.899 151.385 41.134 187.966-6.981 32.892-60.689 90.269-164.097 154.18 128.053-61.68 169.619-107.072 173.216-130.848 7.24-47.842-8.424-154.248-8.9-170.453-1.082-36.747 90.202-98.006 108.916-80.222 18.715 17.784-48.602 49.89-54.877 90.15-2.697 17.308 15.019 115.803 31.805 169.068 10.504 33.33-101.252 95.633-73.969 102.918 29.547 7.888 218.465-23.214 239.559-44.906-69.885-35.478-124.712-60.547-133.875-95.156-8.434-31.85 14.507-90.948 16.815-134.751 3.612-68.584-95.024-99.449-103.579-123.018s82.746 1.071 132.68 51.071c33.955 34.002 15.955 94.07 13.351 170.668-1.3 38.228 94.337 70.433 167.834 82.547-69.294-21.352-113.135-56.195-137.132-85.117-18.895-22.772 3.332-125.023-11.041-153.685-21.897-43.664-140.961-54.716-133.358-62.723 20.687-21.786 143.145 4.382 175.958 36.525s-21.246 145.177 51.36 174.285c83.112 33.32 234.58 82.36 168.908 204.185-35.588 66.016-89.962 110.616-221.695 155.815-204.012 70-415.429 31.336-639.19-142.73-223.76-174.067-97.753-409.367 27.669-453.127Z" style="fill:#ffdc5d;fill-opacity:1;stroke:#000;stroke-width:0;stroke-linecap:butt;stroke-linejoin:miter;stroke-opacity:1;font-variant-east_asian:normal;opacity:1;vector-effect:none;stroke-miterlimit:4;stroke-dasharray:none;stroke-dashoffset:0" transform="translate(0 -32.417)"/><path d="M409.484 443.794c-11.097 75.906-259.9-18.563-237.572 97.984 27.603 144.083-120.551 2.165-123.578-107.076-2.997-108.19 66.165-208.091 185.115-208.091s191.69 110.093 176.035 217.183z" style="opacity:1;vector-effect:none;fill:#f9ca55;fill-opacity:1;stroke:#000;stroke-width:0;stroke-linecap:butt;stroke-linejoin:miter;stroke-miterlimit:4;stroke-dasharray:none;stroke-dashoffset:0;stroke-opacity:1;paint-order:normal;font-variant-east_asian:normal" transform="translate(0 -32.417)"/><path d="m596.678 532.045 333.35-333.323c26.593-26.592 26.593-69.722 0-96.314-26.618-26.619-69.72-26.619-96.313 0l-333.35 333.324L167.04 102.408c-26.592-26.619-69.75-26.619-96.314 0-26.619 26.592-26.619 69.722 0 96.314l333.324 333.323L69.964 866.16c-26.619 26.62-26.619 69.722 0 96.314 13.296 13.296 30.733 19.944 48.17 19.944s34.875-6.648 48.171-19.944l334.087-334.114 333.323 333.324c13.296 13.296 30.734 19.944 48.17 19.944 17.438 0 34.848-6.648 48.171-19.944 26.592-26.62 26.592-69.722 0-96.314z" style="fill:#dd2e44;stroke-width:27.24568748" transform="translate(0 -32.417)"/></svg>