<svg xmlns="http://www.w3.org/2000/svg" width="1000" height="1000"><path d="M305.556 1000s-111.112 0-111.112-111.11V111.11S194.444 0 305.556 0h388.888s111.112 0 111.112 111.11v777.78s0 111.11-111.112 111.11z" fill="#31373d"/><path d="M250 138.89h500v722.22H250z" fill="#55acee"/><path d="M750 150l-99.144 100.698M650.346 350H750M750 450L550 350m0 0l200-100M750 50L550 350l50-300M350 50l200 300m0 0L250 250M450 550l-200 50M311.838 270.613L250 50M550 550l200 311.11" fill="none" stroke="#fff" stroke-width="30" stroke-linecap="round"/><path d="M450 550h100V350z" fill="#fff" stroke="#fff" stroke-width="30" stroke-linecap="round"/><path d="M549.54 550H750" fill="none" stroke="#fff" stroke-width="30" stroke-linecap="round"/><path d="M650.346 350l.51-99.302L550 350z" fill="#fff" stroke="#fff" stroke-width="30" stroke-linecap="round" stroke-linejoin="round"/><path d="M450 550v400" fill="none" stroke="#fff" stroke-width="30" stroke-linecap="round"/></svg>