<svg xmlns="http://www.w3.org/2000/svg" width="1000" height="1000"><path d="M305.556 1032.417s-111.112 0-111.112-111.111V143.527s0-111.11 111.112-111.11h388.888s111.112 0 111.112 111.11v777.779s0 111.11-111.112 111.11z" style="fill:#31373d;stroke-width:27.77777863" transform="translate(0 -32.417)"/><path d="M250 171.306h500v722.221H250Z" style="fill:#55acee;stroke-width:27.77777863" transform="translate(0 -32.417)"/><path d="m750 182.417-99.144 100.697M650.346 382.417H750M750 482.417l-200-100m0 0 200-100M750 82.417l-200 300 50-300M350 82.417l200 300m0 0-300-100M450 582.417l-200 50M311.838 303.03 250 82.416M550 582.417l200 311.11" style="fill:none;stroke:#fff;stroke-width:30;stroke-linecap:round;stroke-linejoin:miter;stroke-miterlimit:4;stroke-dasharray:none;stroke-opacity:1" transform="translate(0 -32.417)"/><path d="M450 582.417h100v-200z" style="opacity:1;vector-effect:none;fill:#fff;fill-opacity:1;stroke:#fff;stroke-width:30;stroke-linecap:round;stroke-linejoin:miter;stroke-miterlimit:4;stroke-dasharray:none;stroke-dashoffset:0;stroke-opacity:1" transform="translate(0 -32.417)"/><path d="M549.54 582.417H750" style="opacity:1;vector-effect:none;fill:none;fill-opacity:1;stroke:#fff;stroke-width:30;stroke-linecap:round;stroke-linejoin:miter;stroke-miterlimit:4;stroke-dasharray:none;stroke-dashoffset:0;stroke-opacity:1" transform="translate(0 -32.417)"/><path d="m650.346 382.417.51-99.303L550 382.417z" style="opacity:1;vector-effect:none;fill:#fff;fill-opacity:1;stroke:#fff;stroke-width:30;stroke-linecap:round;stroke-linejoin:round;stroke-miterlimit:4;stroke-dasharray:none;stroke-dashoffset:0;stroke-opacity:1" transform="translate(0 -32.417)"/><path d="M450 582.417v400" style="opacity:1;vector-effect:none;fill:none;fill-opacity:1;stroke:#fff;stroke-width:30;stroke-linecap:round;stroke-linejoin:miter;stroke-miterlimit:4;stroke-dasharray:none;stroke-dashoffset:0;stroke-opacity:1" transform="translate(0 -32.417)"/></svg>