<svg xmlns="http://www.w3.org/2000/svg" width="1000" height="1000"><g transform="translate(0 -32.417)"><path d="M500 824.083 170.588 865.75l-47.059 125c0 29.881 194.542 41.666 376.471 41.666 181.93 0 376.47-11.785 376.47-41.666l-47.058-125z" style="opacity:1;vector-effect:none;fill:#414042;fill-opacity:1;stroke:none;stroke-width:1;stroke-linecap:butt;stroke-linejoin:miter;stroke-miterlimit:4;stroke-dasharray:none;stroke-dashoffset:0;stroke-opacity:1;paint-order:normal;font-variant-east_asian:normal"/><path d="M500 782.417c-106.087 0-207.827 4.389-282.842 12.203S100 813.032 100 824.083v41.668c0 11.05 42.144 21.649 117.158 29.463S393.913 907.417 500 907.417s207.827-4.39 282.842-12.203C857.856 887.4 900 876.8 900 865.75v-41.668c0-11.051-42.144-21.65-117.158-29.463S606.087 782.417 500 782.417" style="opacity:1;vector-effect:none;fill:#9aaab4;fill-opacity:1;stroke:none;stroke-width:1;stroke-linecap:butt;stroke-linejoin:miter;stroke-miterlimit:4;stroke-dasharray:none;stroke-dashoffset:0;stroke-opacity:1;paint-order:normal;font-variant-east_asian:normal"/><path d="m320.316 281.35 302.962-56.854L553.97 32.389 285.662 185.297Z" style="fill:#da2f47;stroke:none;stroke-width:1;stroke-linecap:butt;stroke-linejoin:miter;stroke-opacity:1;font-variant-east_asian:normal;opacity:1;vector-effect:none;fill-opacity:1;stroke-miterlimit:4;stroke-dasharray:none;stroke-dashoffset:0"/><path d="M100 132.417h150v25H100zM100 207.417h150v25H100z" style="opacity:1;vector-effect:none;fill:#292f33;fill-opacity:1;stroke:none;stroke-width:.98261747;stroke-linecap:butt;stroke-linejoin:miter;stroke-miterlimit:4;stroke-dasharray:none;stroke-dashoffset:0;stroke-opacity:1;paint-order:normal;font-variant-east_asian:normal" transform="matrix(.95211 -.3496 .34654 .96054 -141.071 197.949)"/><path d="M300 82.417h50v200h-50z" style="opacity:1;vector-effect:none;fill:#ffd983;fill-opacity:1;stroke:none;stroke-width:.98261747;stroke-linecap:butt;stroke-linejoin:miter;stroke-miterlimit:4;stroke-dasharray:none;stroke-dashoffset:0;stroke-opacity:1;paint-order:normal;font-variant-east_asian:normal" transform="matrix(.95211 -.3496 .34654 .96054 -141.071 197.949)"/><path d="M200 182.417c0 27.614 22.386 50 50 50h150v-100H250c-27.614 0-50 22.385-50 50" style="fill:#ffd983;stroke:none;stroke-width:.98261747;stroke-linecap:butt;stroke-linejoin:miter;stroke-opacity:1;font-variant-east_asian:normal;opacity:1;vector-effect:none;fill-opacity:1;stroke-miterlimit:4;stroke-dasharray:none;stroke-dashoffset:0" transform="matrix(.95211 -.3496 .34654 .96054 -141.071 197.949)"/><path d="M350 832.417h350v-200l-250-150H350Z" style="fill:#67757f;stroke:none;stroke-width:1;stroke-linecap:butt;stroke-linejoin:miter;stroke-opacity:1;font-variant-east_asian:normal;opacity:1;vector-effect:none;fill-opacity:1;stroke-miterlimit:4;stroke-dasharray:none;stroke-dashoffset:0;paint-order:normal"/><ellipse cx="285.66" cy="451.263" rx="76.27" ry="76.387" style="opacity:1;vector-effect:none;fill:#be1931;fill-opacity:1;stroke:none;stroke-width:1.00001884;stroke-linecap:butt;stroke-linejoin:miter;stroke-miterlimit:4;stroke-dasharray:none;stroke-dashoffset:0;stroke-opacity:1;paint-order:normal;font-variant-east_asian:normal" transform="matrix(.76325 -.6461 .63946 .76882 0 0)"/><path d="M474.031 123.223a50.661 51.109 0 0 0-6.244 72.004l130.257 156.607L754.62 619.597l155.234-131.409L675.66 286.13 545.404 129.523a50.661 51.109 0 0 0-71.373-6.3" style="opacity:1;vector-effect:none;fill:#e75a70;fill-opacity:1;stroke:none;stroke-width:1;stroke-linecap:butt;stroke-linejoin:miter;stroke-miterlimit:4;stroke-dasharray:none;stroke-dashoffset:0;stroke-opacity:1;paint-order:normal;font-variant-east_asian:normal"/><ellipse cx="285.66" cy="858.658" rx="76.27" ry="76.387" style="opacity:1;vector-effect:none;fill:#be1931;fill-opacity:1;stroke:none;stroke-width:1.0000188;stroke-linecap:butt;stroke-linejoin:miter;stroke-miterlimit:4;stroke-dasharray:none;stroke-dashoffset:0;stroke-opacity:1;paint-order:normal;font-variant-east_asian:normal" transform="matrix(.76325 -.6461 .63946 .76882 0 0)"/><path d="M802.891 454.817a50 50 0 0 0-26.247-22.066 50 50 0 0 0-42.1 3.687l-.001-.003-284.808 106.698c-125.587 49.482-19.183 260.843 100 173.205l234.727-193.254.08-.047-.001-.003a50 50 0 0 0 21.986-26.197 50 50 0 0 0-3.636-42.02z" style="opacity:1;vector-effect:none;fill:#da2f47;fill-opacity:1;stroke:none;stroke-width:1;stroke-linecap:butt;stroke-linejoin:miter;stroke-miterlimit:4;stroke-dasharray:none;stroke-dashoffset:0;stroke-opacity:1;paint-order:normal;font-variant-east_asian:normal"/><circle cx="798.01" cy="27.591" r="175" style="opacity:1;vector-effect:none;fill:#9aaab4;fill-opacity:1;stroke:none;stroke-width:1;stroke-linecap:butt;stroke-linejoin:miter;stroke-miterlimit:4;stroke-dasharray:none;stroke-dashoffset:0;stroke-opacity:1;paint-order:normal;font-variant-east_asian:normal" transform="rotate(60)"/><path d="M-387.353-1011.432h203.386v50.924h-203.386z" style="opacity:1;vector-effect:none;fill:#67757f;fill-opacity:1;stroke:none;stroke-width:1.0000188;stroke-linecap:butt;stroke-linejoin:miter;stroke-miterlimit:4;stroke-dasharray:none;stroke-dashoffset:0;stroke-opacity:1;paint-order:normal;font-variant-east_asian:normal" transform="matrix(-.76325 .6461 -.63946 -.76882 0 0)"/><path d="M751.12 550.537s275.14 308.211 216.257-106.834c-34.898-245.988-189.364-69.265-189.364-69.265" style="fill:none;stroke:#292f33;stroke-width:25.44225121;stroke-linecap:butt;stroke-linejoin:miter;stroke-miterlimit:4;stroke-dasharray:none;stroke-opacity:1;font-variant-east_asian:normal;opacity:1;vector-effect:none;fill-opacity:1;stroke-dashoffset:0"/><path d="M80.118 271.446h22.113v102.002H80.118z" style="opacity:1;vector-effect:none;fill:#f4900c;fill-opacity:1;stroke:none;stroke-width:1;stroke-linecap:butt;stroke-linejoin:miter;stroke-miterlimit:4;stroke-dasharray:none;stroke-dashoffset:0;stroke-opacity:1;paint-order:normal;font-variant-east_asian:normal" transform="rotate(-20)"/><path d="M400.173 482.417s.29-120.604-125.131-26.122C149.62 550.776 300 732.417 300 732.417" style="fill:none;stroke:#292f33;stroke-width:25.44225121;stroke-linecap:butt;stroke-linejoin:miter;stroke-miterlimit:4;stroke-dasharray:none;stroke-opacity:1"/><ellipse cx="798.01" cy="27.591" rx="100" ry="100.884" style="opacity:1;vector-effect:none;fill:#67757f;fill-opacity:1;stroke:none;stroke-width:1;stroke-linecap:butt;stroke-linejoin:miter;stroke-miterlimit:4;stroke-dasharray:none;stroke-dashoffset:0;stroke-opacity:1;paint-order:normal;font-variant-east_asian:normal" transform="rotate(60)"/><ellipse cx="798.01" cy="27.591" rx="50.661" ry="51.109" style="opacity:1;vector-effect:none;fill:#000;fill-opacity:1;stroke:none;stroke-width:.29076868px;stroke-linecap:butt;stroke-linejoin:miter;stroke-miterlimit:4;stroke-dasharray:none;stroke-dashoffset:0;stroke-opacity:1;paint-order:normal" transform="rotate(60)"/><ellipse cx="798.01" cy="27.591" rx="50.661" ry="51.109" style="opacity:1;vector-effect:none;fill:#414042;fill-opacity:1;stroke:none;stroke-width:1;stroke-linecap:butt;stroke-linejoin:miter;stroke-miterlimit:4;stroke-dasharray:none;stroke-dashoffset:0;stroke-opacity:1;paint-order:normal;font-variant-east_asian:normal" transform="rotate(60)"/></g></svg>