<svg xmlns="http://www.w3.org/2000/svg" xmlns:xlink="http://www.w3.org/1999/xlink" width="1000" height="1000"><g transform="translate(0 -32.417)"><path style="font-variant-east_asian:normal" d="M500 1032.417c-181.93 0-376.47-11.785-376.47-41.667l47.058-125L500 824.083z" id="a" opacity="1" vector-effect="none" fill="#414042" fill-opacity="1" stroke="none" stroke-width="1" stroke-linecap="butt" stroke-linejoin="miter" stroke-miterlimit="4" stroke-dasharray="none" stroke-dashoffset="0" stroke-opacity="1" paint-order="normal"/><use xlink:href="#a" transform="matrix(-1 0 0 1 1000 0)" width="100%" height="100%" style="font-variant-east_asian:normal" fill="#67757f"/><path style="font-variant-east_asian:normal" d="M500 782.417c-106.087 0-207.828 4.39-282.843 12.204C142.143 802.435 100 813.033 100 824.083v41.667c0 11.05 42.143 21.649 117.157 29.463 75.015 7.814 176.756 12.204 282.843 12.204z" id="b" opacity="1" vector-effect="none" fill="#9aaab4" fill-opacity="1" stroke="none" stroke-width="1" stroke-linecap="butt" stroke-linejoin="miter" stroke-miterlimit="4" stroke-dasharray="none" stroke-dashoffset="0" stroke-opacity="1" paint-order="normal"/><use xlink:href="#b" transform="matrix(-1 0 0 1 1000 0)" width="100%" height="100%" style="font-variant-east_asian:normal" fill="#9aaab4"/><path style="font-variant-east_asian:normal" d="M320.316 281.35l302.962-56.854L553.97 32.389 285.662 185.297z" fill="#da2f47"/><g fill="#292f33"><path style="font-variant-east_asian:normal" d="M.028 290.18l142.817-52.441 8.664 24.013L8.692 314.193zM26.019 362.22l142.817-52.441 8.663 24.013-142.817 52.441z"/></g><g fill="#ffd983"><path style="font-variant-east_asian:normal" d="M173.124 172.232l47.606-17.48 69.308 192.106-47.606 17.48z"/><path d="M112.566 303.245c9.57 26.525 38.641 40.201 64.933 30.547l142.817-52.441-34.654-96.054-142.817 52.441c-26.292 9.654-39.848 38.983-30.279 65.507z" style="font-variant-east_asian:normal"/></g><path style="font-variant-east_asian:normal" d="M350 832.417h350v-200l-250-150H350z" fill="#67757f"/><ellipse cy="451.263" cx="285.66" style="font-variant-east_asian:normal" transform="matrix(.76325 -.6461 .63946 .76882 0 0)" rx="76.27" ry="76.387" fill="#be1931"/><path d="M474.031 123.223a50.661 51.109 0 00-6.244 72.004l130.257 156.607L754.62 619.597l155.234-131.409L675.66 286.13 545.404 129.523a50.661 51.109 0 00-71.373-6.3z" style="font-variant-east_asian:normal" fill="#e75a70"/><ellipse style="font-variant-east_asian:normal" cx="285.66" cy="858.658" transform="matrix(.76325 -.6461 .63946 .76882 0 0)" rx="76.27" ry="76.387" fill="#be1931"/><path d="M802.891 454.817a50 50 0 00-26.247-22.066 50 50 0 00-42.1 3.687l-.001-.003-284.808 106.698c-125.587 49.482-19.183 260.843 100 173.205l234.727-193.254.08-.047-.001-.003a50 50 0 0021.986-26.197 50 50 0 00-3.636-42.02z" style="font-variant-east_asian:normal" fill="#da2f47"/><circle r="175" cy="27.591" cx="798.01" style="font-variant-east_asian:normal" transform="rotate(60)" fill="#9aaab4"/><path style="font-variant-east_asian:normal" fill="#67757f" d="M942.42 527.34L787.185 658.75l-32.564-39.152 155.233-131.41z"/><path d="M751.12 550.537s275.14 308.211 216.257-106.834c-34.898-245.988-189.364-69.265-189.364-69.265" style="font-variant-east_asian:normal" fill="none" stroke="#292f33" stroke-width="25.442"/><path style="font-variant-east_asian:normal" fill="#f4900c" d="M168.126 227.674l20.78-7.563 34.886 95.85-20.779 7.563z"/><path d="M400.173 482.417s.29-120.604-125.131-26.122C149.62 550.776 300 732.417 300 732.417" fill="none" stroke="#292f33" stroke-width="25.442"/><ellipse ry="100.884" rx="100" style="font-variant-east_asian:normal" cx="798.01" cy="27.591" transform="rotate(60)" fill="#67757f"/><ellipse cy="27.591" cx="798.01" rx="50.661" ry="51.109" transform="rotate(60)"/><ellipse ry="51.109" rx="50.661" style="font-variant-east_asian:normal" cx="798.01" cy="27.591" transform="rotate(60)" fill="#414042"/><path d="M396.214 685.702h19v2h-19z" fill="#67757f"/></g></svg>