<svg xmlns="http://www.w3.org/2000/svg" width="1000" height="1000"><path style="font-variant-east_asian:normal" d="M489.133 0c-50.88.017-51.037 1.697-51.037 31.703h123.808C561.904-.303 561.725-.08 500 .012c-3.858-.006-7.475-.013-10.867-.012z" fill="#ccd6dd"/><path d="M500 31.704V1000c62.66 0 148.603.587 148.603-68.487 0 0-.497-396.401-.497-454.602 0-97.872-.282-111.653-28.2-184.021L563.41 146.438c-11.61-30.093-12.315-66.73-12.315-66.73h10.457c0-21.79-3.388-36.274-10.457-48.004z" style="font-variant-east_asian:normal" fill="#a95233"/><path style="font-variant-east_asian:normal" d="M500 31.704V1000c-62.66 0-148.603.587-148.603-68.487 0 0 .497-396.401.497-454.602 0-97.872.282-111.653 28.2-184.021l56.496-146.452c11.61-30.093 12.315-66.73 12.315-66.73h-10.457c0-21.79 3.388-36.274 10.457-48.004z" fill="#662113"/><path style="font-variant-east_asian:normal" d="M478.248 150l-56.496 142.89c-27.917 72.368-28.2 86.148-28.2 184.02 0 58.201-.497 423.09-.497 423.09 0 39.274 44.286 18.486 106.945 18.486 62.66 0 106.945 20.788 106.945-18.486 0 0-.498-364.889-.498-423.09 0-97.872-.282-111.652-28.199-184.02L521.752 150h-43.504z" fill="#c1694f"/><path style="font-variant-east_asian:normal" d="M435.215 150l-55.121 142.89c-.96 2.49-1.811 4.753-2.707 7.11h245.226c-.896-2.357-1.746-4.62-2.707-7.11L564.786 150H435.214z" fill="#77b255"/><path d="M393.553 476.91c0 58.201-.498 423.09-.498 423.09 0 39.274 44.286 18.486 106.945 18.486 62.66 0 106.945 20.788 106.945-18.486 0 0-.498-364.889-.498-423.09z" fill="#f4900c"/><path style="font-variant-east_asian:normal" d="M350 450v350h300V450H350z" fill="#77b255"/></svg>