<svg xmlns="http://www.w3.org/2000/svg" width="1000" height="1000"><g transform="translate(0 -32.417)"><circle cx="500" cy="532.417" r="500" style="fill:#88c9f9;stroke-width:27.77777863"/><path d="M714.333 81.194c-28.389 15.778-52 42.445-84.11 32.806-52.084-15.611-121.529-50.333-166.667-6.944-45.14 43.388-55.556 83.333 0 81.61s93.75-67.722 121.527-39.944 20.806 50.361-45.139 59.028C474 216.417 402.778 226.86 364.584 226.86s-46.89 22.556-20.834 46.889-15.639 26.028-59.028 50.333c-43.389 24.306 10.417 34.723 46.89 55.556 36.471 20.833 64.221-5.222 79.86-39.945 15.64-34.722 82.806-76.388 110.834-71.166 28.055 5.222 28.055 19.11 22.833 43.389-5.222 24.277 20.833 17.36 22.555-10.417s33-48.611 57.278-50.333 45.14 33 17.361 50.333c-27.777 17.333-55.555 31.25-20.833 39.944s59.028 53.834 19.111 72.917S531.25 445.611 500 429.972s-102.444-38.194-121.528-26.055c-19.083 12.139-29.5 24.722-52.083 33.194-22.556 8.472-114.583 50.139-116.333 103.972-1.75 53.834-3.445 114.611 33 116.334s125-22.556 152.777-45.14c27.778-22.583 65.973-17.36 78.111 8.667 12.14 26.028 3.473 41.667-8.666 83.334-12.14 41.666 7.944 62.5 27.416 98.944s35.084 57.278 35.084 83.334c0 26.055 27.778 52.083 69.444 8.666 41.667-43.416 79.861-128.472 97.222-159.722 17.362-31.25 31.25-100.694 52.084-114.583 20.833-13.89 53.833-46.89 29.5-41.667-24.334 5.222-72.917-1.722-85.056-36.444s-64.222-100.695-39.944-107.64c24.278-6.944 52.083 38.612 62.5 60.112 10.416 21.5 24.305 47.528 45.139 54.472 20.833 6.944 65.972-46.472 79.86-54.472 13.89-8.028 3.473-41-24.305-37.528S750 457.75 750 440.417c0-17.334 34.722-39.945 62.5-34.723s48.611 13.89 65.972 34.723 52.084 59.027 65.972 83.333c13.89 24.306 24.306 27.778 31.25-15.611 4.612-28.833 10.75-44.695 16.39-61.722-28.14-161.917-133.89-296.75-277.75-365.223" style="fill:#5c913b;stroke-width:27.77777863"/><path d="M997.901 578.183c-12.778 149.695-147.151 240.04-230.54 204.234-78.111-33.556-25.472-164.361-21.583-226.778 6.555-105.806-.334-226.917-192.528-327.611 79.861 152.778 9.25 247.694-64.806 253.472-82.166 6.417-157.416-70.611-129.638-195.611-89.945 66.278-92.556 177.833-64.806 250 28.944 75.222-1.167 137.722-71.75 144.667-78.889 7.777-150.5-112.25-110.083-259.25-69.945 82.36-84.39 194.444-56.611 333.333C71.899 836.356 239.194 1032.417 500 1032.417c379.128-42.15 488.95-269.986 497.901-454.234" style="fill:#f4900c;stroke-width:27.77777863"/><path d="M788.722 818.278c4.111 85.666-71.139 119.25-111.639 103.028-58.5-23.417-42.805-63.64-57.86-146.973S546.305 633.14 460.666 607.667c62.5 175.916-34.64 240.75-85.556 252.333-52 11.833-104.25 0-110.222-111.306-86.093 61.5-98.222 117.056-98.222 161.981C251.944 994.953 370.61 1032.417 500 1032.417s254.062-43.378 339.34-127.656c-6.007-66.789-38.02-66.142-50.618-86.483" style="fill:#ffcc4d;stroke-width:27.77777863"/></g></svg>