<svg xmlns="http://www.w3.org/2000/svg" width="1000" height="1000"><g transform="translate(0 -32.417)"><rect width="1000" height="1000" y="32.417" ry="100" style="opacity:1;fill:#31373d;fill-opacity:1;stroke:none;stroke-width:.26499999;stroke-linecap:round;stroke-linejoin:miter;stroke-miterlimit:4;stroke-dasharray:none;stroke-opacity:1;paint-order:normal"/><g style="fill:#aab8c2;fill-opacity:1" transform="translate(0 735.417)"><rect width="200" height="200" x="550" y="-353" ry="50" style="opacity:1;fill:#aab8c2;fill-opacity:1;stroke:none;stroke-width:.26499999;stroke-linecap:round;stroke-linejoin:miter;stroke-miterlimit:4;stroke-dasharray:none;stroke-opacity:1;paint-order:normal" transform="matrix(1 0 0 -.875 0 -293.125)"/><path d="M500-503 100.22-147.64a25 25 0 0 0-2.207 1.963A24.92 24.92 0 0 0 90.69-128c0 13.807 11.193 25 25 25h768.62c13.807 0 25-11.193 25-25a24.92 24.92 0 0 0-7.322-17.677 25 25 0 0 0-2.202-1.958z" style="fill:#aab8c2;fill-opacity:1;stroke:none;stroke-width:.26458332px;stroke-linecap:butt;stroke-linejoin:miter;stroke-opacity:1" transform="matrix(1 0 0 -.875 0 -293.125)"/><rect width="100" height="100" x="150" y="-253" ry="33.333" style="opacity:1;fill:#aab8c2;fill-opacity:1;stroke:none;stroke-width:.17666666;stroke-linecap:round;stroke-linejoin:miter;stroke-miterlimit:4;stroke-dasharray:none;stroke-opacity:1;paint-order:normal" transform="matrix(1 0 0 -.875 0 -293.125)"/><rect width="150" height="150" x="275" y="-403" ry="50" style="opacity:1;fill:#aab8c2;fill-opacity:1;stroke:none;stroke-width:.26499999;stroke-linecap:round;stroke-linejoin:miter;stroke-miterlimit:4;stroke-dasharray:none;stroke-opacity:1;paint-order:normal" transform="matrix(1 0 0 -.875 0 -293.125)"/><rect width="150" height="75" x="275" y="53" ry="25" style="opacity:1;fill:#aab8c2;fill-opacity:1;stroke:none;stroke-width:.18738323;stroke-linecap:round;stroke-linejoin:miter;stroke-miterlimit:4;stroke-dasharray:none;stroke-opacity:1;paint-order:normal" transform="scale(1 -1)"/><rect width="50" height="50" x="275" y="-78" ry="16.667" style="opacity:1;fill:#aab8c2;fill-opacity:1;stroke:none;stroke-width:.08833333;stroke-linecap:round;stroke-linejoin:miter;stroke-miterlimit:4;stroke-dasharray:none;stroke-opacity:1;paint-order:normal"/><rect width="150" height="150" x="350" y="-28" ry="50" style="opacity:1;fill:#aab8c2;fill-opacity:1;stroke:none;stroke-width:.26500005;stroke-linecap:round;stroke-linejoin:miter;stroke-miterlimit:4;stroke-dasharray:none;stroke-opacity:1;paint-order:normal"/><rect width="150" height="150" x="750" y="47" ry="50" style="opacity:1;fill:#aab8c2;fill-opacity:1;stroke:none;stroke-width:.26500002;stroke-linecap:round;stroke-linejoin:miter;stroke-miterlimit:4;stroke-dasharray:none;stroke-opacity:1;paint-order:normal"/><rect width="50" height="50" x="725" y="47" ry="16.667" style="opacity:1;fill:#aab8c2;fill-opacity:1;stroke:none;stroke-width:.08833334;stroke-linecap:round;stroke-linejoin:miter;stroke-miterlimit:4;stroke-dasharray:none;stroke-opacity:1;paint-order:normal"/><rect width="50" height="50" x="550" y="22" ry="16.667" style="opacity:1;fill:#aab8c2;fill-opacity:1;stroke:none;stroke-width:.08833334;stroke-linecap:round;stroke-linejoin:miter;stroke-miterlimit:4;stroke-dasharray:none;stroke-opacity:1;paint-order:normal"/><rect width="50" height="50" x="375" y="-122" ry="16.667" style="opacity:1;fill:#aab8c2;fill-opacity:1;stroke:none;stroke-width:.08833334;stroke-linecap:round;stroke-linejoin:miter;stroke-miterlimit:4;stroke-dasharray:none;stroke-opacity:1;paint-order:normal" transform="scale(1 -1)"/><rect width="50" height="50" x="650" y="22" ry="16.667" style="opacity:1;fill:#aab8c2;fill-opacity:1;stroke:none;stroke-width:.08833334;stroke-linecap:round;stroke-linejoin:miter;stroke-miterlimit:4;stroke-dasharray:none;stroke-opacity:1;paint-order:normal"/><rect width="50" height="50" x="600" y="22" ry="16.667" style="opacity:1;fill:#aab8c2;fill-opacity:1;stroke:none;stroke-width:.08833334;stroke-linecap:round;stroke-linejoin:miter;stroke-miterlimit:4;stroke-dasharray:none;stroke-opacity:1;paint-order:normal"/><rect width="50" height="50" x="425" y="-147" ry="16.667" style="opacity:1;fill:#aab8c2;fill-opacity:1;stroke:none;stroke-width:.08833334;stroke-linecap:round;stroke-linejoin:miter;stroke-miterlimit:4;stroke-dasharray:none;stroke-opacity:1;paint-order:normal" transform="scale(1 -1)"/><rect width="100" height="100" x="450" y="-3" ry="33.333" style="opacity:1;fill:#aab8c2;fill-opacity:1;stroke:none;stroke-width:.17666656;stroke-linecap:round;stroke-linejoin:miter;stroke-miterlimit:4;stroke-dasharray:none;stroke-opacity:1;paint-order:normal"/><rect width="50" height="50" x="625" y="47" ry="16.667" style="opacity:1;fill:#aab8c2;fill-opacity:1;stroke:none;stroke-width:.08833334;stroke-linecap:round;stroke-linejoin:miter;stroke-miterlimit:4;stroke-dasharray:none;stroke-opacity:1;paint-order:normal"/></g><g style="fill:#fff;fill-opacity:1" transform="translate(0 735.417)"><rect width="200" height="200" x="150" y="-303" ry="50" style="opacity:1;fill:#fff;fill-opacity:1;stroke:none;stroke-width:.26499999;stroke-linecap:round;stroke-linejoin:miter;stroke-miterlimit:4;stroke-dasharray:none;stroke-opacity:1;paint-order:normal"/><rect width="150" height="150" x="350" y="-178" ry="50" style="opacity:1;fill:#fff;fill-opacity:1;stroke:none;stroke-width:.26499999;stroke-linecap:round;stroke-linejoin:miter;stroke-miterlimit:4;stroke-dasharray:none;stroke-opacity:1;paint-order:normal"/><rect width="50" height="50" x="875" y="-178" ry="16.667" style="opacity:1;fill:#fff;fill-opacity:1;stroke:none;stroke-width:.08833333;stroke-linecap:round;stroke-linejoin:miter;stroke-miterlimit:4;stroke-dasharray:none;stroke-opacity:1;paint-order:normal"/><rect width="50" height="50" x="750" y="22" ry="16.667" style="opacity:1;fill:#fff;fill-opacity:1;stroke:none;stroke-width:.08833333;stroke-linecap:round;stroke-linejoin:miter;stroke-miterlimit:4;stroke-dasharray:none;stroke-opacity:1;paint-order:normal"/><rect width="50" height="50" x="725" y="-3" ry="16.667" style="opacity:1;fill:#fff;fill-opacity:1;stroke:none;stroke-width:.08833333;stroke-linecap:round;stroke-linejoin:miter;stroke-miterlimit:4;stroke-dasharray:none;stroke-opacity:1;paint-order:normal"/><rect width="50" height="50" x="550" y="-28" ry="16.667" style="opacity:1;fill:#fff;fill-opacity:1;stroke:none;stroke-width:.08833333;stroke-linecap:round;stroke-linejoin:miter;stroke-miterlimit:4;stroke-dasharray:none;stroke-opacity:1;paint-order:normal"/><rect width="50" height="50" x="300" y="-128" ry="16.667" style="opacity:1;fill:#fff;fill-opacity:1;stroke:none;stroke-width:.08833333;stroke-linecap:round;stroke-linejoin:miter;stroke-miterlimit:4;stroke-dasharray:none;stroke-opacity:1;paint-order:normal"/><rect width="50" height="50" x="225" y="22" ry="16.667" style="opacity:1;fill:#fff;fill-opacity:1;stroke:none;stroke-width:.08833333;stroke-linecap:round;stroke-linejoin:miter;stroke-miterlimit:4;stroke-dasharray:none;stroke-opacity:1;paint-order:normal"/><rect width="50" height="50" x="375" y="22" ry="16.667" style="opacity:1;fill:#fff;fill-opacity:1;stroke:none;stroke-width:.08833333;stroke-linecap:round;stroke-linejoin:miter;stroke-miterlimit:4;stroke-dasharray:none;stroke-opacity:1;paint-order:normal"/><rect width="50" height="50" x="350" y="47" ry="16.667" style="opacity:1;fill:#fff;fill-opacity:1;stroke:none;stroke-width:.08833333;stroke-linecap:round;stroke-linejoin:miter;stroke-miterlimit:4;stroke-dasharray:none;stroke-opacity:1;paint-order:normal"/><rect width="50" height="50" x="675" y="47" ry="16.667" style="opacity:1;fill:#fff;fill-opacity:1;stroke:none;stroke-width:.08833333;stroke-linecap:round;stroke-linejoin:miter;stroke-miterlimit:4;stroke-dasharray:none;stroke-opacity:1;paint-order:normal"/><rect width="50" height="50" x="600" y="-28" ry="16.667" style="opacity:1;fill:#fff;fill-opacity:1;stroke:none;stroke-width:.08833333;stroke-linecap:round;stroke-linejoin:miter;stroke-miterlimit:4;stroke-dasharray:none;stroke-opacity:1;paint-order:normal"/><rect width="150" height="150" x="750" y="-103" ry="50" style="opacity:1;fill:#fff;fill-opacity:1;stroke:none;stroke-width:.26499999;stroke-linecap:round;stroke-linejoin:miter;stroke-miterlimit:4;stroke-dasharray:none;stroke-opacity:1;paint-order:normal"/><rect width="50" height="50" x="650" y="-28" ry="16.667" style="opacity:1;fill:#fff;fill-opacity:1;stroke:none;stroke-width:.08833333;stroke-linecap:round;stroke-linejoin:miter;stroke-miterlimit:4;stroke-dasharray:none;stroke-opacity:1;paint-order:normal"/><rect width="50" height="50" x="425" y="47" ry="16.667" style="opacity:1;fill:#fff;fill-opacity:1;stroke:none;stroke-width:.08833333;stroke-linecap:round;stroke-linejoin:miter;stroke-miterlimit:4;stroke-dasharray:none;stroke-opacity:1;paint-order:normal"/><rect width="100" height="100" x="450" y="-103" ry="33.333" style="opacity:1;fill:#fff;fill-opacity:1;stroke:none;stroke-width:.17666666;stroke-linecap:round;stroke-linejoin:miter;stroke-miterlimit:4;stroke-dasharray:none;stroke-opacity:1;paint-order:normal"/><rect width="50" height="50" x="525" y="-28" ry="16.667" style="opacity:1;fill:#fff;fill-opacity:1;stroke:none;stroke-width:.08833333;stroke-linecap:round;stroke-linejoin:miter;stroke-miterlimit:4;stroke-dasharray:none;stroke-opacity:1;paint-order:normal"/><rect width="50" height="50" x="525" y="-53" ry="16.667" style="opacity:1;fill:#fff;fill-opacity:1;stroke:none;stroke-width:.08833333;stroke-linecap:round;stroke-linejoin:miter;stroke-miterlimit:4;stroke-dasharray:none;stroke-opacity:1;paint-order:normal"/><rect width="50" height="50" x="450" y="97" ry="16.667" style="opacity:1;fill:#fff;fill-opacity:1;stroke:none;stroke-width:.08833333;stroke-linecap:round;stroke-linejoin:miter;stroke-miterlimit:4;stroke-dasharray:none;stroke-opacity:1;paint-order:normal"/><rect width="50" height="50" x="625" y="-3" ry="16.667" style="opacity:1;fill:#fff;fill-opacity:1;stroke:none;stroke-width:.08833333;stroke-linecap:round;stroke-linejoin:miter;stroke-miterlimit:4;stroke-dasharray:none;stroke-opacity:1;paint-order:normal"/><rect width="50" height="50" x="900" y="-3" ry="16.667" style="opacity:1;fill:#fff;fill-opacity:1;stroke:none;stroke-width:.08833333;stroke-linecap:round;stroke-linejoin:miter;stroke-miterlimit:4;stroke-dasharray:none;stroke-opacity:1;paint-order:normal"/><rect width="50" height="50" x="550" y="72" ry="16.667" style="opacity:1;fill:#fff;fill-opacity:1;stroke:none;stroke-width:.08833333;stroke-linecap:round;stroke-linejoin:miter;stroke-miterlimit:4;stroke-dasharray:none;stroke-opacity:1;paint-order:normal"/><rect width="200" height="200" x="550" y="-353" ry="50" style="opacity:1;fill:#fff;fill-opacity:1;stroke:none;stroke-width:.26499999;stroke-linecap:round;stroke-linejoin:miter;stroke-miterlimit:4;stroke-dasharray:none;stroke-opacity:1;paint-order:normal" transform="translate(0 -100)"/><path d="M500-503 100.22-147.64a25 25 0 0 0-2.207 1.963A24.92 24.92 0 0 0 90.69-128c0 13.807 11.193 25 25 25h768.62c13.807 0 25-11.193 25-25a24.92 24.92 0 0 0-7.322-17.677 25 25 0 0 0-2.202-1.958z" style="fill:#fff;fill-opacity:1;stroke:none;stroke-width:.26458332px;stroke-linecap:butt;stroke-linejoin:miter;stroke-opacity:1" transform="translate(0 -100)"/><rect width="100" height="100" x="150" y="-253" ry="33.333" style="opacity:1;fill:#fff;fill-opacity:1;stroke:none;stroke-width:.17666666;stroke-linecap:round;stroke-linejoin:miter;stroke-miterlimit:4;stroke-dasharray:none;stroke-opacity:1;paint-order:normal" transform="translate(0 -100)"/><rect width="150" height="150" x="275" y="-403" ry="50" style="opacity:1;fill:#fff;fill-opacity:1;stroke:none;stroke-width:.26499999;stroke-linecap:round;stroke-linejoin:miter;stroke-miterlimit:4;stroke-dasharray:none;stroke-opacity:1;paint-order:normal" transform="translate(0 -100)"/><rect width="150" height="150" x="325" y="-253" ry="50" style="opacity:1;fill:#fff;fill-opacity:1;stroke:none;stroke-width:.26499999;stroke-linecap:round;stroke-linejoin:miter;stroke-miterlimit:4;stroke-dasharray:none;stroke-opacity:1;paint-order:normal"/><rect width="150" height="150" x="575" y="-253" ry="50" style="opacity:1;fill:#fff;fill-opacity:1;stroke:none;stroke-width:.26499999;stroke-linecap:round;stroke-linejoin:miter;stroke-miterlimit:4;stroke-dasharray:none;stroke-opacity:1;paint-order:normal"/><rect width="150" height="150" x="675" y="-303" ry="50" style="opacity:1;fill:#fff;fill-opacity:1;stroke:none;stroke-width:.26499999;stroke-linecap:round;stroke-linejoin:miter;stroke-miterlimit:4;stroke-dasharray:none;stroke-opacity:1;paint-order:normal"/><rect width="150" height="150" x="425" y="-278" ry="50" style="opacity:1;fill:#fff;fill-opacity:1;stroke:none;stroke-width:.26499999;stroke-linecap:round;stroke-linejoin:miter;stroke-miterlimit:4;stroke-dasharray:none;stroke-opacity:1;paint-order:normal"/><rect width="50" height="50" x="325" y="-128" ry="16.667" style="opacity:1;fill:#fff;fill-opacity:1;stroke:none;stroke-width:.08833333;stroke-linecap:round;stroke-linejoin:miter;stroke-miterlimit:4;stroke-dasharray:none;stroke-opacity:1;paint-order:normal"/></g></g></svg>