<svg xmlns="http://www.w3.org/2000/svg" width="1000" height="1000"><g transform="translate(0 -32.417)"><rect width="1000" height="1000" y="32.417" ry="100" fill="#31373d"/><g transform="translate(0 735.417)" fill="#aab8c2"><rect width="200" height="200" x="550" y="-353" ry="50" transform="matrix(1 0 0 -.875 0 -293.125)"/><path d="M500 147L100.22-163.94a24.394 24.394 0 01-2.207-1.717c-4.524-3.959-7.323-9.427-7.323-15.468 0-12.081 11.193-21.875 25-21.875h768.62c13.807 0 25 9.794 25 21.875 0 6.04-2.798 11.51-7.322 15.468a24.4 24.4 0 01-2.202 1.713z"/><rect ry="33.333" y="-253" x="150" height="100" width="100" transform="matrix(1 0 0 -.875 0 -293.125)"/><rect width="150" height="150" x="275" y="-403" ry="50" transform="matrix(1 0 0 -.875 0 -293.125)"/><rect transform="scale(1 -1)" ry="25" y="53" x="275" height="75" width="150"/><rect ry="16.667" y="-78" x="275" height="50" width="50"/><rect ry="50" y="-28" x="350" height="150" width="150"/><rect width="150" height="150" x="750" y="47" ry="50"/><rect ry="16.667" y="47" x="725" height="50" width="50"/><rect width="50" height="50" x="550" y="22" ry="16.667"/><rect transform="scale(1 -1)" ry="16.667" y="-122" x="375" height="50" width="50"/><rect width="50" height="50" x="650" y="22" ry="16.667"/><rect width="50" height="50" x="600" y="22" ry="16.667"/><rect transform="scale(1 -1)" ry="16.667" y="-147" x="425" height="50" width="50"/><rect ry="33.333" y="-3" x="450" height="100" width="100"/><rect ry="16.667" y="47" x="625" height="50" width="50"/></g><g transform="translate(0 735.417)" fill="#fff"><rect width="200" height="200" x="150" y="-303" ry="50"/><rect width="150" height="150" x="350" y="-178" ry="50"/><rect ry="16.667" y="-178" x="875" height="50" width="50"/><rect width="50" height="50" x="750" y="22" ry="16.667"/><rect width="50" height="50" x="725" y="-3" ry="16.667"/><rect ry="16.667" y="-28" x="550" height="50" width="50"/><rect width="50" height="50" x="300" y="-128" ry="16.667"/><rect ry="16.667" y="22" x="225" height="50" width="50"/><rect width="50" height="50" x="375" y="22" ry="16.667"/><rect width="50" height="50" x="350" y="47" ry="16.667"/><rect width="50" height="50" x="675" y="47" ry="16.667"/><rect ry="16.667" y="-28" x="600" height="50" width="50"/><rect ry="50" y="-103" x="750" height="150" width="150"/><rect ry="16.667" y="-28" x="650" height="50" width="50"/><rect width="50" height="50" x="425" y="47" ry="16.667"/><rect width="100" height="100" x="450" y="-103" ry="33.333"/><rect width="50" height="50" x="525" y="-28" ry="16.667"/><rect ry="16.667" y="-53" x="525" height="50" width="50"/><rect width="50" height="50" x="450" y="97" ry="16.667"/><rect width="50" height="50" x="625" y="-3" ry="16.667"/><rect width="50" height="50" x="900" y="-3" ry="16.667"/><rect width="50" height="50" x="550" y="72" ry="16.667"/><rect ry="50" y="-353" x="550" height="200" width="200" transform="translate(0 -100)"/><path d="M500-603L100.22-247.64a25.145 25.145 0 00-2.207 1.963A24.921 24.921 0 0090.69-228c0 13.807 11.193 25 25 25h768.62c13.807 0 25-11.193 25-25a24.921 24.921 0 00-7.322-17.677 25.151 25.151 0 00-2.202-1.958z"/><rect width="100" height="100" x="150" y="-253" ry="33.333" transform="translate(0 -100)"/><rect ry="50" y="-403" x="275" height="150" width="150" transform="translate(0 -100)"/><rect ry="50" y="-253" x="325" height="150" width="150"/><rect ry="50" y="-253" x="575" height="150" width="150"/><rect width="150" height="150" x="675" y="-303" ry="50"/><rect width="150" height="150" x="425" y="-278" ry="50"/><rect ry="16.667" y="-128" x="325" height="50" width="50"/></g></g></svg>