<svg xmlns="http://www.w3.org/2000/svg" width="1000" height="1000"><g transform="translate(0 -32.417)"><path fill="#eaf" d="M235.425 32.417L1000 267.842l-235.424 764.575L0 796.992z"/><rect width="650" height="650" x="309.54" y="36.7" ry="50" transform="rotate(17.114)" fill="#e580ff"/><path d="M643.427 236.522l-69.857 56.965-406.25 214.967 150.785-319.787zM523.824 879.81l-82.68-156.25-332.68-23.962 128.644 91.928z" fill="#d42aff"/><circle r="250" cy="361.7" cx="634.54" transform="rotate(17.114)" fill="#eaf"/><path d="M713.215 519.594c-32.506 105.566-70.864-74.137-176.43-106.642-105.566-32.506-260.434 166.174-227.929 60.608 32.506-105.565 144.434-164.792 250-132.287 105.566 32.505 186.864 72.755 154.359 178.321z" fill="#f6d5ff"/><path d="M669.368 244.51l189.096 58.225c26.473 8.152 41.224 36.027 33.072 62.5L809.768 630.79l-96.553-111.195-137.823-147.071z" fill="#f6d5ff"/></g></svg>