<svg xmlns="http://www.w3.org/2000/svg" width="1000" height="1000"><g style="display:inline;opacity:1" transform="translate(0 -32.417)"><path d="M234.54-38.3h800v800h-800z" style="opacity:1;vector-effect:none;fill:#eaf;fill-opacity:1;stroke:none;stroke-width:10;stroke-linecap:round;stroke-linejoin:miter;stroke-miterlimit:4;stroke-dasharray:none;stroke-dashoffset:0;stroke-opacity:1;paint-order:normal" transform="rotate(17.114)"/><rect width="650" height="650" x="309.54" y="36.7" ry="50" style="opacity:1;vector-effect:none;fill:#e580ff;fill-opacity:1;stroke:none;stroke-width:47.54819107;stroke-linecap:round;stroke-linejoin:miter;stroke-miterlimit:4;stroke-dasharray:none;stroke-dashoffset:0;stroke-opacity:1;paint-order:normal" transform="rotate(17.114)"/><path d="m643.427 236.522-69.857 56.965-406.25 214.967 150.785-319.787zM523.824 879.81l-82.68-156.25-332.68-23.962 128.644 91.928z" style="fill:#d42aff;fill-opacity:1;stroke:none;stroke-width:1px;stroke-linecap:butt;stroke-linejoin:miter;stroke-opacity:1"/><circle cx="634.54" cy="361.7" r="250" style="opacity:1;vector-effect:none;fill:#eaf;fill-opacity:1;stroke:none;stroke-width:10;stroke-linecap:round;stroke-linejoin:miter;stroke-miterlimit:4;stroke-dasharray:none;stroke-dashoffset:0;stroke-opacity:1;paint-order:normal" transform="rotate(17.114)"/><path d="M713.215 519.594c-32.506 105.566-70.864-74.137-176.43-106.642-105.566-32.506-260.434 166.174-227.929 60.608 32.506-105.565 144.434-164.792 250-132.287s186.864 72.755 154.359 178.321" style="opacity:1;vector-effect:none;fill:#f6d5ff;fill-opacity:1;stroke:none;stroke-width:8;stroke-linecap:round;stroke-linejoin:miter;stroke-miterlimit:4;stroke-dasharray:none;stroke-dashoffset:0;stroke-opacity:1;paint-order:normal"/><path d="m669.368 244.51 189.096 58.225c26.473 8.152 41.224 36.027 33.072 62.5L809.768 630.79l-96.553-111.195-137.823-147.071Z" style="opacity:1;vector-effect:none;fill:#f6d5ff;fill-opacity:1;stroke:none;stroke-width:47.54819107;stroke-linecap:round;stroke-linejoin:miter;stroke-miterlimit:4;stroke-dasharray:none;stroke-dashoffset:0;stroke-opacity:1;paint-order:normal"/></g></svg>