<svg xmlns="http://www.w3.org/2000/svg" width="1000" height="1000"><path d="m367.074 630.053 33.231 365.544h66.464S481.656 762.978 500 762.978c18.377 0 33.23 232.619 33.23 232.619h66.465l33.23-365.544h-99.694z" style="fill:#66757f;stroke-width:33.23141098" transform="translate(0 -32.417)"/><path d="M389.958 1007.867c-15.5-1.417-5.334-19 1.722-24.917 7.833-6.611 20.389-12.25 26.694-23.667 6.973-12.639 40.695-10.972 47.806-.639 12.694 18.445 18.333 4.973 22 13.556 5.889 13.722 1.389 35.667 1.389 35.667zm240.722 0c15.5-1.417 5.333-19-1.722-24.917-7.833-6.611-20.389-12.25-26.695-23.667-6.972-12.639-40.694-10.972-47.805-.639-12.695 18.445-18.333 4.973-22 13.556-5.889 13.722-1.389 35.667-1.389 35.667z" style="fill:#292f33;stroke-width:27.77779961" transform="matrix(1.19633 0 0 1.19633 -110.51 -205.741)"/><path d="M31.898 23.938C31.3 17.32 28 14 28 14l-6-8h-8l-6 8s-1.419 1.433-2.567 4.275C3.444 18.935 2 20.789 2 23a4.97 4.97 0 0 0 1.609 3.655A4.94 4.94 0 0 0 3 29c0 1.958 1.136 3.636 2.775 4.456C7.058 35.378 8.772 36 10 36h16c1.379 0 3.373-.779 4.678-3.31C32.609 31.999 34 30.17 34 28a4.99 4.99 0 0 0-2.102-4.062M18 6c.55 0 1.058-.158 1.5-.416.443.258.951.416 1.5.416 1.657 0 4-2.344 4-4 0 0 0-2-2-2-.788 0-1 1-2 1s-1-1-3-1-2 1-3 1-1.211-1-2-1c-2 0-2 2-2 2 0 1.656 2.344 4 4 4 .549 0 1.057-.158 1.5-.416.443.258.951.416 1.5.416" style="fill:#fdd888" transform="matrix(8.33333 0 0 8.33333 533.333 700)"/><path d="M24 6a1 1 0 0 1-1 1H13a1 1 0 0 1 0-2h10a1 1 0 0 1 1 1" style="fill:#bf6952" transform="matrix(8.33333 0 0 8.33333 533.333 700)"/><path d="M23.901 24.542c0-4.477-8.581-4.185-8.581-6.886 0-1.308 1.301-1.947 2.811-1.947 2.538 0 2.99 1.569 4.139 1.569.813 0 1.205-.493 1.205-1.046 0-1.284-2.024-2.256-3.965-2.592V12.4c0-.773-.65-1.4-1.454-1.4-.805 0-1.456.627-1.456 1.4v1.283c-2.116.463-3.937 1.875-3.937 4.176 0 4.299 8.579 4.125 8.579 7.145 0 1.047-1.178 2.093-3.111 2.093-2.901 0-3.867-1.889-5.045-1.889-.574 0-1.087.464-1.087 1.164 0 1.113 1.938 2.451 4.603 2.824l-.001.01v1.398c0 .772.652 1.4 1.456 1.4s1.455-.628 1.455-1.4v-1.398c0-.017-.008-.03-.009-.045 2.398-.43 4.398-1.932 4.398-4.619" style="fill:#67757f" transform="matrix(8.33333 0 0 8.33333 533.333 700)"/><path d="M31.898 23.938C31.3 17.32 28 14 28 14l-6-8h-8l-6 8s-1.419 1.433-2.567 4.275C3.444 18.935 2 20.789 2 23a4.97 4.97 0 0 0 1.609 3.655A4.94 4.94 0 0 0 3 29c0 1.958 1.136 3.636 2.775 4.456C7.058 35.378 8.772 36 10 36h16c1.379 0 3.373-.779 4.678-3.31C32.609 31.999 34 30.17 34 28a4.99 4.99 0 0 0-2.102-4.062M18 6c.55 0 1.058-.158 1.5-.416.443.258.951.416 1.5.416 1.657 0 4-2.344 4-4 0 0 0-2-2-2-.788 0-1 1-2 1s-1-1-3-1-2 1-3 1-1.211-1-2-1c-2 0-2 2-2 2 0 1.656 2.344 4 4 4 .549 0 1.057-.158 1.5-.416.443.258.951.416 1.5.416" style="fill:#fdd888" transform="matrix(8.33333 0 0 8.33333 166.667 700)"/><path d="M24 6a1 1 0 0 1-1 1H13a1 1 0 0 1 0-2h10a1 1 0 0 1 1 1" style="fill:#bf6952" transform="matrix(8.33333 0 0 8.33333 166.667 700)"/><path d="M23.901 24.542c0-4.477-8.581-4.185-8.581-6.886 0-1.308 1.301-1.947 2.811-1.947 2.538 0 2.99 1.569 4.139 1.569.813 0 1.205-.493 1.205-1.046 0-1.284-2.024-2.256-3.965-2.592V12.4c0-.773-.65-1.4-1.454-1.4-.805 0-1.456.627-1.456 1.4v1.283c-2.116.463-3.937 1.875-3.937 4.176 0 4.299 8.579 4.125 8.579 7.145 0 1.047-1.178 2.093-3.111 2.093-2.901 0-3.867-1.889-5.045-1.889-.574 0-1.087.464-1.087 1.164 0 1.113 1.938 2.451 4.603 2.824l-.001.01v1.398c0 .772.652 1.4 1.456 1.4s1.455-.628 1.455-1.4v-1.398c0-.017-.008-.03-.009-.045 2.398-.43 4.398-1.932 4.398-4.619" style="fill:#67757f" transform="matrix(8.33333 0 0 8.33333 166.667 700)"/><path d="M367.074 729.746c0 18.377-14.887 33.231-33.231 33.231s-33.231-14.854-33.231-33.231V463.895c0-18.344 14.887-33.232 33.231-33.232s33.231 14.888 33.231 33.232zm332.314 0c0 18.377-14.854 33.231-33.231 33.231s-33.231-14.854-33.231-33.231V463.895c0-18.344 14.854-33.232 33.231-33.232s33.231 14.888 33.231 33.232z" style="fill:#ffdc5d;stroke-width:33.23141098" transform="translate(0 -32.417)"/><path d="M632.926 364.2H367.074c-36.687 0-66.462 29.776-66.462 66.463v265.852h66.462v33.231h66.463L500 696.515l66.463 33.231h66.463v-33.231h66.462V430.663c0-36.687-29.775-66.462-66.462-66.462" style="fill:#292f33;stroke-width:33.23141098" transform="translate(0 -32.417)"/><path d="M460.09 330.97h79.82v52.904h-79.82Zm-49.682-105.71c0 19.673-9.97 35.59-22.265 35.59s-22.265-15.95-22.265-35.59c0-19.673 9.97-35.59 22.265-35.59 12.296-.034 22.265 15.917 22.265 35.59m222.518 0c0 19.673-9.97 35.59-22.265 35.59s-22.265-15.95-22.265-35.59c0-19.673 9.969-35.59 22.265-35.59 12.295-.034 22.265 15.917 22.265 35.59" style="fill:#ffdc5d;stroke-width:33.23141098" transform="translate(0 -32.417)"/><path d="M500 361.077c-63.904 0-115.712-61.512-115.712-137.412S436.096 86.253 500 86.253s115.712 61.511 115.712 137.412c0 75.9-51.808 137.412-115.712 137.412" style="fill:#ffdc5d;stroke-width:33.23141098" transform="translate(0 -32.417)"/><path d="M543.367 300.928a2.85 2.85 0 0 0-2.426-1.363h-81.517c-.996 0-1.927.499-2.425 1.363a2.87 2.87 0 0 0-.1 2.791c.498.964 12.362 23.395 43.3 23.395 30.939 0 42.803-22.464 43.301-23.395.432-.864.366-1.927-.133-2.791m-43.101-38.548c-8.94 0-15.885-1.596-21.468-4.055 1.828 6.58 6.979 15.752 21.468 15.752s19.606-9.172 21.467-15.752c-5.583 2.46-12.528 4.055-21.467 4.055" style="fill:#c1694f;stroke-width:33.23141098" transform="translate(0 -32.417)"/><path d="M394.557 211.203c1.994-9.836 4.918-18.144 8.175-25.621H376.91c4.02 29.044 15.452 36.388 17.646 25.621m210.886-4.154c7.943 15.619 15.785 5.051 18.278-25.621h-31.304z" style="fill:#ffac33;stroke-width:33.23141098" transform="translate(0 -32.417)"/><path d="m559.817 437.31 42.403-39.878-16.284-33.231h-26.12z" style="fill:#546170;stroke-width:33.23141098" transform="translate(0 -32.417)"/><path d="m499.9 596.82 102.984-167.652-42.237-45.228Z" style="fill:#66757f;stroke-width:33.23141098" transform="translate(0 -32.417)"/><path d="m440.183 437.31-42.403-39.878 16.284-33.231h26.12z" style="fill:#546170;stroke-width:33.23141098" transform="translate(0 -32.417)"/><path d="M500 596.82 397.016 429.168l42.237-45.228Z" style="fill:#66757f;stroke-width:33.23141098" transform="translate(0 -32.417)"/><path d="M500 596.82 433.537 364.2 500 397.433l66.463-33.231Z" style="fill:#e1e8ed;stroke-width:33.23141098" transform="translate(0 -32.417)"/><path d="M533.231 397.432 500 383.574l-33.231 13.858 29.177 29.177-26.353 63.738L500 596.82l30.407-106.473-26.353-63.738Z" style="fill:#55acee;stroke-width:33.23141098" transform="translate(0 -32.417)"/><path d="M452.213 349.645 500 383.575l-31.171 33.065-35.292-52.44Zm95.574 0L500 383.575l31.171 33.065 35.292-52.44z" style="fill:#f5f8fa;stroke-width:33.23141098" transform="translate(0 -32.417)"/><path d="M577.23 130.816c20.337-5.516 36.255-13.658 36.255-13.658s-4.685-19.208-9.404-31.57c-14.689-38.349-39.047-57.457-61.445-51.774-33.863 8.607-49.714 3.655-90.124-1.13-40.376-4.785-58.919 55.895-65.4 84.474 0 0 10.701 9.106 29.976 13.392.73.167 1.661.266 2.426.432-69.587 3.124-92.616 11.665-92.616 28.314 0 21.932 77.628 44.297 173.434 44.297 95.773 0 173.435-22.365 173.435-44.297-.066-16.982-24.026-25.489-96.537-28.48" style="fill:#292f33;stroke-width:33.23141098" transform="translate(0 -32.417)"/><path d="M619.068 139.058a201 201 0 0 0-1.429-7.311c-1.595-7.477-4.187-14.589-4.187-14.589s-36.588 14.257-113.186 14.257-113.186-14.257-113.186-14.257-2.592 7.112-4.187 14.589a233 233 0 0 0-1.43 7.31c-1.595 9.073 2.692 15.32 32.102 21.568 19.939 4.22 52.572 8.009 86.668 7.31 34.095.699 66.762-3.09 86.667-7.31 29.51-6.248 33.796-12.495 32.168-21.567" style="fill:#66757f;stroke-width:33.23141098" transform="translate(0 -32.417)"/><path d="m616.044 194.62-31.836 10.502c-11.199-1.562-34.494-2.194-59.118.498-6.547.731-9.04 2.592-24.558 2.592-15.486 0-18.012-1.86-24.558-2.592-24.625-2.692-47.92-2.06-59.119-.498l-31.836-10.501c-3.09-1.097-6.347.631-7.344 3.688s.665 6.314 3.689 7.344l29.709 9.804c2.193 1.695 6.912 4.918 8.042 8.241 1.296 3.855 3.888 28.612 11.63 35.06 8.01 6.646 38.15 4.153 43.933 1.295 12.927-6.447 14.522-27.25 16.782-36.355 1.296-5.15 9.038-5.15 9.038-5.15s7.743 0 9.04 5.15c2.292 9.106 3.887 29.975 16.781 36.422 5.783 2.89 35.923 5.35 43.932-1.296 7.743-6.447 10.335-31.271 11.631-35.126 1.097-3.323 5.816-6.513 8.009-8.208l29.742-9.803a5.777 5.777 0 0 0 3.689-7.344c-.964-3.09-4.387-4.786-7.278-3.722" style="fill:#292f33;stroke-width:33.23141098" transform="translate(0 -32.417)"/></svg>