<svg xmlns="http://www.w3.org/2000/svg" width="1000" height="1000"><path d="M367.074 597.636l33.231 365.544h66.464S481.656 730.562 500 730.562c18.377 0 33.23 232.618 33.23 232.618h66.465l33.23-365.544h-99.694z" fill="#66757f"/><path d="M356.008 1000c-18.543-1.695-6.38-22.73 2.06-29.809 9.372-7.909 24.392-14.655 31.936-28.313 8.341-15.12 48.684-13.126 57.191-.764 15.187 22.066 21.933 5.948 26.32 16.217 7.045 16.416 1.661 42.669 1.661 42.669zm287.984 0c18.543-1.695 6.38-22.73-2.06-29.809-9.372-7.909-24.392-14.655-31.936-28.313-8.341-15.12-48.684-13.126-57.191-.764-15.187 22.066-21.933 5.948-26.32 16.217-7.045 16.416-1.661 42.669-1.661 42.669z" fill="#292f33"/><path d="M799.15 899.483c-4.983-55.15-32.483-82.816-32.483-82.816l-50-66.667H650l-50 66.667s-11.825 11.941-21.392 35.625c-16.575 5.5-28.608 20.95-28.608 39.375 0 12.066 5.208 22.85 13.408 30.458-3.133 5.85-5.075 12.433-5.075 19.542 0 16.316 9.467 30.3 23.125 37.133 10.692 16.017 24.975 21.2 35.209 21.2H750c11.492 0 28.108-6.492 38.983-27.583 16.092-5.759 27.684-21 27.684-39.084 0-13.983-6.95-26.283-17.517-33.85zM683.333 750c4.584 0 8.817-1.317 12.5-3.467 3.692 2.15 7.925 3.467 12.5 3.467 13.809 0 33.334-19.533 33.334-33.333 0 0 0-16.667-16.667-16.667-6.567 0-8.333 8.333-16.667 8.333-8.333 0-8.333-8.333-25-8.333-16.666 0-16.666 8.333-25 8.333-8.333 0-10.091-8.333-16.666-8.333C625 700 625 716.667 625 716.667c0 13.8 19.533 33.333 33.333 33.333 4.575 0 8.809-1.317 12.5-3.467 3.692 2.15 7.925 3.467 12.5 3.467z" fill="#fdd888"/><path d="M733.333 750c0 4.6-3.725 8.333-8.333 8.333h-83.333a8.336 8.336 0 01-8.334-8.333c0-4.6 3.734-8.333 8.334-8.333H725a8.331 8.331 0 018.333 8.333z" fill="#bf6952"/><path d="M732.508 904.517c0-37.309-71.508-34.875-71.508-57.384 0-10.9 10.842-16.225 23.425-16.225 21.15 0 24.917 13.075 34.492 13.075 6.775 0 10.041-4.108 10.041-8.716 0-10.7-16.866-18.8-33.041-21.6v-10.334c0-6.441-5.417-11.666-12.117-11.666-6.708 0-12.133 5.225-12.133 11.666v10.692c-17.634 3.858-32.809 15.625-32.809 34.8 0 35.825 71.492 34.375 71.492 59.542 0 8.725-9.817 17.441-25.925 17.441-24.175 0-32.225-15.741-42.042-15.741-4.783 0-9.058 3.866-9.058 9.7 0 9.275 16.15 20.425 38.358 23.533l-.008.083v11.65c0 6.434 5.433 11.667 12.133 11.667 6.7 0 12.125-5.233 12.125-11.667v-11.65c0-.141-.066-.25-.075-.375 19.984-3.583 36.65-16.1 36.65-38.491z" fill="#67757f"/><path d="M432.483 899.483C427.5 844.333 400 816.667 400 816.667L350 750h-66.667l-50 66.667s-11.825 11.941-21.391 35.625c-16.575 5.5-28.609 20.95-28.609 39.375 0 12.066 5.209 22.85 13.409 30.458-3.134 5.85-5.075 12.433-5.075 19.542 0 16.316 9.466 30.3 23.125 37.133 10.691 16.017 24.975 21.2 35.208 21.2h133.333c11.492 0 28.109-6.492 38.984-27.583 16.091-5.759 27.683-21 27.683-39.084 0-13.983-6.95-26.283-17.517-33.85zM316.667 750c4.583 0 8.816-1.317 12.5-3.467 3.691 2.15 7.925 3.467 12.5 3.467C355.475 750 375 730.467 375 716.667c0 0 0-16.667-16.667-16.667-6.566 0-8.333 8.333-16.666 8.333-8.334 0-8.334-8.333-25-8.333-16.667 0-16.667 8.333-25 8.333-8.334 0-10.092-8.333-16.667-8.333-16.667 0-16.667 16.667-16.667 16.667 0 13.8 19.534 33.333 33.334 33.333 4.575 0 8.808-1.317 12.5-3.467 3.691 2.15 7.925 3.467 12.5 3.467z" fill="#fdd888"/><path d="M366.667 750c0 4.6-3.725 8.333-8.334 8.333H275a8.336 8.336 0 01-8.333-8.333c0-4.6 3.733-8.333 8.333-8.333h83.333a8.331 8.331 0 018.334 8.333z" fill="#bf6952"/><path d="M365.842 904.517c0-37.309-71.509-34.875-71.509-57.384 0-10.9 10.842-16.225 23.425-16.225 21.15 0 24.917 13.075 34.492 13.075 6.775 0 10.042-4.108 10.042-8.716 0-10.7-16.867-18.8-33.042-21.6v-10.334c0-6.441-5.417-11.666-12.117-11.666-6.708 0-12.133 5.225-12.133 11.666v10.692c-17.633 3.858-32.808 15.625-32.808 34.8 0 35.825 71.491 34.375 71.491 59.542 0 8.725-9.816 17.441-25.925 17.441-24.175 0-32.225-15.741-42.041-15.741-4.784 0-9.059 3.866-9.059 9.7 0 9.275 16.15 20.425 38.359 23.533l-.009.083v11.65c0 6.434 5.434 11.667 12.134 11.667s12.125-5.233 12.125-11.667v-11.65c0-.141-.067-.25-.075-.375 19.983-3.583 36.65-16.1 36.65-38.491z" fill="#67757f"/><path d="M367.074 697.33c0 18.376-14.887 33.23-33.231 33.23s-33.231-14.854-33.231-33.23V431.477c0-18.344 14.887-33.231 33.231-33.231s33.231 14.887 33.231 33.231zm332.314 0c0 18.376-14.854 33.23-33.231 33.23-18.377 0-33.231-14.854-33.231-33.23V431.477c0-18.344 14.854-33.231 33.231-33.231 18.377 0 33.231 14.887 33.231 33.231z" fill="#ffdc5d"/><path d="M632.926 331.784H367.074c-36.687 0-66.462 29.775-66.462 66.463v265.851h66.462v33.231h66.463L500 664.098l66.463 33.231h66.463v-33.231h66.462V398.247c0-36.688-29.775-66.463-66.462-66.463z" fill="#292f33"/><path d="M460.09 298.552h79.82v52.905h-79.82zm-49.682-105.709c0 19.673-9.97 35.591-22.265 35.591-12.296 0-22.265-15.95-22.265-35.59 0-19.674 9.97-35.591 22.265-35.591 12.296-.034 22.265 15.917 22.265 35.59zm222.518 0c0 19.673-9.97 35.591-22.265 35.591-12.296 0-22.265-15.95-22.265-35.59 0-19.674 9.969-35.591 22.265-35.591 12.295-.034 22.265 15.917 22.265 35.59z" fill="#ffdc5d"/><path d="M500 328.66c-63.904 0-115.712-61.511-115.712-137.412 0-75.9 51.808-137.412 115.712-137.412s115.712 61.512 115.712 137.412S563.904 328.66 500 328.66" fill="#ffdc5d"/><path d="M543.367 268.511a2.846 2.846 0 00-2.426-1.362h-81.517c-.996 0-1.927.498-2.425 1.362a2.874 2.874 0 00-.1 2.792c.498.963 12.362 23.395 43.3 23.395 30.939 0 42.803-22.465 43.301-23.395.432-.864.366-1.928-.133-2.792zm-43.101-38.548c-8.94 0-15.885-1.595-21.468-4.054 1.828 6.58 6.979 15.751 21.468 15.751s19.606-9.172 21.467-15.751c-5.583 2.459-12.528 4.054-21.467 4.054z" fill="#c1694f"/><path d="M394.557 178.786c1.994-9.836 4.918-18.144 8.175-25.621H376.91c4.02 29.044 15.452 36.388 17.646 25.621zm210.886-4.153c7.943 15.618 15.785 5.05 18.278-25.622h-31.304z" fill="#ffac33"/><path d="M559.817 404.893l42.403-39.878-16.284-33.231h-26.12z" fill="#546170"/><path d="M499.9 564.404L602.884 396.75l-42.237-45.228z" fill="#66757f"/><path d="M440.183 404.893l-42.403-39.878 16.284-33.231h26.12z" fill="#546170"/><path d="M500 564.404L397.016 396.75l42.237-45.228z" fill="#66757f"/><path d="M500 564.404l-66.463-232.62L500 365.015l66.463-33.231z" fill="#e1e8ed"/><path d="M533.231 365.015L500 351.158l-33.231 13.857 29.177 29.177-26.353 63.738L500 564.404l30.407-106.474-26.353-63.738z" fill="#55acee"/><path d="M452.213 317.229L500 351.158l-31.171 33.065-35.292-52.44zm95.574 0L500 351.158l31.171 33.065 35.292-52.44z" fill="#f5f8fa"/><path d="M577.23 98.4c20.337-5.517 36.255-13.658 36.255-13.658s-4.685-19.208-9.404-31.57c-14.689-38.35-39.047-57.457-61.445-51.775-33.863 8.607-49.714 3.656-90.124-1.13-40.376-4.785-58.919 55.896-65.4 84.475 0 0 10.701 9.105 29.976 13.392.73.166 1.661.266 2.426.432-69.587 3.124-92.616 11.664-92.616 28.313 0 21.933 77.628 44.297 173.434 44.297 95.773 0 173.435-22.364 173.435-44.297-.066-16.981-24.026-25.488-96.537-28.48z" fill="#292f33"/><path d="M619.068 106.641a200.508 200.508 0 00-1.429-7.31c-1.595-7.478-4.187-14.59-4.187-14.59s-36.588 14.257-113.186 14.257c-76.599 0-113.186-14.256-113.186-14.256s-2.592 7.111-4.187 14.588a232.627 232.627 0 00-1.43 7.311c-1.595 9.072 2.692 15.32 32.102 21.567 19.939 4.22 52.572 8.009 86.668 7.311 34.095.698 66.762-3.09 86.667-7.31 29.51-6.248 33.796-12.496 32.168-21.568z" fill="#66757f"/><path d="M616.044 162.204l-31.836 10.501c-11.199-1.562-34.494-2.193-59.118.499-6.547.73-9.04 2.592-24.558 2.592-15.486 0-18.012-1.861-24.558-2.592-24.625-2.692-47.92-2.06-59.119-.499l-31.836-10.501c-3.09-1.097-6.347.631-7.344 3.689-.997 3.057.665 6.314 3.689 7.344l29.709 9.803c2.193 1.695 6.912 4.918 8.042 8.241 1.296 3.855 3.888 28.613 11.63 35.06 8.01 6.646 38.15 4.154 43.933 1.296 12.927-6.447 14.522-27.25 16.782-36.356 1.296-5.15 9.038-5.15 9.038-5.15s7.743 0 9.04 5.15c2.292 9.106 3.887 29.975 16.781 36.422 5.783 2.891 35.923 5.35 43.932-1.296 7.743-6.447 10.335-31.27 11.631-35.126 1.097-3.323 5.816-6.513 8.009-8.208l29.742-9.803a5.777 5.777 0 003.689-7.344c-.964-3.09-4.387-4.785-7.278-3.722z" fill="#292f33"/></svg>