<svg xmlns="http://www.w3.org/2000/svg" xmlns:osb="http://www.openswatchbook.org/uri/2009/osb" xmlns:xlink="http://www.w3.org/1999/xlink" width="1000" height="1000"><defs><linearGradient xlink:href="#a" id="b" x1=".008" x2="1000.008" y1="-203.002" y2="-203.002" gradientTransform="translate(-.008 735.418)" gradientUnits="userSpaceOnUse"/><linearGradient osb:paint="solid" id="a"><stop offset="0" style="stop-color:#ffcc4d;stop-opacity:1"/></linearGradient></defs><g transform="translate(0 -32.417)"><path d="M500 32.417h-.485.97zm102.142 10.446 18.44 89.555-70.59 100 50 50-50 50-50 250-50-250 50-50-50-50 50-100-152.571-76.285C145.911 120.647 0 309.513 0 532.417c0 276.138 223.885 500 500 500 276.137 0 500-223.862 500-500 0-241.11-170.706-442.396-397.858-489.554" style="fill:url(#b);fill-opacity:1;stroke-width:27.77776337"/><ellipse cx="319.446" cy="490.748" rx="69.444" ry="97.222" style="fill:#664500;stroke-width:27.77776527"/><ellipse cx="680.556" cy="490.748" rx="69.444" ry="97.222" style="fill:#664500;stroke-width:27.77776527"/><path d="M652.357 806.833c0-1.217-31.8-121.638-152.357-121.638-120.556 0-152.052 120.416-152.336 121.638-1.47 5.922 1.155 11.972 6.404 15.111 5.25 3.108 12.032 2.394 16.557-1.67 0-.21 28.168-23.972 129.365-23.972 99.727 0 128.251 23.056 129.333 23.973 2.625 2.499 6.09 3.8 9.554 3.8 2.31 0 4.724-.63 6.824-1.774 5.46-3.107 8.189-9.417 6.614-15.472zM833.333 365.75c-154.278 0-216.724-121.306-219.307-126.473-6.824-13.721-1.26-30.416 12.42-37.277 13.67-6.856 30.33-1.334 37.218 12.305 2.1 4.053 50.583 95.89 169.67 95.89 15.359 0 27.779 12.444 27.779 27.777s-12.42 27.778-27.78 27.778m-666.666 0c-15.328 0-27.78-12.444-27.78-27.778s12.452-27.778 27.78-27.778c141.197 0 166.55-86.667 167.58-90.361 3.99-14.667 19.17-23.555 33.869-19.695 14.719 3.864 23.632 18.695 19.937 33.473-1.365 5.386-35.16 132.139-221.386 132.139" style="fill:#664500;stroke-width:27.77776527"/><path d="M499.992 82.418a450 450 0 0 0-83.677 8.162l83.677 41.838-50 100 50 50-50 50 50 250 50-250 50-50-50-50 70.59-100-7.187-34.9a450 450 0 0 0-113.403-15.1" style="opacity:1;fill:#292f33;fill-opacity:1;stroke:none;stroke-width:.26499987;stroke-linecap:round;stroke-linejoin:miter;stroke-miterlimit:4;stroke-dasharray:none;stroke-opacity:1;paint-order:normal"/></g></svg>