<svg xmlns="http://www.w3.org/2000/svg" width="1000" height="1000"><text xml:space="preserve" x="23.616" y="1579.562" style="font-style:normal;font-variant:normal;font-weight:400;font-stretch:normal;font-size:671.37640381px;line-height:1.25;font-family:&quot;DejaVu Sans&quot;;-inkscape-font-specification:&quot;DejaVu Sans&quot;;letter-spacing:0;word-spacing:0;fill:#000;fill-opacity:1;stroke:none;stroke-width:.25176615" transform="translate(0 -32.417)"/><text xml:space="preserve" x="-214.273" y="-894.486" style="font-style:normal;font-variant:normal;font-weight:400;font-stretch:normal;font-size:671.37640381px;line-height:1.25;font-family:&quot;DejaVu Sans&quot;;-inkscape-font-specification:&quot;DejaVu Sans&quot;;letter-spacing:0;word-spacing:0;fill:#000;fill-opacity:1;stroke:none;stroke-width:.25176615" transform="translate(0 -32.417)"/><path d="M0 532.417v125c0 125 0 125 125 187.5l125 62.5 125 62.5c125 62.5 125 62.5 250 0l125-62.5 125-62.5c125-62.5 125-62.5 125-187.5v-125z" style="fill:#553788;stroke:none;stroke-width:1;stroke-linecap:butt;stroke-linejoin:miter;stroke-opacity:1;font-variant-east_asian:normal;opacity:1;vector-effect:none;fill-opacity:1;stroke-miterlimit:4;stroke-dasharray:none;stroke-dashoffset:0" transform="translate(0 -32.417)"/><path d="m375 94.917-125 62.5-125 62.5c-125 62.5-125 62.5-125 187.5v125-50c0 125 0 125 125 187.5l125 62.5 125 62.5c125 62.5 125 62.5 250 0l125-62.5 125-62.5c125-62.5 125-62.5 125-187.5v50-125c0-125-16.08-133.04-125-187.5l-125-62.5-125-62.5c-125-62.5-125-62.5-250 0" style="fill:#9266cc;stroke:none;stroke-width:1;stroke-linecap:butt;stroke-linejoin:miter;stroke-miterlimit:4;stroke-dasharray:none;stroke-opacity:1;font-variant-east_asian:normal;opacity:1;vector-effect:none;fill-opacity:1;stroke-dashoffset:0" transform="translate(0 -32.417)"/><path d="M317.364 232.164v464.353h365.525v-50.252h-232.89V478.443h211.874V428.19H450V282.416h225.31v-50.252z" style="font-style:normal;font-variant:normal;font-weight:700;font-stretch:normal;font-size:705.55554199px;line-height:1.25;font-family:&quot;DejaVu Sans&quot;;-inkscape-font-specification:&quot;DejaVu Sans Bold&quot;;letter-spacing:0;word-spacing:0;fill:#744eaa;fill-opacity:1;stroke:none;stroke-width:1;font-variant-east_asian:normal;opacity:1;vector-effect:none;stroke-linecap:butt;stroke-linejoin:miter;stroke-miterlimit:4;stroke-dasharray:none;stroke-dashoffset:0;stroke-opacity:1" transform="translate(0 -32.417)"/><path d="M317.364 182.165v100.252H675.31V182.165zM450 378.19v104.227h211.873V378.19zm0 218.075v100.252h232.889V596.265z" style="font-style:normal;font-variant:normal;font-weight:700;font-stretch:normal;font-size:705.55554199px;line-height:1.25;font-family:&quot;DejaVu Sans&quot;;-inkscape-font-specification:&quot;DejaVu Sans Bold&quot;;letter-spacing:0;word-spacing:0;fill:#553788;fill-opacity:1;stroke:none;stroke-width:1;font-variant-east_asian:normal;opacity:1;vector-effect:none;stroke-linecap:butt;stroke-linejoin:miter;stroke-miterlimit:4;stroke-dasharray:none;stroke-dashoffset:0;stroke-opacity:1" transform="translate(0 -32.417)"/></svg>