<svg xmlns="http://www.w3.org/2000/svg" width="1000" height="1000"><text style="line-height:1.25;-inkscape-font-specification:'DejaVu Sans'" x="23.616" y="1579.562" font-weight="400" font-size="671.376" font-family="DejaVu Sans" letter-spacing="0" word-spacing="0" stroke-width=".252" transform="translate(0 -32.417)"/><text style="line-height:1.25;-inkscape-font-specification:'DejaVu Sans'" x="-214.273" y="-894.486" font-weight="400" font-size="671.376" font-family="DejaVu Sans" letter-spacing="0" word-spacing="0" stroke-width=".252" transform="translate(0 -32.417)"/><path style="font-variant-east_asian:normal" d="M0 500v125c0 125 0 125 125 187.5L250 875l125 62.5c125 62.5 125 62.5 250 0L750 875l125-62.5C1000 750 1000 750 1000 625V500z" fill="#553788"/><path d="M375 62.5L250 125l-125 62.5C0 250 0 250 0 375v125-50c0 125 0 125 125 187.5L250 700l125 62.5c125 62.5 125 62.5 250 0L750 700l125-62.5C1000 575 1000 575 1000 450v50-125c0-125-16.08-133.04-125-187.5L750 125 625 62.5C500 0 500 0 375 62.5z" style="font-variant-east_asian:normal" fill="#9266cc"/><path style="line-height:1.25;-inkscape-font-specification:'DejaVu Sans Bold';font-variant-east_asian:normal" d="M317.364 199.748V664.1h365.525v-50.253h-232.89V446.026h211.874v-50.252H450V250h225.31v-50.252z" font-weight="700" font-size="705.556" font-family="DejaVu Sans" letter-spacing="0" word-spacing="0" fill="#744eaa"/><path style="line-height:1.25;-inkscape-font-specification:'DejaVu Sans Bold';font-variant-east_asian:normal" d="M317.364 149.748V250H675.31V149.748zM450 345.774V450h211.873V345.774zm0 218.074v100.253h232.889V563.848z" font-weight="700" font-size="705.556" font-family="DejaVu Sans" letter-spacing="0" word-spacing="0" fill="#553788"/></svg>