<svg xmlns="http://www.w3.org/2000/svg" width="1000" height="1000"><path d="m493.684 504.92-1.368-.746c.118 2.011.096 5.572-1.004 10.988-1.727 8.504-9.33 23.499-10.999 25.527-1.668 2.028-3.318 3.388-6.071 1.981-2.092-1.068-17.366-13.053-28.141-15.68-20.024-4.854-33.438 11.27-33.438 11.27s-9.898-8.673-17.74-15.672c-7.87-7.004-16.647-16.88-23.34-23.061-5.707-5.28-12.762-8.67-20.252-11.214-7.49-2.543-13.817-3.478-15.635-4.022-1.818-.545-17.775-1.827-15.208-17.348l.808-3.547-1.664.422s-.378-5.045-.308-5.966c.076-.949-.377-1.596 1.838-2.432 2.216-.835 11.611-2.785 23.171-3.3 11.56-.517 30.235-.962 44.014 1.837s24.951 7.93 31.412 10.937c6.49 3.013 20.45 9.091 21.984 8.73s4.344-4.698 6.24-5.833c1.924-1.129 44.721 11.449 47.705 12.727 3.012 1.284 3.42 4.172 3.174 5.378l-3.698 18.214c-.098.769-.846 1.143-1.48.81M164.981 612.145l7.967 17.198c.295.647-.065 1.409-.784 1.535l-1.576.216c1.313 1.584 3.437 4.523 5.797 9.609 3.714 8.019 6.561 24.921 6.387 27.578-.147 2.664-.675 4.776-3.76 5.285-2.365.382-22.108-.236-32.542 4.143-19.348 8.111-20.62 29.456-20.62 29.456l-24.018-2.135c-10.667-.976-23.856-3.784-33.084-4.806-7.87-.882-15.71.593-23.384 3.065-7.693 2.437-13.415 5.482-15.267 6.155-1.817.654-15.675 9.223-22.968-5.053l-1.46-3.408-1.112 1.325s-3.343-3.902-3.863-4.701c-.521-.799-1.27-1.097.025-3.084 1.297-1.988 7.847-9.29 17.012-16.698 9.2-7.428 24.237-19.057 37.236-25.071 13.006-6.042 25.265-8.546 32.39-10.011 7.126-1.466 22.259-4.894 23.312-6.117s.727-6.456 1.61-8.559c.874-2.075 43.604-17.621 46.82-18.391s5.363 1.344 5.882 2.469" style="fill:#292f33;stroke-width:28.63665581" transform="translate(0 -32.417)"/><path d="M678.309 942.805c-14.738-35.26-41.291-113.283-46.833-117.138-29.317-20.464-61.572-45.687-84.938-52.827-16.944-5.183-29.872-24.602-35.383-32.434-6.838-9.746-14.762-30.718-9.682-39.754 3.144-5.63 17.735-10.037 21.078-2.89 6.472 13.923 23.156 19.275 35.08 31.4 23.97 24.333 83.485 37.389 112.504 69.106 12.009 13.16 36.213 38.467 63.344 115.367-17.942 8.201-55.17 29.17-55.17 29.17" style="fill:#f9ca55;stroke-width:28.63665581" transform="translate(0 -32.417)"/><path d="M980.747 936.97c18.515 45.394 4.837 86.544-48.35 95.447-103.092 0-132.985 0-147.691-46.822 4.669-48.8 22.154-73.578 72.107-93.954s105.42-.065 123.934 45.329" style="fill:#ffdc5d;stroke-width:28.63665581" transform="translate(0 -32.417)"/><path d="M844.059 904.743c77.155-67.334 71.534 92.654 71.534 92.654-.716 30.28-51.398 10.055-78.769 24.654-18.921 9.999-29.535-30.996-29.535-30.996s.054-18.874-22.866-19.594l-.2.002c-5.845-.157-12.738.529-21.982 3.363-45.678 14.108-74.526-47.11-28.762-61.19 18.117-5.58 34.12-3.685 48.9-1.175l1.32.241c21.986 3.854 41.262 8.714 60.36-7.96z" style="fill:#ffdc5d;stroke-width:28.63665581" transform="translate(0 -32.417)"/><path d="M961.723 885.081c35.938 29.944 53.145 77.105 22.22 147.336h-51.546c18.752-33.108 1.403-37.936-12.55-45.325-13.951-7.389-38.778-.124-38.996-6.221-.633-16.574 15.635-14.083 24.89-20.755 15.158-10.926 6.31-27.17-10.743-30.54-13.522-2.669-36.395.448-40.161 22.546-33.143-14.57-43.559-44.14-43.559-44.14s-3.898-9.604 28.342-26.468c32.269-16.893 86.425-26.18 122.103 3.567" style="fill:#ffac33;stroke-width:28.63665581" transform="translate(0 -32.417)"/><path d="M434.588 515.478c-34.908-10.274-53.33-4.022-50.669 1.866 3.332 7.339 1.33 11.87.594 15.783-13.126 68.664-47.361 165.446-47.361 165.446-1.983 9.767-4.55 22.833-.146 45.614 11.102 57.278 67.054 238.328 67.054 238.328 9.92 30.009 42.333 46.38 72.347 36.432 30.036-9.913 39.494-33.035 36.432-72.346-5.773-74.459-51.283-174.111-66.922-232.077 18.374-58.246 17.076-109.121 34.362-164.17 2.483-7.911-10.783-24.602-45.69-34.876" style="fill:#2a6797;stroke-width:28.63665581" transform="translate(0 -32.417)"/><path d="M178.477 666.845c-16.434-2.881-33.639-2.25-49.498 3.176-12.068 3.89-23.856 10.523-31.025 21.294-3.4 5.062-6.063 11.007-6.182 17.146 1.72 2.777 4.143 5.045 6.032 7.713 23.794 30.107 43.025 63.425 62.46 96.414 15.086 26.188 28.986 53.039 43.664 79.45 10.613 16.595 26.676 28.624 42.852 39.39 34.35 23.6 134.808 78.935 170.158 100.989 80.763-9.453 103.091-45.586 86.064-73.518-23.668-26.267-53.085-46.662-83.957-63.564-24.456-13.522-49.468-26.008-73.944-39.493-17.724-9.628-35.33-19.495-52.438-30.186-3.352-4.25-4.668-9.66-7.655-14.14-15.575-28.655-37.832-52.772-58.812-77.47-16.94-20.122-32.828-41.547-43.424-65.765-.973-1.283-2.902-1.013-4.295-1.436" style="fill:#4289c1;stroke-width:28.63665581" transform="translate(0 -32.417)"/><path d="M444.005 853.123s-28.336.35-27.93 57.622l.863 121.672h309.275c103.728-2.508 73.733-52.106 60.236-92.378-17.66-52.65-76.573-76.182-168.774-81.893s-173.67-5.023-173.67-5.023" style="fill:#77b255;stroke-width:28.63665581" transform="translate(0 -32.417)"/><path d="M728.975 962.882c-20.52 0-116.699-10.967-122.141-15.53-28.942-24.212-63.535-50.098-77.27-71.946-9.943-15.845-33.331-23.636-42.826-27.075-11.804-4.27-35.374-6.536-43.172 1.1-4.87 4.78-5.325 20.842 2.876 22.26 15.975 2.774 26.038 18.248 41.68 27.061 31.4 17.684 61.141 74.726 101.467 95.527 16.733 8.626 46.419 19.965 149.51 19.965 23.565 0 11.414-51.362-10.124-51.362" style="fill:#ffdc5d;stroke-width:28.63665581" transform="translate(0 -32.417)"/></svg>