<svg xmlns="http://www.w3.org/2000/svg" width="1000" height="1000"><path d="M493.684 472.503l-1.368-.745c.118 2.01.096 5.571-1.004 10.988-1.727 8.503-9.33 23.498-10.999 25.526-1.668 2.028-3.318 3.388-6.071 1.981-2.092-1.067-17.366-13.052-28.141-15.679-20.024-4.855-33.438 11.269-33.438 11.269s-9.898-8.673-17.74-15.671c-7.87-7.004-16.647-16.881-23.34-23.062-5.707-5.279-12.762-8.67-20.252-11.213-7.49-2.544-13.817-3.478-15.635-4.023-1.818-.544-17.775-1.827-15.208-17.348l.808-3.547-1.664.422s-.378-5.044-.308-5.965c.076-.95-.377-1.596 1.838-2.432 2.216-.836 11.611-2.785 23.171-3.302 11.56-.516 30.235-.96 44.014 1.838 13.78 2.798 24.951 7.93 31.412 10.937 6.49 3.013 20.45 9.092 21.984 8.731 1.534-.36 4.344-4.699 6.24-5.833 1.924-1.13 44.721 11.448 47.705 12.726 3.012 1.284 3.42 4.172 3.174 5.379l-3.698 18.213c-.098.77-.846 1.143-1.48.81zM164.981 579.728l7.967 17.198c.295.647-.065 1.409-.784 1.536l-1.576.215c1.313 1.584 3.437 4.524 5.797 9.61 3.714 8.018 6.561 24.92 6.387 27.577-.147 2.664-.675 4.776-3.76 5.285-2.365.383-22.108-.236-32.542 4.144-19.348 8.11-20.62 29.456-20.62 29.456l-24.018-2.135c-10.667-.977-23.856-3.785-33.084-4.807-7.87-.881-15.71.593-23.384 3.065-7.693 2.437-13.415 5.482-15.267 6.156-1.817.653-15.675 9.222-22.968-5.053l-1.46-3.409-1.112 1.326s-3.343-3.903-3.863-4.702c-.521-.799-1.27-1.096.025-3.084 1.297-1.988 7.847-9.29 17.012-16.698 9.2-7.427 24.237-19.057 37.236-25.07 13.006-6.042 25.265-8.546 32.39-10.012 7.126-1.465 22.259-4.894 23.312-6.117 1.054-1.222.727-6.456 1.61-8.559.874-2.075 43.604-17.621 46.82-18.39 3.216-.77 5.363 1.343 5.882 2.468z" fill="#292f33"/><path d="M678.309 910.388c-14.738-35.26-41.291-113.283-46.833-117.138-29.317-20.464-61.572-45.686-84.938-52.827-16.944-5.183-29.872-24.601-35.383-32.434-6.838-9.746-14.762-30.718-9.682-39.754 3.144-5.63 17.735-10.037 21.078-2.89 6.472 13.923 23.156 19.275 35.08 31.4 23.97 24.334 83.485 37.39 112.504 69.107 12.009 13.16 36.213 38.467 63.344 115.367-17.942 8.2-55.17 29.169-55.17 29.169z" fill="#f9ca55"/><path d="M980.747 904.553c18.515 45.394 4.837 86.545-48.35 95.447-103.092 0-132.985 0-147.691-46.821 4.669-48.801 22.154-73.579 72.107-93.954 49.954-20.376 105.42-.066 123.934 45.328z" fill="#ffdc5d"/><path d="M844.059 872.326c77.155-67.334 71.534 92.655 71.534 92.655-.716 30.28-51.398 10.054-78.769 24.653-18.921 9.999-29.535-30.996-29.535-30.996s.054-18.874-22.866-19.594l-.2.002c-5.845-.157-12.738.53-21.982 3.364-45.678 14.108-74.526-47.11-28.762-61.191 18.117-5.579 34.12-3.685 48.9-1.175l1.32.242c21.986 3.853 41.262 8.714 60.36-7.96z" fill="#ffdc5d"/><path d="M961.723 852.664c35.938 29.944 53.145 77.105 22.22 147.336h-51.546c18.752-33.108 1.403-37.935-12.55-45.324-13.951-7.39-38.778-.125-38.996-6.222-.633-16.574 15.635-14.082 24.89-20.754 15.158-10.926 6.31-27.17-10.743-30.54-13.522-2.67-36.395.447-40.161 22.546-33.143-14.57-43.559-44.141-43.559-44.141s-3.898-9.603 28.342-26.467c32.269-16.893 86.425-26.18 122.103 3.566z" fill="#ffac33"/><path d="M434.588 483.06c-34.908-10.273-53.33-4.02-50.669 1.867 3.332 7.34 1.33 11.871.594 15.783-13.126 68.664-47.361 165.447-47.361 165.447-1.983 9.766-4.55 22.833-.146 45.614 11.102 57.278 67.054 238.328 67.054 238.328 9.92 30.008 42.333 46.38 72.347 36.432 30.036-9.914 39.494-33.035 36.432-72.346-5.773-74.46-51.283-174.112-66.922-232.077 18.374-58.247 17.076-109.122 34.362-164.17 2.483-7.912-10.783-24.603-45.69-34.877z" fill="#2a6797"/><path d="M178.477 634.428c-16.434-2.88-33.639-2.25-49.498 3.176-12.068 3.89-23.856 10.524-31.025 21.294-3.4 5.063-6.063 11.007-6.182 17.146 1.72 2.778 4.143 5.045 6.032 7.713 23.794 30.107 43.025 63.426 62.46 96.414 15.086 26.189 28.986 53.039 43.664 79.45 10.613 16.596 26.676 28.625 42.852 39.39 34.35 23.6 134.808 78.935 170.158 100.989 80.763-9.453 103.091-45.586 86.064-73.517-23.668-26.268-53.085-46.663-83.957-63.564-24.456-13.523-49.468-26.009-73.944-39.493-17.724-9.628-35.33-19.495-52.438-30.187-3.352-4.25-4.668-9.66-7.655-14.14-15.575-28.654-37.832-52.771-58.812-77.47-16.94-20.121-32.828-41.547-43.424-65.765-.973-1.283-2.902-1.013-4.295-1.436z" fill="#4289c1"/><path d="M444.005 820.707s-28.336.35-27.93 57.621l.863 121.672h309.275c103.728-2.508 73.733-52.106 60.236-92.378-17.66-52.65-76.573-76.182-168.774-81.892-92.201-5.71-173.67-5.023-173.67-5.023z" fill="#77b255"/><path d="M728.975 930.465c-20.52 0-116.699-10.966-122.141-15.53-28.942-24.212-63.535-50.097-77.27-71.946-9.943-15.845-33.331-23.636-42.826-27.075-11.804-4.27-35.374-6.535-43.172 1.101-4.87 4.78-5.325 20.841 2.876 22.26 15.975 2.773 26.038 18.248 41.68 27.06 31.4 17.685 61.141 74.727 101.467 95.528 16.733 8.626 46.419 19.964 149.51 19.964 23.565 0 11.414-51.362-10.124-51.362z" fill="#ffdc5d"/></svg>