<svg xmlns="http://www.w3.org/2000/svg" width="1000" height="1000"><path style="font-variant-east_asian:normal" d="M280.358 609.367C112.061 394.926 221.273 191.164 574.423 434.61c81.429 56.133 53.125-108.137 332.173 29.096s-457.941 360.1-626.238 145.66z" fill="#f9ca55"/><path style="font-variant-east_asian:normal" d="M150.715 170.499c125.42-43.76 194.129-8.246 246.706 63.993 52.578 72.24 109.019 267.14-87.99 277.77 78.605 23.728 133.996-42.328 147.63-87.364 11.75-38.809-1.495-115.853-30.825-178.7-22.238-47.65 27.501-58.267 68.799-59.245 41.298-.978-17.003 35.745-11.812 80.904 5.082 44.209 48.899 151.386 41.134 187.967-6.981 32.891-60.689 90.268-164.097 154.179 128.053-61.68 169.619-107.072 173.216-130.847 7.24-47.842-8.424-154.248-8.9-170.453-1.082-36.748 90.202-98.007 108.916-80.223 18.715 17.785-48.602 49.891-54.877 90.15-2.697 17.309 15.019 115.803 31.805 169.069 10.504 33.33-101.252 95.633-73.969 102.917 29.547 7.888 218.465-23.214 239.559-44.905-69.885-35.479-124.712-60.548-133.875-95.156-8.434-31.85 14.507-90.949 16.815-134.752 3.612-68.584-95.024-99.449-103.579-123.018-8.555-23.569 82.746 1.072 132.68 51.072 33.955 34 15.955 94.069 13.351 170.667-1.3 38.228 94.337 70.434 167.834 82.547-69.294-21.351-113.135-56.194-137.132-85.116-18.895-22.773 3.332-125.024-11.041-153.686-21.897-43.664-140.961-54.716-133.358-62.723 20.687-21.786 143.145 4.382 175.958 36.525 32.813 32.143-21.246 145.177 51.36 174.286 83.112 33.32 234.58 82.36 168.908 204.184-35.588 66.017-89.962 110.616-221.695 155.816-204.012 70-415.429 31.335-639.19-142.731-223.76-174.067-97.753-409.366 27.669-453.127z" fill="#ffdc5d"/><path style="font-variant-east_asian:normal" d="M409.484 411.377c-11.097 75.906-259.9-18.562-237.572 97.985 27.603 144.082-120.551 2.165-123.578-107.076-2.997-108.19 66.165-208.092 185.115-208.092s191.69 110.093 176.035 217.183z" fill="#f9ca55"/></svg>