<svg xmlns="http://www.w3.org/2000/svg" width="1000" height="1000"><g transform="translate(0 -32.417)"><circle cx="525" cy="307.417" r="275" fill="#ffac33"/><circle r="300" transform="rotate(-80.781)" cx="-436.925" cy="577.437" fill="#ffac33"/><circle cx="375" cy="232.417" r="175" fill="#ffac33"/><path d="M800 532.417H200v-300l600 75z" fill="#ffac33"/><path d="M725 707.417H275c-55.225 0-100 44.775-100 100v225h650v-225c0-55.225-44.775-100-100-100z" fill="#9268ca"/><path d="M700 832.417h25v200h-25zm-425 0h25v200h-25z" fill="#7450a8"/><path d="M425 582.417v150c0 41.425 33.575 75 75 75s75-33.575 75-75v-150z" fill="#ffdc5d"/><path d="M400 157.417s-.075 132.7-125 148.4v151.6c0 124.275 100.725 225 225 225s225-100.725 225-225V331.942c-277.775-9.4-325-174.525-325-174.525z" fill="#ffdc5d"/><path d="M339.66 397.407c-14.239 47.805 1.61 94.721 35.417 104.79 33.807 10.085 72.76-20.5 86.985-68.304 14.239-47.79-1.596-94.722-35.387-104.791-33.806-10.07-72.76 20.515-87.015 68.305zm320.68 0c14.238 47.805-1.611 94.721-35.402 104.79-33.807 10.085-72.761-20.5-86.985-68.304-14.239-47.79 1.61-94.722 35.387-104.791 33.791-10.07 72.745 20.515 87 68.305z" fill="#f5f8fa"/><ellipse cx="500" cy="582.417" rx="50" ry="25" fill="#df1f32"/><path d="M525 519.917h-50c-6.9 0-12.5-5.6-12.5-12.5s5.6-12.5 12.5-12.5h50c6.9 0 12.5 5.6 12.5 12.5s-5.6 12.5-12.5 12.5z" fill="#c1694f"/><path d="M43.306 666.861l144.138-106.194 45.5-5.223v78.862l83.445 19.25c19.139 4.472 31.083 23.583 26.667 42.722-4.39 19.139-23.528 31.083-42.667 26.666L186.86 696.806l-56.805 56.805c-9.5 9.528-25.445 18.417-42.14 23.833l-21.5 177.223s0 27.75-27.75 27.75-27.75-27.75-27.75-27.75V732.583z" fill="#e39c2f"/><path d="M32.417 655.944l61.972-61.972 16.639-66.889h111.139v96.334l83.333 19.25c19.139 4.472 31.083 23.583 26.667 42.722-4.39 19.139-23.528 31.083-42.667 26.667l-113.556-26.167-56.777 56.805c-9.528 9.528-25.473 18.445-42.167 23.834l-21.5 177.25s0 27.75-27.75 27.75S0 943.778 0 943.778V721.667z" fill="#ffdc5d"/><g><path d="M956.667 666.889l-162.39-99.833L767 555.472v78.861l-83.444 19.25c-19.14 4.473-31.084 23.584-26.667 42.723 4.389 19.138 23.528 31.083 42.667 26.666l113.555-26.166 56.806 56.805c9.527 9.528 25.444 18.417 42.166 23.833l21.5 177.223s0 27.75 27.75 27.75 27.75-27.75 27.75-27.75V732.61z" fill="#e39c2f"/><path d="M967.583 655.972L905.611 594l-16.667-66.889H777.89v96.333l-83.417 19.223c-19.139 4.472-31.083 23.583-26.666 42.722 4.388 19.139 23.527 31.083 42.666 26.667l113.556-26.167 56.805 56.805c9.528 9.528 25.445 18.417 42.167 23.834l21.5 177.222s0 27.75 27.75 27.75c27.75.056 27.75-27.694 27.75-27.694V721.694z" fill="#ffdc5d"/></g></g></svg>