<svg xmlns="http://www.w3.org/2000/svg" width="1000" height="1000"><g transform="translate(0 -32.417)"><circle cx="525" cy="307.417" r="275" style="fill:#ffac33;stroke-width:25"/><circle cx="-436.925" cy="577.437" r="300" style="fill:#ffac33;stroke-width:25" transform="rotate(-80.781)"/><circle cx="375" cy="232.417" r="175" style="fill:#ffac33;stroke-width:25"/><path d="M800 532.417H200v-300l600 75z" style="fill:#ffac33;stroke-width:25"/><path d="M725 707.417H275c-55.225 0-100 44.775-100 100v225h650v-225c0-55.225-44.775-100-100-100" style="fill:#9268ca;stroke-width:25"/><path d="M700 832.417h25v200h-25zm-425 0h25v200h-25z" style="fill:#7450a8;stroke-width:25"/><path d="M425 582.417v150c0 41.425 33.575 75 75 75s75-33.575 75-75v-150Z" style="fill:#ffdc5d;stroke-width:25"/><path d="M400 157.417s-.075 132.7-125 148.4v151.6c0 124.275 100.725 225 225 225s225-100.725 225-225V331.942c-277.775-9.4-325-174.525-325-174.525" style="fill:#ffdc5d;stroke-width:25"/><path d="M339.66 397.407c-14.239 47.805 1.61 94.721 35.417 104.79 33.807 10.085 72.76-20.5 86.985-68.304 14.239-47.79-1.596-94.722-35.387-104.791-33.806-10.07-72.76 20.515-87.015 68.305m320.68 0c14.238 47.805-1.611 94.721-35.402 104.79-33.807 10.085-72.761-20.5-86.985-68.304-14.239-47.79 1.61-94.722 35.387-104.791 33.791-10.07 72.745 20.515 87 68.305" style="fill:#f5f8fa;stroke-width:15.05182457"/><ellipse cx="500" cy="582.417" rx="50" ry="25" style="fill:#df1f32;stroke-width:25"/><path d="M525 519.917h-50c-6.9 0-12.5-5.6-12.5-12.5s5.6-12.5 12.5-12.5h50c6.9 0 12.5 5.6 12.5 12.5s-5.6 12.5-12.5 12.5" style="fill:#c1694f;stroke-width:25"/><path d="M154.444 172.194 298.584 66l45.5-5.222v78.86l83.444 19.25c19.139 4.473 31.083 23.584 26.666 42.723-4.388 19.139-23.527 31.083-42.666 26.667L298 202.138l-56.806 56.806c-9.5 9.528-25.444 18.417-42.138 23.834L177.556 460s0 27.75-27.75 27.75-27.75-27.75-27.75-27.75V237.917Z" style="fill:#e39c2f;stroke-width:27.77777863" transform="translate(-111.139 494.667)"/><path d="m143.556 161.278 61.972-61.972 16.639-66.89h111.139v96.334L416.639 148c19.139 4.472 31.083 23.583 26.667 42.722-4.39 19.14-23.528 31.084-42.667 26.667l-113.556-26.167-56.777 56.806c-9.528 9.528-25.473 18.444-42.167 23.833l-21.5 177.25s0 27.75-27.75 27.75-27.75-27.75-27.75-27.75V227Z" style="fill:#ffdc5d;stroke-width:27.77777863" transform="translate(-111.139 494.667)"/><path d="m845.528 172.194-162.39-99.833-27.277-11.583v78.86l-83.444 19.25c-19.14 4.473-31.084 23.584-26.667 42.723 4.389 19.139 23.528 31.083 42.667 26.667l113.555-26.167 56.806 56.806c9.528 9.527 25.444 18.416 42.166 23.833l21.5 177.222s0 27.75 27.75 27.75 27.75-27.75 27.75-27.75V237.917Z" style="fill:#e39c2f;stroke-width:27.77777863" transform="translate(111.139 494.694)"/><path d="m856.444 161.278-61.972-61.972-16.666-66.89H666.75v96.334l-83.417 19.222c-19.139 4.472-31.083 23.584-26.666 42.722 4.389 19.14 23.527 31.084 42.666 26.667l113.556-26.167L769.694 248c9.528 9.528 25.445 18.417 42.167 23.833l21.5 177.223s0 27.75 27.75 27.75c27.75.055 27.75-27.695 27.75-27.695V227Z" style="fill:#ffdc5d;stroke-width:27.77777863" transform="translate(111.139 494.694)"/></g></svg>