<svg xmlns="http://www.w3.org/2000/svg" xmlns:osb="http://www.openswatchbook.org/uri/2009/osb" xmlns:xlink="http://www.w3.org/1999/xlink" width="1000" height="1000"><defs><linearGradient osb:paint="solid" id="a"><stop offset="0" style="stop-color:#ffdc5d;stop-opacity:1"/></linearGradient><linearGradient xlink:href="#a" id="b" x1="4.967" x2="35.04" y1="16.242" y2="16.242" gradientTransform="matrix(0 -25.25764 25.25764 0 115.706 1107.873)" gradientUnits="userSpaceOnUse"/><linearGradient xlink:href="#a" id="f" x1="4.967" x2="35.04" y1="16.242" y2="16.242" gradientTransform="matrix(25.25764 0 0 25.25764 -1107.873 115.706)" gradientUnits="userSpaceOnUse"/><linearGradient xlink:href="#a" id="g" x1="4.967" x2="35.04" y1="16.242" y2="16.242" gradientTransform="scale(25.25764 -25.25764)rotate(-60 -13.96 -8.804)" gradientUnits="userSpaceOnUse"/><linearGradient xlink:href="#a" id="e" x1="4.967" x2="35.04" y1="16.242" y2="16.242" gradientTransform="matrix(0 -25.25764 25.25764 0 115.706 1107.873)" gradientUnits="userSpaceOnUse"/><linearGradient xlink:href="#a" id="d" x1="4.967" x2="35.04" y1="16.242" y2="16.242" gradientTransform="matrix(0 -25.25764 25.25764 0 115.706 1107.873)" gradientUnits="userSpaceOnUse"/><linearGradient xlink:href="#a" id="c" x1="4.967" x2="35.04" y1="16.242" y2="16.242" gradientTransform="matrix(0 -25.25764 25.25764 0 115.706 1107.873)" gradientUnits="userSpaceOnUse"/></defs><g transform="translate(0 -32.417)"><g transform="translate(0 -80.913)scale(1.0195)"><path d="M732.833 851.745c0 30.697-25.694 55.557-57.376 55.557h-516.39c-31.681 0-57.376-24.86-57.376-55.557V601.623c0-30.697 25.695-55.583 57.377-55.583h516.389c31.682 0 57.376 24.886 57.376 55.583z" style="fill:#5d9040;stroke-width:25.26488304"/><path d="M694.784 907.302c0 30.697-24.886 55.583-55.582 55.583H166.748c-30.697 0-55.583-24.886-55.583-55.583v-27.791c0-30.697 24.886-55.583 55.583-55.583h472.454c30.696 0 55.582 24.886 55.582 55.583z" style="fill:#3f7123;stroke-width:25.26488304"/><ellipse cx="417.275" cy="599.702" rx="315.407" ry="154.747" style="fill:#5d9040;stroke-width:25.26488304"/><path d="M166.748 712.788c0 46.033-37.341 83.374-83.374 83.374S0 758.821 0 712.788c0-46.083 37.342-83.4 83.374-83.4 46.058 0 83.374 37.317 83.374 83.4" style="fill:#78b159;stroke-width:25.26488304"/><path d="M166.748 962.885c0 30.697-24.886 55.583-55.583 55.583s-55.582-24.886-55.582-55.583V712.788c0-30.697 24.886-55.583 55.582-55.583s55.583 24.886 55.583 55.583zm500.245-250.097c0 46.033 37.316 83.374 83.374 83.374 46.007 0 83.374-37.341 83.374-83.374 0-46.058-37.367-83.4-83.374-83.4-46.033 0-83.374 37.317-83.374 83.4" style="fill:#78b159;stroke-width:25.26488304"/><path d="M666.993 962.885c0 30.697 24.86 55.583 55.557 55.583s55.583-24.886 55.583-55.583V712.788c0-30.697-24.886-55.583-55.583-55.583s-55.557 24.886-55.557 55.583zM416.87 823.928c0 30.697-24.886 55.583-55.583 55.583H222.33c-30.697 0-55.583-24.886-55.583-55.583s24.886-55.583 55.583-55.583h138.957c30.697 0 55.583 24.886 55.583 55.583m250.122 0c0 30.697-24.886 55.583-55.583 55.583H472.453c-30.697 0-55.582-24.886-55.582-55.583s24.885-55.583 55.582-55.583H611.41c30.697 0 55.583 24.886 55.583 55.583" style="fill:#78b159;stroke-width:25.26488304"/><path d="M151.59 823.928h530.562v75.795H151.589Z" style="fill:#78b159;stroke-width:25.26488304"/></g><path d="M906.017 922.23c22.859 6.491 35.993 6.87 59.735 10.81 17.427 2.905 37.027 14.852 33.92 29.248-2.45 11.417-13.588 20.08-38.39 17.176-13.261-1.541-22.152-5.178-35.766-9.927-7.855-2.727-18.69-6.668-29.122-8.916-11.366-2.45-23.439-11.062-20.256-25.712 2.298-10.86 14.649-16.998 29.88-12.68" style="fill:#dd2e44;stroke-width:25.25763512"/><path d="M900.814 954.837c-.43-.606-3.561-5.986-1.364-13.891s6.744-10.735 7.4-11.114c.683-.353 19.6 7.3 24.88 8.386 5.632 1.111 21.443 5.178 22.125 5.355 1.364.328 2.173 1.742 1.819 3.157l-3.637 15.079c-.354 1.414-1.718 2.273-3.082 1.944l-21.342-5.177c-5.936-1.44-26.37-3.107-26.799-3.739" style="fill:#a0041e;stroke-width:25.25763512"/><path d="M952.744 940.794c0 .404-.05.783-.152 1.187l-5.556 22.985c-.657 2.702-3.385 4.395-6.087 3.713a5.046 5.046 0 0 1-3.713-6.087l5.557-22.985c.656-2.702 3.384-4.395 6.087-3.713a5.04 5.04 0 0 1 3.864 4.9m-18.185-4.42c0 .404-.051.783-.152 1.187l-5.557 22.985c-.656 2.702-3.384 4.395-6.087 3.713-2.702-.632-4.395-3.41-3.713-6.088l5.557-22.984c.657-2.702 3.385-4.395 6.087-3.713a5.015 5.015 0 0 1 3.865 4.9m-18.186-4.395c0 .404-.05.783-.152 1.187l-5.556 22.985c-.657 2.702-3.385 4.395-6.087 3.713s-4.395-3.385-3.713-6.087l5.557-22.985c.656-2.702 3.384-4.395 6.087-3.713a5.015 5.015 0 0 1 3.864 4.9" style="fill:#ccd6dd;stroke-width:25.25763512"/><path d="M883.563 732.368c23.313 4.547 35.21 10.154 58.143 17.378 16.847 5.304 39.73 3.51 43.494-10.735 2.98-11.29-3.03-24.07-26.445-32.683-12.527-4.623-22.1-5.406-36.396-7.35-8.234-1.112-19.7-2.526-30.006-5.229-11.24-2.955-25.89-.732-29.703 13.766-2.854 10.734 5.38 21.822 20.913 24.853" style="fill:#dd2e44;stroke-width:25.25763512"/><path d="M887.857 725.523c-.43-.606-3.435-6.061-1.086-13.917 2.374-7.855 6.946-10.608 7.628-10.961.682-.329 19.448 7.678 24.702 8.865 5.607 1.238 21.343 5.582 22 5.784 1.363.354 2.12 1.793 1.767 3.183l-3.94 15.003c-.379 1.414-1.768 2.248-3.132 1.894l-21.242-5.582c-5.885-1.566-26.293-3.637-26.697-4.269" style="fill:#a0041e;stroke-width:25.25763512"/><path d="M940.04 712.415c0 .43-.051.858-.177 1.288l-6.037 22.858a5.046 5.046 0 0 1-6.163 3.612c-2.677-.682-4.344-3.46-3.586-6.163l6.036-22.858a5.046 5.046 0 0 1 6.163-3.612c2.248.58 3.763 2.627 3.763 4.875m-18.085-4.774c0 .43-.05.859-.177 1.288l-6.036 22.858a5.046 5.046 0 0 1-6.163 3.612c-2.678-.682-4.345-3.485-3.587-6.163l6.037-22.858a5.046 5.046 0 0 1 6.163-3.612c2.248.581 3.763 2.627 3.763 4.875m-18.085-4.748c0 .429-.05.858-.176 1.288l-6.037 22.858a5.046 5.046 0 0 1-6.163 3.612c-2.677-.707-4.37-3.511-3.586-6.163l6.036-22.858a5.046 5.046 0 0 1 6.163-3.612c2.248.58 3.764 2.627 3.764 4.875" style="fill:#ccd6dd;stroke-width:25.25763512"/><path d="m725.577 702.69-36.32 63.145 66.023 32.355c4.672 6.061 6.97 7.072 26.57 40.79 17.656 30.386 78.072 87.392 101.663 106.335 5 5.38 8.613 6.542 17.705 9.927l6.719-25.839s-8.588-4.597-13.462-12.023c-20.737-36.32-88.276-159.35-88.276-159.35-7.148-9.952-12.073-16.165-18.185-19.701 0 0-49.985-30.107-62.437-35.638" style="fill:url(#b);fill-opacity:1;stroke-width:25.25763512"/><path d="m671.046 550.21 33.163 63.17c6.845-4.32 21.57-12.958 40.16-20.13 5.38-2.097 15.609-4.825 22.075 4.116 3.687 5.052 11.77 14.902 17.781 22.454a1527 1527 0 0 1 14.22 18.034c19.65 25.182 70.393 76.581 74.535 80.774 4.143 4.193 9.523 7.148 16.721 8.689.48-2.198 5.885-24.374 5.885-24.374s-7.754-3.107-12.3-10.633c-14.17-23.465-90.903-156.951-90.903-156.951-12.502-17.428-18.236-26.95-36.169-25.384-31.32 2.728-73.626 31.9-85.168 40.235" style="fill:url(#c);fill-opacity:1;stroke-width:25.25763512"/><path d="M351.158 764.976c-7.072 6.744-10.66 17.806-10.66 32.81 0 42.66 5.431 84.815 7.578 95.55.606 2.98.606 4.369-1.313 7.602-4.749 8.032-17.58 10.961-33.845 14.725-5.481 1.212-11.265 2.55-16.974 4.167-25.282 7.047-62.133 14.852-69.104 13.892-9.725-1.364-81.33 7.88-82.416 8.992-1.768 1.793 1.692 6.92 1.894 10.431.177 2.804 2.475 4.8 4.446 7.78 11.29 17.225 34.754 19.7 50.515 21.443 9.75 1.061 27.657-15.66 37.937-17.276 3.36-.505 20.307-1.187 47.686-2.248 28.668-1.111 64.382-2.5 70.419-3.561 14.447-2.551 29.955-5.254 34.906-25.51 3.712-15.256 6.087-60.063 7.804-92.772.884-16.417 1.617-30.637 2.35-38.19 1.565-16.34-1.466-30.258-8.361-38.265-4.218-4.849-9.825-7.476-16.67-7.804-11.19-.43-20.03 2.298-26.192 8.234" style="fill:url(#d);fill-opacity:1;stroke-width:25.25763512"/><path d="M241.817 657.606c-14.245 1.566-25.257 14.902-23.59 28.995 1.566 14.246 14.093 24.677 28.339 23.086l91.18-10.381 1.187 8.966s26.697 9.169 26.697-36.598-20.837-40.943-20.837-40.943l-2.854 15.029z" style="fill:url(#e);fill-opacity:1;stroke-width:25.25763512"/><ellipse cx="-674.276" cy="239.898" rx="66.301" ry="75.773" style="fill:url(#f);fill-opacity:1;stroke-width:25.25763512" transform="rotate(-90)"/><path d="M143.59 632.196c-12.3 17.656-16.67 62.16-.732 92.342 8.209 15.534 19.65 25.536 32.784 31.522-4.874 4.572-9.067 12.3-10.178 25.662-2.501 30.208 30.51 38.214 42.306 60.062 8.89 16.494 9.194 35.361.328 48.52 0 0 21.899-18.084 30.259-38.391 10.86-26.395 3.89-58.926-4.42-74.435-3.486-6.516-7.93-11.416-12.578-15.255 2.248-.253 4.47-.38 6.718-.758 31.32-5.228 58.699-34.073 58.699-34.073s-26.874-10.456-27.405-5.733c-.985 8.764-27.91 14.018-35.082 6.668-7.552-7.729 0-15.155 7.577-17.049s29.071-6.996 29.071-6.996-27.177 1.313-35.714-6.264c-8.512-7.577-6.617-43.544-43.544-58.699 0 0 4.521-11.871 18.741-21.343 11.72-7.804 39.453-10.002 39.453-10.002s-17.125-7.148-33.669-12.098c-18.918-5.683-46.853 13.69-62.614 36.32" style="fill:#ffac33;stroke-width:25.25763512"/><g style="fill:#a0041e"><path d="M579.815 726.382c35.26 8.032 119.443 50.743 119.443 50.743s37.306-41.398 36.296-75.445l-71.757-49.353 61.78-43.822s-32.178-43.267-37.508-74.03c0 0-80.37 42.079-97.393 51.096-17.024 9.017-39.074 26.697-39.074 26.697s.707 107.85 28.213 114.114"/><path d="M738.736 703.044c0 34.603-35.613 74.485-37.154 76.177-.96 1.061-2.5 1.364-3.763.707-.834-.429-84.235-42.635-118.711-50.464-29.097-6.643-30.587-105.906-30.663-117.196v-.025c0-.96.43-1.87 1.187-2.475.91-.708 22.48-17.984 39.554-27.026 17.049-8.992 97.418-51.07 97.418-51.07a3.08 3.08 0 0 1 2.854-.051c.884.454 1.541 1.313 1.693 2.298 5.152 29.703 36.623 72.262 36.952 72.717.505.682.656 1.566.555 2.374a3.1 3.1 0 0 1-1.288 2.071l-58.092 41.22 68.018 46.803c1.289.808 1.465 2.475 1.44 3.94m-40.286 70.14c6.845-8.082 33.77-41.675 33.972-69.837l-70.419-48.444c-.833-.58-1.364-1.566-1.364-2.576v-.025c0-1.036.506-1.996 1.34-2.577l59.178-41.978c-6.744-9.421-29.047-42.054-35.31-68.574-15.988 8.385-78.855 41.296-93.681 49.126-14.321 7.602-32.582 21.67-37.356 25.46.455 40.841 7.704 105.425 25.738 109.516 32.43 7.401 104.111 42.989 117.902 49.91"/></g><path d="M391.645 595.774c-9.497-2.304-18.134-10.092-25.636-23.085-21.33-36.944-37.705-76.167-41.213-86.537-.965-2.884-1.66-4.087-4.938-5.927-8.128-4.582-20.705-.703-36.674 4.17-5.352 1.69-11.03 3.423-16.783 4.878-25.419 6.538-61.235 18.205-66.792 22.522-7.74 6.043-74.374 33.84-75.87 33.42-2.428-.669-1.995-6.84-3.575-9.98-1.249-2.517-.256-5.394-.04-8.96 1.165-20.563 20.248-34.44 33.026-43.829 7.912-5.793 31.781-.267 41.492-4.007 3.162-1.242 18.18-9.125 42.422-21.896 25.382-13.371 57.006-30.026 62.764-32.125 13.788-5.015 28.57-10.428 42.985 4.64 10.843 11.355 35.303 48.972 53.145 76.44 8.974 13.775 16.718 25.724 21.129 31.898 9.527 13.37 13.86 26.937 11.892 37.319-1.228 6.309-4.77 11.387-10.534 15.094-9.476 5.966-18.495 8.024-26.8 5.965" style="fill:url(#g);fill-opacity:1;stroke-width:25.25763512"/><path d="M463.956 155.139c.549-.02 1.321.078 1.865.117 0 0 .078.855 1.399.894s1.671-.661 1.671-.661 1.01.077 1.749.544c.755.176 1.43-.189 1.43-.189s.621 1.2 1.01 2.171c-.333.353-1.442.995-1.971.805 0 0 .038.544-.079.972s-.538.88-.581 1.269c-.12 1.082.227 3.672.383 4.02 0 0-1.225-.345-3.191-.13-1.201.134-3.041.966-3.041.966.022-.842.413-2.902.559-4.01.142-1.08-.814-3.793-1.474-3.948a9 9 0 0 0-1.166-.194s.155-.994 0-1.538-.233-.933-.233-.933 1.121-.135 1.67-.155" style="fill:#dd2e44" transform="matrix(0 -25.25764 25.25764 0 -3582.433 12473.81)"/><path d="m161.675 938.193-.328 1.995c.505-3.36-1.743-6.592-5.128-7.173-3.41-.581-6.693 1.717-7.3 5.152l-2.298 12.958 22.757 20.837 23.288 6.315 3.789-20.636c.58-3.41-1.718-6.693-5.153-7.274-3.258-.556-6.264 1.616-7.047 4.774l.96-5.557c.58-3.41-1.718-6.693-5.153-7.274-3.308-.581-6.39 1.641-7.122 4.874l1.162-6.844c.58-3.41-1.718-6.694-5.153-7.275-3.435-.58-6.693 1.718-7.274 5.128" style="fill:#ffdc5d;stroke-width:25.25763512"/></g></svg>