<svg xmlns="http://www.w3.org/2000/svg" width="1000" height="1000"><path d="M1000 206.667c0 125-223.861 319.444-500 319.444S0 331.667 0 206.667C0 165 83.333 248.333 500 248.333c416.667 0 500-83.333 500-41.666z" fill="#662113"/><path d="M500 303.889c-166.667 0-305.556-27.778-305.556-27.778v333.333C194.444 778.194 331.25 915 500 915c168.75 0 305.556-136.806 305.556-305.556V276.111S666.666 303.89 500 303.89z" fill="#ea596e"/><path d="M527.778 803.889c0 15.361-12.445 27.778-27.778 27.778-15.333 0-27.778-12.417-27.778-27.778V359.444c0-15.333 12.445-27.777 27.778-27.777 15.333 0 27.778 12.444 27.778 27.777z" fill="#dd2e44"/><path d="M500 405.364l-88.151 88.152-88.152 88.152 14.692 14.69a20.78 20.78 0 0129.384 0 20.78 20.78 0 010 29.386l29.384 29.382a20.78 20.78 0 0129.384 0 20.78 20.78 0 010 29.385l29.383 29.382a20.78 20.78 0 0129.384 0 20.78 20.78 0 010 29.385L500 757.968l88.151-88.15 88.152-88.15-14.692-14.694a20.78 20.78 0 01-29.384 0 20.78 20.78 0 010-29.382l-29.384-29.385a20.78 20.78 0 01-29.384 0 20.78 20.78 0 010-29.384l-29.383-29.383a20.78 20.78 0 01-29.384 0 20.78 20.78 0 010-29.384z" fill="#fff"/></svg>