<svg xmlns="http://www.w3.org/2000/svg" width="1000" height="1000"><path d="M36 7.5C36 12 27.941 19 18 19S0 12 0 7.5C0 6 3 9 18 9s18-3 18-1.5" style="fill:#662113" transform="matrix(27.77778 0 0 27.77778 0 -1.667)"/><path d="M18 11c-6 0-11-1-11-1v12c0 6.075 4.925 11 11 11s11-4.925 11-11V10s-5 1-11 1" style="fill:#ea596e" transform="matrix(27.77778 0 0 27.77778 0 -1.667)"/><path d="M19 29a1 1 0 1 1-2 0V13a1 1 0 0 1 2 0z" style="fill:#dd2e44" transform="matrix(27.77778 0 0 27.77778 0 -1.667)"/><path d="m500 437.781-88.151 88.152-88.152 88.151 14.692 14.692a20.78 20.78 0 0 1 29.384 0 20.78 20.78 0 0 1 0 29.384l29.384 29.383a20.78 20.78 0 0 1 29.384 0 20.78 20.78 0 0 1 0 29.384l29.383 29.383a20.78 20.78 0 0 1 29.384 0 20.78 20.78 0 0 1 0 29.384L500 790.386l88.151-88.152 88.152-88.15-14.692-14.693a20.78 20.78 0 0 1-29.384 0 20.78 20.78 0 0 1 0-29.382l-29.384-29.385a20.78 20.78 0 0 1-29.384 0 20.78 20.78 0 0 1 0-29.384l-29.383-29.383a20.78 20.78 0 0 1-29.384 0 20.78 20.78 0 0 1 0-29.385z" style="opacity:1;fill:#fff;fill-opacity:1;stroke:none;stroke-width:12.61422634;stroke-linecap:round;stroke-linejoin:miter;stroke-miterlimit:4;stroke-dasharray:none;stroke-opacity:1;paint-order:normal" transform="translate(0 -32.417)"/></svg>