<svg xmlns="http://www.w3.org/2000/svg" xmlns:xlink="http://www.w3.org/1999/xlink" width="1000" height="1000"><g style="display:inline;opacity:1" transform="translate(0 -32.417)"><g id="a"><path d="M191.458 32.417c34.033 68.278 74.613 141.636 68.384 227.136-130.45 273.755-165.09 535.097-155.873 772.864h372.989c-.1-74.442-4.366-139.218-14.86-183.875l37.903-18.196V32.416Z" style="fill:#ffdc5d;stroke:#000;stroke-width:0;stroke-miterlimit:4;stroke-dasharray:none;stroke-opacity:1"/><path d="M500 630.864H300.518C379.884 674.02 450.194 876.85 500.002 876.85z" style="fill:#662113;fill-opacity:1;stroke:none;stroke-width:3.9896462px;stroke-linecap:butt;stroke-linejoin:miter;stroke-opacity:1"/></g><use xlink:href="#a" transform="matrix(-1 0 0 1 1000.003 0)"/><circle cx="499.988" cy="218.523" r="37.645" style="opacity:1;vector-effect:none;fill:#f9ca55;fill-opacity:1;stroke:none;stroke-width:57.33328629;stroke-linecap:round;stroke-linejoin:miter;stroke-miterlimit:4;stroke-dasharray:none;stroke-dashoffset:0;stroke-opacity:1;paint-order:normal"/><path d="m0 0 277.42 414.545c2.225 12.89 2.273 21.876-.129 31.135-.76 2.93-3.474 9.738-4.857 15.353-6.777 27.592-5.478 53.234 5.746 82.176l67.168 173.332s8.876 22.89 31.767 14.014c22.903-8.872 14.026-31.762 14.026-31.762l-41.21-106.277c.654 1.693 12.69-1.227 13.215.127l57.184 147.484s8.874 22.891 31.766 14.016c22.891-8.876 14.015-31.768 14.015-31.768l-53.81-138.725c.125.313 11.669-3.842 11.752-3.652l62.37 160.82s8.865 22.888 31.757 14.012c22.89-8.876 14.015-31.768 14.015-31.768l-62.353-160.8c-.078-.202 11.212-5.039 11.08-5.367l58.285 150.293s8.88 22.878 31.756 14.01c22.891-8.877 14.031-31.774 14.031-31.774l-61.637-158.938c-18.243-47.056-6.796-51.5-6.796-51.5l16.478 42.514 19.025 49.05s8.877 22.893 31.752 14.024c22.896-8.887 14.016-31.767 14.016-31.767L552.83 436.709c-13.21-34.085-37.009-58.428-66.043-72.34-17.507-9.252-35.826-11.452-44.142-23.904L350 0z" style="fill:#ef9645;stroke-width:12.21354198" transform="translate(0 32.417)"/><path d="M993.725 664.59a21.06 21.06 0 0 1 6.275 14.89c.073 11.674-9.302 21.17-20.977 21.243l-105.998.64c-11.675.073-21.17-9.302-21.244-20.977s9.302-21.17 20.977-21.244l106.013-.654c5.822-.037 11.107 2.304 14.954 6.101m-87.672-113.93a21.4 21.4 0 0 1 4.142 5.752c5.128 10.464.803 23.107-9.69 28.234l-55.725 27.256c-10.464 5.127-23.107.773-28.25-9.676-5.112-10.478-.787-23.121 9.691-28.233l55.726-27.256c8.275-4.053 17.902-2.203 24.106 3.924m1.446 228.926c6.19 6.112 8.176 15.7 4.272 24.01-4.964 10.558-17.537 15.086-28.094 10.121l-50.553-23.777c-10.528-5.055-15.056-17.567-10.12-28.094 4.964-10.557 17.536-15.086 28.093-10.12l50.554 23.777a21.1 21.1 0 0 1 5.848 4.083M141.991 669.565a21.06 21.06 0 0 1 6.275 14.89c.073 11.675-9.317 21.185-20.992 21.259l-106.028.64c-11.66.058-21.155-9.318-21.243-20.977-.089-11.66 9.317-21.185 20.991-21.259l106.028-.64c5.838-.051 11.123 2.29 14.969 6.087m37.383 87.268a21.2 21.2 0 0 1 4.112 5.752c5.127 10.463.803 23.106-9.675 28.249l-55.71 27.27c-10.479 5.113-23.107.803-28.25-9.675-5.127-10.464-.802-23.107 9.676-28.249l55.71-27.27c8.29-4.069 17.932-2.204 24.137 3.923m-6.633-177.878c6.19 6.112 8.177 15.7 4.273 24.01-4.965 10.557-17.552 15.071-28.094 10.121L98.38 589.324c-10.586-4.965-15.07-17.552-10.12-28.094 4.964-10.557 17.552-15.07 28.094-10.121l50.538 23.763a21.1 21.1 0 0 1 5.848 4.083" style="fill:#5df;stroke-width:21.1136322"/><path d="m0 32.417 252.42 414.545c2.225 12.89 2.273 21.876-.129 31.134-.76 2.932-3.474 9.739-4.857 15.354-6.777 27.592-5.478 53.234 5.746 82.176l67.168 173.332s8.876 22.89 31.767 14.013c22.903-8.871 14.026-31.761 14.026-31.761l-41.21-106.278c.654 1.694 12.69-1.226 13.215.127l57.184 147.485s8.874 22.891 31.766 14.015 14.015-31.767 14.015-31.767l-53.81-138.725c.125.313 11.669-3.842 11.752-3.652l62.37 160.82s8.865 22.888 31.757 14.012c22.89-8.876 14.015-31.768 14.015-31.768l-62.353-160.8c-.078-.202 11.212-5.04 11.08-5.368l58.285 150.293s8.88 22.879 31.756 14.01c22.891-8.876 14.031-31.774 14.031-31.774l-61.637-158.937c-18.243-47.057-6.796-51.5-6.796-51.5l16.478 42.514 19.025 49.05s8.877 22.893 31.752 14.024c22.896-8.887 14.016-31.768 14.016-31.768L527.83 469.126c-13.21-34.086-37.009-58.428-66.043-72.34-17.507-9.252-35.826-11.452-44.142-23.904L325 32.417Z" style="opacity:1;vector-effect:none;fill:#f9ca55;fill-opacity:1;stroke:none;stroke-width:57.33328629;stroke-linecap:round;stroke-linejoin:miter;stroke-miterlimit:4;stroke-dasharray:none;stroke-dashoffset:0;stroke-opacity:1;paint-order:normal"/></g></svg>