<svg xmlns="http://www.w3.org/2000/svg" width="1000" height="1000"><g><path d="M0 250v100l500 65 500-65V250c-100 50-350 50-500 50s-400 0-500-50z" fill="#f4abba"/><path d="M0 250v100c156.826 81.36 373.44 250.92 450 450h100c76.56-199.08 293.174-368.64 450-450V250c0 60-333.334 100-500 100S0 310 0 250z" fill="#ffd4de"/><path d="M587.235 547.547L497.033 400l-83.585 146.539c-19.463 31.052-21.161 71.43-.716 104.87 29.061 47.534 91.68 62.795 139.877 34.122 48.18-28.663 63.688-90.414 34.626-137.984z" fill="#da2f47"/></g></svg>