<svg xmlns="http://www.w3.org/2000/svg" width="1000" height="1000"><path d="M0 250v100l500 65 500-65V250c-100 50-350 50-500 50s-400 0-500-50" style="opacity:1;vector-effect:none;fill:#f4abba;fill-opacity:1;stroke:none;stroke-width:1;stroke-linecap:butt;stroke-linejoin:miter;stroke-miterlimit:4;stroke-dasharray:none;stroke-dashoffset:0;stroke-opacity:1"/><path d="M0 250v100c156.826 81.36 373.44 250.92 450 450h100c76.56-199.08 293.174-368.64 450-450V250c0 60-333.334 100-500 100S0 310 0 250" style="opacity:1;vector-effect:none;fill:#ffd4de;fill-opacity:1;stroke:none;stroke-width:1;stroke-linecap:butt;stroke-linejoin:miter;stroke-miterlimit:4;stroke-dasharray:none;stroke-dashoffset:0;stroke-opacity:1"/><path d="m587.235 579.964-90.202-147.547-83.585 146.539c-19.463 31.052-21.161 71.429-.716 104.87 29.061 47.534 91.68 62.795 139.877 34.122 48.18-28.664 63.688-90.415 34.626-137.984" style="fill:#da2f47;stroke-width:8.84682846" transform="translate(0 -32.417)"/></svg>