<svg xmlns="http://www.w3.org/2000/svg" width="1000" height="1000"><path d="M450.337 294.598c17.38 23.025 23.729 35.89 30.023 68.62-7.59 8.277-17.067 3.47-20.901 12.841-3.834 9.372-1.89 38.466-6.075 39.891-4.185 1.425-16.502-7.906-19.976-5.666-3.473 2.241-6.355 67.43-8.901 70.09-2.547 2.66-30.26 6.342-30.143 13.03.062 3.521 30.376 47.605 35.96 56.596L23.57 650C-17.48 534.989 386.21 370.638 450.337 294.598z" fill="#292f33"/><path d="M865.112 281.594s24.177-71.366 33.45-92.773c9.274-21.406 51.646-82.077 64.496-75.022 16.544 10.918-15.57 43.506-21.166 56.448-5.597 12.942-3.09 23.444-3.09 23.444 20.375-2.724 32.052-5.894 38.944 2.225 6.892 8.119.89 20.919.89 20.919 13.96 1.313 21.364-3.373 17.882 23.117 15.923 7.054 4.996 22.838-2.485 33.907-7.48 11.07-18.487 26.141-31.182 10.591-5.909 4.864-30.161 48.284-51.256 55.181z" fill="#ef9645"/><path d="M955.125 115.039c-17.334 9.685-48.736 55.717-56.562 73.783-9.274 21.407-33.451 92.772-33.451 92.772l35.472 22.898c14.138-4.492 30.356 11.321 54.467-31.041 24.11-42.363 13.065-41.86-26.786-73.451-2.99-40.222 39.035-76.24 26.86-84.961z" fill="#ffdc5d"/><path d="M909.173 322.163c-8.813-30.213-34.62-37.766-52.244-44.06-4.315-1.542-57.612 22.63-82.341 31.275-24.73 8.644-23.732 21.538-34.527 31.452-10.794 9.915-26.252 4.138-37.88 10.842-11.627 6.704-13.425 20.677-27.409 28.477-13.984 7.8-21.105-1.618-52.054 18.501-18.832 12.243-43.709 33.24-78.03 48.28-22.083 9.676-56.363 13.925-67.928 21.62-112.104 78.09-215.742 44.757-317.474 74.307C83.18 564.524 66.486 650 33.486 616.58.483 583.158 291.818 470.377 350 500c-24.941-100 33.032-69.605 69.456-122.665 10.782-18.877.66-57.659 37.688-89.13-16.475-27.067-33.177-55.284-108.739-54.163-75.563 1.121-108.018 70.028-146.579 126.168-48.129 70.07-169.404 218.72-184.458 257.362C2.314 656.212 8.793 938.306 0 1000h344.255l111.021-215.086 439.24-399.172z" fill="#66757f"/><path d="M863.054 463.861c-23.26 35.175-55.703 17.437-78.886 60.552-23.182 43.115-41.19 34.678-55.944 68.833-14.753 34.155-66.81 74.475-94.004 76.127-27.192 1.652-151.424 100.878-155.978 113.447-4.555 12.57-5.875 107.634-5.875 218.604-106.8 0-50.459-1.418-128.112-1.429-15.144-66.468-33.41-139.895-39.878-175.158-6.468-35.263 104.638-64.62 143.22-94.825 94.395-59.583 123.802-117.257 172.417-230.668 50.676 13.304-1.193 108.102-8.193 121.183 93.109-104.112 20.737-138.865 42.237-158.607 21.5-19.742 31.566 20.766 62.39-4.077 30.824-24.843-19.288-62.874-.43-74.519 18.857-11.645 44.425 31.129 66.86 14.54 22.435-16.587-18.083-36.456-4.488-46.05 13.596-9.596 59.166 25.795 75.276 12.032 10.818-9.242-.156-36.35 9.603-43.25 9.76-6.901 32.45 1.55 45.904 1.567 4.668 25.848 4.621 52.178 3.461 72.177-4.74 36.3-26.319 34.347-49.58 69.521zM150 1000h50c0-227.417 0-400 100-450-150 50-100 250-150 450z" fill="#292f33"/></svg>