<svg xmlns="http://www.w3.org/2000/svg" width="1000" height="1000"><g style="display:inline;opacity:1"><path d="M450.337 327.015c17.38 23.024 23.729 35.889 30.023 68.62-7.59 8.277-17.067 3.47-20.901 12.841s-1.89 38.466-6.075 39.891-16.502-7.907-19.976-5.666c-3.473 2.24-6.355 67.43-8.901 70.09-2.547 2.66-30.26 6.342-30.143 13.03.062 3.52 30.376 47.604 35.96 56.596l-406.753 100C-17.48 567.406 386.21 403.055 450.337 327.015" style="fill:#292f33;stroke:none;stroke-width:10;stroke-linecap:butt;stroke-linejoin:miter;stroke-miterlimit:4;stroke-dasharray:none;stroke-opacity:1;fill-opacity:1" transform="translate(0 -32.417)"/><path d="M865.112 314.01s24.177-71.365 33.45-92.772c9.274-21.406 51.646-82.077 64.496-75.022 16.544 10.918-15.57 43.505-21.166 56.447-5.597 12.942-3.09 23.444-3.09 23.444 20.375-2.723 32.052-5.893 38.944 2.226s.89 20.918.89 20.918c13.96 1.314 21.364-3.372 17.882 23.118 15.923 7.054 4.996 22.838-2.485 33.907-7.48 11.07-18.487 26.14-31.182 10.59-5.909 4.865-30.161 48.285-51.256 55.182z" style="fill:#ef9645;stroke:none;stroke-width:.88121063px;stroke-linecap:butt;stroke-linejoin:miter;stroke-opacity:1;fill-opacity:1" transform="translate(0 -32.417)"/><path d="M955.125 147.456c-17.334 9.684-48.736 55.717-56.562 73.783-9.274 21.406-33.451 92.771-33.451 92.771l35.472 22.899c14.138-4.492 30.356 11.32 54.467-31.042s13.065-41.86-26.786-73.45c-2.99-40.222 39.035-76.241 26.86-84.961" style="opacity:1;fill:#ffdc5d;stroke:none;stroke-width:.88121063px;stroke-linecap:butt;stroke-linejoin:miter;stroke-opacity:1;fill-opacity:1" transform="translate(0 -32.417)"/><path d="M909.173 354.58c-8.813-30.213-34.62-37.766-52.244-44.06-4.315-1.542-57.612 22.63-82.341 31.274-24.73 8.645-23.732 21.539-34.527 31.453-10.794 9.915-26.252 4.138-37.88 10.842-11.627 6.703-13.425 20.677-27.409 28.477s-21.105-1.619-52.054 18.5c-18.832 12.243-43.709 33.241-78.03 48.28-22.083 9.676-56.363 13.925-67.928 21.62-112.104 78.091-215.742 44.757-317.474 74.308-76.106 21.667-92.8 107.143-125.8 73.722C.483 615.575 291.818 502.794 350 532.416c-24.941-100 33.032-69.604 69.456-122.664 10.782-18.878.66-57.66 37.688-89.131-16.475-27.066-33.177-55.283-108.739-54.162-75.563 1.12-108.018 70.028-146.579 126.167-48.129 70.07-169.404 218.721-184.458 257.362S8.793 970.723 0 1032.417h344.255L455.276 817.33l439.24-399.172Z" style="opacity:1;fill:#66757f;stroke:none;stroke-width:.88121063px;stroke-linecap:butt;stroke-linejoin:miter;stroke-opacity:1;fill-opacity:1" transform="translate(0 -32.417)"/><path d="M863.054 496.278c-23.26 35.174-55.703 17.436-78.886 60.551s-41.19 34.679-55.944 68.834c-14.753 34.155-66.81 74.475-94.004 76.127-27.192 1.652-151.424 100.878-155.978 113.447s-5.875 107.634-5.875 218.603c-106.8 0-50.459-1.417-128.112-1.428-15.144-66.468-33.41-139.895-39.878-175.158s104.638-64.62 143.22-94.826c94.395-59.583 123.802-117.257 172.418-230.667 50.675 13.303-1.194 108.101-8.194 121.183 93.109-104.112 20.737-138.865 42.237-158.607s31.566 20.766 62.39-4.077c30.824-24.844-19.288-62.874-.43-74.519 18.857-11.645 44.425 31.129 66.86 14.54 22.435-16.588-18.083-36.456-4.488-46.051 13.596-9.595 59.166 25.796 75.276 12.032 10.818-9.242-.156-36.349 9.603-43.25 9.76-6.9 32.45 1.55 45.904 1.568 4.668 25.848 4.621 52.177 3.461 72.177-4.74 36.299-26.319 34.346-49.58 69.52" style="opacity:1;fill:#292f33;stroke:none;stroke-width:.88121063px;stroke-linecap:butt;stroke-linejoin:miter;stroke-opacity:1;fill-opacity:1" transform="translate(0 -32.417)"/><path d="M150 1032.417h50c0-227.417 0-400 100-450-150 50-100 250-150 450" style="fill:#292f33;stroke:none;stroke-width:10;stroke-linecap:butt;stroke-linejoin:miter;stroke-miterlimit:4;stroke-dasharray:none;stroke-opacity:1;fill-opacity:1" transform="translate(0 -32.417)"/></g></svg>