<svg xmlns="http://www.w3.org/2000/svg" width="1000" height="1000"><g style="display:inline;opacity:1" transform="translate(0 -32.417)"><path d="M505.809 32.846c-11.832-1.862-30.245 2.22-39.22 14.44-12.565-5.56-27.311 11.434-27.311 34.683-.097 36.248-62.351 138.798 62.346 109.753 108.281-2.323 62.355-40.09 62.355-95.872 0-44.946-26.304-58.015-58.17-63.004" style="fill:#ffac33;stroke-width:21.464077"/><path d="M467.998 58.398c-11.142.007-4.98 49.241-2.46 59.776 34.461 114.045-94.267 22.967-83.5 138.125-14.006 50-8.51 75.07-4.968 109.748-23.32 33.954-9.347 123.672-13.72 152.3-4.317 28.346-.534 45.891 14.341 60.839 19.393 19.486 10.873-3.365 8.498-18.633 11.248-1.477 10.708-18.915 6.873-38.2-11.948-54.917 17.935-103.628 17.452-134.322 8.379-21.106 10.142-22.411 10.142-92.082 8.83 18.258 20.833 37.859 19.149 60.983-72.68 152.517-26.706 289.688-5.092 380.72 0 34.382-7.521 28.061-8.145 62.348-.93 51.165 24.055 100 11.055 150-4.221 16.235-22.908 34.009-22.908 50 39.656.294 34.486.355 63.6 0 0-16.292-5.863-32.016-5.846-50.383 1.3-70.022 26.17-202.89 9.662-249.617 7.035-48.85 17.869-155.01 8.369-195.44L500 500l9.5 4.56c-9.5 40.43 1.334 146.59 8.37 195.44-16.508 46.727 8.36 179.595 9.661 249.617.017 18.367-5.845 34.09-5.845 50.383 29.113.355 23.943.294 63.6 0 0-15.991-18.688-33.765-22.909-50-13-50 11.985-98.835 11.055-150-.624-34.287-8.145-27.966-8.145-62.348 21.614-91.032 67.587-228.203-5.092-380.72-1.684-23.124 10.319-42.725 19.149-60.983 0 69.67 1.763 70.976 10.142 92.082-.483 30.694 29.4 79.405 17.452 134.323-3.835 19.284-4.375 36.722 6.873 38.199-2.375 15.268-10.895 38.12 8.498 18.633 14.875-14.948 18.658-32.493 14.341-60.838-4.373-28.63 9.6-118.347-13.72-152.301 3.543-34.678 9.038-59.748-4.967-109.748 10.766-115.158-117.962-24.08-83.5-138.125 2.6-10.874 9.083-62.985-3.594-59.62-11.851 3.147-14.93 5.58-30.869 5.58s-19.018-2.433-30.87-5.58a4.4 4.4 0 0 0-1.132-.156z" style="fill:#ffdc5d;stroke:#000;stroke-width:0;stroke-miterlimit:4;stroke-dasharray:none;stroke-opacity:1" transform="translate(0 32.417)"/><ellipse cx="480" cy="117.417" rx="10" ry="5" style="fill:#662113;stroke-width:20.85860825"/><path d="M512.583 160.125h-25.174c-2.694 0-4.913-1.694-4.913-3.75s2.219-3.75 4.913-3.75h25.174c2.694 0 4.913 1.693 4.913 3.75s-2.219 3.75-4.913 3.75" style="fill:#c1694f;stroke-width:23.07729721"/><path d="M505.618 145.797h-11.236c-3.1 0-5.632-1.124-5.632-2.5s2.531-2.5 5.632-2.5h11.236c3.1 0 5.632 1.124 5.632 2.5s-2.532 2.5-5.632 2.5" style="fill:#c1694f;stroke-width:18.95136452"/><circle cx="557.5" cy="314.917" r="7.5" style="opacity:1;vector-effect:none;fill:#c1694f;fill-opacity:1;stroke:none;stroke-width:11.42249489;stroke-linecap:round;stroke-linejoin:miter;stroke-miterlimit:4;stroke-dasharray:none;stroke-dashoffset:0;stroke-opacity:1;paint-order:normal"/><path d="M450 450c19.893 10.817 37.516 61.656 50 61.656s30.107-50.839 50-61.656H450" style="fill:#662113;fill-opacity:1;stroke:none;stroke-width:1px;stroke-linecap:butt;stroke-linejoin:miter;stroke-opacity:1" transform="translate(0 32.417)"/><circle cx="499.998" cy="421.767" r="7.5" style="opacity:1;vector-effect:none;fill:#f9ca55;fill-opacity:1;stroke:none;stroke-width:11.42249489;stroke-linecap:round;stroke-linejoin:miter;stroke-miterlimit:4;stroke-dasharray:none;stroke-dashoffset:0;stroke-opacity:1;paint-order:normal"/><path d="M465.537 118.174c5.469 23.807 2.796 64.188 34.463 78.697 31.667-14.509 28.994-54.89 34.463-78.697C531.986 127.66 515.785 145.579 500 151c-15.785-5.421-31.986-23.339-34.463-32.826z" style="display:inline;opacity:.55800003;fill:#f9ca55;fill-opacity:1;stroke:#000;stroke-width:0;stroke-miterlimit:4;stroke-dasharray:none;stroke-opacity:1" transform="translate(0 32.417)"/><path d="M485.603 306.335c-11.992 32.232-35.603 49.326-64.948 22.031 7.038 14.15 13.527 22.115 29.345 22.115s36.195-18.064 35.603-44.146" style="fill:#f9ca55;fill-opacity:1;stroke:none;stroke-width:1px;stroke-linecap:butt;stroke-linejoin:miter;stroke-opacity:1"/><ellipse cx="520" cy="117.417" rx="10" ry="5" style="fill:#662113;stroke-width:20.85860825"/><circle cx="442.5" cy="314.917" r="7.5" style="opacity:1;vector-effect:none;fill:#c1694f;fill-opacity:1;stroke:none;stroke-width:11.42249489;stroke-linecap:round;stroke-linejoin:miter;stroke-miterlimit:4;stroke-dasharray:none;stroke-dashoffset:0;stroke-opacity:1;paint-order:normal"/><path d="M514.397 306.335c11.992 32.232 35.603 49.326 64.948 22.031-7.038 14.15-13.527 22.115-29.345 22.115s-36.195-18.064-35.603-44.146" style="fill:#f9ca55;fill-opacity:1;stroke:none;stroke-width:1px;stroke-linecap:butt;stroke-linejoin:miter;stroke-opacity:1"/></g></svg>