<svg xmlns="http://www.w3.org/2000/svg" width="1000" height="1000"><g transform="translate(0 -32.417)"><path d="M510.746 32.417c-20.107 0-32.035-.062-39.232 12.16C461.438 39.014 450 58.72 450 81.968c-.078 36.248 8.122 64.147 49.996 64.981 24.486 0 50.004-14.533 50.004-51.1 0-44.946-19.148-63.433-39.254-63.433z" fill="#ffac33"/><path d="M482.076 65.417c-35.024.603-24.775 56.145-17.885 81.982 7.875 29.528-37.479 43.107-64.191 50.377-26.712 7.27-57.393 23.414-43.428 80.67-9.213 41.1-2.091 85.29 5.438 114.65-13.463 55.44-1.472 84.08-5.176 113.856-3.704 29.776-18.288 53.189.88 84.869 19.17 31.68 32.86 12.498 18.796 1.367-8.422-6.666-7.728-28.594-2.643-39.822 3.58 67.8 24.156 5.352 9.338-20.95-14.818-26.3 38.14-89.336 21.229-146.165 4.833-25.796 1.159-38.61-4.434-74.71 14.124 29.09 25.487 119.05 12.195 177.448-13.291 58.397-15.758 98.909-12.195 163.805 2.507 39.118 26.31 92.62 13.154 147.32-13.155 54.7 22.232 108.432 12.412 157.79-9.819 49.36-25.566 58.522-25.566 74.513 39.656.294 39.52.354 68.633 0-.6-90.375-12.668-78.818-4.983-118.106 7.686-39.288 23.52-160.112 17.993-192.892-5.528-32.781 18.358-89.003 11.93-178.414 2.157 1.645 4.34 1.625 6.427 1.625 2.087 0 4.27.02 6.428-1.625-6.429 89.41 17.457 145.633 11.93 178.414-5.528 32.78 10.306 153.604 17.992 192.892 7.685 39.288-4.383 27.731-4.983 118.106 29.114.354 28.977.294 68.633 0 0-15.991-15.747-25.153-25.566-74.512-9.82-49.359 25.567-103.09 12.412-157.791-13.155-54.7 10.647-108.202 13.154-147.32 3.563-64.896 1.096-105.408-12.195-163.805-13.292-58.398-1.93-148.358 12.195-177.447-5.593 36.098-9.267 48.913-4.434 74.709-16.911 56.83 36.047 119.865 21.229 146.166-14.818 26.3 5.758 88.75 9.338 20.949 5.085 11.228 5.779 33.156-2.643 39.822-14.063 11.131-.373 30.313 18.795-1.367 19.169-31.68 4.585-55.093.881-84.87-3.704-29.775 8.287-58.414-5.176-113.855 7.53-29.36 14.65-73.55 5.438-114.65 13.965-57.256-16.716-73.4-43.428-80.67-26.712-7.27-72.066-20.849-64.191-50.377 7.875-29.528 20.135-97.854-35.809-78.63-6.993-2.404-12.92-3.439-17.924-3.352z" fill="#ffdc5d"/><ellipse cx="480" cy="103.127" rx="10" ry="5" fill="#662113"/><path d="M512.587 149.888h-25.174c-2.694 0-4.913-1.693-4.913-3.75 0-2.056 2.219-3.75 4.913-3.75h25.174c2.694 0 4.913 1.694 4.913 3.75 0 2.057-2.22 3.75-4.913 3.75zM505.618 132.417h-11.236c-3.1 0-5.632-1.124-5.632-2.5 0-1.377 2.532-2.5 5.632-2.5h11.236c3.1 0 5.632 1.123 5.632 2.5 0 1.376-2.532 2.5-5.632 2.5z" fill="#c1694f"/><circle cx="437.5" cy="282.417" r="7.5" fill="#c1694f"/><ellipse cx="500" cy="515.657" rx="12.5" ry="37.5" fill="#c1694f"/><path d="M500.002 406.784l-.002.098v.091c-.086 90.741-57.352 38.994-30.328 85.555 27.043 46.595 8.397 5.307 30.328 5.307 21.931 0 3.287 41.288 30.33-5.307 27.023-46.56-30.238 5.183-30.328-85.547v-.197z" fill="#662113"/><circle r="7.5" cy="399.284" cx="500" fill="#f9ca55"/><path d="M460.023 128.905c4.167 18.493 2.9 35.116-.52 40.22 12.683 7.673 18.867 22.894 40.497 28.659 21.63-5.765 27.814-20.986 40.496-28.658-3.42-5.105-4.686-21.728-.52-40.221-11.842 11.203-8.15 37.892-39.976 37.894-31.827-.002-28.134-26.691-39.977-37.894z" fill="#f9ca55"/><circle r="7.5" cy="282.417" cx="562.5" fill="#c1694f"/><ellipse ry="5" rx="10" cy="103.127" cx="520" fill="#662113"/></g></svg>