<svg xmlns="http://www.w3.org/2000/svg" width="1000" height="1000"><g style="display:inline;opacity:1" transform="translate(0 -32.417)"><path d="M510.746 32.417c-20.107 0-32.035-.062-39.232 12.16C461.438 39.014 450 58.72 450 81.968c-.078 36.248 8.122 64.147 49.996 64.981 24.486 0 50.004-14.533 50.004-51.1 0-44.946-19.148-63.433-39.254-63.433" style="opacity:1;fill:#ffac33;stroke-width:19.22101974"/><path d="M482.076 33c-35.024.604-24.775 56.145-17.885 81.982 7.875 29.529-37.479 43.107-64.191 50.377s-57.393 23.414-43.428 80.67c-9.213 41.101-2.091 85.29 5.438 114.65-13.463 55.441-1.472 84.08-5.176 113.856s-18.288 53.189.88 84.87c19.17 31.68 32.86 12.498 18.796 1.366-8.422-6.665-7.728-28.593-2.643-39.822 3.58 67.8 24.156 5.352 9.338-20.949-14.818-26.3 38.14-89.336 21.229-146.166 4.833-25.795 1.159-38.61-4.434-74.709 14.124 29.089 25.487 119.05 12.195 177.447S396.437 555.482 400 620.377c2.507 39.118 26.31 92.62 13.154 147.32s22.232 108.432 12.412 157.791C415.747 974.848 400 984.008 400 1000c39.656.294 39.52.355 68.633 0-.6-90.375-12.668-78.818-4.983-118.105 7.686-39.288 23.52-160.112 17.993-192.893-5.528-32.78 18.358-89.003 11.93-178.414 2.157 1.645 4.34 1.625 6.427 1.625s4.27.02 6.428-1.625c-6.429 89.411 17.457 145.633 11.93 178.414s10.306 153.605 17.992 192.893c7.685 39.287-4.383 27.73-4.983 118.105 29.114.355 28.977.294 68.633 0 0-15.991-15.747-25.153-25.566-74.512-9.82-49.359 25.567-103.09 12.412-157.79C573.69 712.996 597.493 659.494 600 620.376c3.563-64.896 1.096-105.407-12.195-163.805-13.292-58.397-1.93-148.358 12.195-177.447-5.593 36.099-9.267 48.914-4.434 74.709-16.911 56.83 36.047 119.865 21.229 146.166-14.818 26.3 5.758 88.75 9.338 20.95 5.085 11.227 5.779 33.156-2.643 39.821-14.063 11.132-.373 30.314 18.795-1.367 19.169-31.68 4.585-55.093.881-84.869s8.287-58.415-5.176-113.855c7.53-29.361 14.65-73.55 5.438-114.65 13.965-57.257-16.716-73.4-43.428-80.67-26.712-7.271-72.066-20.85-64.191-50.378S555.944 17.128 500 36.352c-6.993-2.403-12.92-3.438-17.924-3.352z" style="opacity:1;fill:#ffdc5d;stroke:#000;stroke-width:0;stroke-miterlimit:4;stroke-dasharray:none;stroke-opacity:1" transform="translate(0 32.417)"/><ellipse cx="480" cy="103.127" rx="10" ry="5" style="opacity:1;fill:#662113;stroke-width:20.85860825"/><path d="M512.587 149.888h-25.174c-2.694 0-4.913-1.693-4.913-3.75s2.219-3.75 4.913-3.75h25.174c2.694 0 4.913 1.694 4.913 3.75s-2.22 3.75-4.913 3.75" style="opacity:1;fill:#c1694f;stroke-width:23.07729721"/><path d="M505.618 132.417h-11.236c-3.1 0-5.632-1.124-5.632-2.5 0-1.377 2.532-2.5 5.632-2.5h11.236c3.1 0 5.632 1.123 5.632 2.5 0 1.376-2.532 2.5-5.632 2.5" style="opacity:1;fill:#c1694f;stroke-width:18.95136452"/><circle cx="437.5" cy="282.417" r="7.5" style="opacity:1;vector-effect:none;fill:#c1694f;fill-opacity:1;stroke:none;stroke-width:11.42249489;stroke-linecap:round;stroke-linejoin:miter;stroke-miterlimit:4;stroke-dasharray:none;stroke-dashoffset:0;stroke-opacity:1;paint-order:normal"/><ellipse cx="500" cy="515.657" rx="12.5" ry="37.5" style="opacity:1;vector-effect:none;fill:#c1694f;fill-opacity:1;stroke:none;stroke-width:9.83438683;stroke-linecap:round;stroke-linejoin:miter;stroke-miterlimit:4;stroke-dasharray:none;stroke-dashoffset:0;stroke-opacity:1;paint-order:normal"/><path d="m500.002 374.367-.002.098v.092c-.086 90.74-57.352 38.993-30.328 85.554 27.043 46.595 8.397 5.307 30.328 5.307s3.287 41.288 30.33-5.307c27.023-46.56-30.238 5.184-30.328-85.547z" style="opacity:1;fill:#662113;fill-opacity:1;stroke:none;stroke-width:1px;stroke-linecap:butt;stroke-linejoin:miter;stroke-opacity:1" transform="translate(0 32.417)"/><circle cx="500" cy="399.284" r="7.5" style="opacity:1;vector-effect:none;fill:#f9ca55;fill-opacity:1;stroke:none;stroke-width:11.42249489;stroke-linecap:round;stroke-linejoin:miter;stroke-miterlimit:4;stroke-dasharray:none;stroke-dashoffset:0;stroke-opacity:1;paint-order:normal"/><path d="M460.023 96.488c4.167 18.493 2.9 35.116-.52 40.221 12.683 7.672 18.867 22.893 40.497 28.658 21.63-5.765 27.814-20.986 40.496-28.658-3.42-5.105-4.686-21.728-.52-40.22-11.842 11.202-8.15 37.892-39.976 37.894-31.827-.002-28.134-26.692-39.977-37.895z" style="display:inline;opacity:1;fill:#f9ca55;fill-opacity:1;stroke:#000;stroke-width:0;stroke-miterlimit:4;stroke-dasharray:none;stroke-opacity:1" transform="translate(0 32.417)"/><circle cx="562.5" cy="282.417" r="7.5" style="opacity:1;vector-effect:none;fill:#c1694f;fill-opacity:1;stroke:none;stroke-width:11.42249489;stroke-linecap:round;stroke-linejoin:miter;stroke-miterlimit:4;stroke-dasharray:none;stroke-dashoffset:0;stroke-opacity:1;paint-order:normal"/><ellipse cx="520" cy="103.127" rx="10" ry="5" style="opacity:1;fill:#662113;stroke-width:20.85860825"/></g></svg>