<svg xmlns="http://www.w3.org/2000/svg" width="1000" height="1000"><g transform="translate(0 -32.417)"><path d="M505.809 32.846c-11.832-1.862-30.245 2.22-39.22 14.44-12.565-5.56-27.311 11.434-27.311 34.683-.097 36.248-62.351 138.798 62.346 109.753 108.281-2.323 62.355-40.09 62.355-95.872 0-44.946-26.304-58.015-58.17-63.004z" fill="#ffac33"/><path d="M467.998 90.815c-11.142.007-4.98 49.241-2.46 59.775 34.461 114.045-94.267 22.967-83.5 138.125-14.006 50-8.51 75.071-4.968 109.749-23.32 33.954-9.347 123.671-13.72 152.3-4.317 28.345-.534 45.89 14.341 60.838 19.393 19.487 10.873-3.364 8.498-18.633 11.248-1.476 10.708-18.914 6.873-38.199-11.948-54.917 17.935-103.628 17.452-134.322 8.379-21.107 10.142-22.412 10.142-92.082 8.83 18.258 20.833 37.858 19.149 60.982-72.68 152.518-26.706 289.689-5.092 380.721 0 34.382-7.521 28.06-8.145 62.348-.93 51.165 24.055 100 11.055 150-4.221 16.235-22.908 34.009-22.908 50 39.656.294 34.486.354 63.6 0 0-16.293-5.863-32.017-5.846-50.383 1.3-70.023 26.17-202.89 9.662-249.617 7.035-48.85 17.869-155.01 8.369-195.44l9.5-4.56 9.5 4.56c-9.5 40.43 1.334 146.59 8.37 195.44-16.508 46.726 8.36 179.594 9.661 249.617.017 18.366-5.845 34.09-5.845 50.383 29.113.354 23.943.294 63.6 0 0-15.991-18.688-33.765-22.909-50-13-50 11.985-98.835 11.055-150-.624-34.287-8.145-27.966-8.145-62.348 21.614-91.032 67.587-228.203-5.092-380.72-1.684-23.125 10.319-42.725 19.149-60.983 0 69.67 1.763 70.975 10.142 92.082-.483 30.694 29.4 79.405 17.452 134.322-3.835 19.285-4.375 36.723 6.873 38.2-2.375 15.268-10.895 38.119 8.498 18.632 14.875-14.947 18.658-32.493 14.341-60.838-4.373-28.629 9.6-118.346-13.72-152.3 3.543-34.678 9.038-59.749-4.967-109.749 10.766-115.158-117.962-24.08-83.5-138.125 2.6-10.874 9.083-62.984-3.594-59.619-11.851 3.147-14.93 5.58-30.869 5.58-15.94 0-19.018-2.433-30.87-5.58a4.4 4.4 0 00-1.132-.156z" fill="#ffdc5d"/><ellipse cx="480" cy="117.417" rx="10" ry="5" fill="#662113"/><path d="M512.583 160.125h-25.174c-2.694 0-4.913-1.694-4.913-3.75 0-2.057 2.219-3.75 4.913-3.75h25.174c2.694 0 4.913 1.693 4.913 3.75 0 2.056-2.219 3.75-4.913 3.75zM505.618 145.797h-11.236c-3.1 0-5.632-1.124-5.632-2.5s2.531-2.5 5.632-2.5h11.236c3.1 0 5.632 1.124 5.632 2.5s-2.532 2.5-5.632 2.5z" fill="#c1694f"/><circle cx="557.5" cy="314.917" r="7.5" fill="#c1694f"/><path d="M450 482.417c19.893 10.817 37.516 61.656 50 61.656 12.484 0 30.107-50.84 50-61.656H450z" fill="#662113"/><circle r="7.5" cy="421.767" cx="499.998" fill="#f9ca55"/><path d="M465.537 150.59c5.469 23.807 2.796 64.189 34.463 78.698 31.667-14.51 28.994-54.89 34.463-78.698-2.477 9.488-18.678 27.405-34.463 32.827-15.785-5.422-31.986-23.34-34.463-32.827z" opacity=".558" fill="#f9ca55"/><path d="M485.603 306.335c-11.992 32.232-35.603 49.326-64.948 22.031 7.038 14.15 13.527 22.115 29.345 22.115s36.195-18.064 35.603-44.146z" fill="#f9ca55"/><ellipse ry="5" rx="10" cy="117.417" cx="520" fill="#662113"/><circle r="7.5" cy="314.917" cx="442.5" fill="#c1694f"/><path d="M514.397 306.335c11.992 32.232 35.603 49.326 64.948 22.031-7.038 14.15-13.527 22.115-29.345 22.115s-36.195-18.064-35.603-44.146z" fill="#f9ca55"/></g></svg>