<svg xmlns="http://www.w3.org/2000/svg" width="1000" height="1000"><path d="M0 250v100l500 65 500-65V250c-100 50-350 50-500 50s-400 0-500-50z" fill="#f4abba"/><path d="M0 250v100c156.826 81.36 373.44 250.92 450 450h100c76.56-199.08 293.174-368.64 450-450V250c0 60-333.334 100-500 100S0 310 0 250z" fill="#ffd4de"/><path style="font-variant-east_asian:normal" d="M547.889 315.31l-54.063 35.467-53.459-31.24-18.601 18.602 49.963 29.197-49.045 39.76 18.601 18.601 55.662-45.123 62.686 28.727 18.601-18.602-57.877-26.521 46.133-30.266-18.601-18.601z" fill="#dd2e44"/></svg>