<svg xmlns="http://www.w3.org/2000/svg" width="1000" height="1000"><path d="M800.232 305.658c-100.26 0-317.123-26.067-317.123-26.067s-43.362 47.698-68.427 72.763c-46.696 46.696-42.636 105.8-48.827 179.516C373.55 736.751 504.715 900 665.91 900c160.265 0 290.904-161.419 299.902-364.721-8.822-90.986-70.081-229.62-165.579-229.62z" fill="#ffdc5d"/><path d="M665.909 799.74c-58.828 0-89.608-29.076-92.916-32.41-9.8-9.8-9.8-25.64 0-35.441 9.7-9.7 25.39-9.776 35.19-.25 1.28 1.177 20.203 17.97 57.726 17.97 38.073 0 56.972-17.294 57.774-18.021 9.976-9.35 25.742-9.074 35.292.727 9.5 9.85 9.525 25.34-.15 35.016-3.309 3.333-34.089 32.409-92.916 32.409zm25.065-125.325h-50.13c-13.836 0-25.065-11.204-25.065-25.065s11.229-25.065 25.065-25.065h50.13c13.86 0 25.065 11.204 25.065 25.065 0 13.86-11.204 25.065-25.065 25.065z" fill="#c1694f"/><path d="M665.858 100C871.517 100 1000 251.743 1000 378.196c0 126.428-25.717 177.06-51.408 126.428-25.717-50.556-51.409-126.202-51.409-126.202s-87.176 56.471-155.478-25.541c0 0 26.995 151.743-127.255 0 0 0 25.717 101.187-128.508-25.266 0 0-77.125 50.581-102.817 177.01-7.118 35.115-51.408 0-51.408-126.429C331.692 251.743 434.508 100 665.858 100" fill="#ffac33"/><path d="M585.721 511.797c8.81-38.01-64.367-62.166-117.975-33.562-53.607 28.603-94.811 102.966-105.93 13.442-11.12-89.524 40.594-211.274 97.05-278.488 56.456-67.214 76.888-94.4 8.358-63.922-65.239-76.672-72.933-69.013-108.461-62.206-22.091-7.24-31.43-31.566-96.382 14.598C56.82 280.505-67.769 695.604 87.672 761.77c155.44 66.165 310.093-110.285 369.159-162.584 59.065-52.299 120.08-49.378 128.89-87.388z" fill="#ef9645"/><path d="M540.584 574.155c-13.836 0-25.065-11.204-25.065-25.065v-50.13c0-13.836 11.229-25.065 25.065-25.065 13.835 0 25.065 11.229 25.065 25.065v50.13c0 13.86-11.23 25.065-25.065 25.065zm250.65 0c-13.861 0-25.065-11.204-25.065-25.065v-50.13c0-13.836 11.204-25.065 25.065-25.065 13.86 0 25.065 11.229 25.065 25.065v50.13c0 13.86-11.204 25.065-25.065 25.065z" fill="#662113"/><path d="M545.721 511.797c8.81-38.01-64.367-62.166-117.975-33.562-53.607 28.603-94.811 102.966-105.93 13.442-11.12-89.524 40.594-211.274 97.05-278.488 56.456-67.214 96.238-125.86 8.894-96.417-87.343 29.442-173.33 208.722-194.352 242.134-11.862-56.987 79.622-158.534 145.836-225.818 66.214-67.284-13.381-50.395-34.511-41.432-18.216-18.977-23.51-51.681-170.71 85.725C26.822 314.788-71.022 700.275 87.672 761.77c158.694 61.493 266.08-84.524 315.044-148.28 48.963-63.756 134.195-63.682 143.005-101.692z" fill="#ffdc5d"/></svg>