<svg xmlns="http://www.w3.org/2000/svg" width="1000" height="1000"><path d="M800.232 338.075c-100.26 0-317.123-26.068-317.123-26.068s-43.362 47.699-68.427 72.764c-46.696 46.696-42.636 105.8-48.827 179.516 7.695 204.881 138.86 368.13 300.054 368.13 160.265 0 290.904-161.42 299.902-364.722-8.822-90.986-70.081-229.62-165.579-229.62" style="fill:#ffdc5d;stroke-width:25.06500816" transform="translate(0 -32.417)"/><path d="M665.909 832.156c-58.828 0-89.608-29.075-92.916-32.409-9.8-9.8-9.8-25.641 0-35.442 9.7-9.7 25.39-9.775 35.19-.25 1.28 1.178 20.203 17.971 57.726 17.971 38.073 0 56.972-17.294 57.774-18.021 9.976-9.35 25.742-9.074 35.292.727 9.5 9.85 9.525 25.34-.15 35.015-3.309 3.334-34.089 32.41-92.916 32.41m25.065-125.325h-50.13c-13.836 0-25.065-11.204-25.065-25.065 0-13.86 11.229-25.065 25.065-25.065h50.13c13.86 0 25.065 11.204 25.065 25.065s-11.204 25.065-25.065 25.065" style="fill:#c1694f;stroke-width:25.06500816" transform="translate(0 -32.417)"/><path d="M665.858 132.417C871.517 132.417 1000 284.16 1000 410.613c0 126.428-25.717 177.06-51.408 126.428-25.717-50.556-51.409-126.202-51.409-126.202s-87.176 56.471-155.478-25.542c0 0 26.995 151.744-127.255 0 0 0 25.717 101.188-128.508-25.265 0 0-77.125 50.581-102.817 177.009-7.118 35.116-51.408 0-51.408-126.428-.025-126.453 102.791-278.196 334.141-278.196" style="fill:#ffac33;stroke-width:25.06500816" transform="translate(0 -32.417)"/><path d="M585.721 544.214c8.81-38.01-64.367-62.166-117.975-33.563-53.607 28.604-94.811 102.967-105.93 13.443s40.594-211.274 97.05-278.488 76.888-94.4 8.358-63.922c-65.239-76.673-72.933-69.013-108.461-62.207-22.091-7.24-31.43-31.565-96.382 14.599C56.82 312.922-67.769 728.02 87.672 794.186 243.112 860.35 397.765 683.9 456.831 631.601s120.08-49.378 128.89-87.388" style="opacity:1;vector-effect:none;fill:#ef9645;fill-opacity:1;stroke-width:21.8307209;stroke-linecap:butt;stroke-linejoin:miter;stroke-miterlimit:4;stroke-dasharray:none;stroke-dashoffset:0;stroke-opacity:1" transform="translate(0 -32.417)"/><path d="M540.584 606.571c-13.836 0-25.065-11.204-25.065-25.065v-50.13c0-13.836 11.229-25.065 25.065-25.065 13.835 0 25.065 11.23 25.065 25.065v50.13c0 13.861-11.23 25.065-25.065 25.065m250.65 0c-13.861 0-25.065-11.204-25.065-25.065v-50.13c0-13.836 11.204-25.065 25.065-25.065 13.86 0 25.065 11.23 25.065 25.065v50.13c0 13.861-11.204 25.065-25.065 25.065" style="fill:#662113;stroke-width:25.06500816" transform="translate(0 -32.417)"/><path d="M545.721 544.214c8.81-38.01-64.367-62.166-117.975-33.563-53.607 28.604-94.811 102.967-105.93 13.443s40.594-211.274 97.05-278.488 96.238-125.86 8.894-96.418-173.33 208.723-194.352 242.134c-11.862-56.987 79.622-158.533 145.836-225.817s-13.381-50.395-34.511-41.432c-18.216-18.977-23.51-51.681-170.71 85.725C26.822 347.205-71.022 732.692 87.672 794.185s266.08-84.523 315.044-148.28c48.963-63.755 134.195-63.681 143.005-101.691" style="fill:#ffdc5d;stroke-width:21.8307209" transform="translate(0 -32.417)"/></svg>