<svg xmlns="http://www.w3.org/2000/svg" width="1000" height="1000"><g transform="translate(0 -32.417)"><path d="M863.587 319.295c-107.389 0-194.444 87.056-194.444 194.445s87.055 194.444 194.444 194.444c107.39 0 194.445-87.055 194.445-194.444 0-107.39-87.028-194.445-194.445-194.445m0 333.334c-76.694 0-138.889-62.167-138.889-138.89 0-76.721 62.195-138.888 138.89-138.888s138.888 62.167 138.888 138.889-62.166 138.889-138.889 138.889m611.111-333.334c-107.36 0-194.444 87.056-194.444 194.445s87.083 194.444 194.444 194.444c107.417 0 194.445-87.055 194.445-194.444 0-107.39-87.028-194.445-194.445-194.445m0 333.334c-76.694 0-138.889-62.167-138.889-138.89 0-76.721 62.195-138.888 138.89-138.888 76.722 0 138.888 62.167 138.888 138.889s-62.166 138.889-138.889 138.889" style="fill:#f60;stroke-width:27.77777863" transform="matrix(-.90665 0 0 .90665 1606.681 -9.662)"/><path d="M1502.476 513.74c0-15.361-12.417-27.778-27.778-27.778h-305.555c-15.333 0-27.778 12.417-27.778 27.778s12.444 27.778 27.778 27.778h305.555c15.362 0 27.778-12.417 27.778-27.778" style="fill:#aab8c2;stroke-width:27.77777863" transform="matrix(-.90665 0 0 .90665 1606.681 -9.662)"/><path d="m1258.698 180.406-115.722 324c-5.139 14.417 2.39 30.334 16.833 35.473a27.4 27.4 0 0 0 9.334 1.639c11.417 0 22.111-7.084 26.167-18.445l122.388-342.667z" style="fill:#aab8c2;stroke-width:27.77777863" transform="matrix(-.90665 0 0 .90665 1606.681 -9.662)"/><path d="M1474.726 541.518c-9.167 0-18.167-4.556-23.472-12.862L1256.81 223.101c-8.25-12.945-4.417-30.111 8.527-38.361 12.973-8.25 30.111-4.417 38.361 8.528l194.445 305.555c8.25 12.945 4.417 30.111-8.528 38.361-4.639 2.917-9.778 4.334-14.889 4.334" style="fill:#aab8c2;stroke-width:27.77777863" transform="matrix(-.90665 0 0 .90665 1606.681 -9.662)"/><path d="M1384.949 203.268c-.834 0-1.64-.056-2.473-.167l-157.555-19.667c-10.334-1.278-17.89-10.389-17.222-20.778.638-10.388 9.25-18.472 19.638-18.472 1.14 0 112.973-.5 166.362-36.083 6.944-4.639 16.166-4.361 22.888.722 6.64 5.139 9.362 13.917 6.695 21.889l-19.695 59.083c-2.666 8.14-10.25 13.473-18.638 13.473" style="fill:#292f33;stroke-width:27.77777863" transform="matrix(-.90665 0 0 .90665 1606.681 -9.662)"/><path d="M1169.143 541.518c-9.167 0-18.167-4.556-23.472-12.862L951.226 223.101c-8.25-12.945-4.417-30.111 8.528-38.361 12.972-8.25 30.111-4.417 38.361 8.528l194.444 305.555c8.25 12.945 4.417 30.111-8.527 38.361-4.64 2.917-9.778 4.334-14.89 4.334" style="fill:#aab8c2;stroke-width:27.77777863" transform="matrix(-.90665 0 0 .90665 1606.681 -9.662)"/><path d="M858.643 538.441c8.95-1.984 16.75-8.38 20.132-17.636l123.701-340.399c5.253-14.423-2.205-30.353-16.628-35.606-14.45-5.246-30.354 2.206-35.606 16.629L826.54 501.827c-5.253 14.423 2.205 30.353 16.628 35.606 5.16 1.844 10.484 2.114 15.474 1.008" style="fill:#aab8c2;stroke-width:27.77777863" transform="matrix(-.90665 0 0 .90665 1606.681 -9.662)"/><path d="M959.754 184.74 853.359 95.464c-11.746-9.856-13.28-27.388-3.424-39.134s27.388-13.28 39.134-3.424l106.395 89.276c11.746 9.856 13.28 27.388 3.424 39.134s-27.388 13.28-39.134 3.424" style="fill:#292f33;stroke-width:27.77777863" transform="matrix(-.90665 0 0 .90665 1606.681 -9.662)"/><g transform="matrix(.8583 0 0 .8583 141.245 68.36)"><path d="m983.383 588.053-119.307-93.209H516.1v347.978l121.792 94.451h345.492z" style="opacity:1;vector-effect:none;fill:#231f20;fill-opacity:1;stroke:none;stroke-width:1;stroke-linecap:butt;stroke-linejoin:miter;stroke-miterlimit:4;stroke-dasharray:none;stroke-dashoffset:0;stroke-opacity:1"/><rect width="372.833" height="372.833" x="-876.504" y="482.417" rx="42.61" ry="42.61" style="opacity:1;vector-effect:none;fill:#231f20;fill-opacity:1;stroke:none;stroke-width:1;stroke-linecap:butt;stroke-linejoin:miter;stroke-miterlimit:4;stroke-dasharray:none;stroke-dashoffset:0;stroke-opacity:1;paint-order:normal" transform="scale(-1 1)"/><rect width="372.833" height="372.833" x="-996.779" y="575.622" rx="42.61" ry="42.61" style="opacity:1;vector-effect:none;fill:#0ff;fill-opacity:1;stroke:#000;stroke-width:0;stroke-linecap:butt;stroke-linejoin:miter;stroke-miterlimit:4;stroke-dasharray:none;stroke-dashoffset:0;stroke-opacity:1;paint-order:normal" transform="scale(-1 1)"/><path d="m618.292 922.074-34.042-26.4c-224.799-5.12-85.947-278.191 39.696-320.052l-30.398-23.879S441.99 619.91 434.32 740.903s31.298 160.272 183.973 181.171" style="opacity:1;vector-effect:none;fill:#231f20;fill-opacity:1;stroke:none;stroke-width:1;stroke-linecap:butt;stroke-linejoin:miter;stroke-miterlimit:4;stroke-dasharray:none;stroke-dashoffset:0;stroke-opacity:1"/><path d="m551.27 869.7-34.041-26.4c-218.03-17.492-70.064-261.808 43.704-320.183l-24.748-20.74S393.175 600.44 378.972 707.85C373.657 811.286 406.542 864.86 551.27 869.7" style="opacity:1;vector-effect:none;fill:#231f20;fill-opacity:1;stroke:none;stroke-width:1;stroke-linecap:butt;stroke-linejoin:miter;stroke-miterlimit:4;stroke-dasharray:none;stroke-dashoffset:0;stroke-opacity:1"/></g><circle cx="75" cy="957.417" r="75" style="fill:#292f33;stroke-width:16.66666794"/><circle cx="75" cy="957.417" r="36" style="opacity:1;vector-effect:none;fill:#99aab5;fill-opacity:1;stroke-width:16.66666794;stroke-linecap:butt;stroke-linejoin:miter;stroke-miterlimit:4;stroke-dasharray:none;stroke-dashoffset:0;stroke-opacity:1"/><circle cx="525" cy="957.417" r="75" style="fill:#292f33;stroke-width:16.66666794"/><circle cx="525" cy="957.417" r="36" style="opacity:1;vector-effect:none;fill:#99aab5;fill-opacity:1;stroke-width:16.66666794;stroke-linecap:butt;stroke-linejoin:miter;stroke-miterlimit:4;stroke-dasharray:none;stroke-dashoffset:0;stroke-opacity:1"/><path d="M191.666 932.417c-13.75 0-25 11.25-25 25s11.25 25 25 25v30h240v-30H525c13.75 0 25-11.25 25-25s-11.25-25-25-25z" style="opacity:1;vector-effect:none;fill:#292f33;fill-opacity:1;stroke-width:16.66666794;stroke-linecap:butt;stroke-linejoin:miter;stroke-miterlimit:4;stroke-dasharray:none;stroke-dashoffset:0;stroke-opacity:1"/><path d="M433.533 961.517c-.05-1.367-.2-2.717-.2-4.1 0-50.634 41.034-91.667 91.667-91.667 20.167 0 38.767 6.6 53.9 17.633l14.833-20.083c-19.3-14.117-43-22.55-68.75-22.55-64.433 0-116.666 52.233-116.666 116.667 0 1.7.183 3.35.25 5.033zM93.817 867.7c41.583 8.667 72.816 45.5 72.85 89.633l58.333.05c-.017-72.333-51.233-132.7-119.383-146.833-3.867 18.833-7.934 38.5-11.8 57.15" style="opacity:1;vector-effect:none;fill:#292f33;fill-opacity:1;stroke-width:16.66666794;stroke-linecap:butt;stroke-linejoin:miter;stroke-miterlimit:4;stroke-dasharray:none;stroke-dashoffset:0;stroke-opacity:1"/><path d="M131.604 667.97c-8.602-.058-16.41 5.951-18.258 14.675a734849 734849 0 0 0-57.892 272.251c-1.42 6.647 2.867 13.244 9.513 14.653l12.082 2.569c6.646 1.408 13.244-2.88 14.664-9.526 19.259-90.753 38.58-181.493 57.88-272.237 2.126-9.97-4.3-19.854-14.27-21.979a18.4 18.4 0 0 0-3.72-.406" style="opacity:1;vector-effect:none;fill:#292f33;fill-opacity:1;stroke-width:12.35424042;stroke-linecap:butt;stroke-linejoin:miter;stroke-miterlimit:4;stroke-dasharray:none;stroke-dashoffset:0;stroke-opacity:1"/><path d="M175.648 459.785c-11.605-.078-22.137 8.029-24.63 19.797a991439 991439 0 0 0-78.102 367.285c-1.916 8.966 3.868 17.867 12.835 19.767l16.298 3.466c8.967 1.9 17.867-3.884 19.784-12.85 25.98-122.433 52.046-244.846 78.084-367.266 2.867-13.45-5.801-26.784-19.251-29.65a25 25 0 0 0-5.018-.55" style="opacity:1;vector-effect:none;fill:#cf0;fill-opacity:1;stroke-width:16.66666794;stroke-linecap:butt;stroke-linejoin:miter;stroke-miterlimit:4;stroke-dasharray:none;stroke-dashoffset:0;stroke-opacity:1"/><path d="M127.765 448.092c-11.605-.067-22.137 8.04-24.63 19.809-2.867 13.45 5.799 26.782 19.249 29.648q56.348 11.978 112.699 23.951c13.45 2.867 26.8-5.799 29.65-19.249 2.867-13.45-5.799-26.784-19.249-29.65-37.587-7.971-75.142-15.98-112.701-23.968a25 25 0 0 0-5.018-.541" style="opacity:1;vector-effect:none;fill:#292f33;fill-opacity:1;stroke-width:16.66666794;stroke-linecap:butt;stroke-linejoin:miter;stroke-miterlimit:4;stroke-dasharray:none;stroke-dashoffset:0;stroke-opacity:1"/><path d="M265.05 502.317c-2.867 13.5-16.15 22.133-29.65 19.25-13.5-2.867-22.133-16.15-19.25-29.65 2.867-13.5 16.15-22.134 29.65-19.25 13.5 2.883 22.133 16.133 19.25 29.65" style="opacity:1;vector-effect:none;fill:#292f33;fill-opacity:1;stroke-width:16.66666794;stroke-linecap:butt;stroke-linejoin:miter;stroke-miterlimit:4;stroke-dasharray:none;stroke-dashoffset:0;stroke-opacity:1"/><path d="m611.429 932.417 14.833-20.084-32.529-49.033-14.833 20.083Z" style="fill:red;stroke:none;stroke-width:1px;stroke-linecap:butt;stroke-linejoin:miter;stroke-opacity:1"/></g></svg>