<svg xmlns="http://www.w3.org/2000/svg" width="1000" height="1000"><g transform="translate(0 -32.417)"><path d="M823.706 279.829c97.365 0 176.294 78.93 176.294 176.294s-78.93 176.294-176.294 176.294-176.294-78.93-176.294-176.294c0-97.365 78.904-176.294 176.294-176.294zm0 302.218c69.535 0 125.924-56.364 125.924-125.924s-56.389-125.924-125.924-125.924-125.924 56.363-125.924 125.924c0 69.56 56.364 125.924 125.924 125.924zM269.64 279.829c97.34 0 176.294 78.93 176.294 176.294S366.979 632.417 269.64 632.417c-97.39 0-176.294-78.93-176.294-176.294 0-97.365 78.904-176.294 176.294-176.294zm0 302.218c69.535 0 125.924-56.364 125.924-125.924S339.175 330.199 269.64 330.199c-69.56 0-125.924 56.363-125.924 125.924 0 69.56 56.363 125.924 125.924 125.924z" fill="#f60"/><path d="M244.455 456.123c0-13.927 11.258-25.185 25.185-25.185h277.033c13.902 0 25.185 11.258 25.185 25.185s-11.283 25.185-25.185 25.185H269.64c-13.927 0-25.185-11.258-25.185-25.185z" fill="#aab8c2"/><path d="M465.477 153.905l104.92 293.756c4.66 13.07-2.166 27.502-15.262 32.16a24.872 24.872 0 01-8.462 1.487c-10.351 0-20.047-6.422-23.724-16.723l-110.965-310.68z" fill="#aab8c2"/><path d="M269.615 481.308c8.31 0 16.47-4.13 21.28-11.66L467.19 192.613c7.48-11.736 4.004-27.3-7.732-34.78-11.761-7.48-27.3-4.005-34.78 7.731L248.384 442.6c-7.48 11.736-4.005 27.3 7.731 34.78 4.206 2.644 8.866 3.929 13.5 3.929z" fill="#aab8c2"/><path d="M351.012 174.632c.755 0 1.486-.05 2.241-.151l142.849-17.831c9.369-1.159 16.219-9.42 15.614-18.838-.579-9.42-8.386-16.748-17.805-16.748-1.033 0-102.427-.454-150.832-32.715-6.297-4.206-14.658-3.954-20.753.654-6.019 4.66-8.487 12.618-6.07 19.846l17.857 53.568c2.418 7.38 9.293 12.215 16.899 12.215z" fill="#292f33"/><path d="M546.673 481.308c8.311 0 16.47-4.13 21.281-11.66l176.294-277.034c7.48-11.736 4.004-27.3-7.732-34.78-11.761-7.48-27.3-4.005-34.78 7.731L525.442 442.6c-7.48 11.736-4.004 27.3 7.732 34.78 4.206 2.644 8.865 3.929 13.499 3.929z" fill="#aab8c2"/><path d="M828.189 478.518c-8.114-1.798-15.187-7.597-18.253-15.99L697.782 153.905c-4.763-13.077 2-27.52 15.076-32.283 13.102-4.757 27.52 2 32.283 15.077l112.154 308.623c4.762 13.077-2 27.52-15.077 32.282-4.678 1.672-9.505 1.917-14.03.914z" fill="#aab8c2"/><path d="M736.516 157.834L832.98 76.89c10.65-8.936 12.04-24.832 3.104-35.481-8.936-10.65-24.832-12.04-35.481-3.104l-96.464 80.942c-10.65 8.936-12.04 24.832-3.104 35.481 8.936 10.65 24.832 12.04 35.481 3.105z" fill="#292f33"/><g transform="matrix(.8583 0 0 .8583 141.245 68.36)"><path d="M983.383 588.053l-119.307-93.209H516.1v347.978l121.792 94.451h345.492z" fill="#231f20"/><rect transform="scale(-1 1)" ry="42.61" rx="42.61" width="372.833" height="372.833" x="-876.504" y="482.417" fill="#231f20"/><rect transform="scale(-1 1)" y="575.622" x="-996.779" height="372.833" width="372.833" rx="42.61" ry="42.61" fill="#0ff"/><path d="M618.292 922.074l-34.042-26.4c-224.799-5.12-85.947-278.191 39.696-320.052l-30.398-23.879S441.99 619.91 434.32 740.903c-7.67 120.994 31.298 160.272 183.973 181.171z" fill="#231f20"/><path d="M551.27 869.7l-34.041-26.4c-218.03-17.492-70.064-261.808 43.704-320.183l-24.748-20.74S393.175 600.44 378.972 707.85C373.657 811.286 406.542 864.86 551.27 869.7z" fill="#231f20"/></g><circle cx="75" cy="957.417" r="75" fill="#292f33"/><circle cx="75" cy="957.417" r="36" fill="#99aab5"/><circle cx="525" cy="957.417" r="75" fill="#292f33"/><circle cx="525" cy="957.417" r="36" fill="#99aab5"/><path d="M191.666 932.417c-13.75 0-25 11.25-25 25s11.25 25 25 25v30h240v-30H525c13.75 0 25-11.25 25-25s-11.25-25-25-25z" fill="#292f33"/><path d="M433.533 961.517c-.05-1.367-.2-2.717-.2-4.1 0-50.634 41.034-91.667 91.667-91.667 20.167 0 38.767 6.6 53.9 17.633l14.833-20.083c-19.3-14.117-43-22.55-68.75-22.55-64.433 0-116.666 52.233-116.666 116.667 0 1.7.183 3.35.25 5.033zM93.817 867.7c41.583 8.667 72.816 45.5 72.85 89.633l58.333.05c-.017-72.333-51.233-132.7-119.383-146.833-3.867 18.833-7.934 38.5-11.8 57.15z" fill="#292f33"/><path d="M131.604 667.97c-8.602-.058-16.41 5.951-18.258 14.675a734848.85 734848.85 0 00-57.892 272.251c-1.42 6.647 2.867 13.244 9.513 14.653l12.082 2.569c6.646 1.408 13.244-2.88 14.664-9.526 19.259-90.753 38.58-181.493 57.88-272.237 2.126-9.97-4.3-19.854-14.27-21.979a18.421 18.421 0 00-3.72-.406z" fill="#292f33"/><path d="M175.648 459.785c-11.605-.078-22.137 8.029-24.63 19.797a991438.755 991438.755 0 00-78.102 367.285c-1.916 8.966 3.868 17.867 12.835 19.767l16.298 3.466c8.967 1.9 17.867-3.884 19.784-12.85 25.98-122.433 52.046-244.846 78.084-367.266 2.867-13.45-5.801-26.784-19.251-29.65a24.852 24.852 0 00-5.018-.55z" fill="#cf0"/><path d="M127.765 448.092c-11.605-.067-22.137 8.04-24.63 19.809-2.867 13.45 5.799 26.782 19.249 29.648 37.566 7.986 75.131 15.968 112.699 23.951 13.45 2.867 26.8-5.799 29.65-19.249 2.867-13.45-5.799-26.784-19.249-29.65-37.587-7.971-75.142-15.98-112.701-23.968a24.873 24.873 0 00-5.018-.541z" fill="#292f33"/><path d="M265.05 502.317c-2.867 13.5-16.15 22.133-29.65 19.25-13.5-2.867-22.133-16.15-19.25-29.65 2.867-13.5 16.15-22.134 29.65-19.25 13.5 2.883 22.133 16.133 19.25 29.65z" fill="#292f33"/><path d="M611.429 932.417l14.833-20.084-32.529-49.033-14.833 20.083z" fill="red"/></g></svg>