<svg xmlns="http://www.w3.org/2000/svg" width="1000" height="1000"><path d="M362.572 601.84h-68.07l-2.285 29.494h72.612zm-4.57-58.985h-58.985l-2.285 29.492h63.527zm9.074 117.972h-77.127l-2.285 29.494h81.669zm-82.806 73.734h88.48l-1.115-14.747h-86.206zm230.27-73.734h-77.126l-2.286 29.494h81.664zm-82.8 73.734h88.48l-1.115-14.747h-86.212zm78.274-132.72H441.94l-2.285 29.493h72.612zm-4.57-58.986h-58.99l-2.285 29.492h63.527zm152.007 58.986h-68.07l-2.285 29.493h72.612zm-77.138 117.973l-1.114 14.747h88.48l-1.115-14.747zm81.664-58.987H584.85l-2.285 29.494h81.669zm-9.069-117.972h-58.984l-2.285 29.492h63.527z" fill="#be1931"/><path d="M364.882 631.334H292.27l-2.285 29.493h77.127zm-4.57-58.987h-63.527l-2.285 29.494h68.07zm-72.6 117.974l-2.286 29.493h86.206l-2.285-29.493zm224.607-58.987h-72.612l-2.285 29.493h77.126zm-4.57-58.987h-63.527l-2.286 29.494h68.076zm-72.596 117.974l-2.285 29.493h86.212l-2.285-29.493zm224.603-58.987h-72.612l-2.286 29.493h77.127zm4.514 58.987h-81.669l-2.285 29.493h86.206zm-9.074-117.974H591.67l-2.285 29.494h68.07z" fill="#e6e7e8"/><path d="M726.666 970.507c0 16.28-13.21 29.493-29.49 29.493H254.777c-16.28 0-29.495-13.213-29.495-29.493V764.054c0-16.28 13.215-29.493 29.495-29.493h442.4c16.28 0 29.489 13.213 29.489 29.493z" fill="#a0041e"/><path d="M225.282 764.054h501.384v29.493H225.282z" fill="#c1694f"/><path d="M299.014 823.04H358v58.987h-58.985zm147.465 0h58.99v58.987h-58.99zm147.47 0h58.985v58.987h-58.985zm-294.935 88.48H358v58.987h-58.985zm147.465 0h58.99v58.987h-58.99zm147.47 0h58.985v58.987h-58.985z" fill="#aab8c2"/><path d="M777.796 108.568c-22.937 0-44.998 3.401-65.829 9.719C687.347 49.457 620.513 0 541.661 0c-84.543 0-155.35 56.886-174.949 133.572-20.939-15.485-46.737-25-75.03-25-69.057 0-124.994 54.686-124.994 122.143 0 16.372 3.456 31.943 9.395 46.229-11.91-3.23-24.232-5.518-37.201-5.518C62.168 271.426 0 332.168 0 407.14c0 74.97 62.168 135.715 138.882 135.715h638.892c122.738 0 222.226-97.201 222.226-217.144 0-119.943-99.488-217.143-222.204-217.143z" fill="#292f33"/></svg>