<svg xmlns="http://www.w3.org/2000/svg" width="1000" height="1000"><path d="M362.572 634.258h-68.07l-2.285 29.493h72.612zm-4.57-58.987h-58.985l-2.285 29.493h63.527zm9.074 117.973h-77.127l-2.285 29.493h81.669zm-82.806 73.733h88.48l-1.115-14.746h-86.206Zm230.27-73.733h-77.126l-2.286 29.493h81.664zm-82.8 73.733h88.48l-1.115-14.746h-86.212zm78.274-132.72H441.94l-2.285 29.494h72.612zm-4.57-58.986h-58.99l-2.285 29.493h63.527zm152.007 58.987h-68.07l-2.285 29.493h72.612zM580.313 752.23l-1.114 14.746h88.48l-1.115-14.746zm81.664-58.987H584.85l-2.285 29.493h81.669zm-9.069-117.973h-58.984l-2.285 29.493h63.527z" style="fill:#be1931;stroke-width:14.74663448" transform="translate(0 -32.417)"/><path d="M364.882 663.751H292.27l-2.285 29.493h77.127zm-4.57-58.987h-63.527l-2.285 29.494h68.07zm-72.6 117.973-2.286 29.494h86.206l-2.285-29.494zm224.607-58.986h-72.612l-2.285 29.493h77.126zm-4.57-58.987h-63.527l-2.286 29.494h68.076zm-72.596 117.973-2.285 29.494h86.212l-2.285-29.494zm224.603-58.986h-72.612l-2.286 29.493h77.127zm4.514 58.986h-81.669l-2.285 29.494h86.206zm-9.074-117.973H591.67l-2.285 29.494h68.07z" style="fill:#e6e7e8;stroke-width:14.74663448" transform="translate(0 -32.417)"/><path d="M726.666 1002.923c0 16.28-13.21 29.494-29.49 29.494H254.777c-16.28 0-29.495-13.213-29.495-29.494V796.471c0-16.28 13.215-29.494 29.495-29.494h442.4c16.28 0 29.489 13.213 29.489 29.494z" style="fill:#a0041e;stroke-width:14.74663448" transform="translate(0 -32.417)"/><path d="M225.282 796.47h501.384v29.494H225.282Z" style="fill:#c1694f;stroke-width:14.74663448" transform="translate(0 -32.417)"/><path d="M299.014 855.457H358v58.986h-58.985Zm147.465 0h58.99v58.986h-58.99zm147.47 0h58.985v58.986h-58.985zm-294.935 88.48H358v58.986h-58.985Zm147.465 0h58.99v58.986h-58.99zm147.47 0h58.985v58.986h-58.985z" style="fill:#aab8c2;stroke-width:14.74663448" transform="translate(0 -32.417)"/><path d="M777.796 140.984c-22.937 0-44.998 3.402-65.829 9.72-24.62-68.83-91.454-118.287-170.306-118.287-84.543 0-155.35 56.886-174.949 133.572-20.939-15.486-46.737-25-75.03-25-69.057 0-124.994 54.685-124.994 122.142 0 16.372 3.456 31.944 9.395 46.23-11.91-3.23-24.232-5.519-37.201-5.519C62.168 303.842 0 364.585 0 439.557c0 74.97 62.168 135.714 138.882 135.714h638.892c122.738 0 222.226-97.2 222.226-217.144 0-119.943-99.488-217.143-222.204-217.143" style="fill:#292f33;fill-opacity:1;stroke-width:28.5714798" transform="translate(0 -32.417)"/></svg>