<svg xmlns="http://www.w3.org/2000/svg" width="1000" height="1000"><path d="M1325.178 981.66c-1.19 1.442-3.182 1.952-5.076 2.122-.318-1.538-1.683-7.251-4.424-7.251-2.403 0-3.269 1.09-4.5 1.09s-2.097-1.09-4.5-1.09c-2.741 0-4.106 5.713-4.424 7.25-1.894-.17-3.886-.68-5.076-2.12-2.153-2.606-5-.686-3.558 2.174 2.278 4.517 7.788 7.696 17.558 7.696s15.279-3.18 17.558-7.696c1.442-2.86-1.405-4.78-3.558-2.174" style="fill:#664500" transform="matrix(11.1423 0 0 -11.1423 -14409.536 11880.797)"/><path d="M1314.678 978.53c-1.869 0-2.543.965-3.5.965s-1.631-.964-3.5-.964c-2.463 0-3.5 6.75-3.5 6.75s1.282 2.25 7 2.25c5.719 0 7-2.25 7-2.25s-1.037-6.75-3.5-6.75" style="fill:#825d0e" transform="matrix(11.1423 0 0 -11.1423 -14409.536 11880.797)"/><path d="M1304.178 981.53s2.074 2 7 2 7-2 7-2v2s-2.222 2-7 2-7-2-7-2z" style="fill:#664500" transform="matrix(11.1423 0 0 -11.1423 -14409.536 11880.797)"/><path d="M20.905 1.103c-2.182-.859-5.584.249-5.979 2.799-.393 2.532.328 6.502 2.552 6.262 2.332-.252 4.724-.759 5.668-3.16.944-2.399-.059-5.042-2.241-5.901" style="fill:#ffdc5d" transform="matrix(27.9705 0 0 27.9705 248.432 -3.464)"/><path d="M22.526 7.623c3.175-3.73-4.474-3.367-4.474-3.367-1.448.053-.451 2.465-1.133 3.782-.467.912 1.499 1.395 1.499 1.395s.903-.013.951 1.082v.01c.011.279-.018.61-.148 1.053-.648 2.192 2.297 3.537 2.944 1.34.256-.869.157-1.634.027-2.34l-.012-.063c-.196-1.049-.44-1.969.346-2.892" style="fill:#ffdc5d" transform="matrix(27.9705 0 0 27.9705 248.432 -3.464)"/><path d="M23.398 1.983C21.945.282 19.863-.621 16.523.9c-1.361.62-1.971.391-2.165.663-.93 1.306.337 2.753.833 2.464 1.572-.917 2.99-.644 3.352.019s.028 1.854.321 1.862c.792.021.664-.755.977-1.202.514-.731 1.296-.318 1.467.496.136.645 0 1.741-1.054 1.934.717 1.577 2.136 2.058 2.136 2.058s.461.181 1.25-1.371c.789-1.554 1.201-4.151-.242-5.84" style="fill:#ffac33" transform="matrix(27.9705 0 0 27.9705 248.432 -3.464)"/><path d="M20.666 32.225c-.937.204-1.397.837-1.522 1.423-.126.586.419 1.633.963 1.842s5.354.548 6.132-.078c1.162-.934-4.804-3.354-5.573-3.187" style="fill:#292f33" transform="matrix(27.9705 0 0 27.9705 248.432 -3.464)"/><path d="M20.924 31.831c-.521.24-.593 1.505.045 2.283.721.879 2.524 1.26 3.455 1.51s2.442-.001 2.446-1.322c.004-1.115-1.452-1.429-2.145-1.46s-1.505-.042-1.868-.464-1.391-.796-1.933-.547" style="fill:#3a4449" transform="matrix(27.9705 0 0 27.9705 248.432 -3.464)"/><path d="M25.75 26.1c.655 2.154.529 4.598-1.058 5.452-1.52.818-4.71.946-4.71.946s-.905.89-.351 2.014c.315.639.649.921.58 1.007-.061.076-.748.153-1.053.214-.814.163-1.755.102-3.341.061s-2.272.113-3.998.076c-1.912-.041-3.344-.507-4.298-2.08-.814-1.343-.395-3.338 1.505-4.638 1.546-1.058 6.469-2.197 8.341-2.482 1.874-.285 7.814-2.441 8.383-.57" style="fill:#4289c1" transform="matrix(27.9705 0 0 27.9705 248.432 -3.464)"/><path d="M26.377 25.554c-.057 1.128.391 2.499-.26 2.27-2.565-.9-9.188-.988-9.188-.988-.568-2.564-.037-6.416.008-9.956.059-4.645 3.148-7.192 5.082-6.61 2.528.761 3.689 3.387 4.016 7.511s.398 6.646.342 7.773" style="fill:#77b255" transform="matrix(27.9705 0 0 27.9705 248.432 -3.464)"/><path d="M19.382 16.204c-.442 2.329-.227 6.078-.59 6.249-2.095.984-3.883 3.239-5.259 3.722-.997.349-1.992.55-2.42.928-.686.605-1.503 1.121-1.573 1.735-.072.623.645.847 1.896.323.919-.385 1.64-.333 2.461-.928 1.17-.847 5.832-1.399 7.596-4.008.595-.881 1.227-2.94 2.074-7.249-1.091-.449-4.185-.772-4.185-.772" style="fill:#ffdc5d" transform="matrix(27.9705 0 0 27.9705 248.432 -3.464)"/><path d="M11.429 32.448c.718.062 6.591.163 8.137.081 0 0 0 .57-1.505.651s-4.516-.407-6.469-.244c-.538.045-1.485.121-1.587-.041-.117-.185.924-.491 1.424-.447" style="fill:#2a6797" transform="matrix(27.9705 0 0 27.9705 248.432 -3.464)"/></svg>