<svg xmlns="http://www.w3.org/2000/svg" width="1000" height="1000"><path d="M355.992 942.84c-13.26-16.057-35.455-21.74-56.558-23.633-3.543 17.136-18.753 80.792-49.294 80.792-26.775 0-36.424-12.156-50.14-12.156-13.716 0-23.365 12.156-50.14 12.156-30.541 0-45.75-63.656-49.294-80.792-21.103 1.894-43.299 7.587-56.558 23.632-23.99 29.037-55.712 7.644-39.644-24.223C29.746 868.286 91.14 832.865 200 832.865c108.85 0 170.243 35.421 195.636 85.751 16.068 31.867-15.654 53.26-39.644 24.223z" fill="#664500"/><path d="M238.998 977.715c-20.825 0-28.335-10.741-38.998-10.741-10.663 0-18.173 10.74-38.998 10.74-27.444 0-38.998-75.21-38.998-75.21s14.284-25.07 77.996-25.07c63.723 0 77.996 25.07 77.996 25.07s-11.554 75.21-38.998 75.21z" fill="#825d0e"/><path d="M122.004 944.288s23.109-22.285 77.996-22.285c54.898 0 77.996 22.285 77.996 22.285v-22.285S253.238 899.72 200 899.72s-77.996 22.284-77.996 22.284z" fill="#664500"/><g><path d="M833.156 27.388C772.124 3.36 676.968 34.352 665.92 105.677c-10.992 70.821 9.174 181.864 71.38 175.151 65.228-7.048 132.133-21.23 158.538-88.386 26.404-67.102-1.65-141.028-62.682-165.054z" fill="#ffdc5d"/><path d="M878.496 209.755c88.806-104.33-125.14-94.176-125.14-94.176-40.501 1.482-12.615 68.947-31.69 105.784-13.063 25.51 41.927 39.019 41.927 39.019s25.257-.364 26.6 30.264v.28c.308 7.803-.503 17.062-4.14 29.453-18.125 61.31 64.249 98.931 82.346 37.48 7.16-24.306 4.39-45.704.755-65.45l-.336-1.763c-5.482-29.341-12.307-55.074 9.678-80.89z" fill="#ffdc5d"/><path d="M902.886 52.002C862.245 4.424 804.01-20.834 710.59 21.71c-38.068 17.341-55.13 10.936-60.556 18.544-26.013 36.53 9.426 77.003 23.3 68.92 43.969-25.65 83.631-18.014 93.756.53 10.126 18.545.784 51.858 8.979 52.082 22.153.587 18.572-21.118 27.327-33.62 14.377-20.447 36.25-8.895 41.033 13.873 3.804 18.04 0 48.696-29.481 54.095 20.055 44.11 59.745 57.563 59.745 57.563s12.894 5.063 34.963-38.348c22.069-43.466 33.593-116.105-6.769-163.347z" fill="#ffac33"/><path d="M826.47 897.885c-26.208 5.706-39.074 23.412-42.57 39.802-3.525 16.391 11.72 45.676 26.935 51.522 15.216 5.846 149.754 15.328 171.515-2.182 32.502-26.124-134.37-93.813-155.88-89.142z" fill="#292f33"/><path d="M833.687 886.865c-14.573 6.713-16.586 42.096 1.259 63.857 20.167 24.586 70.597 35.243 96.638 42.235 26.04 6.993 68.304-.028 68.416-36.977.112-31.187-40.613-39.97-59.997-40.837-19.384-.867-42.096-1.175-52.249-12.978-10.153-11.804-38.907-22.265-54.067-15.3z" fill="#3a4449"/><path d="M968.673 726.566c18.32 60.249 14.796 128.608-29.593 152.495-42.515 22.88-131.741 26.46-131.741 26.46s-25.313 24.894-9.818 56.333c8.811 17.873 18.153 25.76 16.223 28.166-1.706 2.126-20.922 4.28-29.453 5.986-22.768 4.56-49.088 2.853-93.45 1.706-44.36-1.147-63.548 3.16-111.825 2.126-53.48-1.147-93.534-14.181-120.217-58.179-22.768-37.564-11.049-93.365 42.095-129.727 43.243-29.593 180.941-61.451 233.302-69.423 52.417-7.971 218.562-68.276 234.477-15.943z" fill="#4289c1"/><path d="M986.21 711.294c-1.594 31.551 10.937 69.899-7.272 63.493-71.744-25.173-256.993-27.635-256.993-27.635-15.887-71.716-1.035-179.458.224-278.474 1.65-129.923 88.05-201.164 142.146-184.885 70.71 21.286 103.183 94.736 112.33 210.087 9.146 115.35 11.132 185.891 9.565 217.414z" fill="#77b255"/><path d="M790.557 449.77c-12.363 65.143-6.35 170.005-16.503 174.788-58.598 27.523-108.61 90.596-147.097 104.106-27.886 9.762-55.717 15.384-67.688 25.957-19.188 16.922-42.04 31.354-43.998 48.528-2.014 17.426 18.041 23.691 53.032 9.035 25.705-10.769 45.872-9.314 68.835-25.957 32.726-23.69 163.124-39.13 212.464-112.106 16.643-24.642 34.32-82.233 58.011-202.758-30.516-12.558-117.056-21.593-117.056-21.593z" fill="#ffdc5d"/><path d="M568.107 904.123c20.083 1.734 184.354 4.559 227.596 2.265 0 0 0 15.944-42.095 18.21-42.096 2.265-126.315-11.385-180.942-6.826-15.048 1.26-41.536 3.385-44.389-1.146-3.272-5.175 25.845-13.734 39.83-12.503z" fill="#2a6797"/></g></svg>