<svg xmlns="http://www.w3.org/2000/svg" width="1000" height="1000"><g transform="matrix(19.3666 0 0 19.3666 -235.458 304.778)"><path d="M13.449 22.569c-.236.161-.512-.02-.646-.131-.379-.313-.763-1.144-.611-2.142.154-1.008.404-2.185.878-4.137.055-.228-.274-2.776.007-4.528.076-.473.958-1.066 1.495-1.057.536.008.263.944.274 1.101.12 1.682-.143 4.279-.193 4.632-.277 1.956-1.239 2.835-.981 4.13.135.679.154 1.293-.242 1.345.004.366.105.728.019.787zm9.102 0c.236.161.512-.02.646-.131.379-.313.763-1.144.611-2.142-.154-1.008-.404-2.185-.878-4.137-.055-.228.274-2.776-.007-4.528-.076-.473-.958-1.066-1.495-1.057-.536.008-.263.944-.274 1.101-.12 1.682.143 4.279.193 4.632.277 1.956 1.239 2.835.981 4.13-.135.679-.154 1.293.242 1.345-.004.366-.105.728-.019.787z" fill="#ffdc5d"/><path d="M21.717 25.17c0-1.012.084-3.628-.241-5.198-.325-1.57-6.687-1.605-7.012 0-.325 1.605-.075 4.081-.075 5.158 0 2.141 1.159 7.747.862 9.903-.066.479 2.492.937 2.449-.125-.078-1.969-.104-5.193-.04-6.18.035-.547.171-4.771.265-6.105.011-.018.295-.018.306 0 .094 1.333.387 5.558.423 6.105.064.987.137 4.212.059 6.18-.042 1.062 2.525.604 2.459.125-.296-2.156.545-9.514.545-9.863z" fill="#4289c1"/><path d="M19.744 5.553c.814.198 1.151.895 1.116 1.616-.024.488.384.93.384.93s-2.07.419-2.481-1.409c-.371-1.641.981-1.137.981-1.137z" fill="#ffac33"/><path d="M22.131 9.371c-.665-.794-3.019-1.356-3.019-1.356h-2.225s-2.355.561-3.019 1.356c-.807.964-.982 2.71-.982 2.71l1.608.298s.461 1.862.461 3.3c0 1.147-.422 3.328-.593 4.163-.043.211-.035.227 0 .279.035.052.233.057.233.057h6.814s.128.022.198-.036c.07-.058.051-.084.002-.286-.203-.833-.722-3.073-.722-4.176 0-1.371.65-3.301.65-3.301l1.58-.298c-.004-.001-.179-1.746-.986-2.71z" fill="#9268ca"/><path d="M19.36 4.361l-2.688.019v3.981c0 .963 2.688.998 2.688 0z" fill="#ffdc5d"/><path d="M19.36 3.851l-2.688.019v3.901s1.17 1.151 2.688.035z" fill="#f9ca55"/><path d="M15.11 3.437c0-1.753 1.335-2.651 2.983-2.651 1.647 0 2.983.898 2.983 2.651 0 1.753-1.335 3.174-2.983 3.174-1.648 0-2.983-1.421-2.983-3.174z" fill="#ffac33"/><path d="M20.702 2.283h-5.21v2.738c0 1.337 1.447 2.993 2.605 2.993s2.605-1.516 2.605-2.912z" fill="#ffdc5d"/><path d="M18.199 2.233s-.967 1.739-2.707 1.739V2.233z" fill="#ffac33"/><path d="M17.937 2.233s1.033 1.739 2.772 1.739V2.233z" fill="#ffac33"/><circle cx="17.049" cy="4.777" r=".339" fill="#662113"/><circle cx="19.165" cy="4.777" r=".339" fill="#662113"/><path d="M18.112 7.03c-.404 0-.616-.2-.639-.223a.172.172 0 01.242-.245c.009.008.139.124.397.124.261 0 .391-.119.397-.124a.174.174 0 01.242.005.171.171 0 01-.001.24c-.022.023-.233.223-.638.223" fill="#df1f32"/><path d="M18.31 6.138h-.395a.198.198 0 010-.396h.395c.109 0 .198.089.198.198a.2.2 0 01-.198.198z" fill="#c1694f"/><path d="M14.173 35.898c-.558-.051-.192-.684.062-.897.282-.238.734-.441.961-.852.251-.455 1.465-.395 1.721-.023.457.664.66.179.792.488.212.494.05 1.284.05 1.284zm8.029 0c.558-.051.192-.684-.062-.897-.282-.238-.734-.441-.961-.852-.251-.455-1.465-.395-1.721-.023-.457.664-.66.179-.792.488-.212.494-.05 1.284-.05 1.284z" fill="#292f33"/></g><g transform="translate(21.053 306.52) scale(19.31325)"><path d="M22.933 22.368c.236.161.512-.02.646-.131.379-.313.763-1.144.611-2.142-.154-1.008-.11-2.185-.584-4.137-.055-.228.274-2.776-.007-4.528-.076-.473-1.251-1.066-1.789-1.057-.536.008-.263.944-.274 1.101-.12 1.682.143 4.279.193 4.632.277 1.956 1.239 2.835.981 4.13-.135.679-.154 1.293.242 1.345-.004.366-.105.728-.019.787zm-9.866-.192c-.236.161-.512-.02-.646-.131-.379-.313-.763-1.144-.611-2.142.154-1.008.11-2.185.584-4.137.055-.228-.274-2.776.007-4.528.076-.473 1.251-1.066 1.789-1.057.536.008.263.944.274 1.101.12 1.682-.143 4.279-.193 4.632-.277 1.956-1.239 2.835-.981 4.13.135.679.154 1.293-.242 1.345.004.366.105.728.019.787z" fill="#ffdc5d"/><path d="M21.702 26.733c.021-3.063.014-6.5.014-6.5h-7.465s.035 3.747.123 6.46c.07 2.14.396 6.193.1 8.349-.066.479 2.886.937 2.844-.125-.078-1.969.264-6.322.328-7.309.035-.547.25-2.326.344-3.659.011-.018.295-.018.306 0 .094 1.333.308 3.112.344 3.659.064.987.406 5.34.328 7.309-.042 1.062 2.91.604 2.844.125-.298-2.157-.113-7.96-.11-8.309z" fill="#4289c1"/><path d="M22.822 9.472c-.778-.849-3.536-1.449-3.536-1.449h-2.605s-2.757.6-3.536 1.449c-.945 1.031-1.15 2.895-1.15 2.895l1.882.318s.283.9.283 2.436-.177 5.896-.177 5.896h8.032s-.209-4.43-.209-5.895c0-1.465.315-2.437.315-2.437l1.85-.318c.001 0-.205-1.865-1.149-2.895z" fill="#77b255"/><path d="M19.344 4.369l-2.688.019v3.981c0 .963 2.688.998 2.688 0z" fill="#ffdc5d"/><path d="M19.344 3.86l-2.688.019V7.78s1.17 1.151 2.688.035z" fill="#f9ca55"/><path d="M18.402.716c-.613-.078-1.567.093-2.032.605-.651-.233-1.415.479-1.415 1.453 0 1.116.164 2.206.857 2.64.52.723 1.571 1.046 2.53 1.046 1.582 0 2.703-.756 2.703-3.093 0-1.883-.992-2.442-2.643-2.651z" fill="#ffac33"/><path d="M20.687 2.292h-5.21V5.03c0 1.337 1.166 2.993 2.605 2.993s2.605-1.516 2.605-2.912z" fill="#ffdc5d"/><path d="M17.146 1.588l-1.67.704v2.084c0-.799.545-.846.871-1.358.012.322.658.628 1.636.628.744 0 2.703-1.291 2.703.73V2.007z" fill="#ffac33"/><circle cx="17.033" cy="4.786" r=".339" fill="#662113"/><circle cx="19.15" cy="4.786" r=".339" fill="#662113"/><path d="M18.573 6.984h-.953a.187.187 0 01-.186-.186c0-.102.084-.186.186-.186h.953c.102 0 .186.084.186.186a.187.187 0 01-.186.186zm-.279-.838h-.395a.198.198 0 010-.396h.395a.198.198 0 010 .396z" fill="#c1694f"/><path d="M13.789 35.907c-.558-.051-.192-.684.062-.897.282-.238.734-.441.961-.852.251-.455 1.465-.395 1.721-.023.457.664.66.179.792.488.212.494.05 1.284.05 1.284zm8.666 0c.558-.051.192-.684-.062-.897-.282-.238-.734-.441-.961-.852-.251-.455-1.465-.395-1.721-.023-.457.664-.66.179-.792.488-.212.494-.05 1.284-.05 1.284z" fill="#292f33"/></g><g transform="translate(532.155 306.52) scale(19.31325)"><path d="M22.933 22.368c.236.161.512-.02.646-.131.379-.313.763-1.144.611-2.142-.154-1.008-.11-2.185-.584-4.137-.055-.228.274-2.776-.007-4.528-.076-.473-1.251-1.066-1.789-1.057-.536.008-.263.944-.274 1.101-.12 1.682.143 4.279.193 4.632.277 1.956 1.239 2.835.981 4.13-.135.679-.154 1.293.242 1.345-.004.366-.105.728-.019.787zm-9.866-.192c-.236.161-.512-.02-.646-.131-.379-.313-.763-1.144-.611-2.142.154-1.008.11-2.185.584-4.137.055-.228-.274-2.776.007-4.528.076-.473 1.251-1.066 1.789-1.057.536.008.263.944.274 1.101.12 1.682-.143 4.279-.193 4.632-.277 1.956-1.239 2.835-.981 4.13.135.679.154 1.293-.242 1.345.004.366.105.728.019.787z" fill="#ffdc5d"/><path d="M21.702 26.733c.021-3.063.014-6.5.014-6.5h-7.465s.035 3.747.123 6.46c.07 2.14.396 6.193.1 8.349-.066.479 2.886.937 2.844-.125-.078-1.969.264-6.322.328-7.309.035-.547.25-2.326.344-3.659.011-.018.295-.018.306 0 .094 1.333.308 3.112.344 3.659.064.987.406 5.34.328 7.309-.042 1.062 2.91.604 2.844.125-.298-2.157-.113-7.96-.11-8.309z" fill="#4289c1"/><path d="M22.822 9.472c-.778-.849-3.536-1.449-3.536-1.449h-2.605s-2.757.6-3.536 1.449c-.945 1.031-1.15 2.895-1.15 2.895l1.882.318s.283.9.283 2.436-.177 5.896-.177 5.896h8.032s-.209-4.43-.209-5.895c0-1.465.315-2.437.315-2.437l1.85-.318c.001 0-.205-1.865-1.149-2.895z" fill="#77b255"/><path d="M19.344 4.369l-2.688.019v3.981c0 .963 2.688.998 2.688 0z" fill="#ffdc5d"/><path d="M19.344 3.86l-2.688.019V7.78s1.17 1.151 2.688.035z" fill="#f9ca55"/><path d="M18.402.716c-.613-.078-1.567.093-2.032.605-.651-.233-1.415.479-1.415 1.453 0 1.116.164 2.206.857 2.64.52.723 1.571 1.046 2.53 1.046 1.582 0 2.703-.756 2.703-3.093 0-1.883-.992-2.442-2.643-2.651z" fill="#ffac33"/><path d="M20.687 2.292h-5.21V5.03c0 1.337 1.166 2.993 2.605 2.993s2.605-1.516 2.605-2.912z" fill="#ffdc5d"/><path d="M17.146 1.588l-1.67.704v2.084c0-.799.545-.846.871-1.358.012.322.658.628 1.636.628.744 0 2.703-1.291 2.703.73V2.007z" fill="#ffac33"/><circle cx="17.033" cy="4.786" r=".339" fill="#662113"/><circle cx="19.15" cy="4.786" r=".339" fill="#662113"/><path d="M18.573 6.984h-.953a.187.187 0 01-.186-.186c0-.102.084-.186.186-.186h.953c.102 0 .186.084.186.186a.187.187 0 01-.186.186zm-.279-.838h-.395a.198.198 0 010-.396h.395a.198.198 0 010 .396z" fill="#c1694f"/><path d="M13.789 35.907c-.558-.051-.192-.684.062-.897.282-.238.734-.441.961-.852.251-.455 1.465-.395 1.721-.023.457.664.66.179.792.488.212.494.05 1.284.05 1.284zm8.666 0c.558-.051.192-.684-.062-.897-.282-.238-.734-.441-.961-.852-.251-.455-1.465-.395-1.721-.023-.457.664-.66.179-.792.488-.212.494-.05 1.284-.05 1.284z" fill="#292f33"/></g><g transform="matrix(19.3666 0 0 19.3666 275.644 304.778)"><path d="M13.449 22.569c-.236.161-.512-.02-.646-.131-.379-.313-.763-1.144-.611-2.142.154-1.008.404-2.185.878-4.137.055-.228-.274-2.776.007-4.528.076-.473.958-1.066 1.495-1.057.536.008.263.944.274 1.101.12 1.682-.143 4.279-.193 4.632-.277 1.956-1.239 2.835-.981 4.13.135.679.154 1.293-.242 1.345.004.366.105.728.019.787zm9.102 0c.236.161.512-.02.646-.131.379-.313.763-1.144.611-2.142-.154-1.008-.404-2.185-.878-4.137-.055-.228.274-2.776-.007-4.528-.076-.473-.958-1.066-1.495-1.057-.536.008-.263.944-.274 1.101-.12 1.682.143 4.279.193 4.632.277 1.956 1.239 2.835.981 4.13-.135.679-.154 1.293.242 1.345-.004.366-.105.728-.019.787z" fill="#ffdc5d"/><path d="M21.717 25.17c0-1.012.084-3.628-.241-5.198-.325-1.57-6.687-1.605-7.012 0-.325 1.605-.075 4.081-.075 5.158 0 2.141 1.159 7.747.862 9.903-.066.479 2.492.937 2.449-.125-.078-1.969-.104-5.193-.04-6.18.035-.547.171-4.771.265-6.105.011-.018.295-.018.306 0 .094 1.333.387 5.558.423 6.105.064.987.137 4.212.059 6.18-.042 1.062 2.525.604 2.459.125-.296-2.156.545-9.514.545-9.863z" fill="#4289c1"/><path d="M19.744 5.553c.814.198 1.151.895 1.116 1.616-.024.488.384.93.384.93s-2.07.419-2.481-1.409c-.371-1.641.981-1.137.981-1.137z" fill="#ffac33"/><path d="M22.131 9.371c-.665-.794-3.019-1.356-3.019-1.356h-2.225s-2.355.561-3.019 1.356c-.807.964-.982 2.71-.982 2.71l1.608.298s.461 1.862.461 3.3c0 1.147-.422 3.328-.593 4.163-.043.211-.035.227 0 .279.035.052.233.057.233.057h6.814s.128.022.198-.036c.07-.058.051-.084.002-.286-.203-.833-.722-3.073-.722-4.176 0-1.371.65-3.301.65-3.301l1.58-.298c-.004-.001-.179-1.746-.986-2.71z" fill="#9268ca"/><path d="M19.36 4.361l-2.688.019v3.981c0 .963 2.688.998 2.688 0z" fill="#ffdc5d"/><path d="M19.36 3.851l-2.688.019v3.901s1.17 1.151 2.688.035z" fill="#f9ca55"/><path d="M15.11 3.437c0-1.753 1.335-2.651 2.983-2.651 1.647 0 2.983.898 2.983 2.651 0 1.753-1.335 3.174-2.983 3.174-1.648 0-2.983-1.421-2.983-3.174z" fill="#ffac33"/><path d="M20.702 2.283h-5.21v2.738c0 1.337 1.447 2.993 2.605 2.993s2.605-1.516 2.605-2.912z" fill="#ffdc5d"/><path d="M18.199 2.233s-.967 1.739-2.707 1.739V2.233z" fill="#ffac33"/><path d="M17.937 2.233s1.033 1.739 2.772 1.739V2.233z" fill="#ffac33"/><circle r=".339" cy="4.777" cx="17.049" fill="#662113"/><circle r=".339" cy="4.777" cx="19.165" fill="#662113"/><path d="M18.112 7.03c-.404 0-.616-.2-.639-.223a.172.172 0 01.242-.245c.009.008.139.124.397.124.261 0 .391-.119.397-.124a.174.174 0 01.242.005.171.171 0 01-.001.24c-.022.023-.233.223-.638.223" fill="#df1f32"/><path d="M18.31 6.138h-.395a.198.198 0 010-.396h.395c.109 0 .198.089.198.198a.2.2 0 01-.198.198z" fill="#c1694f"/><path d="M14.173 35.898c-.558-.051-.192-.684.062-.897.282-.238.734-.441.961-.852.251-.455 1.465-.395 1.721-.023.457.664.66.179.792.488.212.494.05 1.284.05 1.284zm8.029 0c.558-.051.192-.684-.062-.897-.282-.238-.734-.441-.961-.852-.251-.455-1.465-.395-1.721-.023-.457.664-.66.179-.792.488-.212.494-.05 1.284-.05 1.284z" fill="#292f33"/></g><path d="M250 400c-9.463 0-17.143-7.68-17.143-17.143V117.143c0-9.463 7.68-17.143 17.143-17.143 9.463 0 17.143 7.68 17.143 17.143v265.714c0 9.463-7.68 17.143-17.143 17.143z" fill="#8899a6"/><path d="M250 100c-9.471 0-17.143 7.671-17.143 17.143v265.714a4.287 4.287 0 004.286 4.286 4.287 4.287 0 004.286-4.286V129.263c0-6.694 5.425-12.12 12.12-12.12h13.594C267.143 107.67 259.47 100 250 100z" fill="#aab8c2"/><path d="M250 100c-9.471 0-17.143 7.671-17.143 17.143v265.714a4.287 4.287 0 004.286 4.286 4.287 4.287 0 004.286-4.286V129.263c0-6.694 5.425-12.12 12.12-12.12h13.594C267.143 107.67 259.47 100 250 100z" fill="#aab8c2"/><g><path d="M750 400c-9.463 0-17.143-7.68-17.143-17.143V117.143c0-9.463 7.68-17.143 17.143-17.143 9.463 0 17.143 7.68 17.143 17.143v265.714c0 9.463-7.68 17.143-17.143 17.143z" fill="#8899a6"/><path d="M750 100c-9.471 0-17.143 7.671-17.143 17.143v265.714a4.287 4.287 0 004.286 4.286 4.287 4.287 0 004.286-4.286V129.263c0-6.694 5.425-12.12 12.12-12.12h13.594C767.143 107.67 759.47 100 750 100z" fill="#aab8c2"/><path d="M750 100c-9.471 0-17.143 7.671-17.143 17.143v265.714a4.287 4.287 0 004.286 4.286 4.287 4.287 0 004.286-4.286V129.263c0-6.694 5.425-12.12 12.12-12.12h13.594C767.143 107.67 759.47 100 750 100z" fill="#aab8c2"/></g><path d="M739.352 117.91c-31.889-6.849-65.798-10.174-103.712-10.174-45.832 0-91.372 4.885-135.383 9.617-44.011 4.722-85.584 9.188-127.32 9.188-32.58 0-61.557-2.82-88.605-8.623-5.624-1.217-12.195-.985-17.4.583-5.224 1.577-8.373 4.294-8.373 7.209v162.857c0 3.36 4.168 6.403 10.648 7.8 31.889 6.848 65.816 10.174 103.712 10.174 45.831 0 91.372-4.886 135.383-9.617 44.011-4.723 85.583-9.18 127.32-9.18 32.58 0 61.575 2.82 88.605 8.631 5.66 1.2 12.195.986 17.4-.59 5.224-1.587 8.373-4.304 8.373-7.218V125.71c0-3.36-4.168-6.412-10.648-7.8z" fill="#e1e8ed"/></svg>