<svg xmlns="http://www.w3.org/2000/svg" width="1000" height="1000"><path d="M888.858 1032.417v-138.89c0-92.055-74.611-166.666-166.667-166.666H277.747c-92.028 0-166.667 74.611-166.667 166.667v138.889z" style="fill:#f2760f;stroke-width:20.83333206;font-variant-east_asian:normal;opacity:1;vector-effect:none;fill-opacity:1;stroke-linecap:butt;stroke-linejoin:miter;stroke-miterlimit:4;stroke-dasharray:none;stroke-dashoffset:0;stroke-opacity:1" transform="translate(0 -32.417)"/><path d="M378.858 729.806c0 24.833 65.555 55.36 121.11 55.36 55.556 0 121.084-30.527 121.084-55.333V623.806H378.83v106z" style="fill:#ffdc5d;stroke-width:27.77777672" transform="translate(0 -32.417)"/><path d="M378.636 670.556c33.777 38.166 75.666 48.5 121.222 48.5 45.528 0 87.389-10.362 121.194-48.5v-96.973H378.608v96.973z" style="fill:#f9ca55;stroke-width:27.77777672" transform="translate(0 -32.417)"/><path d="M317.858 391.75c0 40.222-20.39 72.833-45.528 72.833-25.139 0-45.528-32.61-45.528-72.833s20.39-72.861 45.528-72.861c25.139-.028 45.528 32.611 45.528 72.861m455.25 0c0 40.222-20.361 72.833-45.528 72.833-25.139 0-45.528-32.61-45.528-72.833s20.361-72.861 45.528-72.861c25.167-.028 45.528 32.611 45.528 72.861" style="fill:#ffdc5d;stroke-width:27.77777672" transform="translate(0 -32.417)"/><path d="M263.219 420.194c0-155.25 106-281.138 236.75-281.138S736.69 264.944 736.69 420.194 630.72 701.334 499.97 701.334c-130.722-.028-236.75-125.89-236.75-281.14" style="fill:#ffdc5d;stroke-width:27.77777672" transform="translate(0 -32.417)"/><path d="M499.969 610.25c-76.5 0-100-19.583-103.917-23.556-7.11-7.11-7.11-18.638 0-25.75 6.89-6.888 17.945-7.083 25.056-.638 1.444 1.027 20.028 13.527 78.86 13.527 61.112 0 78.779-13.472 78.945-13.61 7.111-7.084 18.25-6.75 25.361.416 7.112 7.111 6.723 18.972-.388 26.055-3.917 3.973-27.417 23.556-103.917 23.556" style="fill:#c1694f;stroke-width:27.77777672" transform="translate(0 -32.417)"/><path d="M499.969 32.417c156.889 0 254.944 129.11 254.944 225.583s-19.61 135.083-39.222 96.472l-39.222-77.166s-117.639 0-156.861-38.612c0 0 58.833 115.778-58.834 0 0 0 19.612 77.195-98.055-19.277 0 0-58.833 38.583-78.445 135.055-5.444 26.778-39.222 0-39.222-96.472S323.47 32.417 499.97 32.417" style="fill:#ffac33;stroke-width:27.77777672" transform="translate(0 -32.417)"/><path d="M388.858 421.306c-15.278 0-27.778-12.5-27.778-27.778V365.75c0-15.278 12.5-27.778 27.778-27.778s27.778 12.5 27.778 27.778v27.778c0 15.278-12.5 27.778-27.778 27.778m222.222 0c-15.278 0-27.778-12.5-27.778-27.778V365.75c0-15.278 12.5-27.778 27.778-27.778s27.778 12.5 27.778 27.778v27.778c0 15.278-12.5 27.778-27.778 27.778" style="fill:#662113;stroke-width:27.77777672" transform="translate(0 -32.417)"/><path d="M520.802 497.694h-41.666c-11.473 0-20.834-9.36-20.834-20.833s9.361-20.833 20.834-20.833h41.666c11.472 0 20.834 9.36 20.834 20.833s-9.362 20.833-20.834 20.833" style="fill:#c1694f;stroke-width:27.77777672" transform="translate(0 -32.417)"/><g style="font-variant-east_asian:normal;opacity:1;vector-effect:none;fill:#99aab5;fill-opacity:1;stroke-width:1;stroke-linecap:butt;stroke-linejoin:miter;stroke-miterlimit:4;stroke-dasharray:none;stroke-dashoffset:0;stroke-opacity:1"><path d="M275 32.417h50v1000h-50zM75 32.417h50v1000H75zM475 32.417h50v1000h-50zM675 32.417h50v1000h-50zM875 32.417h50v1000h-50z" style="opacity:1;vector-effect:none;fill:#99aab5;fill-opacity:1;stroke:none;stroke-width:1;stroke-linecap:butt;stroke-linejoin:miter;stroke-miterlimit:4;stroke-dasharray:none;stroke-dashoffset:0;stroke-opacity:1;paint-order:normal;font-variant-east_asian:normal" transform="translate(0 -32.417)"/></g><path d="M582.942 457.66a2.86 2.86 0 0 0-.674-1.643l-.357-2.057a3.913 3.913 0 0 0-4.262-3.17l-23.39 3.737a3.91 3.91 0 0 0-3.485 3.61l1.761 11.148a4.43 4.43 0 0 0 4.341 3.813c.677.008 1.238.017 1.463.027l9.483.463c-.363.483-.822 1.08-.822 1.718v.052c0 1.58 1.771 3.06 3.353 3.06h7.282c.76 0 1.488-.4 2.025-.938l4.424-4.472a2.92 2.92 0 0 0 .832-2.24z" style="fill:#ffdc5d" transform="rotate(-90 839.535 3954.17)scale(6.945)"/><path d="M558.217 473.04a1 1 0 0 1-.983-.821l-2.06-11.332a1 1 0 0 1 1.968-.358l2.06 11.332a1 1 0 0 1-.985 1.179m6.181 0a1 1 0 0 1-.996-.923l-1.03-13.393a1 1 0 0 1 1.994-.154l1.03 13.392a1 1 0 0 1-.998 1.078m7.207 1.106c-.508 0-.757-.001-.951-1.062l-.044-.003a1 1 0 0 1 .017-.161c-.174-1.068-.309-3.07-.561-6.817-.235-3.49-.486-7.552-.486-8.485a1 1 0 1 1 2 0c0 1.533.795 13.324.981 15.145q.048.146.049.308c0 .266-.108.557-.295.744s-.444.33-.71.33" style="fill:#ef9645" transform="rotate(-90 839.535 3954.17)scale(6.945)"/><path d="M575.178 475.1h-6.658a1 1 0 1 1 0-2h6.658a2.647 2.647 0 0 0 2.644-2.643v-12.84a1 1 0 1 1 2 0v12.84a4.65 4.65 0 0 1-4.644 4.644" style="fill:#ef9645" transform="rotate(-90 839.535 3954.17)scale(6.945)"/><path d="M582.942 457.66a2.86 2.86 0 0 0-.674-1.643l-.357-2.057a3.913 3.913 0 0 0-4.262-3.17l-23.39 3.737a3.91 3.91 0 0 0-3.485 3.61l1.761 11.148a4.43 4.43 0 0 0 4.341 3.813c.677.008 1.238.017 1.463.027l9.483.463c-.363.483-.822 1.08-.822 1.718v.052c0 1.58 1.771 3.06 3.353 3.06h7.282c.76 0 1.488-.4 2.025-.938l4.424-4.472a2.92 2.92 0 0 0 .832-2.24z" style="fill:#ffdc5d" transform="matrix(0 -6.945 -6.945 0 4130.585 4793.706)"/><path d="M558.217 473.04a1 1 0 0 1-.983-.821l-2.06-11.332a1 1 0 0 1 1.968-.358l2.06 11.332a1 1 0 0 1-.985 1.179m6.181 0a1 1 0 0 1-.996-.923l-1.03-13.393a1 1 0 0 1 1.994-.154l1.03 13.392a1 1 0 0 1-.998 1.078m7.207 1.106c-.508 0-.757-.001-.951-1.062l-.044-.003a1 1 0 0 1 .017-.161c-.174-1.068-.309-3.07-.561-6.817-.235-3.49-.486-7.552-.486-8.485a1 1 0 1 1 2 0c0 1.533.795 13.324.981 15.145q.048.146.049.308c0 .266-.108.557-.295.744s-.444.33-.71.33" style="fill:#ef9645" transform="matrix(0 -6.945 -6.945 0 4130.585 4793.706)"/><path d="M575.178 475.1h-6.658a1 1 0 1 1 0-2h6.658a2.647 2.647 0 0 0 2.644-2.643v-12.84a1 1 0 1 1 2 0v12.84a4.65 4.65 0 0 1-4.644 4.644" style="fill:#ef9645" transform="matrix(0 -6.945 -6.945 0 4130.585 4793.706)"/></svg>