<svg xmlns="http://www.w3.org/2000/svg" width="1000" height="1000"><path style="font-variant-east_asian:normal" d="M888.858 1000V861.111c0-92.055-74.611-166.667-166.667-166.667H277.747c-92.028 0-166.667 74.612-166.667 166.667V1000z" fill="#f2760f"/><path d="M378.858 697.389c0 24.833 65.555 55.361 121.11 55.361 55.556 0 121.084-30.528 121.084-55.333V591.389H378.83v106z" fill="#ffdc5d"/><path d="M378.636 638.139c33.777 38.167 75.666 48.5 121.222 48.5 45.528 0 87.389-10.361 121.194-48.5v-96.972H378.608v96.972z" fill="#f9ca55"/><path d="M317.858 359.333c0 40.223-20.39 72.834-45.528 72.834-25.139 0-45.528-32.611-45.528-72.834 0-40.222 20.39-72.86 45.528-72.86 25.139-.029 45.528 32.61 45.528 72.86m455.25 0c0 40.223-20.361 72.834-45.528 72.834-25.139 0-45.528-32.611-45.528-72.834 0-40.222 20.361-72.86 45.528-72.86 25.167-.029 45.528 32.61 45.528 72.86" fill="#ffdc5d"/><path d="M263.219 387.778c0-155.25 106-281.14 236.75-281.14s236.722 125.89 236.722 281.14S630.72 668.917 499.97 668.917c-130.722-.028-236.75-125.89-236.75-281.14" fill="#ffdc5d"/><path d="M499.969 577.833c-76.5 0-100-19.583-103.917-23.555-7.11-7.111-7.11-18.64 0-25.75 6.89-6.89 17.945-7.084 25.056-.64 1.444 1.029 20.028 13.529 78.86 13.529 61.112 0 78.779-13.473 78.945-13.611 7.111-7.084 18.25-6.75 25.361.416 7.112 7.111 6.723 18.972-.388 26.056-3.917 3.972-27.417 23.555-103.917 23.555" fill="#c1694f"/><path d="M499.969 0c156.889 0 254.944 129.111 254.944 225.583 0 96.473-19.61 135.084-39.222 96.473l-39.222-77.167s-117.639 0-156.861-38.611c0 0 58.833 115.778-58.834 0 0 0 19.612 77.194-98.055-19.278 0 0-58.833 38.583-78.445 135.056-5.444 26.777-39.222 0-39.222-96.473C245.052 129.111 323.47 0 499.97 0" fill="#ffac33"/><path d="M388.858 388.889c-15.278 0-27.778-12.5-27.778-27.778v-27.778c0-15.277 12.5-27.777 27.778-27.777 15.278 0 27.778 12.5 27.778 27.777v27.778c0 15.278-12.5 27.778-27.778 27.778m222.222 0c-15.278 0-27.778-12.5-27.778-27.778v-27.778c0-15.277 12.5-27.777 27.778-27.777 15.278 0 27.778 12.5 27.778 27.777v27.778c0 15.278-12.5 27.778-27.778 27.778" fill="#662113"/><path d="M520.802 465.278h-41.666c-11.473 0-20.834-9.361-20.834-20.834 0-11.472 9.361-20.833 20.834-20.833h41.666c11.472 0 20.834 9.361 20.834 20.833 0 11.473-9.362 20.834-20.834 20.834" fill="#c1694f"/><g style="font-variant-east_asian:normal" fill="#99aab5"><path style="font-variant-east_asian:normal" d="M275 0h50v1000h-50zM75 0h50v1000H75zM475 0h50v1000h-50zM675 0h50v1000h-50zM875 0h50v1000h-50z"/></g><path d="M63.817 745.173c-4.23.285-8.195 1.973-11.417 4.681l-14.286 2.48c-13.932 2.611-23.516 15.5-22.009 29.6l25.947 162.443c1.403 13.07 11.966 23.266 25.078 24.203l77.416-12.23c15.064-2.118 26.308-14.939 26.481-30.148.056-4.702.118-8.598.188-10.16l3.215-65.86c3.355 2.52 7.501 5.709 11.932 5.709h.361c10.98 0 21.252-12.3 21.252-23.287v-50.573c0-5.279-2.778-10.335-6.515-14.064l-31.058-30.725c-4.056-4.049-9.834-6.16-15.556-5.778z" fill="#ffdc5d"/><path d="M170.625 916.889a6.948 6.948 0 01-5.702 6.826l-78.701 14.307c-3.771.688-7.39-1.82-8.077-5.59-.674-3.793 1.82-7.39 5.59-8.078l78.701-14.306c3.772-.688 7.383 1.82 8.07 5.59.084.424.119.84.119 1.25zm0-42.928a6.947 6.947 0 01-6.41 6.918L71.2 888.032c-3.827.299-7.16-2.57-7.459-6.39-.306-3.812 2.577-7.16 6.39-7.458l93.007-7.154a6.942 6.942 0 017.459 6.39c.02.18.028.368.028.541zm7.68-50.052c0 3.528-.006 5.257-7.375 6.605l-.02.305a6.636 6.636 0 01-1.119-.118c-7.417 1.209-21.314 2.146-47.344 3.896-24.238 1.632-52.449 3.375-58.928 3.375a6.943 6.943 0 01-6.945-6.945 6.943 6.943 0 016.945-6.945c10.646 0 92.535-5.52 105.182-6.813a6.798 6.798 0 012.139-.34c1.847 0 3.868.75 5.167 2.049s2.299 3.083 2.299 4.93z" fill="#ef9645"/><path d="M184.938 799.094v46.24a6.943 6.943 0 01-6.945 6.945 6.943 6.943 0 01-6.945-6.945v-46.24c0-10.125-8.237-18.362-18.362-18.362H63.519a6.943 6.943 0 01-6.945-6.945 6.943 6.943 0 016.945-6.945h89.167c17.786.007 32.252 14.473 32.252 32.252z" fill="#ef9645"/><g><path d="M952.132 745.173c4.23.285 8.195 1.973 11.418 4.681l14.286 2.48c13.931 2.611 23.515 15.5 22.008 29.6l-25.946 162.443c-1.403 13.07-11.967 23.266-25.079 24.203l-77.416-12.23c-15.063-2.118-26.307-14.939-26.48-30.148-.056-4.702-.119-8.598-.188-10.16l-3.216-65.86c-3.354 2.52-7.5 5.709-11.931 5.709h-.362c-10.98 0-21.251-12.3-21.251-23.287v-50.573c0-5.279 2.778-10.335 6.514-14.064l31.058-30.725c4.056-4.049 9.834-6.16 15.557-5.778z" fill="#ffdc5d"/><path d="M845.325 916.889a6.948 6.948 0 005.702 6.826l78.7 14.307c3.772.688 7.39-1.82 8.078-5.59.673-3.793-1.82-7.39-5.591-8.078l-78.7-14.306c-3.772-.688-7.383 1.82-8.071 5.59a6.45 6.45 0 00-.118 1.25zm0-42.928a6.947 6.947 0 006.41 6.918l93.015 7.153c3.826.299 7.16-2.57 7.458-6.39.306-3.812-2.576-7.16-6.389-7.458l-93.007-7.154a6.942 6.942 0 00-7.46 6.39c-.02.18-.027.368-.027.541zm-7.681-50.052c0 3.528.007 5.257 7.375 6.605l.021.305c.382-.007.75-.048 1.118-.118 7.418 1.209 21.315 2.146 47.344 3.896 24.238 1.632 52.449 3.375 58.929 3.375a6.943 6.943 0 006.945-6.945 6.943 6.943 0 00-6.945-6.945c-10.647 0-92.535-5.52-105.182-6.813a6.798 6.798 0 00-2.14-.34c-1.847 0-3.868.75-5.166 2.049-1.3 1.299-2.3 3.083-2.3 4.93z" fill="#ef9645"/><path d="M831.011 799.094v46.24a6.943 6.943 0 006.945 6.945 6.943 6.943 0 006.945-6.945v-46.24c0-10.125 8.237-18.362 18.363-18.362h89.167a6.943 6.943 0 006.945-6.945 6.943 6.943 0 00-6.945-6.945h-89.167c-17.786.007-32.253 14.473-32.253 32.252z" fill="#ef9645"/></g></svg>