<svg xmlns="http://www.w3.org/2000/svg" width="1000" height="1000"><path d="M1000 1000v-41.667c0-69.041-55.938-125-125-125H541.667c-69.021 0-125 55.959-125 125V1000z" fill="#f2760f"/><path d="M604.167 812.5H812.5v83.333H604.167z" fill="#292f33"/><path d="M625 812.5h166.667s-21.209 145.833-83.334 145.833S625 812.5 625 812.5" fill="#292f33"/><path d="M617.5 875.792c36.354 26.416 59.354 40.895 90.833 40.895 31.48 0 54.48-14.5 90.813-40.895V756.02H617.479v119.77z" fill="#7c533e"/><path d="M617.333 791.104c25.334 28.625 56.75 36.375 90.917 36.375 34.146 0 65.542-7.77 90.896-36.375v-72.729H617.312v72.73z" fill="#664131"/><path d="M913.208 581.98c0-30.168-15.291-54.647-34.146-54.647-1.708 0-3.354.417-5 .813-25.52-79.271-90-135.667-165.729-135.667-75.729 0-140.187 56.396-165.729 135.667-1.646-.396-3.292-.813-5-.813-18.854 0-34.146 24.48-34.146 54.646 0 27.708 12.938 50.354 29.646 53.896 13.208 100.937 86.52 178.27 175.23 178.27 88.708 0 162.02-77.333 175.228-178.27 16.709-3.542 29.646-26.188 29.646-53.896z" fill="#7c533e"/><path d="M708.333 745.875c-57.375 0-75-14.688-77.916-17.667-5.355-5.333-5.355-13.979 0-19.312 5.166-5.167 13.416-5.313 18.791-.48 1.063.771 15.021 10.146 59.125 10.146 45.854 0 59.084-10.104 59.209-10.208 5.333-5.312 13.708-5.062 19.041.313 5.334 5.333 5.042 14.229-.291 19.541-2.959 2.98-20.584 17.667-77.959 17.667" fill="#3d2e24"/><path d="M708.333 322.5c117.667 0 191.209 86.833 191.209 159.187 0 72.355-14.688 101.313-29.417 72.355l-29.417-57.875s-88.208 0-117.625-28.959c0 0 44.104 86.834-44.146 0 0 0 14.73 57.896-73.541-14.458 0 0-44.125 28.937-58.834 101.292-4.083 20.083-29.416 0-29.416-72.355-.021-72.354 58.812-159.187 191.187-159.187" fill="#0b0200"/><path d="M625 604.167c-11.458 0-20.833-9.375-20.833-20.834V562.5c0-11.458 9.375-20.833 20.833-20.833 11.48 0 20.833 9.375 20.833 20.833v20.833c0 11.459-9.354 20.834-20.833 20.834m166.667 0c-11.438 0-20.834-9.375-20.834-20.834V562.5c0-11.458 9.396-20.833 20.834-20.833 11.479 0 20.833 9.375 20.833 20.833v20.833c0 11.459-9.354 20.834-20.833 20.834"/><path d="M723.958 661.458h-31.25c-8.583 0-15.625-7.02-15.625-15.625 0-8.604 7.042-15.625 15.625-15.625h31.25c8.625 0 15.625 7.021 15.625 15.625s-7 15.625-15.625 15.625" fill="#3d2e24"/><path d="M729.167 977.875l-20.834 22.104-20.833-20.833v-62.5h41.667z" fill="#292f33"/><path d="M520.833 833.333h62.5V1000h-62.5zm312.5 0h62.5V1000h-62.5z" fill="#fff75f"/><path d="M562.5 833.333c0 20.834 20.833 62.5 62.5 104.167 32.958 32.937 83.333 62.5 83.333 62.5 0-63.813-20.833-83.333-41.666-104.167-20.834-20.833-62.5-41.666-62.5-83.333 0-20.833-41.667 20.833-41.667 20.833m291.667 0c0 20.834-20.834 62.5-62.5 104.167-32.917 32.937-83.334 62.5-83.334 62.5 0-63.813 20.834-83.333 41.667-104.167 20.833-20.833 62.5-41.666 62.5-83.333 0-20.833 41.667 20.833 41.667 20.833" fill="#55acee"/><path d="M958.333 479.167c-62.5-41.667-21-86.855-62.5-145.834C856.813 277.854 791.667 250 708.292 250c-104.125 0-148.417 27.854-187.459 83.333-41.5 58.98 0 104.167-62.5 145.834-38.77 25.833 125 48.187 250 48.187s288.771-22.354 250-48.187" fill="#fff75f"/><path d="M666.667 489.583v-237.75a321.54 321.54 0 00-20.834 2.584v214.187c-43.541-1.042-106.75-8.25-159.437-17.77-3.625 6.187-8.542 12.291-15.209 18.27 60.625 11.792 137.417 20.48 185.063 20.48zm267.812-32.354c-59.437 6.333-121.646 10.771-163.646 11.438V256.083c-6.729-1.375-13.75-2.333-20.833-3.229v236.73h10.417c42.041 0 120.75-5.438 193.52-13.688-8.375-6.146-14.75-12.354-19.458-18.667z" fill="#ffac33"/><g><g transform="translate(-104.289 61.413) scale(26.07184)"><path d="M32 36v-4c0-3.314-2.685-6-6-6H10a6 6 0 00-6 6v4z" fill="#292f33"/><path d="M22.5 30.003l4.292-.916L24.879 26l-2.379.003z" fill="#546170"/><path d="M20.58 36h2.83l4.382-7.667-2.913.924-1.744-2.204z" fill="#66757f"/><path d="M13.5 30.003l-4.292-.916L11.12 26l2.38.003z" fill="#546170"/><path d="M15.42 36h-2.83l-4.382-7.667 2.912.924 1.745-2.204z" fill="#66757f"/><path d="M20.805 36l2.862-10.017H12.333L15.195 36z" fill="#dfe7ec"/><circle cx="18" cy="31.847" r=".7" fill="#292f33"/><circle cx="18" cy="34.704" r=".7" fill="#292f33"/><path d="M14 25.887l4 1.75 4-1.75v-4h-8z" fill="#f3d2a2"/><path d="M14 24c1.216 1.374 2.355 1.719 3.996 1.719 1.639 0 2.787-.346 4.004-1.719v-4h-8z" fill="#e2c196"/><path d="M27.833 13.935c0-1.448-.733-2.623-1.639-2.623-.082 0-.161.02-.24.039C24.73 7.546 21.635 4.839 18 4.839s-6.729 2.707-7.955 6.512c-.079-.019-.158-.039-.24-.039-.905 0-1.639 1.175-1.639 2.623 0 1.33.621 2.417 1.423 2.587.634 4.845 4.153 8.557 8.411 8.557s7.776-3.712 8.411-8.557c.802-.17 1.422-1.257 1.422-2.587z" fill="#f3d2a2"/><path d="M13.927 24.744L18 27.637l-2.656 2.818-3.011-4.472zm8.146 0L18 27.637l2.656 2.818 3.011-4.472z" fill="#f4f7f9"/><path d="M21.045 26.653a.23.23 0 00-.231-.003L18 28.197l-2.814-1.547a.232.232 0 00-.346.204v3.218a.235.235 0 00.234.233c.039 0 .077-.01.112-.029L18 28.728l2.814 1.548c.035.02.073.029.112.029a.241.241 0 00.119-.032.236.236 0 00.114-.201v-3.218a.236.236 0 00-.114-.201z" fill="#292f33"/><path d="M18 21.802c-2.754 0-3.6-.705-3.741-.848a.655.655 0 01.902-.95c.052.037.721.487 2.839.487 2.2 0 2.836-.485 2.842-.49a.638.638 0 01.913.015.669.669 0 01-.014.938c-.141.143-.987.848-3.741.848m.75-4.052h-1.5a.752.752 0 01-.75-.75c0-.413.337-.75.75-.75h1.5c.413 0 .75.337.75.75s-.337.75-.75.75" fill="#c1694f"/><path d="M22 15c-.55 0-1-.45-1-1v-1c0-.55.45-1 1-1s1 .45 1 1v1c0 .55-.45 1-1 1m-8 0c-.55 0-1-.45-1-1v-1c0-.55.45-1 1-1s1 .45 1 1v1c0 .55-.45 1-1 1" fill="#662113"/><path d="M18 1.48c5.648 0 9.178 4.168 9.178 7.641s-.706 4.863-1.412 3.473l-1.412-2.778s-4.235 0-5.647-1.39c0 0 2.118 4.168-2.118 0 0 0 .706 2.779-3.53-.694 0 0-2.118 1.389-2.824 4.862-.196.964-1.412 0-1.412-3.473C8.822 5.648 11.646 1.48 18 1.48" fill="#ffe51e"/></g></g></svg>