<svg xmlns="http://www.w3.org/2000/svg" width="1000" height="1000"><path d="M32 36v-2c0-3.314-2.685-6-6-6H10a6 6 0 0 0-6 6v2z" style="fill:#f2760f" transform="matrix(20.83333 0 0 20.83333 333.333 250)"/><path d="M13 27h10v4H13Z" style="fill:#292f33" transform="matrix(20.83333 0 0 20.83333 333.333 250)"/><path d="M14 27h8s-1.018 7-4 7-4-7-4-7" style="fill:#292f33" transform="matrix(20.83333 0 0 20.83333 333.333 250)"/><path d="M13.64 30.038c1.745 1.268 2.849 1.963 4.36 1.963s2.615-.696 4.359-1.963v-5.749h-8.72z" style="fill:#7c533e" transform="matrix(20.83333 0 0 20.83333 333.333 250)"/><path d="M13.632 25.973c1.216 1.374 2.724 1.746 4.364 1.746s3.146-.373 4.363-1.746v-3.491h-8.728v3.491z" style="fill:#664131" transform="matrix(20.83333 0 0 20.83333 333.333 250)"/><path d="M27.834 15.935c0-1.448-.734-2.623-1.639-2.623-.082 0-.161.02-.24.039C24.73 9.546 21.635 6.839 18 6.839s-6.729 2.707-7.955 6.512c-.079-.019-.158-.039-.24-.039-.905 0-1.639 1.175-1.639 2.623 0 1.33.621 2.417 1.423 2.587.634 4.845 4.153 8.557 8.411 8.557s7.777-3.712 8.411-8.557c.802-.17 1.423-1.257 1.423-2.587" style="fill:#7c533e" transform="matrix(20.83333 0 0 20.83333 333.333 250)"/><path d="M18 23.802c-2.754 0-3.6-.705-3.74-.848a.655.655 0 0 1 .902-.95c.051.037.721.487 2.838.487 2.201 0 2.836-.485 2.842-.49a.64.64 0 0 1 .914.015.67.67 0 0 1-.014.938c-.142.143-.988.848-3.742.848" style="fill:#3d2e24" transform="matrix(20.83333 0 0 20.83333 333.333 250)"/><path d="M18 3.48c5.648 0 9.178 4.168 9.178 7.641s-.705 4.863-1.412 3.473l-1.412-2.778s-4.234 0-5.646-1.39c0 0 2.117 4.168-2.119 0 0 0 .707 2.779-3.53-.694 0 0-2.118 1.389-2.824 4.862-.196.964-1.412 0-1.412-3.473C8.822 7.648 11.646 3.48 18 3.48" style="fill:#0b0200" transform="matrix(20.83333 0 0 20.83333 333.333 250)"/><path d="M625 604.167c-11.458 0-20.833-9.375-20.833-20.834V562.5c0-11.458 9.375-20.833 20.833-20.833 11.48 0 20.833 9.375 20.833 20.833v20.833c0 11.459-9.354 20.834-20.833 20.834m166.667 0c-11.438 0-20.834-9.375-20.834-20.834V562.5c0-11.458 9.396-20.833 20.834-20.833 11.479 0 20.833 9.375 20.833 20.833v20.833c0 11.459-9.354 20.834-20.833 20.834"/><path d="M18.75 19.75h-1.5a.75.75 0 0 1-.75-.75c0-.413.338-.75.75-.75h1.5a.75.75 0 0 1 0 1.5" style="fill:#3d2e24" transform="matrix(20.83333 0 0 20.83333 333.333 250)"/><path d="m19 34.938-1 1.061-1-1v-3h2z" style="fill:#292f33" transform="matrix(20.83333 0 0 20.83333 333.333 250)"/><path d="M9 28h3v8H9Zm15 0h3v8h-3z" style="fill:#fff75f" transform="matrix(20.83333 0 0 20.83333 333.333 250)"/><path d="M11 28c0 1 1 3 3 5 1.582 1.581 4 3 4 3 0-3.063-1-4-2-5s-3-2-3-4c0-1-2 1-2 1m14 0c0 1-1 3-3 5-1.58 1.581-4 3-4 3 0-3.063 1-4 2-5s3-2 3-4c0-1 2 1 2 1" style="fill:#55acee" transform="matrix(20.83333 0 0 20.83333 333.333 250)"/><path d="M30 11c-3-2-1.008-4.169-3-7-1.873-2.663-5-4-9.002-4C13 0 10.874 1.337 9 4c-1.992 2.831 0 5-3 7-1.861 1.24 6 2.313 12 2.313S31.861 12.24 30 11" style="fill:#fff75f" transform="matrix(20.83333 0 0 20.83333 333.333 250)"/><path d="M16 11.5V.088q-.525.048-1 .124v10.281c-2.09-.05-5.124-.396-7.653-.853a3.7 3.7 0 0 1-.73.877c2.91.566 6.596.983 8.883.983Zm12.855-1.553c-2.853.304-5.839.517-7.855.549V.292c-.323-.066-.66-.112-1-.155V11.5h.5c2.018 0 5.796-.261 9.289-.657a4.4 4.4 0 0 1-.934-.896" style="fill:#ffac33" transform="matrix(20.83333 0 0 20.83333 333.333 250)"/><g transform="translate(-104.289 61.413)scale(26.07184)"><path d="M32 36v-4c0-3.314-2.685-6-6-6H10a6 6 0 0 0-6 6v4z" style="fill:#292f33"/><path d="m22.5 30.003 4.292-.916L24.879 26l-2.379.003Z" style="fill:#546170"/><path d="M20.58 36h2.83l4.382-7.667-2.913.924-1.744-2.204z" style="fill:#66757f"/><path d="m13.5 30.003-4.292-.916L11.12 26l2.38.003Z" style="fill:#546170"/><path d="M15.42 36h-2.83l-4.382-7.667 2.912.924 1.745-2.204z" style="fill:#66757f"/><path d="m20.805 36 2.862-10.017H12.333L15.195 36Z" style="fill:#dfe7ec"/><circle cx="18" cy="31.847" r=".7" style="fill:#292f33"/><circle cx="18" cy="34.704" r=".7" style="fill:#292f33"/><path d="m14 25.887 4 1.75 4-1.75v-4h-8z" style="fill:#f3d2a2"/><path d="M14 24c1.216 1.374 2.355 1.719 3.996 1.719 1.639 0 2.787-.346 4.004-1.719v-4h-8z" style="fill:#e2c196"/><path d="M27.833 13.935c0-1.448-.733-2.623-1.639-2.623-.082 0-.161.02-.24.039C24.73 7.546 21.635 4.839 18 4.839s-6.729 2.707-7.955 6.512c-.079-.019-.158-.039-.24-.039-.905 0-1.639 1.175-1.639 2.623 0 1.33.621 2.417 1.423 2.587.634 4.845 4.153 8.557 8.411 8.557s7.776-3.712 8.411-8.557c.802-.17 1.422-1.257 1.422-2.587" style="fill:#f3d2a2"/><path d="M13.927 24.744 18 27.637l-2.656 2.818-3.011-4.472Zm8.146 0L18 27.637l2.656 2.818 3.011-4.472z" style="fill:#f4f7f9"/><path d="M21.045 26.653a.23.23 0 0 0-.231-.003L18 28.197l-2.814-1.547a.232.232 0 0 0-.346.204v3.218a.235.235 0 0 0 .234.233q.059 0 .112-.029L18 28.728l2.814 1.548q.053.03.112.029a.24.24 0 0 0 .119-.032.24.24 0 0 0 .114-.201v-3.218a.24.24 0 0 0-.114-.201" style="fill:#292f33"/><path d="M18 21.802c-2.754 0-3.6-.705-3.741-.848a.655.655 0 0 1 .902-.95c.052.037.721.487 2.839.487 2.2 0 2.836-.485 2.842-.49a.64.64 0 0 1 .913.015.67.67 0 0 1-.014.938c-.141.143-.987.848-3.741.848m.75-4.052h-1.5a.75.75 0 0 1-.75-.75c0-.413.337-.75.75-.75h1.5c.413 0 .75.337.75.75s-.337.75-.75.75" style="fill:#c1694f"/><path d="M22 15c-.55 0-1-.45-1-1v-1c0-.55.45-1 1-1s1 .45 1 1v1c0 .55-.45 1-1 1m-8 0c-.55 0-1-.45-1-1v-1c0-.55.45-1 1-1s1 .45 1 1v1c0 .55-.45 1-1 1" style="fill:#662113"/><path d="M18 1.48c5.648 0 9.178 4.168 9.178 7.641s-.706 4.863-1.412 3.473l-1.412-2.778s-4.235 0-5.647-1.39c0 0 2.118 4.168-2.118 0 0 0 .706 2.779-3.53-.694 0 0-2.118 1.389-2.824 4.862-.196.964-1.412 0-1.412-3.473C8.822 5.648 11.646 1.48 18 1.48" style="fill:#ffe51e"/></g></svg>