<svg xmlns="http://www.w3.org/2000/svg" width="1000" height="1000"><path d="M466.368 701.072c-11.116.077-22.068.824-30.995 2.836-32.314 17.992-11.843 168.685 9.412 202.875 20.367 21.976 38.933 25.292 64.061 20.992 92.899-2.543 196.673-7.923 264.768 1.627 41.3-3.825 71.305-9.272 0-28.528s-90.903-59.476-112.747-40.813-52.28-2.767-82.933-9.78c-31.497-6.967-55.574-5.928-55.574-5.928l-.119-140.445c-6.179.063-31.42-3.005-55.873-2.836" style="opacity:1;vector-effect:none;fill:#f9ca55;fill-opacity:1;stroke-width:31.31862831;stroke-linecap:butt;stroke-linejoin:miter;stroke-miterlimit:4;stroke-dasharray:none;stroke-dashoffset:0;stroke-opacity:1" transform="translate(0 -32.417)"/><path d="M163.239 708.582c4.519 30.597 17.635 119.473 18.178 128.322.467 7.45-1.228 17.08-13.06 17.551-11.82.5-47.225 10.713-64.717 17.345-17.479 6.66-28.966-16.064-54.766-12.883-25.8 3.18-42.753 30.386-32.612 52.667 10.168 22.267 21.15 28.788 51.742 19.885 30.593-8.902 52.046-9.851 62.999-9.913 10.924-.048 101.474-16.204 111.493-24.568 10.02-8.364 8.836-99.147 8.836-99.147l.517-118.986c-3.19-83.621-98.343-46.482-88.61 29.727M494.07 297.645C390.22 256.28 406.196 391.697 384.5 453.383c-2.945 6.859-8.801 14.688-19.575 9.771-10.774-4.886-46.978-11.744-65.581-13.717-18.603-1.942-18.603-27.404-43.063-36.205s-51.864 7.83-52.866 32.29c-.971 24.46 5.888 35.233 37.206 41.09 31.319 5.856 50.893 14.688 60.696 19.574 9.771 4.886 97.87 31.319 110.586 28.375 52.647-51.668 138.16-207.184 82.167-236.916" style="fill:#f9ca55;stroke-width:31.31862831" transform="translate(0 -32.417)"/><path d="M439.9 293.932c-30.63 60.132 2.638 128.767 17.389 150.345 14.75 21.547 38.996 143.284 48.078 178.486C579.753 659.822 650 655.108 713.92 583.358c-25.878-50.941-50.398-205.131-58.04-229.873-13.243-42.675-82.045-70.361-105.88-88.946s-29.661-82.122-50-82.122-48.718 88.571-60.1 111.515" style="opacity:1;vector-effect:none;fill:#ffdc5d;fill-opacity:1;stroke-width:31.31862831;stroke-linecap:butt;stroke-linejoin:miter;stroke-miterlimit:4;stroke-dasharray:none;stroke-dashoffset:0;stroke-opacity:1" transform="translate(0 -32.417)"/><path d="M500 232.417c10.798 51.391-23.501 74.193-42.929 78.31s-44.421-37.395-72.223-78.31c-27.803-40.915 104.354-51.392 115.152 0" style="opacity:1;vector-effect:none;fill:#f9ca55;fill-opacity:1;stroke-width:31.31862831;stroke-linecap:butt;stroke-linejoin:miter;stroke-miterlimit:4;stroke-dasharray:none;stroke-dashoffset:0;stroke-opacity:1" transform="translate(0 -32.417)"/><path d="M527.318 184.49c4.856 49.809-34.898 95.017-73.787 107.292-43.387 13.708-79.476-40.72-95.61-89.516-15.703-47.51 33.343-95.553 78.606-99.958 45.293-4.412 85.934 32.372 90.79 82.181" style="fill:#ffdc5d;stroke-width:31.31862831" transform="translate(0 -32.417)"/><path d="M352.332 138.878c38.427-48.897 88.219-58.52 128.322-41.951 39.82 16.437 55.631 64.917 55.716 98.706s-5.851 29.796-5.851 29.796-11.351-1.596-17.069-14.375c-5.377-12.082 1.418-24.887-19.234-38.95-13.316-9.056-15.692 12.065-10.79 29.306s-7.936 9.685-7.936 9.685l-27.063-33.29s-15.265 21.93-54.296 17.524c-27.683-3.13-38.223-.896-31.222 22.623-27.464-30.196-24.194-61.75-10.577-79.074" style="fill:#ffac33;stroke-width:31.31862831" transform="translate(0 -32.417)"/><path d="M541.256 590.571c-40.067.766-54.528 8.341-119.549 12.733-99.08 6.691-193.046-29.713-268.201 18.605-43.957 28.511-55.14 8.842-39.823 73.607s22.256 51.603 77.78 46.315c39.297-3.744 39.382 51.583 118.325 38.712 78.942-12.87 171.468-79.224 186.858 22.402 9.95 68.43 10.19 178.286 97.216 164.102s100.069-21.32 179.752-13.883 165.497 3.245 77.585-23.762c-87.912-27.006-109.051-86.17-131.93-50.842s-60.598 3.447-115.368 5.757c0 0-7.016-.604 17.324-124.035 13.808-79.874 35.614-171.92-79.969-169.71" style="opacity:1;vector-effect:none;fill:#ffdc5d;fill-opacity:1;stroke-width:31.31862831;stroke-linecap:butt;stroke-linejoin:miter;stroke-miterlimit:4;stroke-dasharray:none;stroke-dashoffset:0;stroke-opacity:1" transform="translate(0 -32.417)"/><path d="M651.307 519.004c-.97 15.66-124.303 70.467-136.048 75.352-11.744 4.886-34.262 34.263-51.863 35.234-17.633.97-67.523-7.83-50.893-35.234 16.63-27.403 45.036-44.033 66.552-42.092 21.547 1.942 79.267-53.836 92.014-58.722 12.715-4.886 17.601-11.745 12.715-26.433-19.634-112.564-49.447-202.515 28.968-170.915 78.415 31.601 43.819 150.552 38.555 222.81" style="opacity:1;vector-effect:none;fill:#f9ca55;fill-opacity:1;stroke-width:31.31862831;stroke-linecap:butt;stroke-linejoin:miter;stroke-miterlimit:4;stroke-dasharray:none;stroke-dashoffset:0;stroke-opacity:1" transform="translate(0 -32.417)"/><path d="M521.653 591.59c108.743.245 115.6 76.55 95.644 168.692-39.591 182.8-13.155 228.468 73.87 214.284s114.493-21.32 194.177-13.883 165.497 3.245 77.585-23.762c-87.912-27.006-109.052-86.17-131.93-50.843-22.88 35.329-60.599 3.448-115.368 5.758 0 0-18.975-8.122 5.365-131.553 10.392-52.863 11.893-145.986-7.076-176.925-63.92 25.99-127.031 12.992-180.34 2.9Z" style="opacity:1;vector-effect:none;fill:#f9ca55;fill-opacity:1;stroke-width:31.31862831;stroke-linecap:butt;stroke-linejoin:miter;stroke-miterlimit:4;stroke-dasharray:none;stroke-dashoffset:0;stroke-opacity:1" transform="translate(0 -32.417)"/><path d="M322.626 760.282c-3.02 26.284-5.026 176.079-8.433 191.394s-147.483 50.97-159.847 53.96-39.199 28.484-56.735 26.69c-17.567-1.798-65.468-18.29-44.758-42.757s51.367-36.45 72.315-31.169c20.979 5.287 86.71-40.78 100.064-43.613 13.323-2.838 19.22-8.848 16.692-24.12-2.53-15.272-21.858-139.708-20.412-161.263 1.385-21.564 106.359-14.872 101.114 30.878" style="fill:#ffdc5d;stroke-width:31.31862831" transform="translate(0 -32.417)"/><path d="M159.38 610.542c50.5 36.993 54.997 93.516 46.504 121.628S97.132 770.325 97.132 703.908c0-56.373 11.747-130.359 62.247-93.366" style="opacity:1;vector-effect:none;fill:#f9ca55;fill-opacity:1;stroke-width:31.31862831;stroke-linecap:butt;stroke-linejoin:miter;stroke-miterlimit:4;stroke-dasharray:none;stroke-dashoffset:0;stroke-opacity:1" transform="translate(0 -32.417)"/><path d="M143.764 601.743c43.775 24.255 58.456 82.638 46.505 121.628-13.322 43.507-78.617 42.354-127.955 27.962-48.035-14.019-59.778-81.662-37.73-121.437 22.058-39.803 75.405-52.408 119.18-28.153" style="fill:#ffdc5d;stroke-width:31.31862831" transform="translate(0 -32.417)"/><path d="M6.94 719.98c-18.47-59.385 1.849-105.85 38.243-129.477 36.124-23.47 85.018-8.99 112.893 10.106 55.795 71.662-16.743 83.126-44.393 94.907 0 0-10.772-7.583-36.542 22.061-18.28 21.023-22.42 30.97.921 38.546-40.447 5.489-64.578-15.103-71.121-36.144" style="fill:#ffac33;stroke-width:31.31862831" transform="translate(0 -32.417)"/><path d="M950 167.5c0-47-38.111-85.083-85.083-85.083-28.528 0-53.695 14.083-69.14 35.61-15.444-21.527-40.61-35.61-69.138-35.61-47 0-85.084 38.083-85.084 85.083 0 6.667.834 13.111 2.278 19.333 11.834 73.417 93.445 150.862 151.945 172.14 58.5-21.278 140.11-98.723 151.916-172.112 1.472-6.25 2.306-12.694 2.306-19.361M334.222 224.611c0-50.917-41.278-92.194-92.194-92.194-30.917 0-58.167 15.25-74.917 38.583-16.722-23.333-44-38.583-74.917-38.583C41.278 132.417 0 173.694 0 224.61c0 7.222.917 14.195 2.472 20.945C15.278 325.083 103.694 409 167.083 432.056c63.39-23.028 151.806-106.945 164.611-186.473 1.612-6.777 2.528-13.777 2.528-20.972M1000 692.514c0-35.278-28.583-63.861-63.861-63.861-21.417 0-40.306 10.555-51.889 26.722-11.583-16.167-30.472-26.722-51.889-26.722-35.278 0-63.86 28.583-63.86 63.86 0 5 .638 9.834 1.721 14.5 8.861 55.084 70.111 113.223 114.028 129.168 43.889-15.945 105.167-74.084 114-129.167 1.111-4.667 1.75-9.5 1.75-14.5" style="fill:#dd2e44;stroke-width:27.77778053" transform="translate(0 -32.417)"/></svg>