<svg xmlns="http://www.w3.org/2000/svg" width="1000" height="1000"><path d="M466.368 668.655c-11.116.077-22.068.824-30.995 2.837-32.314 17.992-11.843 168.684 9.412 202.874 20.367 21.976 38.933 25.292 64.061 20.992 92.899-2.543 196.673-7.923 264.768 1.628 41.3-3.825 71.305-9.273 0-28.529-71.305-19.255-90.903-59.476-112.747-40.813-21.843 18.663-52.28-2.766-82.933-9.78-31.497-6.967-55.574-5.927-55.574-5.927l-.119-140.445c-6.179.063-31.42-3.006-55.873-2.837zM163.239 676.165c4.519 30.598 17.635 119.473 18.178 128.322.467 7.45-1.228 17.08-13.06 17.552-11.82.5-47.225 10.712-64.717 17.344-17.479 6.66-28.966-16.064-54.766-12.883-25.8 3.181-42.753 30.386-32.612 52.667 10.168 22.267 21.15 28.788 51.742 19.886 30.593-8.903 52.046-9.852 62.999-9.914 10.924-.048 101.474-16.204 111.493-24.567 10.02-8.364 8.836-99.148 8.836-99.148l.517-118.986c-3.19-83.62-98.343-46.481-88.61 29.727zM494.07 265.228C390.22 223.863 406.196 359.28 384.5 420.966c-2.945 6.859-8.801 14.689-19.575 9.771-10.774-4.885-46.978-11.744-65.581-13.717-18.603-1.942-18.603-27.404-43.063-36.204s-51.864 7.83-52.866 32.29c-.971 24.459 5.888 35.233 37.206 41.09 31.319 5.856 50.893 14.688 60.696 19.573 9.771 4.886 97.87 31.319 110.586 28.375 52.647-51.668 138.16-207.184 82.167-236.916z" fill="#f9ca55"/><path d="M439.9 261.515c-30.63 60.132 2.638 128.767 17.389 150.345 14.75 21.548 38.996 143.284 48.078 178.486 74.386 37.06 144.633 32.345 208.553-39.404C688.042 500 663.522 345.81 655.88 321.068c-13.243-42.675-82.045-70.36-105.88-88.945C526.165 213.538 520.339 150 500 150s-48.718 88.572-60.1 111.515z" fill="#ffdc5d"/><path d="M500 200c10.798 51.392-23.501 74.193-42.929 78.31-19.428 4.117-44.421-37.395-72.223-78.31-27.803-40.915 104.354-51.392 115.152 0z" fill="#f9ca55"/><path d="M527.318 152.073c4.856 49.81-34.898 95.017-73.787 107.292-43.387 13.708-79.476-40.72-95.61-89.516-15.703-47.51 33.343-95.552 78.606-99.957 45.293-4.412 85.934 32.372 90.79 82.18z" fill="#ffdc5d"/><path d="M352.332 106.461c38.427-48.897 88.219-58.52 128.322-41.95 39.82 16.436 55.631 64.916 55.716 98.705.085 33.79-5.851 29.797-5.851 29.797s-11.351-1.597-17.069-14.375c-5.377-12.082 1.418-24.887-19.234-38.951-13.316-9.056-15.692 12.065-10.79 29.306 4.902 17.241-7.936 9.685-7.936 9.685l-27.063-33.29s-15.265 21.931-54.296 17.524c-27.683-3.13-38.223-.896-31.222 22.624-27.464-30.196-24.194-61.75-10.577-79.075z" fill="#ffac33"/><path d="M541.256 558.154c-40.067.767-54.528 8.342-119.549 12.733-99.08 6.691-193.046-29.713-268.201 18.605-43.957 28.512-55.14 8.843-39.823 73.608 15.317 64.764 22.256 51.603 77.78 46.314 39.297-3.743 39.382 51.583 118.325 38.713 78.942-12.87 171.468-79.225 186.858 22.402 9.95 68.43 10.19 178.286 97.216 164.102 87.026-14.185 100.069-21.32 179.752-13.884 79.684 7.437 165.497 3.245 77.585-23.761-87.912-27.006-109.051-86.171-131.93-50.843-22.879 35.328-60.598 3.448-115.368 5.757 0 0-7.016-.604 17.324-124.035 13.808-79.874 35.614-171.92-79.969-169.71z" fill="#ffdc5d"/><path d="M651.307 486.587c-.97 15.66-124.303 70.467-136.048 75.353-11.744 4.886-34.262 34.262-51.863 35.233-17.633.971-67.523-7.83-50.893-35.233 16.63-27.404 45.036-44.034 66.552-42.092 21.547 1.941 79.267-53.837 92.014-58.723 12.715-4.886 17.601-11.744 12.715-26.433-19.634-112.563-49.447-202.515 28.968-170.914 78.415 31.6 43.819 150.552 38.555 222.81z" fill="#f9ca55"/><path d="M521.653 559.173c108.743.245 115.6 76.55 95.644 168.692-39.591 182.8-13.155 228.469 73.87 214.284 87.026-14.184 114.493-21.32 194.177-13.883 79.684 7.437 165.497 3.245 77.585-23.761-87.912-27.007-109.052-86.171-131.93-50.843-22.88 35.328-60.599 3.448-115.368 5.757 0 0-18.975-8.122 5.365-131.553 10.392-52.862 11.893-145.985-7.076-176.924-63.92 25.99-127.031 12.991-180.34 2.9z" fill="#f9ca55"/><path d="M322.626 727.865c-3.02 26.284-5.026 176.08-8.433 191.394-3.407 15.315-147.483 50.97-159.847 53.96-12.364 2.99-39.199 28.484-56.735 26.69-17.567-1.797-65.468-18.29-44.758-42.757 20.71-24.466 51.367-36.45 72.315-31.169 20.979 5.287 86.71-40.78 100.064-43.613 13.323-2.838 19.22-8.848 16.692-24.12-2.53-15.271-21.858-139.708-20.412-161.262 1.385-21.565 106.359-14.873 101.114 30.877z" fill="#ffdc5d"/><path d="M159.38 578.125c50.5 36.993 54.997 93.517 46.504 121.628-8.493 28.112-108.752 38.155-108.752-28.261 0-56.374 11.747-130.36 62.247-93.367z" fill="#f9ca55"/><path d="M143.764 569.326c43.775 24.255 58.456 82.638 46.505 121.628-13.322 43.508-78.617 42.354-127.955 27.962-48.035-14.018-59.778-81.661-37.73-121.436 22.058-39.804 75.405-52.408 119.18-28.154z" fill="#ffdc5d"/><path d="M6.94 687.562C-11.53 628.18 8.79 581.714 45.184 558.086c36.124-23.469 85.018-8.99 112.893 10.106 55.795 71.662-16.743 83.126-44.393 94.908 0 0-10.772-7.583-36.542 22.06-18.28 21.023-22.42 30.97.921 38.546-40.447 5.49-64.578-15.103-71.121-36.144z" fill="#ffac33"/><path d="M950 135.083c0-47-38.111-85.083-85.083-85.083-28.528 0-53.695 14.083-69.14 35.611C780.334 64.083 755.168 50 726.64 50c-47 0-85.084 38.083-85.084 85.083 0 6.667.834 13.111 2.278 19.334 11.834 73.416 93.445 150.86 151.945 172.139 58.5-21.278 140.11-98.723 151.916-172.112 1.472-6.25 2.306-12.694 2.306-19.36zM334.222 192.194c0-50.916-41.278-92.194-92.194-92.194-30.917 0-58.167 15.25-74.917 38.583C150.39 115.25 123.111 100 92.194 100 41.278 100 0 141.278 0 192.194c0 7.223.917 14.195 2.472 20.945 12.806 79.528 101.222 163.444 164.611 186.5 63.39-23.028 151.806-106.945 164.611-186.472 1.612-6.778 2.528-13.778 2.528-20.973zM1000 660.097c0-35.278-28.583-63.86-63.861-63.86-21.417 0-40.306 10.555-51.889 26.721-11.583-16.166-30.472-26.722-51.889-26.722-35.278 0-63.86 28.583-63.86 63.861 0 5 .638 9.834 1.721 14.5 8.861 55.084 70.111 113.223 114.028 129.167 43.889-15.944 105.167-74.083 114-129.167 1.111-4.666 1.75-9.5 1.75-14.5z" fill="#dd2e44"/></svg>