<svg xmlns="http://www.w3.org/2000/svg" width="1000" height="1000"><g transform="translate(0 -32.417)"><path d="M1000 532.417c0 276.138-223.861 500-500 500-276.111 0-500-223.862-500-500 0-276.112 223.889-500 500-500 276.139 0 500 223.888 500 500" style="fill:#ffcc4d;stroke-width:27.77777863"/><circle cx="747.222" cy="490.748" r="152.778" style="fill:#f5f8fa;stroke-width:27.77777863"/><circle cx="252.778" cy="490.748" r="152.778" style="fill:#f5f8fa;stroke-width:27.77777863"/><circle cx="202.778" cy="451.861" r="69.444" style="fill:#664500;stroke-width:27.77777863"/><circle cx="797.222" cy="451.861" r="69.444" style="fill:#664500;stroke-width:27.77777863"/><path d="M625 832.417H375l125 125z" style="fill:#e8596e;fill-opacity:1;stroke:#000;stroke-width:.26458332px;stroke-linecap:butt;stroke-linejoin:miter;stroke-opacity:1"/><path d="M388.89 804.639c-15.334 0-27.78 12.417-27.78 27.778 0 50 88.89 155.944 138.89 155.592 50 .163 138.792-105.592 138.89-155.592 0-15.361-12.418-27.778-27.78-27.778zm31.124 55.556h159.972c-23.271 33.769-55.209 72.221-79.986 72.221s-56.715-38.452-79.986-72.221" style="fill:#664500;stroke-width:27.77777481"/></g></svg>