<svg xmlns="http://www.w3.org/2000/svg" width="1000" height="1000"><g transform="translate(0 -32.417)"><path d="M520.194 32.417c-38.244 0-74.289 9.022-106.51 24.689-8.734-1.512-17.667-2.467-26.823-2.467-85.911 0-155.556 69.644-155.556 155.555v266.667h.4c4.067 143.711 121.578 259.022 266.267 259.022s262.2-115.31 266.267-259.022h.4v-200c0-135-109.445-244.444-244.445-244.444z" fill="#ffac33"/><path d="M250.51 632.417c-49.09 0-92.44 51.579-100.51 100l-50 300h800l-50-300c-8.07-48.421-51.42-100-100.51-100H250.51z" fill="#9268ca"/><path d="M297.972 143.528v266.666c0 87.045 55.711 160.89 133.333 188.378v56.067c0 36.822 29.845 66.667 66.667 66.667s66.667-29.845 66.667-66.667v-56.067c77.622-27.489 133.333-101.333 133.333-188.378V143.528z" fill="#ffdc5d"/><path d="M697.95 143.528v-22.222h-422.2V276.86c133.333 0 133.333-133.333 133.333-133.333s44.445 155.555 311.111 155.555V143.528z" fill="#ffac33"/><path d="M300 982.417v-200l50 150 290.17-53.26-10.15 27.671z" fill="#7450a8"/><path d="M420.59 362.553l26.11-25.185c5.694-5.494 5.694-14.373 0-19.864-5.693-5.494-14.896-5.494-20.59 0L400 342.69l-26.11-25.186c-5.693-5.494-14.897-5.494-20.59 0-5.694 5.491-5.694 14.37 0 19.864l26.11 25.185-26.11 25.189c-5.694 5.49-5.694 14.369 0 19.863 2.84 2.738 6.567 4.114 10.295 4.114 3.728 0 7.456-1.368 10.295-4.114L400 382.417l26.11 25.188c2.84 2.738 6.567 4.114 10.295 4.114 3.728 0 7.456-1.368 10.295-4.114 5.694-5.494 5.694-14.372 0-19.863zM620.59 362.553l26.11-25.185c5.694-5.494 5.694-14.373 0-19.864-5.693-5.494-14.896-5.494-20.59 0L600 342.69l-26.11-25.186c-5.693-5.494-14.897-5.494-20.59 0-5.694 5.491-5.694 14.37 0 19.864l26.11 25.185-26.11 25.189c-5.694 5.49-5.694 14.369 0 19.863 2.84 2.738 6.567 4.114 10.295 4.114 3.728 0 7.456-1.368 10.295-4.114L600 382.417l26.11 25.188c2.84 2.738 6.567 4.114 10.295 4.114 3.728 0 7.456-1.368 10.295-4.114 5.694-5.494 5.694-14.372 0-19.863z" fill="#664500"/><path d="M300 682.417c0 50-50 300 0 300l247.329-56.649C397.089 899.486 419.246 738.018 300 682.417z" fill="#dd2e44"/><path d="M620.821 891.798C608.543 886.062 426.065 860.75 300 682.417c24.56 11.441 366.59 148.213 366.59 148.213z" fill="#ccd6dd"/><path d="M666.628 793.588C654.355 787.865 517.64 664.345 300 682.417l368.27 171.716z" fill="#9aaab4"/><circle cx="-1165.205" cy="469.791" r="54.177" transform="rotate(-110)" fill="#31373d"/><path d="M705.07 759.216c10.172 4.743 14.573 16.834 9.825 26.995l-71.552 153.444c-4.744 10.173-16.835 14.574-26.996 9.826-10.172-4.744-14.569-16.823-9.825-26.995l71.552-153.445c4.719-10.164 16.823-14.57 26.996-9.825z" fill="#31373d"/><path d="M800 802.768c25.963 20.351 45.055 55.004 50 79.649-.245 67.167-57.045 103.79-100 150H650l-19.98-125.589c38-20.092 62.504-72.643 74.493-98.354l11.212-28.329c23.768-7.497 58.312 2.272 84.275 22.623z" fill="#ffdc5d"/><path d="M630.02 906.828C700 906.265 750 982.417 750 1032.417H300v-50z" fill="#9268ca"/></g></svg>