<svg xmlns="http://www.w3.org/2000/svg" width="1000" height="1000"><g transform="translate(0 -32.417)"><ellipse cx="500" cy="699.159" rx="500" ry="277.778" style="fill:#939598;stroke-width:27.77777863"/><ellipse cx="500" cy="643.603" rx="500" ry="277.778" style="fill:#f1f2f2;stroke-width:27.77777863"/><ellipse cx="436.953" cy="141.337" rx="174.548" ry="121.304" style="opacity:1;vector-effect:none;fill:#ffe8b6;fill-opacity:1;stroke:none;stroke-width:29.37978363;stroke-linecap:butt;stroke-linejoin:miter;stroke-miterlimit:4;stroke-dasharray:none;stroke-dashoffset:0;stroke-opacity:1;paint-order:normal" transform="matrix(.73478 .6783 -.43861 .89868 0 0)"/><ellipse cx="478.36" cy="110.083" rx="174.548" ry="121.304" style="opacity:1;vector-effect:none;fill:#ffd983;fill-opacity:1;stroke:none;stroke-width:11.00710583;stroke-linecap:butt;stroke-linejoin:miter;stroke-miterlimit:4;stroke-dasharray:none;stroke-dashoffset:0;stroke-opacity:1;paint-order:normal" transform="matrix(.73478 .6783 -.43861 .89868 0 0)"/><ellipse cx="554.085" cy="-14.613" rx="174.548" ry="121.304" style="opacity:1;vector-effect:none;fill:#ffe8b6;fill-opacity:1;stroke:none;stroke-width:29.37978363;stroke-linecap:butt;stroke-linejoin:miter;stroke-miterlimit:4;stroke-dasharray:none;stroke-dashoffset:0;stroke-opacity:1;paint-order:normal" transform="matrix(.73478 .6783 -.43861 .89868 0 0)"/><ellipse cx="595.492" cy="-45.867" rx="174.548" ry="121.304" style="opacity:1;vector-effect:none;fill:#ffd983;fill-opacity:1;stroke:none;stroke-width:11.00710583;stroke-linecap:butt;stroke-linejoin:miter;stroke-miterlimit:4;stroke-dasharray:none;stroke-dashoffset:0;stroke-opacity:1;paint-order:normal" transform="matrix(.73478 .6783 -.43861 .89868 0 0)"/><ellipse cx="719.715" cy="-139.628" rx="174.548" ry="121.304" style="opacity:1;vector-effect:none;fill:#ffe8b6;fill-opacity:1;stroke:none;stroke-width:29.37978363;stroke-linecap:butt;stroke-linejoin:miter;stroke-miterlimit:4;stroke-dasharray:none;stroke-dashoffset:0;stroke-opacity:1;paint-order:normal" transform="matrix(.73478 .6783 -.43861 .89868 0 0)"/><ellipse cx="761.123" cy="-170.882" rx="174.548" ry="121.304" style="opacity:1;vector-effect:none;fill:#ffd983;fill-opacity:1;stroke:none;stroke-width:11.00710583;stroke-linecap:butt;stroke-linejoin:miter;stroke-miterlimit:4;stroke-dasharray:none;stroke-dashoffset:0;stroke-opacity:1;paint-order:normal" transform="matrix(.73478 .6783 -.43861 .89868 0 0)"/><ellipse cx="894.033" cy="-205.91" rx="153.275" ry="106.52" style="opacity:1;vector-effect:none;fill:#ffe8b6;fill-opacity:1;stroke:none;stroke-width:25.79912949;stroke-linecap:butt;stroke-linejoin:miter;stroke-miterlimit:4;stroke-dasharray:none;stroke-dashoffset:0;stroke-opacity:1;paint-order:normal" transform="matrix(.73478 .6783 -.43861 .89868 0 0)"/><ellipse cx="930.394" cy="-233.355" rx="153.275" ry="106.52" style="opacity:1;vector-effect:none;fill:#ffd983;fill-opacity:1;stroke:none;stroke-width:9.66561699;stroke-linecap:butt;stroke-linejoin:miter;stroke-miterlimit:4;stroke-dasharray:none;stroke-dashoffset:0;stroke-opacity:1;paint-order:normal" transform="matrix(.73478 .6783 -.43861 .89868 0 0)"/><path d="M800 782.417c-125.725 115.412-190.967 50-300 50s-250 100-350-50S8.768 543.772 169.122 490.903c146.53 186.982 193.143 8.256 323.527 22.581 66.009 7.253 140.682-27.057 188.939 3.617 97.64 62.065 133.383 28.78 220.344.407 116.996 101.66 61.79 178.264 19.31 213.958-32.927 27.666-66.345.557-121.242 50.95" style="opacity:1;vector-effect:none;fill:#ffcc4d;fill-opacity:1;stroke:none;stroke-width:27.77777863;stroke-linecap:butt;stroke-linejoin:miter;stroke-miterlimit:4;stroke-dasharray:none;stroke-dashoffset:0;stroke-opacity:1;paint-order:normal"/><path d="M500.714 759.56c-150 0-100.714 72.857-200.714 72.857S228.951 727.56 167.503 689.868c-73.695-45.204 68.617-75.07 181.75-97.294C462.383 570.35 650.713 759.56 500.713 759.56" style="fill:#dd2e44;stroke-width:27.77777863"/><path d="M169.126 490.901c97.114 123.199 142.744 58.796 228.522 9.167 60.592 45.956 75.828-18.814 139.22-28.348 63.602 59.473 89.122 19.217 138.455 18.238 73.783 43.598 80.762 50.724 115.266 61.83-51.222 7.235-104.571-24.518-176.477-33.526-81.97-10.268-182.542 3.26-234.691 36.572-92.662 61.349-418.36 7.599-210.295-63.933" style="opacity:1;vector-effect:none;fill:#ffb703;fill-opacity:1;stroke:none;stroke-width:27.77777863;stroke-linecap:butt;stroke-linejoin:miter;stroke-miterlimit:4;stroke-dasharray:none;stroke-dashoffset:0;stroke-opacity:1;paint-order:normal"/><path d="M461.629 507.832c1.977-7.379 1.603-15.288-1.863-23.187-5.214-11.916-16.537-19.804-29.285-21.99 1.582-3.549 2.227-7.91.406-13.404-6.192-18.545-30.909-6.078-49.443-30.794-15.361 9.21-18.494 22.978-17.765 34.499-14.07 2.508-22.188 5.536-22.188 5.536v.01c-8.408 3.404-14.35 11.646-14.35 21.273 0 5.099 1.716 9.772 4.537 13.58l-4.996 1.863h.01c-14.402 5.38-24.56 18.39-24.56 33.604 0 6.473 1.988 12.457 5.204 17.713-17.546 7.805-29.785 24.872-29.785 44.812 19.106 72.125 102.456 43.997 146.939 31.69 44.482-12.305 114.285-77.142 37.139-115.205" style="opacity:1;vector-effect:none;fill:#f5f8fa;fill-opacity:1;stroke-width:18.51845551;stroke-linecap:butt;stroke-linejoin:miter;stroke-miterlimit:4;stroke-dasharray:none;stroke-dashoffset:0;stroke-opacity:1" transform="translate(-38.775 136.522)"/><path d="M338.775 595.895c50 0 150-50 123.291-104.288-23.29 54.288-123.29 104.288-155.25 54.095-18.04.193-18.04 50.193 31.96 50.193m-10.927-110.667c2.456 10.032.857 26.176 23.07 35.31 22.213 9.133 108.952-21.252 77.097-71.256.41 25.692-52.178 70.481-100.167 35.946" style="opacity:1;vector-effect:none;fill:#ffe8b6;fill-opacity:1;stroke-width:10.40691662;stroke-linecap:butt;stroke-linejoin:miter;stroke-miterlimit:4;stroke-dasharray:none;stroke-dashoffset:0;stroke-opacity:1" transform="translate(-38.775 136.522)"/><path d="M749.69 714.98c13.165 18.928 14.545 76.791-26.075 94.639-40.621 17.848-64.936 27.934-53.757-77.263s71.273-29.923 79.831-17.376" style="opacity:1;vector-effect:none;fill:#662113;fill-opacity:1;stroke:none;stroke-width:8.66613388;stroke-linecap:butt;stroke-linejoin:miter;stroke-miterlimit:4;stroke-dasharray:none;stroke-dashoffset:0;stroke-opacity:1;paint-order:normal"/><path d="M674.038 788.16c-13.115-21.274-1.01-185.954 51.222-145.196 27.661 21.585-3.67 31.027 24.633 72.43 13.917 65.777-62.74 94.038-75.855 72.765" style="opacity:1;vector-effect:none;fill:#c1694f;fill-opacity:1;stroke:none;stroke-width:8.66613388;stroke-linecap:butt;stroke-linejoin:miter;stroke-miterlimit:4;stroke-dasharray:none;stroke-dashoffset:0;stroke-opacity:1;paint-order:normal"/><path d="M608.656 800.12c-2.701-56.92 39.55-89.977.454-219.977 72.798-1.48 74.825 40.888 42.115 200.763-12.383 2.388-30.955 12.533-42.569 19.214" style="opacity:1;vector-effect:none;fill:#662113;fill-opacity:1;stroke:none;stroke-width:8.66613388;stroke-linecap:butt;stroke-linejoin:miter;stroke-miterlimit:4;stroke-dasharray:none;stroke-dashoffset:0;stroke-opacity:1;paint-order:normal"/><path d="M608.656 800.12c-11.462 6.618-27.071 12.425-74.217 1.858-29.499-6.612-54.471-15.046-47.758-42.293 110.373-57.57 60.145-180.46 122.429-179.542 64.057 4.488 21.881 148.53-.454 219.977" style="opacity:1;vector-effect:none;fill:#c1694f;fill-opacity:1;stroke:none;stroke-width:8.66613388;stroke-linecap:butt;stroke-linejoin:miter;stroke-miterlimit:4;stroke-dasharray:none;stroke-dashoffset:0;stroke-opacity:1;paint-order:normal"/><path d="M837.95 707.718c-48.453-1.028-77.134 18.858-81.231-7.013-4.098-25.872 140.875-202.071 160.283-121.552 19.41 80.52-30.598 129.593-79.052 128.565" style="opacity:1;vector-effect:none;fill:#662113;fill-opacity:1;stroke:none;stroke-width:8.66613388;stroke-linecap:butt;stroke-linejoin:miter;stroke-miterlimit:4;stroke-dasharray:none;stroke-dashoffset:0;stroke-opacity:1;paint-order:normal"/><path d="M756.719 700.705c-16.301-66.37 42.452-30.66.603-103.811 61.44-3.772 146.54-77.79 159.68-17.741 13.14 60.048-77.287 140.302-160.283 121.552" style="opacity:1;vector-effect:none;fill:#c1694f;fill-opacity:1;stroke:none;stroke-width:8.66613388;stroke-linecap:butt;stroke-linejoin:miter;stroke-miterlimit:4;stroke-dasharray:none;stroke-dashoffset:0;stroke-opacity:1;paint-order:normal"/></g></svg>