<svg xmlns:osb="http://www.openswatchbook.org/uri/2009/osb" xmlns="http://www.w3.org/2000/svg" width="1000" height="1000"><defs><linearGradient id="a" osb:paint="solid"><stop offset="0" stop-color="#ef9645"/></linearGradient></defs><g transform="translate(0 -32.417)"><ellipse cx="500" cy="699.159" rx="500" ry="277.778" fill="#939598"/><ellipse cx="500" cy="643.603" rx="500" ry="277.778" fill="#f1f2f2"/><ellipse cx="436.953" cy="141.337" rx="174.548" ry="121.304" transform="matrix(.73478 .6783 -.43861 .89868 0 0)" fill="#ffe8b6"/><ellipse transform="matrix(.73478 .6783 -.43861 .89868 0 0)" ry="121.304" rx="174.548" cy="110.083" cx="478.36" fill="#ffd983"/><ellipse transform="matrix(.73478 .6783 -.43861 .89868 0 0)" ry="121.304" rx="174.548" cy="-14.613" cx="554.085" fill="#ffe8b6"/><ellipse cx="595.492" cy="-45.867" rx="174.548" ry="121.304" transform="matrix(.73478 .6783 -.43861 .89868 0 0)" fill="#ffd983"/><ellipse cx="719.715" cy="-139.628" rx="174.548" ry="121.304" transform="matrix(.73478 .6783 -.43861 .89868 0 0)" fill="#ffe8b6"/><ellipse transform="matrix(.73478 .6783 -.43861 .89868 0 0)" ry="121.304" rx="174.548" cy="-170.882" cx="761.123" fill="#ffd983"/><ellipse transform="matrix(.73478 .6783 -.43861 .89868 0 0)" ry="106.52" rx="153.275" cy="-205.91" cx="894.033" fill="#ffe8b6"/><ellipse cx="930.394" cy="-233.355" rx="153.275" ry="106.52" transform="matrix(.73478 .6783 -.43861 .89868 0 0)" fill="#ffd983"/><path d="M800 782.417c-125.725 115.412-190.967 50-300 50-109.033 0-250 100-350-50S8.768 543.772 169.122 490.903c146.53 186.982 193.143 8.256 323.527 22.581 66.009 7.253 140.682-27.057 188.939 3.617 97.64 62.065 133.383 28.78 220.344.407 116.996 101.66 61.79 178.264 19.31 213.958-32.927 27.666-66.345.557-121.242 50.95z" fill="#ffcc4d"/><path d="M500.714 759.56c-150 0-100.714 72.857-200.714 72.857S228.951 727.56 167.503 689.868c-73.695-45.204 68.617-75.07 181.75-97.294C462.383 570.35 650.713 759.56 500.713 759.56z" fill="#dd2e44"/><path d="M169.126 490.901c97.114 123.199 142.744 58.796 228.522 9.167 60.592 45.956 75.828-18.814 139.22-28.348 63.602 59.473 89.122 19.217 138.455 18.238 73.783 43.598 80.762 50.724 115.266 61.83-51.222 7.235-104.571-24.518-176.477-33.526-81.97-10.268-182.542 3.26-234.691 36.572-92.662 61.349-418.36 7.599-210.295-63.933z" fill="#ffb703"/><path d="M422.854 644.353c1.977-7.378 1.602-15.287-1.863-23.186-5.214-11.916-16.537-19.805-29.285-21.99 1.582-3.549 2.227-7.91.406-13.404-6.193-18.545-30.909-6.078-49.444-30.794-15.36 9.21-18.493 22.978-17.764 34.499-14.07 2.508-22.188 5.536-22.188 5.536v.01c-8.409 3.404-14.351 11.646-14.351 21.272 0 5.1 1.717 9.772 4.537 13.581l-4.995 1.863h.01c-14.403 5.38-24.56 18.39-24.56 33.604 0 6.473 1.988 12.457 5.204 17.713-17.546 7.805-29.785 24.872-29.785 44.812 19.105 72.125 102.456 43.996 146.938 31.69 44.483-12.305 114.286-77.142 37.14-115.206z" fill="#f5f8fa"/><path d="M300 732.417c50 0 150-50 123.29-104.288C400 682.417 300 732.417 268.04 682.224 250 682.417 250 732.417 300 732.417zm-10.927-110.668c2.456 10.033.857 26.177 23.07 35.31 22.213 9.134 108.951-21.251 77.096-71.255.412 25.691-52.177 70.48-100.166 35.945z" fill="#ffe8b6"/><path d="M749.69 714.98c13.165 18.928 14.545 76.791-26.075 94.639-40.621 17.848-64.936 27.934-53.757-77.263 11.179-105.197 71.273-29.923 79.831-17.376 8.559 12.547 0 0 0 0z" fill="#662113"/><path d="M674.038 788.16c-13.115-21.274-1.01-185.954 51.222-145.196 27.661 21.585-3.67 31.027 24.633 72.43 13.917 65.777-62.74 94.038-75.855 72.765z" fill="#c1694f"/><path d="M608.656 800.12c-2.701-56.92 39.55-89.977.454-219.977 72.798-1.48 74.825 40.888 42.115 200.763-12.383 2.388-30.955 12.533-42.569 19.214z" fill="#662113"/><path d="M608.656 800.12c-11.462 6.618-27.071 12.425-74.217 1.858-29.499-6.612-54.471-15.046-47.758-42.293 110.373-57.57 60.145-180.46 122.429-179.542 64.057 4.488 21.881 148.53-.454 219.977z" fill="#c1694f"/><path d="M837.95 707.718c-48.453-1.028-77.134 18.858-81.231-7.013-4.098-25.872 140.875-202.071 160.283-121.552 19.41 80.52-30.598 129.593-79.052 128.565z" fill="#662113"/><path d="M756.719 700.705c-16.301-66.37 42.452-30.66.603-103.811 61.44-3.772 146.54-77.79 159.68-17.741 13.14 60.048-77.287 140.302-160.283 121.552z" fill="#c1694f"/></g></svg>