<svg xmlns="http://www.w3.org/2000/svg" width="1000" height="1000"><g transform="translate(0 -32.417)"><path d="M347.717 951.807c-2.694-5-6.945-8.39-11.584-10.862-44.365-47.393-12.862-102.98-12.862-102.98 0-15.363 27.78-55.56 0-55.56l-27.78 27.78c-27.78 27.78-27.78 111.12-27.78 111.12h-55.56c-15.363 0-27.78 12.417-27.78 27.78 0 15.362 12.417 27.78 27.78 27.78h30.78l-6.167 3.333c-13.501 7.306-18.53 24.14-11.223 37.642 7.306 13.5 24.14 18.529 37.67 11.223l73.31-39.642c13.474-7.279 18.502-24.113 11.196-37.614M787.834 921.276h-55.56s0-83.34-27.78-111.12l-27.78-27.78c-27.78 0 0 40.198 0 55.56 0 0 31.53 55.588-12.835 102.98-4.667 2.473-8.89 5.862-11.612 10.863-7.306 13.5-2.278 30.363 11.223 37.642l73.312 39.642c13.5 7.306 30.363 2.278 37.67-11.223 7.306-13.501 2.278-30.364-11.224-37.642l-6.167-3.362h30.753c15.362 0 27.78-12.417 27.78-27.78 0-15.362-12.418-27.78-27.78-27.78" style="fill:#ffac33;stroke-width:27.78000069"/><path d="M833.304 416.958C829.797 252.872 700 100.188 500 87.125c-14.492-23.164-46.897-43.16-83.34-27.029-28.752 14.39-5.362 21.307 27.669 28.502-157.54 26.53-277.689 163.236-277.689 328.36 0 1.445.278 2.834.278 4.278h-.278c-27.78 138.9-83.34 222.24-111.12 277.8-12.418 24.863 0 83.34 55.56 55.56 33.086-16.557 66.033-53.115 93.257-103.203C247.257 780.71 335.153 893.496 500 893.496S752.742 780.71 795.663 651.393C822.887 701.481 816.914 765.86 850 782.417c55.56 27.78 59.387 9.21 50-100-25.114-150-67.07-158.11-66.696-265.459" style="fill:#4a412a;stroke-width:27.78000069"/><path d="M583.284 421.236c0 46.032-37.253 11.18-83.284 11.18s-83.396 34.852-83.396-11.18 37.309-83.34 83.34-83.34 83.34 37.309 83.34 83.34" style="fill:#f4900c;stroke-width:27.78000069;fill-opacity:1"/><circle cx="319.377" cy="351.786" r="69.369" style="fill:#f5f8fa;stroke-width:15.05182457;fill-opacity:1"/><circle cx="680.517" cy="351.786" r="41.67" style="fill:#f5f8fa;stroke-width:15.05182457;fill-opacity:1"/></g></svg>