<?xml version="1.0" encoding="UTF-8" standalone="no"?>
<!-- Created with Inkscape (http://www.inkscape.org/) -->

<svg
   xmlns:dc="http://purl.org/dc/elements/1.1/"
   xmlns:cc="http://creativecommons.org/ns#"
   xmlns:rdf="http://www.w3.org/1999/02/22-rdf-syntax-ns#"
   xmlns:svg="http://www.w3.org/2000/svg"
   xmlns="http://www.w3.org/2000/svg"
   xmlns:sodipodi="http://sodipodi.sourceforge.net/DTD/sodipodi-0.dtd"
   xmlns:inkscape="http://www.inkscape.org/namespaces/inkscape"
   width="1000"
   height="1000"
   viewBox="0 0 1000 1000"
   version="1.1"
   id="svg8"
   inkscape:version="0.92.4 5da689c313, 2019-01-14"
   sodipodi:docname="ugly.svg">
  <defs
     id="defs2" />
  <sodipodi:namedview
     id="base"
     pagecolor="#ffffff"
     bordercolor="#666666"
     borderopacity="1.0"
     inkscape:pageopacity="0.0"
     inkscape:pageshadow="2"
     inkscape:zoom="0.49497476"
     inkscape:cx="510.7542"
     inkscape:cy="427.87974"
     inkscape:document-units="px"
     inkscape:current-layer="layer1"
     showgrid="true"
     inkscape:window-width="1916"
     inkscape:window-height="1056"
     inkscape:window-x="0"
     inkscape:window-y="20"
     inkscape:window-maximized="1"
     units="px"
     gridtolerance="10"
     inkscape:snap-bbox="true"
     inkscape:bbox-paths="true"
     inkscape:bbox-nodes="true"
     inkscape:snap-bbox-edge-midpoints="true"
     inkscape:snap-bbox-midpoints="true"
     inkscape:object-paths="true"
     inkscape:snap-intersection-paths="true"
     inkscape:snap-smooth-nodes="true"
     inkscape:snap-midpoints="true">
    <inkscape:grid
       type="xygrid"
       id="grid815"
       units="px"
       spacingx="50"
       spacingy="50" />
  </sodipodi:namedview>
  <metadata
     id="metadata5">
    <rdf:RDF>
      <cc:Work
         rdf:about="">
        <dc:format>image/svg+xml</dc:format>
        <dc:type
           rdf:resource="http://purl.org/dc/dcmitype/StillImage" />
        <dc:title></dc:title>
      </cc:Work>
    </rdf:RDF>
  </metadata>
  <g
     inkscape:label="Layer 1"
     inkscape:groupmode="layer"
     id="layer1"
     transform="translate(0,-32.416667)">
    <path
       style="fill:#ffac33;stroke-width:27.78000069"
       d="m 347.71722,951.80666 c -2.69466,-5.0004 -6.945,-8.38956 -11.58426,-10.86198 C 291.7683,893.552 323.27082,837.96422 323.27082,837.96422 c 0,-15.36234 27.78,-55.56 0,-55.56 l -27.78,27.78 c -27.78,27.78 -27.78,111.12 -27.78,111.12 h -55.56 c -15.36234,0 -27.78,12.41766 -27.78,27.78 0,15.36234 12.41766,27.78 27.78,27.78 h 30.78024 l -6.16716,3.3336 c -13.50108,7.30614 -18.52926,24.14088 -11.22312,37.64188 7.30614,13.5011 24.14082,18.5293 37.66968,11.2231 l 73.31142,-39.64202 c 13.4733,-7.27836 18.50148,-24.11304 11.19534,-37.61412 z"
       id="path1633"
       inkscape:connector-curvature="0" />
    <path
       style="fill:#ffac33;stroke-width:27.78000069"
       d="m 787.83372,921.27642 h -55.56 c 0,0 0,-83.34 -27.78,-111.12 l -27.78,-27.78 c -27.78,0 0,40.19766 0,55.56 0,0 31.5303,55.58778 -12.83436,102.98046 -4.66704,2.47242 -8.8896,5.86158 -11.61204,10.86198 -7.30614,13.50108 -2.27796,30.36354 11.22312,37.64189 l 73.31142,39.64215 c 13.50108,7.3061 30.36354,2.278 37.66968,-11.2231 7.30614,-13.5011 2.27796,-30.36364 -11.22312,-37.642 l -6.16716,-3.36138 h 30.75246 c 15.36234,0 27.78,-12.41766 27.78,-27.78 0,-15.36234 -12.41766,-27.78 -27.78,-27.78 z"
       id="path1574"
       inkscape:connector-curvature="0" />
    <path
       sodipodi:nodetypes="ccccscccccscccc"
       inkscape:connector-curvature="0"
       d="M 833.30444,416.95797 C 829.79695,252.87158 700,100.18773 500,87.125199 485.50829,63.961402 453.10264,43.965636 416.66,60.096093 c -28.7523,14.39004 -5.36154,21.30726 27.66888,28.50228 C 286.7885,115.12827 166.64,251.83365 166.64,416.95797 c 0,1.44456 0.2778,2.83356 0.2778,4.27812 H 166.64 c -27.78,138.9 -83.34,222.24 -111.12,277.8 -12.41766,24.8631 0,83.34 55.56,55.56 33.08598,-16.55688 66.03306,-53.11536 93.25746,-103.2027 42.9201,129.3159 130.81602,242.1027 295.66254,242.1027 164.84652,0 252.74244,-112.7868 295.66254,-242.1027 27.2244,50.08734 21.25142,114.46638 54.3374,131.02326 55.56,27.78 59.38725,9.21074 50.00011,-99.99994 C 874.88582,532.41665 832.93024,524.30684 833.30444,416.95797 Z"
       id="path1576"
       style="fill:#4a412a;stroke-width:27.78000069" />
    <path
       inkscape:connector-curvature="0"
       style="fill:#f4900c;stroke-width:27.78000069;fill-opacity:1"
       d="m 583.28444,421.23609 c 0,46.03146 -37.25298,11.18058 -83.28444,11.18058 -46.03146,0 -83.39556,34.85088 -83.39556,-11.18058 0,-46.03146 37.30854,-83.34 83.34,-83.34 46.03146,0 83.34,37.30854 83.34,83.34 z"
       id="path1578"
       sodipodi:nodetypes="sssss" />
    <circle
       cx="319.37674"
       cy="351.78571"
       r="69.369049"
       id="circle1580"
       style="fill:#f5f8fa;stroke-width:15.05182457;fill-opacity:1" />
    <circle
       cx="680.51715"
       cy="351.78571"
       r="41.669998"
       id="circle1582"
       style="fill:#f5f8fa;stroke-width:15.05182457;fill-opacity:1" />
  </g>
</svg>
