<svg xmlns="http://www.w3.org/2000/svg" xmlns:osb="http://www.openswatchbook.org/uri/2009/osb" xmlns:xlink="http://www.w3.org/1999/xlink" width="1000" height="1000"><defs><linearGradient xlink:href="#a" id="c" x1="766.666" x2="850" y1="-228.001" y2="-228.001" gradientTransform="translate(-.001 735.417)" gradientUnits="userSpaceOnUse"/><linearGradient osb:paint="solid" id="a"><stop offset="0" style="stop-color:#664500;stop-opacity:1"/></linearGradient><linearGradient xlink:href="#a" id="d" x1="471.657" x2="2267.722" y1="2294.196" y2="2294.196" gradientTransform="matrix(.26458 0 0 .26458 25.206 32.416)" gradientUnits="userSpaceOnUse"/><linearGradient xlink:href="#b" id="e" x1="437.12" x2="477.72" y1="-109.156" y2="-109.156" gradientTransform="translate(-.001 735.417)" gradientUnits="userSpaceOnUse"/><linearGradient osb:paint="solid" id="b"><stop offset="0" style="stop-color:#ef9645;stop-opacity:1"/></linearGradient></defs><g transform="translate(0 -32.417)"><path d="M1000 532.417c0 165.683-134.317 300-300 300-165.668 0-300.001-134.317-300.001-300 0-165.667 134.333-300 300-300 165.684 0 300 134.333 300 300" style="fill:#ffcc4d;stroke-width:16.66668129"/><ellipse cx="591.666" cy="507.415" rx="41.667" ry="58.333" style="fill:#664500;stroke-width:16.66668129"/><ellipse cx="808.332" cy="507.415" rx="41.667" ry="58.333" style="fill:url(#c);fill-opacity:1;stroke-width:16.66668129"/><path d="M816.666 665.75H583.333c-9.2 0-16.667-7.45-16.667-16.667 0-9.216 7.467-16.666 16.667-16.666h233.333c9.217 0 16.667 7.45 16.667 16.666s-7.45 16.667-16.667 16.667" style="fill:#664500;stroke-width:16.66668129"/><path d="M507.221 446.429c-6.065-.01-12.703.933-20.03 2.858-53.616 14.068-182.389 51.902-213.042 65.12-70.736 30.484-125.12 88.437-124.137 153.439 1.07 70.32 29.469 115.737 131.47 134.138 103.355 18.65 170.69 23.95 210.445 29.834 28.013 4.147 45.822-13.905 49.7-34.395l-.034.391c6.354-24.377 1.602-42.896-8.737-54.242 17.412-2.336 39.105-5.155 55.604-6.99 38.351-4.266 41.255-35.102 32.921-76.303-8.517-42.085-38.238-114.955-53.218-152.373-15.78-39.462-31.717-61.446-60.941-61.477" style="fill:url(#d);fill-opacity:1;stroke-width:16.66729355"/><path d="M1457.334-260.89c-.851.224-2.896.825-3.382 1.035-1.123.484-1.986 1.404-1.97 2.435.016 1.117.467 1.838 2.086 2.13 1.64.296 2.71.38 3.34.473.914.136 1.144-1.216.178-1.336 0 0 .84-.118 1.355-.175.61-.068.655-.558.523-1.212-.135-.668-.607-1.825-.845-2.419-.302-.756-.609-1.108-1.285-.93" style="fill:#ffdc5d;stroke-width:.26458332" transform="translate(-91342.025 16883.864)scale(62.9945)"/><path d="M1458.197-255.356s.08-.723-.625-.795c-.415-.043-.973-.111-1.184-.136-.364-.042-.44-.355-.347-.625.092-.267.66-1.666.795-2.022.1-.264.36-.174.456.017.178.354.484 1.017.525 1.125.092.244-.195.414-.33.169-.091-.166-.431-.964-.431-.964s-.635 1.53-.702 1.725c-.06.17.017.27.186.296s.922.117 1.15.152c.38.06.668.44.507 1.058" style="fill:#ef9645;stroke-width:.26458332" transform="translate(-91342.025 16883.864)scale(62.9945)"/><path d="M1457.52-257.868s-.27.118-.481.194c-.212.077-.135.372.085.313l.575-.152zm.931-2.157c-.103-.219-.347-.093-.288.085.06.178.956 2.317 1.04 2.537.086.22.22.17.153-.06-.067-.228-.778-2.291-.905-2.562" style="fill:#ef9645;stroke-width:.26458332" transform="translate(-91342.025 16883.864)scale(62.9945)"/><path d="M1457.056-258.587c.103.37-.014.818-.117 1.014l.644-.235z" style="fill:#ef9645;stroke-width:.26458332" transform="translate(-91342.025 16883.864)scale(62.9945)"/><path d="M1453.932-259.837c-.851.275-2.033.301-3.068.204-.534-.05-.864-.052-.864.38v2.805c0 .527.193.521.76.446.864-.115 1.357-.325 2.182.356.576.476 2.593-4.709.99-4.191" style="fill:#ffdc5d;stroke-width:.26458332" transform="translate(-91342.025 16883.864)scale(62.9945)"/><path d="M444.464 594.31c6.52 23.284-.882 51.518-7.345 63.902l40.6-14.85z" style="fill:url(#e);fill-opacity:1;stroke-width:16.66729355"/><path d="M247.707 515.54c-53.633 17.334-128.068 18.984-193.254 12.867C20.781 525.257 0 525.125 0 552.341v176.74c0 33.168 12.133 32.818 47.87 28.05 54.452-7.25 85.483-20.45 137.472 22.452 36.266 29.951 163.32-296.645 62.365-264.043" style="fill:#ffdc5d;stroke-width:16.66729355"/><path d="M247.707 515.54c-53.633 17.334-128.068 18.984-193.254 12.867C20.781 525.257 0 525.125 0 552.341v176.74c0 33.168 12.133 32.818 47.87 28.05 54.452-7.25 85.483-20.45 137.472 22.452 36.266 29.951 163.32-296.645 62.365-264.043" style="fill:#ffdc5d;stroke-width:16.66729355"/></g></svg>