<svg xmlns:osb="http://www.openswatchbook.org/uri/2009/osb" xmlns="http://www.w3.org/2000/svg" xmlns:xlink="http://www.w3.org/1999/xlink" width="1000" height="1000"><defs><linearGradient gradientTransform="translate(-.001 735.417)" xlink:href="#a" id="c" x1="766.666" y1="-228.001" x2="850" y2="-228.001" gradientUnits="userSpaceOnUse"/><linearGradient id="a" osb:paint="solid"><stop offset="0" stop-color="#664500"/></linearGradient><linearGradient xlink:href="#a" id="d" x1="471.657" y1="2294.196" x2="2267.722" y2="2294.196" gradientUnits="userSpaceOnUse" gradientTransform="matrix(.26458 0 0 .26458 25.206 32.416)"/><linearGradient gradientTransform="translate(-.001 735.417)" xlink:href="#b" id="e" x1="437.12" y1="-109.156" x2="477.72" y2="-109.156" gradientUnits="userSpaceOnUse"/><linearGradient id="b" osb:paint="solid"><stop offset="0" stop-color="#ef9645"/></linearGradient></defs><g transform="translate(0 -32.417)"><path d="M1000 532.417c0 165.683-134.317 300-300 300-165.668 0-300.001-134.317-300.001-300 0-165.667 134.333-300 300-300 165.684 0 300 134.333 300 300" fill="#ffcc4d"/><ellipse cx="591.666" cy="507.415" rx="41.667" ry="58.333" fill="#664500"/><ellipse cx="808.332" cy="507.415" rx="41.667" ry="58.333" fill="url(#c)"/><path d="M816.666 665.75H583.333c-9.2 0-16.667-7.45-16.667-16.667 0-9.216 7.467-16.666 16.667-16.666h233.333c9.217 0 16.667 7.45 16.667 16.666 0 9.217-7.45 16.667-16.667 16.667z" fill="#664500"/><path d="M507.221 446.429c-6.065-.01-12.703.933-20.03 2.858-53.616 14.068-182.389 51.902-213.042 65.12-70.736 30.484-125.12 88.437-124.137 153.439 1.07 70.32 29.469 115.737 131.47 134.138 103.355 18.65 170.69 23.95 210.445 29.834 28.013 4.147 45.822-13.905 49.7-34.395l-.034.391c6.354-24.377 1.602-42.896-8.737-54.242 17.412-2.336 39.105-5.155 55.604-6.99 38.351-4.266 41.255-35.102 32.921-76.303-8.517-42.085-38.238-114.955-53.218-152.373-15.78-39.462-31.717-61.446-60.941-61.477z" fill="url(#d)"/><path d="M461.983 449.287c-53.615 14.067-182.388 51.902-213.041 65.12-70.737 30.483-125.12 88.436-124.137 153.438 1.07 70.32 29.469 115.738 131.47 134.139 103.354 18.65 170.69 23.95 210.445 29.834 57.533 8.517 72.034-76.603 11.181-84.17 0 0 52.853-7.45 85.352-11.067 38.35-4.265 41.255-35.101 32.92-76.303-8.516-42.085-38.237-114.954-53.217-152.372-19.056-47.652-38.339-69.82-80.973-58.62z" fill="#ffdc5d"/><path d="M516.385 797.817s5.04-45.552-39.416-50.086c-26.105-2.664-61.268-6.967-74.585-8.516-22.905-2.665-27.705-22.385-21.853-39.419 5.795-16.817 41.551-104.953 50.087-127.338 6.33-16.617 22.735-10.984 28.763 1.065 11.156 22.284 30.47 64.086 33.034 70.853 5.796 15.4-12.246 26.1-20.781 10.65-5.733-10.45-27.17-60.735-27.17-60.735s-39.951 96.436-44.216 108.687c-3.717 10.667 1.071 17.05 11.717 18.65 10.653 1.6 58.087 7.35 72.45 9.584 23.988 3.736 42.106 27.718 31.97 66.603z" fill="#ef9645"/><path d="M473.769 639.594s-17.053 7.467-30.37 12.25c-13.317 4.8-8.516 23.435 5.355 19.718 13.846-3.736 36.234-9.584 36.234-9.584zm58.604-135.855c-6.489-13.818-21.853-5.865-18.117 5.335 3.716 11.184 60.197 145.972 65.533 159.823 5.354 13.85 13.852 10.65 9.581-3.736-4.22-14.383-48.997-144.372-56.997-161.422z" fill="#ef9645"/><path d="M444.464 594.309c6.52 23.284-.882 51.519-7.345 63.902l40.6-14.85z" fill="#ef9645"/><path d="M247.707 515.54c-53.634 17.334-128.068 18.983-193.255 12.867C20.782 525.257 0 525.125 0 552.34v176.74c0 33.168 12.133 32.818 47.87 28.05 54.452-7.25 85.483-20.45 137.472 22.452 36.266 29.95 163.32-296.645 62.365-264.044z" fill="#ffdc5d"/><path d="M444.464 594.31c6.52 23.284-.882 51.518-7.345 63.902l40.6-14.85z" fill="url(#e)"/><path d="M247.707 515.54c-53.633 17.334-128.068 18.984-193.255 12.867C20.782 525.257 0 525.125 0 552.341v176.74c0 33.168 12.133 32.818 47.87 28.05 54.452-7.25 85.483-20.45 137.472 22.452 36.266 29.951 163.32-296.645 62.365-264.043z" fill="#ffdc5d"/><path d="M247.707 515.54c-53.633 17.334-128.068 18.984-193.255 12.867C20.782 525.257 0 525.125 0 552.341v176.74c0 33.168 12.133 32.818 47.87 28.05 54.452-7.25 85.483-20.45 137.472 22.452 36.266 29.951 163.32-296.645 62.365-264.043z" fill="#ffdc5d"/></g></svg>