<svg xmlns="http://www.w3.org/2000/svg" width="1000" height="1000"><g transform="translate(0 -32.417)"><path d="M575 507.417c0 142.5-75 332.5-75 332.5s-75-190-75-332.5 75-475 75-475 75 332.5 75 475" style="opacity:1;fill:#5c913b;fill-opacity:1;stroke:none;stroke-width:.25828999;stroke-linecap:round;stroke-linejoin:miter;stroke-miterlimit:4;stroke-dasharray:none;stroke-opacity:1;paint-order:normal"/><ellipse cx="500" cy="839.917" rx="50" ry="47.5" style="opacity:1;fill:#5c913b;fill-opacity:1;stroke:none;stroke-width:.25828999;stroke-linecap:round;stroke-linejoin:miter;stroke-miterlimit:4;stroke-dasharray:none;stroke-opacity:1;paint-order:normal"/><path d="M475 863.667h50v168.75h-50z" style="opacity:1;fill:#5c913b;fill-opacity:1;stroke:none;stroke-width:.30790213;stroke-linecap:round;stroke-linejoin:miter;stroke-miterlimit:4;stroke-dasharray:none;stroke-opacity:1;paint-order:normal"/><path d="M711.822 683.233C639.508 765.104 500 839.917 500 839.917s53.328-143.51 125.642-225.382c72.313-81.87 284.135-238.554 284.135-238.554S784.135 601.362 711.822 683.233" style="opacity:1;fill:#5c913b;fill-opacity:1;stroke:none;stroke-width:.19371751;stroke-linecap:round;stroke-linejoin:miter;stroke-miterlimit:4;stroke-dasharray:none;stroke-opacity:1;paint-order:normal"/><path d="M701.21 846.908c-83.093 13.92-201.21-6.991-201.21-6.991s103.465-58.028 186.558-71.947 284.303-6.928 284.303-6.928-186.558 71.947-269.651 85.866" style="opacity:1;fill:#5c913b;fill-opacity:1;stroke:none;stroke-width:.14528812;stroke-linecap:round;stroke-linejoin:miter;stroke-miterlimit:4;stroke-dasharray:none;stroke-opacity:1;paint-order:normal"/><path d="M612.054 936.085C557.25 906.026 500 839.917 500 839.917s88.891 14.046 143.694 44.105 166.857 126.227 166.857 126.227-143.694-44.106-198.497-74.164" style="opacity:1;fill:#5c913b;fill-opacity:1;stroke:none;stroke-width:.10896609;stroke-linecap:round;stroke-linejoin:miter;stroke-miterlimit:4;stroke-dasharray:none;stroke-opacity:1;paint-order:normal"/><path d="M288.178 683.233C360.492 765.104 500 839.917 500 839.917s-53.328-143.51-125.642-225.382c-72.313-81.87-284.135-238.554-284.135-238.554s125.642 225.381 197.955 307.252" style="opacity:1;fill:#5c913b;fill-opacity:1;stroke:none;stroke-width:.19371751;stroke-linecap:round;stroke-linejoin:miter;stroke-miterlimit:4;stroke-dasharray:none;stroke-opacity:1;paint-order:normal"/><path d="M298.79 846.908c83.093 13.92 201.21-6.991 201.21-6.991s-103.465-58.028-186.558-71.947-284.303-6.928-284.303-6.928 186.558 71.947 269.651 85.866" style="opacity:1;fill:#5c913b;fill-opacity:1;stroke:none;stroke-width:.14528812;stroke-linecap:round;stroke-linejoin:miter;stroke-miterlimit:4;stroke-dasharray:none;stroke-opacity:1;paint-order:normal"/><path d="M387.946 936.085C442.75 906.026 500 839.917 500 839.917s-88.891 14.046-143.694 44.105-166.857 126.227-166.857 126.227 143.694-44.106 198.497-74.164" style="opacity:1;fill:#5c913b;fill-opacity:1;stroke:none;stroke-width:.10896609;stroke-linecap:round;stroke-linejoin:miter;stroke-miterlimit:4;stroke-dasharray:none;stroke-opacity:1;paint-order:normal"/></g></svg>